<svg xmlns="http://www.w3.org/2000/svg" viewBox="0 0 264.5833 317.3215"><defs><clipPath clipPathUnits="userSpaceOnUse"><path d="M0 0h792v612H0Z"/></clipPath><style>@media (prefers-color-scheme:dark){.top{fill:#fff}.bottom{fill:#00ace2}}</style></defs><g transform="translate(-121.2202 -122.9412)"><g transform="matrix(7.14 0 0 -7.14 -1420.1275 1514.5926)"><g clip-path="url(#clipPath896)"><g transform="translate(234.3811 171.6863)"><path d="M0 0c-1.666 0-3.016-1.35-3.016-3.016 0-1.665 1.35-3.016 3.016-3.016s3.016 1.351 3.016 3.016C3.013-1.351 1.665-.003 0 0" class="top" fill="#00ace2" style="fill-opacity:1;fill-rule:nonzero;stroke:none"/></g><g transform="translate(215.8547 187.1968)"><path d="m0 0 3.139-3.139C7.078.8 12.525 3.231 18.526 3.231c6.002 0 11.449-2.432 15.388-6.37L37.053 0c-4.74 4.74-11.294 7.694-18.527 7.694C11.294 7.694 4.739 4.74 0 0" class="top" fill="#00ace2" style="fill-opacity:1;fill-rule:nonzero;stroke:none"/></g><g transform="translate(221.5171 181.5344)"><path d="m0 0 3.139-3.139C5.632-.646 9.079.892 12.863.892s7.233-1.538 9.726-4.031L25.729 0c-3.293 3.293-7.848 5.356-12.864 5.356C7.848 5.356 3.294 3.294.001 0" class="top" fill="#00ace2" style="fill-opacity:1;fill-rule:nonzero;stroke:none"/></g><g transform="translate(227.1489 175.9019)"><path d="m0 0 3.139-3.139c2.262 2.257 5.924 2.257 8.186 0L14.464 0a10.183 10.183 0 0 1-7.232 2.985C4.432 2.985 1.876 1.846 0 0" class="top" fill="#00ace2" style="fill-opacity:1;fill-rule:nonzero;stroke:none"/></g><g transform="translate(245.5215 176.7642)"><path d="M0 0c1.662-2.277 2.647-5.078 2.647-8.094 0-7.601-6.186-13.787-13.787-13.787-7.602 0-13.787 6.186-13.787 13.787 0 3.016.984 5.817 2.646 8.094l-3.17 3.17c-2.462-3.108-3.908-7.017-3.908-11.264 0-10.032 8.186-18.218 18.219-18.218 10.032 0 18.218 8.186 18.218 18.218C7.078-3.847 5.601.062 3.17 3.17z" class="bottom" fill="#002843" style="fill-opacity:1;fill-rule:nonzero;stroke:none"/></g></g></g></g></svg>