<svg width="32" height="32" viewBox="0 0 29.1 29.1" xmlns="http://www.w3.org/2000/svg" xmlns:xlink="http://www.w3.org/1999/xlink"><defs><linearGradient id="c"><stop stop-color="#fff" offset="0"/><stop stop-color="#fff" stop-opacity="0" offset="1"/></linearGradient><linearGradient id="a"><stop stop-color="#edd400" offset="0"/><stop stop-color="#edd400" stop-opacity="0" offset="1"/></linearGradient><filter id="filter5386" x="-.01972" y="-.02176" width="1.039" height="1.044" color-interpolation-filters="sRGB"><feGaussianBlur stdDeviation="0.26293105"/></filter><linearGradient id="linearGradient7887" x1="-7.975" x2="-11.01" y1="25.36" y2="-6.568" gradientTransform="matrix(2 0 0 1.933 43.5 .5333)" gradientUnits="userSpaceOnUse"><stop stop-color="#d3d7cf" offset="0"/><stop stop-color="#fff" offset="1"/></linearGradient><linearGradient id="linearGradient7889" x1="-7.852" x2="-5.51" y1="3.755" y2="18.94" gradientUnits="userSpaceOnUse" xlink:href="#c"/><linearGradient id="linearGradient7907" x1="32.81" x2="32.81" y1="21" y2="26.2" gradientTransform="matrix(1.088,0,0,1.086,-1.581,-8.943)" gradientUnits="userSpaceOnUse"><stop stop-color="#2e3436" offset="0"/><stop stop-color="#555753" offset="1"/></linearGradient><linearGradient id="linearGradient7909" x1="28.88" x2="29" y1="29" y2="16" gradientTransform="translate(1,-7)" gradientUnits="userSpaceOnUse" xlink:href="#c"/><linearGradient id="linearGradient7919" x1="30.31" x2="30.31" y1="27.31" y2="24.69" gradientUnits="userSpaceOnUse" xlink:href="#a"/></defs><g transform="matrix(.9999 0 0 .9999 -8.925 -7.411)" enable-background="new"><rect transform="matrix(1.016 0 0 1.016 -.4902 -.2715)" x="15.38" y="2.875" width="32" height="29" rx="3.723" ry="3.723" display="none" fill-rule="evenodd" filter="url(#filter5386)" opacity=".1205"/><g transform="matrix(.8609 0 0 .8609 -2.741 7.746)"><rect x="14.5" y="1.5" width="32" height="29" rx="2.877" ry="2.781" fill="url(#linearGradient7887)" fill-rule="evenodd" stroke="#888a85" stroke-dashoffset=".7" stroke-linecap="round" stroke-linejoin="round" stroke-opacity=".9924"/><path transform="matrix(2.143 0 0 2.087 44.43 -.6302)" d="m-12.5 1.498c-0.573 0-1.002 0.429-1.002 1.002v11c0 0.573 0.429 1.002 1.002 1.002h12c0.573 0 1.002-0.429 1.002-1.002v-11c0-0.573-0.429-1.002-1.002-1.002z" fill="none" stroke="url(#linearGradient7889)" stroke-dashoffset=".7" stroke-linecap="round" stroke-linejoin="round" stroke-opacity=".9924" stroke-width=".4729"/><path d="m29.48 10.07c-0.639 0-1.155 0.516-1.155 1.154v0.288c0 0.293-0.229 0.543-0.544 0.543h-1.563c-0.639 0-1.155 0.704-1.155 1.342v6.445c0 0.638 0.516 1.154 1.155 1.154h8.564c0.639 0 1.155-0.516 1.155-1.154v-6.445c0-0.638-0.516-1.342-1.155-1.342h-1.563c-0.262 0.02-0.544-0.186-0.544-0.526v-0.305c0-0.638-0.516-1.154-1.155-1.154z" fill="url(#linearGradient7907)" fill-rule="evenodd"/><path d="m29.56 9.438c-1.109 0-1.984 0.909-2.062 2h-0.938c-1.159 0-2.125 0.965-2.125 2.125v5.874c0 1.16 0.966 2.125 2.125 2.125h7.876c1.159 0 2.125-0.965 2.125-2.125v-5.874c0-1.16-0.966-2.125-2.125-2.125h-0.938c-0.08-1.092-0.953-2-2.063-2z" fill="none" stroke="url(#linearGradient7909)" stroke-dashoffset=".7" stroke-linecap="round"/><g transform="translate(1,-8)" fill="none" stroke="url(#linearGradient7919)" stroke-linecap="round" stroke-width="1px"><path d="m26.5 26.5v-2"/><path d="m28.5 26.5v-2"/><path d="m30.5 26.5v-2"/><path d="m32.5 26.5v-2"/></g></g></g><text transform="translate(-96.22 -126.5)" x="100.26" y="142.24" fill="#f0f" font-family="sans-serif" font-size="14.01" stroke-width=".35"><tspan x="100.26" y="142.24">@</tspan></text></svg>
