<svg width="32.95" height="37.85" version="1.1" viewBox="0 0 32.95 37.85" xmlns="http://www.w3.org/2000/svg" xmlns:xlink="http://www.w3.org/1999/xlink"><defs><radialGradient id="radialGradient73" cx="157.3" cy="30.8" r="1.031" gradientUnits="userSpaceOnUse" xlink:href="#f"/></defs><radialGradient id="a" cx="99.48" cy="14.74" r="29.13" gradientTransform="matrix(5.673,4e-8,-1e-8,1.673,-488.7,4.898)" gradientUnits="userSpaceOnUse"><stop stop-color="#f6f6f5" offset="0"/><stop stop-color="#e1e1dd" offset=".6022"/><stop stop-color="#ccccc6" offset="1"/></radialGradient><clipPath id="b"><rect x="68.78" y="-.0933" width="58.26" height="58.26" rx="2.648"/></clipPath><filter id="c" x="-.021" y="-.021" width="1.042" height="1.042" color-interpolation-filters="sRGB"><feGaussianBlur stdDeviation=".28282197"/></filter><radialGradient id="d" cx="105.2" cy="-.3655" r="29.4" gradientTransform="matrix(3.54,0,0,3.507,-267.2,1.189)" gradientUnits="userSpaceOnUse" xlink:href="#e"/><linearGradient id="e"><stop stop-color="#fff" offset="0"/><stop stop-color="#fff" stop-opacity="0" offset="1"/></linearGradient><radialGradient id="f" cx="157.3" cy="30.8" r="1.031" gradientUnits="userSpaceOnUse"><stop stop-color="#fff" offset="0"/><stop stop-color="#b4b4b4" offset="1"/></radialGradient><linearGradient id="g" x1="-2.242" x2="-5.476" y1="35.85" y2="26.52" gradientUnits="userSpaceOnUse"><stop stop-color="#878983" offset="0"/><stop stop-color="#d4d4d3" offset="1"/></linearGradient><clipPath id="h"><path d="m-6.562 24.53c-0.3877 0-0.6917 0.219-0.9062 0.469l-0.031-0.03-0.031 0.06-0.3438 0.313-4.25 1.218c-0.03 0-0.06 0.02-0.09 0.03-0.549 0.274-0.902 0.554-1.094 0.937-0.192 0.384-0.116 0.867 0.125 1.156 0.329 0.394 0.858 0.553 1.407 0.657l-0.407 0.437c-0.06 0.05-0.1 0.116-0.125 0.188-0.03 0.121-0.07 0.316-0.125 0.5-0.02 0.04-0.03 0.08-0.03 0.125v6.656c0 0.299 0.113 0.582 0.313 0.813 0.199 0.23 0.511 0.406 0.875 0.406h7.843c0.3236 0 0.6569-0.116 0.9063-0.375l4.651-4.81c0.2259-0.235 0.3437-0.539 0.3437-0.875v-6.625c0-0.335-0.1178-0.64-0.3437-0.875-0.2227-0.229-0.5504-0.375-0.874-0.375z"/></clipPath><filter id="i" x="-.03844" y="-.04352" width="1.077" height="1.087" color-interpolation-filters="sRGB"><feGaussianBlur stdDeviation=".1491362"/></filter><linearGradient id="j" x1="4.502" x2=".8896" y1="58.88" y2="54.32" gradientUnits="userSpaceOnUse"><stop stop-color="#e6e7e5" offset="0"/><stop stop-color="#a5a79f" offset=".2782"/><stop stop-color="#c7c9c3" offset=".7827"/><stop stop-color="#fff" offset="1"/></linearGradient><linearGradient id="k" x1="-4.221" x2="-4.221" y1="59.88" y2="54.71" gradientTransform="matrix(.9643 0 0 .9722 -.25 1.694)" gradientUnits="userSpaceOnUse" xlink:href="#l"/><linearGradient id="l"><stop stop-color="#fff" offset="0"/><stop stop-color="#d3d7cf" offset="1"/></linearGradient><linearGradient id="m" x1="-5.989" x2="-7.359" y1="27.14" y2="30" gradientUnits="userSpaceOnUse" xlink:href="#n"/><linearGradient id="n"><stop offset="0"/><stop stop-opacity="0" offset="1"/></linearGradient><linearGradient id="o" x1="-4.156" x2="-4.156" y1="37.15" y2="29.99" gradientUnits="userSpaceOnUse" xlink:href="#e"/><filter id="p" x="-.02026" y="-.02354" width="1.04" height="1.047" color-interpolation-filters="sRGB"><feGaussianBlur stdDeviation=".071069152"/></filter><linearGradient id="q" x1="-8.685" x2="-3.116" y1="28.64" y2="26.56" gradientUnits="userSpaceOnUse"><stop stop-color="#eeeeec" offset="0"/><stop stop-color="#babdb6" offset="1"/></linearGradient><linearGradient id="r" x1="-9.082" x2="-3.735" y1="26.52" y2="25.46" gradientUnits="userSpaceOnUse"><stop stop-color="#eeeeec" offset="0"/><stop stop-color="#fff" offset="1"/></linearGradient><linearGradient id="s" x1="-9.969" x2="-9.969" y1="28.88" y2="27.81" gradientUnits="userSpaceOnUse"><stop stop-color="#888a85" offset="0"/><stop stop-color="#fff" offset="1"/></linearGradient><linearGradient id="t" x1="-3.536" x2="-3.536" y1="55.87" y2="59.44" gradientTransform="matrix(1,0,0,1.029,-4,-25.14)" gradientUnits="userSpaceOnUse"><stop stop-color="#555753" offset="0"/><stop stop-color="#d3d7cf" offset="1"/></linearGradient><linearGradient id="u" x1="-97.16" x2="-96.72" y1="153" y2="149.2" gradientUnits="userSpaceOnUse"><stop stop-color="#4d4d4d" stop-opacity=".1604" offset="0"/><stop stop-color="#181818" offset="1"/></linearGradient><linearGradient id="v" x1="-75.8" x2="-71.92" y1="164.1" y2="162.6" gradientUnits="userSpaceOnUse"><stop stop-color="#729fcf" offset="0"/><stop stop-color="#729fcf" stop-opacity="0" offset="1"/></linearGradient><linearGradient id="w" x1="-68.81" x2="-67.77" y1="151.6" y2="157.1" gradientUnits="userSpaceOnUse"><stop stop-color="#fff" offset="0"/><stop stop-color="#fff" stop-opacity="0" offset="1"/></linearGradient><filter id="x" x="-.03625" y="-.04222" width="1.071" height="1.083" color-interpolation-filters="sRGB"><feGaussianBlur stdDeviation=".16679387"/></filter><linearGradient id="y" x1="-4.11" x2="-4.11" y1="58.81" y2="55" gradientTransform="matrix(1.125,0,0,1.167,-94.12,79.14)" gradientUnits="userSpaceOnUse" xlink:href="#l"/><linearGradient id="z" x1="-96.4" x2="-97.77" y1="145.7" y2="147.9" gradientUnits="userSpaceOnUse" xlink:href="#n"/><clipPath id="A"><path d="m-95.3 143.8s-4.189 3.27-8.1 6.5c-1.95 1.62-3.69 3.22-4.72 4.78-0.51 0.78-0.98 1.62-0.65 2.78 0.16 0.58 0.61 1.12 1.09 1.41 0.48 0.28 0.96 0.4 1.5 0.47 2.13 0.24 4.73-0.4 7.849-1.28 3.113-0.89 6.669-2.09 10.25-3.25 3.581-1.17 7.196-2.31 10.34-3 3.147-0.7 5.835-0.89 7.375-0.5 0.729 0.18 0.745 0.3 0.75 0.31 0 0 0.06 0.33-0.219 0.94-0.567 1.2-2.245 3.11-4.187 4.93-3.885 3.64-8.844 7.13-8.844 7.13l1.75 2.44s5.041-3.52 9.156-7.38c2.058-1.93 3.879-3.89 4.813-5.87 0.466-1 0.776-2.12 0.343-3.25-0.433-1.14-1.541-1.87-2.812-2.19-2.46-0.62-5.444-0.21-8.781 0.53-3.337 0.73-7.019 1.85-10.62 3.03-3.607 1.18-7.129 2.4-10.12 3.25-2.913 0.83-5.293 1.22-6.473 1.13 0.62-0.95 2.3-2.56 4.16-4.1 3.721-3.08 7.969-6.37 7.969-6.37z"/></clipPath><mask id="B" maskUnits="userSpaceOnUse"><rect x="-115.6" y="147" width="51.28" height="17.34" rx=".6657" fill="url(#C)" fill-rule="evenodd" stroke-width="2"/></mask><linearGradient id="C" x1="-112.3" x2="-112.3" y1="148.9" y2="164.5" gradientUnits="userSpaceOnUse"><stop offset="0"/><stop stop-color="#fff" offset=".2177"/><stop stop-color="#fff" offset=".7659"/><stop offset="1"/></linearGradient><filter id="D" x="-.0125" y="-.04971" width="1.026" height="1.099" color-interpolation-filters="sRGB"><feGaussianBlur stdDeviation="0.001 0.244"/></filter><radialGradient id="G" cx="14.36" cy="34.79" r="8.795" gradientTransform="matrix(1 0 0 .6884 0 10.84)" gradientUnits="userSpaceOnUse" xlink:href="#n"/><filter id="H" x="-.395" y="-.5737" width="1.79" height="2.147" color-interpolation-filters="sRGB"><feGaussianBlur stdDeviation="2.8946329"/></filter><g transform="matrix(.4995 0 0 .4995 -20.95 -5.3)" enable-background="new"><rect x="46.54" y="15.8" width="58.26" height="58.26" rx="2.648" fill="url(#a)" fill-rule="evenodd" stroke-width=".5296"/><rect transform="translate(-22.24,15.89)" x="68.78" y="-.0933" width="58.26" height="58.26" rx="2.648" clip-path="url(#b)" fill="none" filter="url(#c)" opacity=".3533" stroke="#000" stroke-width="1.059"/><rect transform="matrix(.9818 0 0 .9638 -20.46 17.46)" x="68.78" y="-.0933" width="58.26" height="58.26" rx="2.648" ry="2.698" clip-path="url(#b)" fill="none" filter="url(#c)" stroke="url(#d)" stroke-width="1.089"/><g fill-rule="evenodd"><g transform="translate(-22.24,16.95)"><circle cx="71.7" cy="3.329" r=".8108" fill="#fff" stroke-width=".7864"/><circle transform="matrix(.7864 0 0 .7864 -52 -21.62)" cx="157.3" cy="31.09" r="1.031" fill="url(#radialGradient73)"/></g><g transform="translate(29.66,16.95)"><circle cx="71.7" cy="3.329" r=".8108" fill="#fff" stroke-width=".7864"/><circle transform="matrix(.7864 0 0 .7864 -52 -21.62)" cx="157.3" cy="31.09" r="1.031" fill="url(#radialGradient73)"/></g><g transform="translate(-22.24,67.8)"><circle cx="71.7" cy="3.329" r=".8108" fill="#fff" opacity=".5435" stroke-width=".7864"/><circle transform="matrix(.7864 0 0 .7864 -52 -21.62)" cx="157.3" cy="31.09" r="1.031" fill="url(#radialGradient73)"/></g><g transform="translate(29.66,67.8)"><circle cx="71.7" cy="3.329" r=".8108" fill="#fff" opacity=".5598" stroke-width=".7864"/><circle transform="matrix(.7864 0 0 .7864 -52 -21.62)" cx="157.3" cy="31.09" r="1.031" fill="url(#radialGradient73)"/></g></g></g><g transform="matrix(.4995 0 0 .4995 -6.29 -20.2)" enable-background="new"><path transform="matrix(2.132,0,0,2.132,53.43,11.2)" d="m-6.562 24.53c-0.3877 0-0.6917 0.219-0.9062 0.469l-0.031-0.03-0.031 0.06-0.3438 0.313-4.25 1.218c-0.03 0-0.06 0.02-0.09 0.03-0.549 0.274-0.902 0.554-1.094 0.937-0.192 0.384-0.116 0.867 0.125 1.156 0.329 0.394 0.858 0.553 1.407 0.657l-0.407 0.437c-0.06 0.05-0.1 0.116-0.125 0.188-0.03 0.121-0.07 0.316-0.125 0.5-0.02 0.04-0.03 0.08-0.03 0.125v6.656c0 0.299 0.113 0.582 0.313 0.813 0.199 0.23 0.511 0.406 0.875 0.406h7.843c0.3236 0 0.6569-0.116 0.9063-0.375l4.651-4.81c0.2259-0.235 0.3437-0.539 0.3437-0.875v-6.625c0-0.335-0.1178-0.64-0.3437-0.875-0.2227-0.229-0.5504-0.375-0.874-0.375z" clip-path="url(#h)" fill="#7d7d7d" fill-rule="evenodd" filter="url(#i)" stroke="url(#g)" stroke-dashoffset=".7" stroke-linecap="round" stroke-linejoin="round" stroke-width=".4969"/><g transform="matrix(2.107,0,0,2.107,53.29,11.99)" enable-background="new"><g fill-rule="evenodd"><g transform="matrix(1.167,0,0,1.2,-3.833,-36.2)"><path d="m-2.347 50.84c-0.2093 0-0.3897 0.103-0.5112 0.255l-4.106 4.09c-0.036 0.135-0.1013 0.278-0.1437 0.416v5.644c0 0.372 0.3031 0.671 0.6709 0.671h6.838c0.1839 0 0.3593-0.07 0.4793-0.191l4.09-4.09c0.12-0.121 0.1917-0.294 0.1917-0.479v-5.645c0-0.186-0.072-0.358-0.1917-0.479-0.1218-0.122-0.2954-0.192-0.4793-0.192z" fill="url(#j)"/><path d="m-6.374 55.17h6.462c0.3469 0 0.6262 0.284 0.6262 0.638v5.39c0 0.354-0.2793 0.638-0.6262 0.638h-6.462c-0.3468 0-0.6261-0.284-0.6261-0.638v-5.39c0-0.354 0.2793-0.638 0.6261-0.638z" fill="url(#k)"/></g><path d="m-5 25-5 5h4l5-5z" fill="url(#m)" opacity=".1231"/><path d="m-1 25-9.5 4h3.5l5-3z" fill="#babdb6"/></g><path transform="matrix(1.012 0 0 1.012 .06759 -.3893)" d="m-6.645 25.05c-0.026 0-0.059 0-0.168 0.134-0.032 0.02-0.066 0.05-0.1008 0.07-0.021 0.02-0.044 0.04-0.067 0.07-0.021 0.02-0.044 0.05-0.067 0.07h-0.034c-0.021 0.02-0.044 0.05-0.067 0.07l-0.2016 0.202c-0.1149 0.108-0.2527 0.188-0.4032 0.235l-4.57 1.31c-0.431 0.224-0.574 0.376-0.638 0.504-1e-3 0 0.04 0.145 0 0.101 0.09 0.106 0.387 0.271 0.907 0.37 0.365 0.07 0.663 0.337 0.781 0.691s0.04 0.744-0.21 1.022l-0.37 0.403c-0.02 0.1-0.06 0.183-0.1 0.336v7.058c0 0.06 0 0.124 0.07 0.202 0.03 0.04 0.111 0.07 0.168 0.07h8.433c0.1 0 0.1811-0.01 0.2352-0.07-2e-4 -0.01-2e-4 -0.02 0-0.03l5.006-5.174c0.056-0.06 0.067-0.09 0.067-0.202v-7.123c0-0.116-0.011-0.176-0.067-0.235-0.04-0.04-0.1666-0.07-0.2016-0.07h-8.4z" fill="none" filter="url(#p)" opacity=".5336" stroke="url(#o)" stroke-dashoffset=".7" stroke-linecap="round" stroke-linejoin="round" stroke-width=".267"/><g fill-rule="evenodd"><path d="m-1 25-11 2.5 2 1.5h3l5-3z" fill="url(#q)"/><path d="m-5 25-7 2h4l7-2z" fill="url(#r)"/><path d="m-12 27h4c-2 1-0.5 2 1 2h-4c-1.5 0-3-1-1-2z" fill="url(#s)"/><path d="m-9.594 32h4.188c0.2248 0 0.4058 0.195 0.4058 0.438v3.125c0 0.242-0.181 0.437-0.4058 0.437h-4.188c-0.2248 0-0.4058-0.195-0.4058-0.437v-3.125c0-0.243 0.181-0.438 0.4058-0.438z" fill="url(#t)"/></g></g><path transform="matrix(2.107,0,0,2.107,242.9,-226.7)" d="m-95.21 149.3-1.257 2.45h-3.519l2.011-2.45z" fill="url(#u)" fill-rule="evenodd" opacity=".2337"/><path transform="matrix(2.107,0,0,2.107,242.9,-226.7)" d="m-95.3 143.8s-4.189 3.27-8.1 6.5c-8.43 7.81-9.38 8.55-11.9 11.07-3.39 3.38-0.78 5.39 2.93 1.68 2.91-2.91 3.32-3.49 10.92-10.44 3.565-3.26 7.969-6.37 7.969-6.37z" fill="url(#v)" fill-rule="evenodd"/><path transform="matrix(2.107,0,0,2.107,242.9,-226.7)" d="m-94.32 144.6s-16.23 13.78-20.88 18.51" fill="none" filter="url(#x)" opacity=".1903" stroke="url(#w)"/><g fill-rule="evenodd"><path transform="matrix(2.107,0,0,2.107,242.9,-226.7)" d="m-99.9 143.3 0.317 2h4.188c0.224 0 0.406 0.19 0.406 0.44v3.12l2-0.31v-4.47c0-0.43-0.314-0.78-0.719-0.78z" fill="url(#y)"/><path transform="matrix(2.107,0,0,2.107,242.9,-226.7)" d="m-99.58 145.3h4.188c0.225 0 0.406 0.19 0.406 0.43v3.13c0 0.24-0.181 0.44-0.406 0.44h-4.188c-0.225 0-0.406-0.2-0.406-0.44v-3.13c0-0.24 0.181-0.43 0.406-0.43z" fill="url(#z)" opacity=".3545"/><ellipse transform="matrix(2.436 0 0 3.184 15.98 -28.92)" cx="14.36" cy="34.79" rx="8.795" ry="6.055" fill="url(#G)" filter="url(#H)" opacity=".1535"/></g><text x="30.579" y="109.89" fill="#ff00ff" font-family="sans-serif" font-size="47.4px" stroke-width="1.185"><tspan x="30.579" y="109.89" stroke-width="1.185">@</tspan></text></g></svg>
