<svg width="32" height="32" version="1.1" viewBox="0 0 48 48" xmlns="http://www.w3.org/2000/svg" xmlns:xlink="http://www.w3.org/1999/xlink"><defs><linearGradient id="linearGradient7887" x1="-7.975" x2="-11.01" y1="25.36" y2="-6.568" gradientTransform="matrix(2 0 0 1.933 43.5 .5333)" gradientUnits="userSpaceOnUse"><stop stop-color="#d3d7cf" offset="0"/><stop stop-color="#fff" offset="1"/></linearGradient><linearGradient id="linearGradient7889" x1="-7.852" x2="-5.51" y1="3.755" y2="18.94" gradientUnits="userSpaceOnUse"><stop stop-color="#fff" offset="0"/><stop stop-color="#fff" stop-opacity="0" offset="1"/></linearGradient><filter id="filter5386" x="-.01972" y="-.02176" width="1.039" height="1.044" color-interpolation-filters="sRGB"><feGaussianBlur stdDeviation="0.26293105"/></filter><radialGradient id="radialGradient3390" cx="24.84" cy="30.78" r="23" gradientTransform="matrix(1.156 0 0 .5026 10.03 34.95)" gradientUnits="userSpaceOnUse"><stop stop-color="#fff" offset="0"/><stop stop-color="#eeeeec" offset="1"/></radialGradient><linearGradient id="linearGradient7907" x1="32.81" x2="32.81" y1="21" y2="26.2" gradientTransform="matrix(1.631 0 0 1.63 98.35 78.44)" gradientUnits="userSpaceOnUse"><stop stop-color="#2e3436" offset="0"/><stop stop-color="#555753" offset="1"/></linearGradient><linearGradient id="linearGradient7909" x1="28.88" x2="29" y1="29" y2="16" gradientTransform="matrix(1.5 0 0 1.5 102.2 81.36)" gradientUnits="userSpaceOnUse"><stop stop-color="#fff" offset="0"/><stop stop-color="#fff" stop-opacity="0" offset="1"/></linearGradient><linearGradient id="linearGradient7919" x1="30.31" x2="30.31" y1="27.31" y2="24.69" gradientUnits="userSpaceOnUse"><stop stop-color="#edd400" offset="0"/><stop stop-color="#edd400" stop-opacity="0" offset="1"/></linearGradient></defs><clipPath id="b"><rect x="68.78" y="-.0933" width="58.26" height="58.26" rx="2.648"/></clipPath><filter id="c" x="-.021" y="-.021" width="1.042" height="1.042" color-interpolation-filters="sRGB"><feGaussianBlur stdDeviation=".28282197"/></filter><clipPath id="h"><path d="m-6.562 24.53c-0.3877 0-0.6917 0.219-0.9062 0.469l-0.031-0.03-0.031 0.06-0.3438 0.313-4.25 1.218c-0.03 0-0.06 0.02-0.09 0.03-0.549 0.274-0.902 0.554-1.094 0.937-0.192 0.384-0.116 0.867 0.125 1.156 0.329 0.394 0.858 0.553 1.407 0.657l-0.407 0.437c-0.06 0.05-0.1 0.116-0.125 0.188-0.03 0.121-0.07 0.316-0.125 0.5-0.02 0.04-0.03 0.08-0.03 0.125v6.656c0 0.299 0.113 0.582 0.313 0.813 0.199 0.23 0.511 0.406 0.875 0.406h7.843c0.3236 0 0.6569-0.116 0.9063-0.375l4.651-4.81c0.2259-0.235 0.3437-0.539 0.3437-0.875v-6.625c0-0.335-0.1178-0.64-0.3437-0.875-0.2227-0.229-0.5504-0.375-0.874-0.375z"/></clipPath><filter id="i" x="-.03844" y="-.04352" width="1.077" height="1.087" color-interpolation-filters="sRGB"><feGaussianBlur stdDeviation=".1491362"/></filter><filter id="p" x="-.02026" y="-.02354" width="1.04" height="1.047" color-interpolation-filters="sRGB"><feGaussianBlur stdDeviation=".071069152"/></filter><filter id="x" x="-.03625" y="-.04222" width="1.071" height="1.083" color-interpolation-filters="sRGB"><feGaussianBlur stdDeviation=".16679387"/></filter><clipPath id="A"><path d="m-95.3 143.8s-4.189 3.27-8.1 6.5c-1.95 1.62-3.69 3.22-4.72 4.78-0.51 0.78-0.98 1.62-0.65 2.78 0.16 0.58 0.61 1.12 1.09 1.41 0.48 0.28 0.96 0.4 1.5 0.47 2.13 0.24 4.73-0.4 7.849-1.28 3.113-0.89 6.669-2.09 10.25-3.25 3.581-1.17 7.196-2.31 10.34-3 3.147-0.7 5.835-0.89 7.375-0.5 0.729 0.18 0.745 0.3 0.75 0.31 0 0 0.06 0.33-0.219 0.94-0.567 1.2-2.245 3.11-4.187 4.93-3.885 3.64-8.844 7.13-8.844 7.13l1.75 2.44s5.041-3.52 9.156-7.38c2.058-1.93 3.879-3.89 4.813-5.87 0.466-1 0.776-2.12 0.343-3.25-0.433-1.14-1.541-1.87-2.812-2.19-2.46-0.62-5.444-0.21-8.781 0.53-3.337 0.73-7.019 1.85-10.62 3.03-3.607 1.18-7.129 2.4-10.12 3.25-2.913 0.83-5.293 1.22-6.473 1.13 0.62-0.95 2.3-2.56 4.16-4.1 3.721-3.08 7.969-6.37 7.969-6.37z"/></clipPath><mask id="B" maskUnits="userSpaceOnUse"><rect x="-115.6" y="147" width="51.28" height="17.34" rx=".6657" fill="url(#C)" fill-rule="evenodd" stroke-width="2"/></mask><linearGradient id="C" x1="-112.3" x2="-112.3" y1="148.9" y2="164.5" gradientUnits="userSpaceOnUse"><stop offset="0"/><stop stop-color="#fff" offset=".2177"/><stop stop-color="#fff" offset=".7659"/><stop offset="1"/></linearGradient><filter id="D" x="-.0125" y="-.04971" width="1.026" height="1.099" color-interpolation-filters="sRGB"><feGaussianBlur stdDeviation="0.001 0.244"/></filter><filter id="H" x="-.395" y="-.5737" width="1.79" height="2.147" color-interpolation-filters="sRGB"><feGaussianBlur stdDeviation="2.8946329"/></filter><g opacity=".7"><g transform="matrix(1.297 0 0 1.297 -13.6 -.805)" enable-background="new"><rect x="14.5" y="1.5" width="32" height="29" rx="2.877" ry="2.781" fill="url(#linearGradient7887)" fill-rule="evenodd" stroke="#888a85" stroke-dashoffset=".7" stroke-linecap="round" stroke-linejoin="round" stroke-opacity=".9924"/><path transform="matrix(2.143 0 0 2.087 44.43 -.6302)" d="m-12.5 1.498c-0.573 0-1.002 0.429-1.002 1.002v11c0 0.573 0.429 1.002 1.002 1.002h12c0.573 0 1.002-0.429 1.002-1.002v-11c0-0.573-0.429-1.002-1.002-1.002z" fill="none" stroke="url(#linearGradient7889)" stroke-dashoffset=".7" stroke-linecap="round" stroke-linejoin="round" stroke-opacity=".9924" stroke-width=".4729"/><rect transform="matrix(1.016 0 0 1.016 -.49 -.2715)" x="15.38" y="2.875" width="32" height="29" rx="3.723" ry="3.723" fill-rule="evenodd" filter="url(#filter5386)" opacity=".1205"/></g><g transform="translate(-120.7 -96.27)"><path d="m144.9 107c-0.9585 0-1.733 0.7739-1.733 1.731v0.4317c0 0.4398-0.344 0.8148-0.8156 0.8148h-2.345c-0.9585 0-1.733 1.055-1.733 2.013v9.667c0 0.9575 0.7747 1.731 1.733 1.731h12.85c0.9585 0 1.733-0.7739 1.733-1.731v-9.667c0-0.9575-0.7747-2.013-1.733-2.013h-2.345c-0.3927 0.0265-0.8156-0.2794-0.8156-0.7893v-0.4571c0-0.9575-0.7747-1.731-1.733-1.731z" fill="url(#linearGradient7907)" fill-rule="evenodd" stroke-width="1.5"/><path d="m145.1 106c-1.664 0-2.977 1.362-3.094 3h-1.406c-1.739 0-3.188 1.449-3.188 3.188v8.812c0 1.739 1.449 3.188 3.188 3.188h11.81c1.739 0 3.188-1.449 3.188-3.188v-8.812c0-1.739-1.449-3.188-3.188-3.188h-1.406c-0.1167-1.638-1.43-3-3.094-3z" fill="none" stroke="url(#linearGradient7909)" stroke-dashoffset=".7" stroke-linecap="round" stroke-width="1.5"/><g transform="matrix(1.5 0 0 1.5 102.2 79.86)" fill="none" stroke="url(#linearGradient7919)" stroke-linecap="round" stroke-width="1px"><path d="m26.5 26.5v-2"/><path d="m28.5 26.5v-2"/><path d="m30.5 26.5v-2"/><path d="m32.5 26.5v-2"/></g></g></g><rect x="21.29" y="33.64" width="22.48" height="12.28" rx=".5151" ry=".5277" fill="url(#radialGradient3390)" stroke="#888a85" stroke-dashoffset="1.4" stroke-linecap="round" stroke-width=".7699"/><path d="m28.26 42.08h-2.539l-0.4007 1.116h-1.632l2.332-6.127h1.936l2.332 6.127h-1.632l-0.3965-1.116m-2.134-1.239h1.725l-0.8604-2.335-0.8646 2.335m7.44 1.408c0.3234 0 0.5694-0.1149 0.7381-0.3447 0.1715-0.2298 0.2573-0.5636 0.2573-1.001-5e-6 -0.4377-0.08576-0.7715-0.2573-1.001-0.1687-0.2298-0.4147-0.3447-0.7381-0.3447-0.3234 4e-6 -0.6669 0.1163-0.8412 0.3488-0.1715 0.2298-0.2573 0.5622-0.2573 0.9972-5e-6 0.435 0.08576 0.7688 0.2573 1.001 0.1743 0.2298 0.5178 0.3447 0.8412 0.3447m-1.098-2.975c0.2081-0.2681 0.5333-0.4651 0.7864-0.5909 0.2531-0.1286 0.5441-0.1929 0.8731-0.1929 0.582 4e-6 1.06 0.2257 1.434 0.6771 0.374 0.4487 0.561 1.027 0.561 1.736-5e-6 0.7086-0.187 1.289-0.561 1.74-0.374 0.4487-0.852 0.673-1.434 0.673-0.329 0-0.62-0.06293-0.8731-0.1888-0.2531-0.1286-0.5783-0.3269-0.7864-0.595v0.6648h-1.51v-6.063h1.51v2.139m8.593-0.5294v1.198c-0.2053-0.1368-0.4119-0.238-0.62-0.3037-0.2053-0.06566-0.419-0.09849-0.6411-0.09849-0.4218 5e-6 -0.7508 0.1204-0.987 0.3611-0.2334 0.238-0.3501 0.5718-0.3501 1.001 0 0.4295 0.1167 0.7647 0.3501 1.005 0.2362 0.238 0.5652 0.357 0.987 0.357 0.2362 1e-6 0.4597-0.0342 0.6706-0.1026 0.2137-0.06839 0.4105-0.1696 0.5905-0.3037v1.202c-0.2362 0.08481-0.4766 0.1477-0.7212 0.1888-0.2418 0.04377-0.485 0.06566-0.7297 0.06566-0.852 0-1.518-0.212-1.999-0.6361-0.4808-0.4268-0.7212-1.019-0.7212-1.777 0-0.7578 0.2404-1.349 0.7212-1.773 0.4808-0.4268 1.147-0.6402 1.999-0.6402 0.2474 4e-6 0.4907 0.02189 0.7297 0.06566 0.2418 0.04104 0.4822 0.104 0.7212 0.1888" fill="#2e3436" stroke-width=".7699px"/><rect x="22.07" y="34.4" width="20.93" height="10.69" rx="0" ry="0" fill="none" stroke="#fff" stroke-dashoffset="1.4" stroke-linecap="round" stroke-linejoin="round" stroke-width=".7784"/></svg>
