<svg width="32" height="32" version="1.1" viewBox="0 0 48 48" xmlns="http://www.w3.org/2000/svg" xmlns:xlink="http://www.w3.org/1999/xlink"><defs><linearGradient id="linearGradient7889" x1="-7.852" x2="-5.51" y1="3.755" y2="18.94" gradientUnits="userSpaceOnUse"><stop stop-color="#fff" offset="0"/><stop stop-color="#fff" stop-opacity="0" offset="1"/></linearGradient><filter id="filter5386" x="-.01972" y="-.02176" width="1.039" height="1.044" color-interpolation-filters="sRGB"><feGaussianBlur stdDeviation="0.26293105"/></filter><linearGradient id="linearGradient7893" x1="1.626" x2=".8221" y1="55.22" y2="54.42" gradientUnits="userSpaceOnUse"><stop stop-color="#adb0a8" offset="0"/><stop stop-color="#fff" offset="1"/></linearGradient><linearGradient id="linearGradient7269-5"><stop stop-color="#fff" offset="0"/><stop stop-color="#d3d7cf" offset="1"/></linearGradient><linearGradient id="linearGradient7822-4"><stop offset="0"/><stop stop-opacity="0" offset="1"/></linearGradient><linearGradient id="linearGradient7899" x1="-4.685" x2=".8839" y1="52.64" y2="50.56" gradientTransform="translate(-4,-24)" gradientUnits="userSpaceOnUse"><stop stop-color="#eeeeec" offset="0"/><stop stop-color="#babdb6" offset="1"/></linearGradient><linearGradient id="linearGradient7901" x1="-5.082" x2=".2652" y1="50.52" y2="49.46" gradientTransform="translate(-4,-24)" gradientUnits="userSpaceOnUse"><stop stop-color="#eeeeec" offset="0"/><stop stop-color="#fff" offset="1"/></linearGradient><linearGradient id="linearGradient7903" x1="-5.969" x2="-5.969" y1="52.88" y2="51.81" gradientTransform="translate(-4,-24)" gradientUnits="userSpaceOnUse"><stop stop-color="#888a85" offset="0"/><stop stop-color="#fff" offset="1"/></linearGradient><linearGradient id="linearGradient7905" x1="-3.536" x2="-3.536" y1="55.87" y2="59.44" gradientTransform="matrix(1,0,0,1.029,-4,-25.14)" gradientUnits="userSpaceOnUse"><stop stop-color="#555753" offset="0"/><stop stop-color="#d3d7cf" offset="1"/></linearGradient><linearGradient id="linearGradient399285" x1="5.842" x2="2.206" y1="41.03" y2="46.23" gradientUnits="userSpaceOnUse"><stop stop-color="#fff" offset="0"/><stop stop-color="#fff" stop-opacity="0" offset="1"/></linearGradient><linearGradient id="linearGradient466015" x1="5.256" x2=".9544" y1="40.12" y2="45.21" gradientUnits="userSpaceOnUse"><stop stop-color="#3465a4" offset="0"/><stop stop-color="#3465a4" stop-opacity="0" offset="1"/></linearGradient><linearGradient id="linearGradient471261" x1="5.256" x2=".9544" y1="40.12" y2="45.21" gradientUnits="userSpaceOnUse"><stop stop-color="#729fcf" offset="0"/><stop stop-color="#729fcf" stop-opacity="0" offset="1"/></linearGradient><linearGradient id="linearGradient1567207" x1="1.626" x2=".8221" y1="55.22" y2="54.42" gradientTransform="matrix(.9541 0 0 .9811 13.82 -41.9)" gradientUnits="userSpaceOnUse" xlink:href="#linearGradient7893"/><linearGradient id="linearGradient1567209" x1="-4.221" x2="-4.221" y1="59.88" y2="54.71" gradientTransform="matrix(.9201 0 0 .9538 13.58 -40.24)" gradientUnits="userSpaceOnUse" xlink:href="#linearGradient7269-5"/><linearGradient id="linearGradient1567211" x1="-1.989" x2="-3.359" y1="51.14" y2="54" gradientTransform="matrix(.8176 0 0 .8176 13.69 -31.93)" gradientUnits="userSpaceOnUse" xlink:href="#linearGradient7822-4"/><linearGradient id="linearGradient1567213" x1="-4.685" x2=".8839" y1="52.64" y2="50.56" gradientTransform="matrix(.8176 0 0 .8176 13.69 -31.93)" gradientUnits="userSpaceOnUse" xlink:href="#linearGradient7899"/><linearGradient id="linearGradient1567215" x1="-5.082" x2=".2652" y1="50.52" y2="49.46" gradientTransform="matrix(.8176 0 0 .8176 13.69 -31.93)" gradientUnits="userSpaceOnUse" xlink:href="#linearGradient7901"/><linearGradient id="linearGradient1567217" x1="-5.969" x2="-5.969" y1="52.88" y2="51.81" gradientTransform="matrix(.8176 0 0 .8176 13.69 -31.93)" gradientUnits="userSpaceOnUse" xlink:href="#linearGradient7903"/><linearGradient id="linearGradient1567219" x1="-3.536" x2="-3.536" y1="55.87" y2="59.44" gradientTransform="matrix(.8176 0 0 .8413 13.69 -32.86)" gradientUnits="userSpaceOnUse" xlink:href="#linearGradient7905"/><linearGradient id="linearGradient1567225" x1="-4.11" x2="-4.11" y1="58.81" y2="55" gradientTransform="matrix(.9198 0 0 .9541 13.59 -40.22)" gradientUnits="userSpaceOnUse" xlink:href="#linearGradient7269-5"/><linearGradient id="linearGradient1567227" x1="-6.406" x2="-7.781" y1="32.44" y2="34.56" gradientTransform="matrix(.8176 0 0 .8176 16.96 -12.31)" gradientUnits="userSpaceOnUse" xlink:href="#linearGradient7822-4"/><linearGradient id="linearGradient1623324" x1="1.626" x2=".8221" y1="55.22" y2="54.42" gradientTransform="matrix(.9541 0 0 .9811 35.38 -19.3)" gradientUnits="userSpaceOnUse" xlink:href="#linearGradient7893"/><linearGradient id="linearGradient1623326" x1="-4.221" x2="-4.221" y1="59.88" y2="54.71" gradientTransform="matrix(.9201 0 0 .9538 35.14 -17.64)" gradientUnits="userSpaceOnUse" xlink:href="#linearGradient7269-5"/><linearGradient id="linearGradient1623328" x1="-1.989" x2="-3.359" y1="51.14" y2="54" gradientTransform="matrix(.8176 0 0 .8176 35.25 -9.323)" gradientUnits="userSpaceOnUse" xlink:href="#linearGradient7822-4"/><linearGradient id="linearGradient1623330" x1="-4.685" x2=".8839" y1="52.64" y2="50.56" gradientTransform="matrix(.8176 0 0 .8176 35.25 -9.323)" gradientUnits="userSpaceOnUse" xlink:href="#linearGradient7899"/><linearGradient id="linearGradient1623332" x1="-5.082" x2=".2652" y1="50.52" y2="49.46" gradientTransform="matrix(.8176 0 0 .8176 35.25 -9.323)" gradientUnits="userSpaceOnUse" xlink:href="#linearGradient7901"/><linearGradient id="linearGradient1623334" x1="-5.969" x2="-5.969" y1="52.88" y2="51.81" gradientTransform="matrix(.8176 0 0 .8176 35.25 -9.323)" gradientUnits="userSpaceOnUse" xlink:href="#linearGradient7903"/><linearGradient id="linearGradient1623336" x1="-3.536" x2="-3.536" y1="55.87" y2="59.44" gradientTransform="matrix(.8176 0 0 .8413 35.25 -10.26)" gradientUnits="userSpaceOnUse" xlink:href="#linearGradient7905"/><linearGradient id="linearGradient1623338" x1="-6.406" x2="-7.781" y1="32.44" y2="34.56" gradientTransform="matrix(.8176 0 0 .8176 38.52 10.3)" gradientUnits="userSpaceOnUse" xlink:href="#linearGradient7822-4"/><linearGradient id="linearGradient1623340" x1="-4.11" x2="-4.11" y1="58.81" y2="55" gradientTransform="matrix(.9198 0 0 .9541 35.15 -17.61)" gradientUnits="userSpaceOnUse" xlink:href="#linearGradient7269-5"/><linearGradient id="linearGradient1643253" x1="-7.975" x2="-11.01" y1="25.36" y2="-6.568" gradientTransform="matrix(2 0 0 1.933 43.5 .5333)" gradientUnits="userSpaceOnUse"><stop stop-color="#d3d7cf" offset="0"/><stop stop-color="#fff" offset="1"/></linearGradient><filter id="filter5386-58" x="-.01972" y="-.02176" width="1.039" height="1.044" color-interpolation-filters="sRGB"><feGaussianBlur stdDeviation="0.26293105"/></filter></defs><clipPath id="b"><rect x="68.78" y="-.0933" width="58.26" height="58.26" rx="2.648"/></clipPath><filter id="c" x="-.021" y="-.021" width="1.042" height="1.042" color-interpolation-filters="sRGB"><feGaussianBlur stdDeviation=".28282197"/></filter><clipPath id="h"><path d="m-6.562 24.53c-0.3877 0-0.6917 0.219-0.9062 0.469l-0.031-0.03-0.031 0.06-0.3438 0.313-4.25 1.218c-0.03 0-0.06 0.02-0.09 0.03-0.549 0.274-0.902 0.554-1.094 0.937-0.192 0.384-0.116 0.867 0.125 1.156 0.329 0.394 0.858 0.553 1.407 0.657l-0.407 0.437c-0.06 0.05-0.1 0.116-0.125 0.188-0.03 0.121-0.07 0.316-0.125 0.5-0.02 0.04-0.03 0.08-0.03 0.125v6.656c0 0.299 0.113 0.582 0.313 0.813 0.199 0.23 0.511 0.406 0.875 0.406h7.843c0.3236 0 0.6569-0.116 0.9063-0.375l4.651-4.81c0.2259-0.235 0.3437-0.539 0.3437-0.875v-6.625c0-0.335-0.1178-0.64-0.3437-0.875-0.2227-0.229-0.5504-0.375-0.874-0.375z"/></clipPath><filter id="i" x="-.03844" y="-.04352" width="1.077" height="1.087" color-interpolation-filters="sRGB"><feGaussianBlur stdDeviation=".1491362"/></filter><filter id="p" x="-.02026" y="-.02354" width="1.04" height="1.047" color-interpolation-filters="sRGB"><feGaussianBlur stdDeviation=".071069152"/></filter><filter id="x" x="-.03625" y="-.04222" width="1.071" height="1.083" color-interpolation-filters="sRGB"><feGaussianBlur stdDeviation=".16679387"/></filter><clipPath id="A"><path d="m-95.3 143.8s-4.189 3.27-8.1 6.5c-1.95 1.62-3.69 3.22-4.72 4.78-0.51 0.78-0.98 1.62-0.65 2.78 0.16 0.58 0.61 1.12 1.09 1.41 0.48 0.28 0.96 0.4 1.5 0.47 2.13 0.24 4.73-0.4 7.849-1.28 3.113-0.89 6.669-2.09 10.25-3.25 3.581-1.17 7.196-2.31 10.34-3 3.147-0.7 5.835-0.89 7.375-0.5 0.729 0.18 0.745 0.3 0.75 0.31 0 0 0.06 0.33-0.219 0.94-0.567 1.2-2.245 3.11-4.187 4.93-3.885 3.64-8.844 7.13-8.844 7.13l1.75 2.44s5.041-3.52 9.156-7.38c2.058-1.93 3.879-3.89 4.813-5.87 0.466-1 0.776-2.12 0.343-3.25-0.433-1.14-1.541-1.87-2.812-2.19-2.46-0.62-5.444-0.21-8.781 0.53-3.337 0.73-7.019 1.85-10.62 3.03-3.607 1.18-7.129 2.4-10.12 3.25-2.913 0.83-5.293 1.22-6.473 1.13 0.62-0.95 2.3-2.56 4.16-4.1 3.721-3.08 7.969-6.37 7.969-6.37z"/></clipPath><mask id="B" maskUnits="userSpaceOnUse"><rect x="-115.6" y="147" width="51.28" height="17.34" rx=".6657" fill="url(#C)" fill-rule="evenodd" stroke-width="2"/></mask><linearGradient id="C" x1="-112.3" x2="-112.3" y1="148.9" y2="164.5" gradientUnits="userSpaceOnUse"><stop offset="0"/><stop stop-color="#fff" offset=".2177"/><stop stop-color="#fff" offset=".7659"/><stop offset="1"/></linearGradient><filter id="D" x="-.0125" y="-.04971" width="1.026" height="1.099" color-interpolation-filters="sRGB"><feGaussianBlur stdDeviation="0.001 0.244"/></filter><filter id="H" x="-.395" y="-.5737" width="1.79" height="2.147" color-interpolation-filters="sRGB"><feGaussianBlur stdDeviation="2.8946329"/></filter><g transform="matrix(.7159 0 0 .7159 -8.246 1.003)" enable-background="new"><rect x="14.5" y="1.5" width="32" height="29" rx="2.877" ry="2.781" fill="url(#linearGradient1643253)" fill-rule="evenodd" stroke="#888a85" stroke-dashoffset=".7" stroke-linecap="round" stroke-linejoin="round" stroke-opacity=".9924"/><path transform="matrix(2.143 0 0 2.087 44.43 -.6302)" d="m-12.5 1.498c-0.573 0-1.002 0.429-1.002 1.002v11c0 0.573 0.429 1.002 1.002 1.002h12c0.573 0 1.002-0.429 1.002-1.002v-11c0-0.573-0.429-1.002-1.002-1.002z" fill="none" stroke="url(#linearGradient7889)" stroke-dashoffset=".7" stroke-linecap="round" stroke-linejoin="round" stroke-opacity=".9924" stroke-width=".4729"/><rect transform="matrix(1.016 0 0 1.016 -.49 -.2715)" x="15.38" y="2.875" width="32" height="29" rx="3.723" ry="3.723" fill-rule="evenodd" filter="url(#filter5386)" opacity=".1205"/></g><g transform="matrix(.7159 0 0 .7159 12.88 24.05)" enable-background="new"><rect x="14.5" y="1.5" width="32" height="29" rx="2.877" ry="2.781" fill="url(#linearGradient1643253)" fill-rule="evenodd" stroke="#888a85" stroke-dashoffset=".7" stroke-linecap="round" stroke-linejoin="round" stroke-opacity=".9924"/><path transform="matrix(2.143 0 0 2.087 44.43 -.6302)" d="m-12.5 1.498c-0.573 0-1.002 0.429-1.002 1.002v11c0 0.573 0.429 1.002 1.002 1.002h12c0.573 0 1.002-0.429 1.002-1.002v-11c0-0.573-0.429-1.002-1.002-1.002z" fill="none" stroke="url(#linearGradient7889)" stroke-dashoffset=".7" stroke-linecap="round" stroke-linejoin="round" stroke-opacity=".9924" stroke-width=".4729"/><rect transform="matrix(1.016 0 0 1.016 -.49 -.2715)" x="15.38" y="2.875" width="32" height="29" rx="3.723" ry="3.723" fill-rule="evenodd" filter="url(#filter5386-58)" opacity=".1205"/></g><g fill-rule="evenodd"><path d="m33.15 30.74c-0.1954 0-0.3637 0.09909-0.4771 0.2453l-3.832 3.924c-0.0334 0.1295-0.09446 0.2659-0.1342 0.3983v5.417c0 0.3571 0.2829 0.6436 0.6262 0.6436h6.38c0.1716 0 0.3353-0.06868 0.4473-0.1835l3.817-3.924c0.112-0.1168 0.1789-0.2816 0.1789-0.4601v-5.417c0-0.1786-0.06688-0.3434-0.1789-0.4592-0.1136-0.1168-0.2756-0.1844-0.4473-0.1844z" fill="url(#linearGradient1623324)" stroke-width=".9675"/><path d="m29.3 34.83h6.166c0.331 0 0.5975 0.2786 0.5975 0.626v5.288c0 0.3473-0.2665 0.626-0.5975 0.626h-6.166c-0.3309 0-0.5974-0.2786-0.5974-0.626v-5.288c0-0.3473 0.2665-0.626 0.5974-0.626z" fill="url(#linearGradient1623326)" stroke-width=".9675"/><path d="m34.43 30.74-4.088 4.088h3.27l4.088-4.088h-3.27" fill="url(#linearGradient1623328)" opacity=".1231" stroke-width=".8176"/><path d="m37.7 30.74-7.767 3.27h2.862l4.088-2.453 0.8176-0.8176" fill="#babdb6" stroke-width=".8176"/></g><g stroke-width=".8176"><path d="m33.15 31.15c-0.01962 0-0.04497 0-0.1277 0.1022-0.02453 0.01635-0.04988 0.0327-0.07685 0.04906-0.01635 0.01635-0.03352 0.0327-0.05069 0.04906-0.01635 0.01635-0.03352 0.0327-0.05069 0.04906h-0.02535c-0.01635 0.01635-0.03352 0.0327-0.05069 0.04906l-0.1533 0.1529c-0.0874 0.08258-0.1922 0.1439-0.3066 0.1791l-3.476 1.005c-0.327 0.1701-0.4366 0.2853-0.4857 0.3835 0 0 0.0327 0.1096 0 0.07358 0.06541 0.08176 0.2952 0.2069 0.6901 0.2813 0.278 0.05723 0.5045 0.2567 0.5944 0.5257 0.08993 0.269 0.0327 0.5658-0.1602 0.7775l-0.2804 0.3066c-0.01635 0.07358-0.04088 0.139-0.07358 0.2551v5.363c0 0.04088 0 0.09484 0.04906 0.1537 0.02453 0.0327 0.08503 0.04906 0.1284 0.04906h6.413c0.07604 0 0.1377-0.0082 0.1789-0.04906-1.64e-4 -0.0082-1.64e-4 -0.01635 0-0.02453l3.805-3.931c0.04268-0.04415 0.0511-0.06459 0.0511-0.1537v-5.417c0-0.0883-0.0082-0.1341-0.05069-0.1791-0.0305-0.03025-0.1271-0.05069-0.1537-0.05069z" fill="none" opacity=".5336" stroke="#fff" stroke-dashoffset=".7" stroke-linecap="round" stroke-linejoin="round"/><path d="m33.15 30.35c-0.317 0-0.5655 0.1791-0.7409 0.3835l-0.02535-0.02453-0.02535 0.04906-0.2811 0.2559-3.475 0.9958c-0.02453 0-0.04906 0.01635-0.07358 0.02453-0.4489 0.224-0.7375 0.4529-0.8945 0.7661-0.157 0.314-0.09484 0.7089 0.1022 0.9451 0.269 0.3221 0.7015 0.4521 1.15 0.5372l-0.3328 0.3573c-0.04906 0.04088-0.08176 0.09484-0.1022 0.1537-0.02453 0.09893-0.05723 0.2584-0.1022 0.4088-0.01635 0.0327-0.02453 0.06541-0.02453 0.1022v5.442c0 0.2445 0.09239 0.4758 0.2559 0.6647 0.1627 0.188 0.4178 0.3319 0.7154 0.3319h6.412c0.2646 0 0.5371-0.09484 0.741-0.3066l3.803-3.933c0.1847-0.1921 0.281-0.4407 0.281-0.7154v-5.417c0-0.2739-0.09631-0.5233-0.281-0.7154-0.1821-0.1872-0.45-0.3066-0.7146-0.3066z" fill="none" stroke="#555753" stroke-dashoffset=".7" stroke-linecap="round" stroke-linejoin="round"/><g fill-rule="evenodd"><path d="m37.7 30.74-8.994 2.044 1.635 1.226h2.453l4.088-2.453 0.8176-0.8176" fill="url(#linearGradient1623330)"/><path d="m34.43 30.74-5.723 1.635h3.27l5.723-1.635h-3.27" fill="url(#linearGradient1623332)"/><path d="m28.7 32.37h3.27c-1.635 0.8176-0.4088 1.635 0.8176 1.635h-3.27c-1.226 0-2.453-0.8176-0.8176-1.635z" fill="url(#linearGradient1623334)"/><path d="m30.67 36.46h3.424c0.1838 0 0.3318 0.1594 0.3318 0.3581v2.555c0 0.1979-0.148 0.3573-0.3318 0.3573h-3.424c-0.1838 0-0.3318-0.1594-0.3318-0.3573v-2.555c0-0.1987 0.148-0.3581 0.3318-0.3581z" fill="url(#linearGradient1623336)"/></g></g><g fill-rule="evenodd"><path d="m11.59 8.133c-0.1954 0-0.3637 0.09909-0.4771 0.2453l-3.832 3.924c-0.0334 0.1295-0.09446 0.2659-0.1342 0.3983v5.417c0 0.3571 0.2829 0.6436 0.6262 0.6436h6.38c0.1716 0 0.3353-0.06868 0.4473-0.1835l3.817-3.924c0.112-0.1168 0.1789-0.2816 0.1789-0.4601v-5.417c0-0.1786-0.06688-0.3434-0.1789-0.4592-0.1136-0.1168-0.2756-0.1844-0.4473-0.1844z" fill="url(#linearGradient1567207)" stroke-width=".9675"/><path d="m7.741 12.22h6.166c0.331 0 0.5975 0.2786 0.5975 0.626v5.288c0 0.3473-0.2665 0.626-0.5975 0.626h-6.166c-0.3309 0-0.5974-0.2786-0.5974-0.626v-5.288c0-0.3473 0.2665-0.626 0.5974-0.626z" fill="url(#linearGradient1567209)" stroke-width=".9675"/><path d="m12.87 8.133-4.088 4.088h3.27l4.088-4.088h-3.27" fill="url(#linearGradient1567211)" opacity=".1231" stroke-width=".8176"/><path d="m16.14 8.133-7.767 3.27h2.862l4.088-2.453 0.8176-0.8176" fill="#babdb6" stroke-width=".8176"/></g><path d="m11.59 8.542c-0.01962 0-0.04497 0-0.1277 0.1022-0.02453 0.01635-0.04988 0.0327-0.07685 0.04906-0.01635 0.01635-0.03352 0.0327-0.05069 0.04906-0.01635 0.01635-0.03352 0.0327-0.05069 0.04906h-0.02535c-0.01635 0.01635-0.03352 0.0327-0.05069 0.04906l-0.1533 0.1529c-0.0874 0.08258-0.1922 0.1439-0.3066 0.1791l-3.476 1.005c-0.327 0.1701-0.4366 0.2853-0.4857 0.3835 0 0 0.0327 0.1096 0 0.07358 0.06541 0.08176 0.2952 0.2069 0.6901 0.2813 0.278 0.05723 0.5045 0.2567 0.5944 0.5257 0.08993 0.269 0.0327 0.5658-0.1602 0.7775l-0.2804 0.3066c-0.01635 0.07358-0.04088 0.139-0.07358 0.2551v5.363c0 0.04088 0 0.09484 0.04906 0.1537 0.02453 0.0327 0.08503 0.04906 0.1284 0.04906h6.413c0.07604 0 0.1377-0.0082 0.1789-0.04906-1.64e-4 -0.0082-1.64e-4 -0.01635 0-0.02453l3.805-3.931c0.04268-0.04415 0.0511-0.06459 0.0511-0.1537v-5.417c0-0.0883-0.0082-0.1341-0.05069-0.1791-0.0305-0.03025-0.1271-0.05069-0.1537-0.05069z" fill="none" opacity=".5336" stroke="#fff" stroke-dashoffset=".7" stroke-linecap="round" stroke-linejoin="round" stroke-width=".8176"/><path d="m11.59 7.749c-0.317 0-0.5655 0.1791-0.7409 0.3835l-0.02535-0.02453-0.02535 0.04906-0.2811 0.2559-3.475 0.9958c-0.02453 0-0.04906 0.01635-0.07358 0.02453-0.4489 0.224-0.7375 0.4529-0.8945 0.7661-0.157 0.314-0.09484 0.7089 0.1022 0.9451 0.269 0.3221 0.7015 0.4521 1.15 0.5372l-0.3328 0.3573c-0.04906 0.04088-0.08176 0.09484-0.1022 0.1537-0.02453 0.09893-0.05723 0.2584-0.1022 0.4088-0.01635 0.0327-0.02453 0.06541-0.02453 0.1022v5.442c0 0.2445 0.09239 0.4758 0.2559 0.6647 0.1627 0.188 0.4178 0.3319 0.7154 0.3319h6.412c0.2646 0 0.5371-0.09484 0.741-0.3066l3.803-3.933c0.1847-0.1921 0.281-0.4407 0.281-0.7154v-5.417c0-0.2739-0.09631-0.5233-0.281-0.7154-0.1821-0.1872-0.45-0.3066-0.7146-0.3066z" fill="none" stroke="#555753" stroke-dashoffset=".7" stroke-linecap="round" stroke-linejoin="round" stroke-width=".8176"/><g fill-rule="evenodd"><g stroke-width=".8176"><path d="m16.14 8.133-8.994 2.044 1.635 1.226h2.453l4.088-2.453 0.8176-0.8176" fill="url(#linearGradient1567213)"/><path d="m12.87 8.133-5.723 1.635h3.27l5.723-1.635h-3.27" fill="url(#linearGradient1567215)"/><path d="m7.145 9.768h3.27c-1.635 0.8176-0.4088 1.635 0.8176 1.635h-3.27c-1.226 0-2.453-0.8176-0.8176-1.635z" fill="url(#linearGradient1567217)"/><path d="m9.112 13.86h3.424c0.1838 0 0.3318 0.1594 0.3318 0.3581v2.555c0 0.1979-0.148 0.3573-0.3318 0.3573h-3.424c-0.1838 0-0.3318-0.1594-0.3318-0.3573v-2.555c0-0.1987 0.148-0.3581 0.3318-0.3581z" fill="url(#linearGradient1567219)"/></g><path d="m11.3 13.4c-28.14 36.75 16.09 32.17 24.15 23.59l-1.63-1.482c-15.88 10.14-43.5 7.656-20-21.68z" fill="url(#linearGradient471261)" stroke="url(#linearGradient466015)" stroke-width=".795"/><path d="m30.67 36.46h3.424c0.1838 0 0.3318 0.1594 0.3318 0.3581v2.555c0 0.1979-0.148 0.3573-0.3318 0.3573h-3.424c-0.1838 0-0.3318-0.1594-0.3318-0.3573v-2.555c0-0.1987 0.148-0.3581 0.3318-0.3581z" fill="url(#linearGradient1623338)" opacity=".3545" stroke-width=".8176"/><path d="m9.112 13.86h3.424c0.1838 0 0.3318 0.1594 0.3318 0.3581v2.555c0 0.1979-0.148 0.3573-0.3318 0.3573h-3.424c-0.1838 0-0.3318-0.1594-0.3318-0.3573v-2.555c0-0.1987 0.148-0.3581 0.3318-0.3581z" fill="url(#linearGradient1567227)" opacity=".3545" stroke-width=".8176"/></g><path d="m12.76 13.37c-27.02 34.81 12.59 31.61 21.96 22.47" fill="none" opacity=".19" stroke="url(#linearGradient399285)" stroke-width=".795"/><path d="m30.41 34.85 0.2592 1.635h3.424c0.184 0 0.3319 0.1594 0.3319 0.3581v2.555l1.635-0.2559v-3.654c0-0.3467-0.2567-0.6385-0.5879-0.6385z" fill="url(#linearGradient1623340)" fill-rule="evenodd" stroke-width=".8176"/><path d="m8.854 12.25 0.2592 1.635h3.424c0.184 0 0.3319 0.1594 0.3319 0.3581v2.555l1.635-0.2559v-3.654c0-0.3467-0.2567-0.6385-0.5879-0.6385z" fill="url(#linearGradient1567225)" fill-rule="evenodd" stroke-width=".8176"/><path d="m27.96 8.84h13.5v14" fill="none" stroke="#3363a3" stroke-dasharray="3, 3" stroke-width="3"/></svg>
