<svg width="32" height="32" version="1.1" viewBox="0 0 48 48" xmlns="http://www.w3.org/2000/svg" xmlns:xlink="http://www.w3.org/1999/xlink"><defs><linearGradient id="linearGradient7889" x1="-7.852" x2="-5.51" y1="3.755" y2="18.94" gradientUnits="userSpaceOnUse"><stop stop-color="#fff" offset="0"/><stop stop-color="#fff" stop-opacity="0" offset="1"/></linearGradient><filter id="filter5386" x="-.01972" y="-.02176" width="1.039" height="1.044" color-interpolation-filters="sRGB"><feGaussianBlur stdDeviation="0.26293105"/></filter><linearGradient id="linearGradient7822-4"><stop offset="0"/><stop stop-opacity="0" offset="1"/></linearGradient><linearGradient id="linearGradient1643253" x1="-7.975" x2="-11.01" y1="25.36" y2="-6.568" gradientTransform="matrix(2 0 0 1.933 43.5 .5333)" gradientUnits="userSpaceOnUse"><stop stop-color="#d3d7cf" offset="0"/><stop stop-color="#fff" offset="1"/></linearGradient><filter id="filter5386-58" x="-.01972" y="-.02176" width="1.039" height="1.044" color-interpolation-filters="sRGB"><feGaussianBlur stdDeviation="0.26293105"/></filter><linearGradient id="linearGradient9" x1="25.05" x2="27.76" y1="16.17" y2="24.54" gradientTransform="matrix(1.088 0 0 1.086 294.4 40.06)" gradientUnits="userSpaceOnUse" xlink:href="#linearGradient3983"/><linearGradient id="linearGradient3983"><stop stop-color="#555753" offset="0"/><stop stop-color="#888a85" offset="1"/></linearGradient><linearGradient id="linearGradient11" x1="326.5" x2="326.5" y1="61.7" y2="60.69" gradientUnits="userSpaceOnUse" xlink:href="#linearGradient4175"/><linearGradient id="linearGradient4175"><stop stop-color="#babdb6" offset="0"/><stop stop-color="#fff" offset="1"/></linearGradient><radialGradient id="radialGradient4612-0" cx="306.5" cy="86.38" r="21.91" gradientTransform="matrix(2.238 -.5404 .1485 .615 -392 204.4)" gradientUnits="userSpaceOnUse" xlink:href="#linearGradient7822-4"/><filter id="filter4618-7" x="-.07545" y="-.06204" width="1.151" height="1.143"><feGaussianBlur stdDeviation="0.89652215"/></filter><linearGradient id="linearGradient12" x1="322.3" x2="328.4" y1="62.62" y2="68.74" gradientTransform="matrix(.75 0 0 .8333 81.62 10.42)" gradientUnits="userSpaceOnUse" xlink:href="#linearGradient4206"/><linearGradient id="linearGradient4206"><stop stop-color="#fff" offset="0"/><stop stop-color="#babdb6" offset="1"/></linearGradient><linearGradient id="linearGradient13" x1="325.4" x2="328.4" y1="63.27" y2="68.74" gradientTransform="matrix(.5 0 0 .5 -489.8 -97.75)" gradientUnits="userSpaceOnUse" xlink:href="#linearGradient4206"/><linearGradient id="linearGradient14" x1="-47.16" x2="-46.15" y1="39.38" y2="44.17" gradientTransform="translate(386,50)" gradientUnits="userSpaceOnUse" xlink:href="#linearGradient7652-3"/><linearGradient id="linearGradient7652-3"><stop stop-color="#729fcf" offset="0"/><stop stop-color="#729fcf" stop-opacity="0" offset="1"/></linearGradient><linearGradient id="linearGradient15" x1="-48" x2="-46.75" y1="40.38" y2="45.69" gradientTransform="translate(386,50)" gradientUnits="userSpaceOnUse"><stop stop-color="#3465a4" offset="0"/><stop stop-color="#3465a4" stop-opacity="0" offset="1"/></linearGradient><radialGradient id="radialGradient81" cx="306.5" cy="86.38" r="21.91" gradientTransform="matrix(1.058 -1.042 .4439 .4509 -55.95 372.2)" gradientUnits="userSpaceOnUse" xlink:href="#linearGradient7822-4"/><filter id="filter4618" x="-.1134" y="-.08587" width="1.226" height="1.205"><feGaussianBlur stdDeviation="0.89652215"/></filter><linearGradient id="linearGradient85" x1="-75.84" x2="-75.96" y1="48.62" y2="53.84" gradientTransform="translate(386,50)" gradientUnits="userSpaceOnUse" xlink:href="#linearGradient7652-3"/></defs><clipPath id="b"><rect x="68.78" y="-.0933" width="58.26" height="58.26" rx="2.648"/></clipPath><filter id="c" x="-.021" y="-.021" width="1.042" height="1.042" color-interpolation-filters="sRGB"><feGaussianBlur stdDeviation=".28282197"/></filter><clipPath id="h"><path d="m-6.562 24.53c-0.3877 0-0.6917 0.219-0.9062 0.469l-0.031-0.03-0.031 0.06-0.3438 0.313-4.25 1.218c-0.03 0-0.06 0.02-0.09 0.03-0.549 0.274-0.902 0.554-1.094 0.937-0.192 0.384-0.116 0.867 0.125 1.156 0.329 0.394 0.858 0.553 1.407 0.657l-0.407 0.437c-0.06 0.05-0.1 0.116-0.125 0.188-0.03 0.121-0.07 0.316-0.125 0.5-0.02 0.04-0.03 0.08-0.03 0.125v6.656c0 0.299 0.113 0.582 0.313 0.813 0.199 0.23 0.511 0.406 0.875 0.406h7.843c0.3236 0 0.6569-0.116 0.9063-0.375l4.651-4.81c0.2259-0.235 0.3437-0.539 0.3437-0.875v-6.625c0-0.335-0.1178-0.64-0.3437-0.875-0.2227-0.229-0.5504-0.375-0.874-0.375z"/></clipPath><filter id="i" x="-.03844" y="-.04352" width="1.077" height="1.087" color-interpolation-filters="sRGB"><feGaussianBlur stdDeviation=".1491362"/></filter><filter id="p" x="-.02026" y="-.02354" width="1.04" height="1.047" color-interpolation-filters="sRGB"><feGaussianBlur stdDeviation=".071069152"/></filter><filter id="x" x="-.03625" y="-.04222" width="1.071" height="1.083" color-interpolation-filters="sRGB"><feGaussianBlur stdDeviation=".16679387"/></filter><clipPath id="A"><path d="m-95.3 143.8s-4.189 3.27-8.1 6.5c-1.95 1.62-3.69 3.22-4.72 4.78-0.51 0.78-0.98 1.62-0.65 2.78 0.16 0.58 0.61 1.12 1.09 1.41 0.48 0.28 0.96 0.4 1.5 0.47 2.13 0.24 4.73-0.4 7.849-1.28 3.113-0.89 6.669-2.09 10.25-3.25 3.581-1.17 7.196-2.31 10.34-3 3.147-0.7 5.835-0.89 7.375-0.5 0.729 0.18 0.745 0.3 0.75 0.31 0 0 0.06 0.33-0.219 0.94-0.567 1.2-2.245 3.11-4.187 4.93-3.885 3.64-8.844 7.13-8.844 7.13l1.75 2.44s5.041-3.52 9.156-7.38c2.058-1.93 3.879-3.89 4.813-5.87 0.466-1 0.776-2.12 0.343-3.25-0.433-1.14-1.541-1.87-2.812-2.19-2.46-0.62-5.444-0.21-8.781 0.53-3.337 0.73-7.019 1.85-10.62 3.03-3.607 1.18-7.129 2.4-10.12 3.25-2.913 0.83-5.293 1.22-6.473 1.13 0.62-0.95 2.3-2.56 4.16-4.1 3.721-3.08 7.969-6.37 7.969-6.37z"/></clipPath><mask id="B" maskUnits="userSpaceOnUse"><rect x="-115.6" y="147" width="51.28" height="17.34" rx=".6657" fill="url(#C)" fill-rule="evenodd" stroke-width="2"/></mask><linearGradient id="C" x1="-112.3" x2="-112.3" y1="148.9" y2="164.5" gradientUnits="userSpaceOnUse"><stop offset="0"/><stop stop-color="#fff" offset=".2177"/><stop stop-color="#fff" offset=".7659"/><stop offset="1"/></linearGradient><filter id="D" x="-.0125" y="-.04971" width="1.026" height="1.099" color-interpolation-filters="sRGB"><feGaussianBlur stdDeviation="0.001 0.244"/></filter><filter id="H" x="-.395" y="-.5737" width="1.79" height="2.147" color-interpolation-filters="sRGB"><feGaussianBlur stdDeviation="2.8946329"/></filter><g transform="matrix(.7159 0 0 .7159 -8.246 1.003)" enable-background="new"><rect x="14.5" y="1.5" width="32" height="29" rx="2.877" ry="2.781" fill="url(#linearGradient1643253)" fill-rule="evenodd" stroke="#888a85" stroke-dashoffset=".7" stroke-linecap="round" stroke-linejoin="round" stroke-opacity=".9924"/><path transform="matrix(2.143 0 0 2.087 44.43 -.6302)" d="m-12.5 1.498c-0.573 0-1.002 0.429-1.002 1.002v11c0 0.573 0.429 1.002 1.002 1.002h12c0.573 0 1.002-0.429 1.002-1.002v-11c0-0.573-0.429-1.002-1.002-1.002z" fill="none" stroke="url(#linearGradient7889)" stroke-dashoffset=".7" stroke-linecap="round" stroke-linejoin="round" stroke-opacity=".9924" stroke-width=".4729"/><rect transform="matrix(1.016 0 0 1.016 -.49 -.2715)" x="15.38" y="2.875" width="32" height="29" rx="3.723" ry="3.723" fill-rule="evenodd" filter="url(#filter5386)" opacity=".1205"/></g><g transform="matrix(.7159 0 0 .7159 12.88 24.05)" enable-background="new"><rect x="14.5" y="1.5" width="32" height="29" rx="2.877" ry="2.781" fill="url(#linearGradient1643253)" fill-rule="evenodd" stroke="#888a85" stroke-dashoffset=".7" stroke-linecap="round" stroke-linejoin="round" stroke-opacity=".9924"/><path transform="matrix(2.143 0 0 2.087 44.43 -.6302)" d="m-12.5 1.498c-0.573 0-1.002 0.429-1.002 1.002v11c0 0.573 0.429 1.002 1.002 1.002h12c0.573 0 1.002-0.429 1.002-1.002v-11c0-0.573-0.429-1.002-1.002-1.002z" fill="none" stroke="url(#linearGradient7889)" stroke-dashoffset=".7" stroke-linecap="round" stroke-linejoin="round" stroke-opacity=".9924" stroke-width=".4729"/><rect transform="matrix(1.016 0 0 1.016 -.49 -.2715)" x="15.38" y="2.875" width="32" height="29" rx="3.723" ry="3.723" fill-rule="evenodd" filter="url(#filter5386-58)" opacity=".1205"/></g><path d="m27.96 8.84h13.5v14" fill="none" stroke="#3363a3" stroke-dasharray="3, 3" stroke-width="3"/><g transform="matrix(.8646 0 0 .8646 -247.6 -19.52)" enable-background="new"><path d="m325 59.07c-0.64 0-1.16 0.516-1.16 1.154v0.288c0 0.293-0.23 0.543-0.54 0.543h-0.12c-0.64 0-1.16 0.704-1.16 1.342v5.445c0 0.638 0.52 1.154 1.16 1.154h6.56c0.64 0 1.16-0.516 1.16-1.154v-5.445c0-0.638-0.52-1.342-1.16-1.342h-0.14c-0.26 0.02-0.55-0.186-0.55-0.526v-0.305c0-0.638-0.51-1.154-1.15-1.154z" fill="url(#linearGradient9)" fill-rule="evenodd" stroke="#fff" stroke-width="2"/><path d="m325 59.07c-0.64 0-1.16 0.516-1.16 1.154v0.288c0 0.293-0.23 0.543-0.54 0.543h-0.12c-0.64 0-1.16 0.704-1.16 1.342v5.445c0 0.638 0.52 1.154 1.16 1.154h6.56c0.64 0 1.16-0.516 1.16-1.154v-5.445c0-0.638-0.52-1.342-1.16-1.342h-0.14c-0.26 0.02-0.55-0.186-0.55-0.526v-0.305c0-0.638-0.51-1.154-1.15-1.154z" fill="url(#linearGradient9)" fill-rule="evenodd"/><rect x="325" y="60" width="3" height="2" rx=".3978" ry=".3978" color="#000000" fill="url(#linearGradient11)"/><path d="m327.7 103.7s20-14 12-16-28.06 7.627-38 7c-10.11-0.638 22.5-9.83 24.77-27.71" fill="none" filter="url(#filter4618-7)" opacity=".4944" stroke="url(#radialGradient4612-0)" stroke-width="2"/><rect x="323.5" y="62.5" width="6" height="5" rx=".1768" ry=".1768" color="#000000" fill="#d3d7cf" stroke="url(#linearGradient12)"/><rect transform="scale(-1)" x="-328.5" y="-66.5" width="4" height="3" rx=".1768" ry=".1768" color="#000000" fill="#888a85" stroke="url(#linearGradient13)"/><path d="m325 63.81c-1.03 8.083-9.29 14.95-16.38 19.75-3.54 2.401-6.67 4.247-8.53 5.718-0.46 0.368-0.85 0.712-1.18 1.125-0.34 0.414-0.74 1.02-0.57 1.907 0.17 0.886 0.92 1.362 1.47 1.562 0.56 0.2 1.11 0.299 1.81 0.344 5.52 0.347 13.01-2.019 20.25-4.094 7.25-2.075 14.34-3.76 17.5-2.969 0.73 0.182 0.75 0.332 0.75 0.344 0 0.01 0 0.304-0.25 0.906-0.56 1.204-2.21 3.148-4.15 4.969-3.89 3.642-8.85 7.095-8.85 7.095l1.72 2.47s5.04-3.519 9.16-7.377c2.06-1.93 3.91-3.892 4.84-5.875 0.47-0.992 0.75-2.114 0.32-3.25-0.44-1.137-1.55-1.87-2.82-2.188-4.83-1.209-11.76 0.918-19.03 3-6.88 1.972-13.91 3.965-18.4 3.938 1.62-1.195 4.33-2.874 7.65-5.125 7.26-4.922 16.44-12.08 17.69-21.88z" color="#000000" fill="url(#linearGradient14)" fill-rule="evenodd" stroke="url(#linearGradient15)" stroke-linejoin="round"/><path transform="scale(-1)" d="m-324.5-64c0 0.1-0.1 0.501-0.17 0.501h-3.64c-0.1 0-0.18-0.08-0.18-0.177v-2.646c0-0.1 0.42-0.177 0.5-0.177" color="#000000" fill="none" stroke="url(#linearGradient13)"/></g><g transform="matrix(.9642 0 0 .9642 -301.6 -49.22)" enable-background="new"><path d="m325 59.07c-0.64 0-1.16 0.516-1.16 1.154v0.288c0 0.293-0.23 0.543-0.54 0.543h-0.12c-0.64 0-1.16 0.704-1.16 1.342v5.445c0 0.638 0.52 1.154 1.16 1.154h6.56c0.64 0 1.16-0.516 1.16-1.154v-5.445c0-0.638-0.52-1.342-1.16-1.342h-0.14c-0.26 0.02-0.55-0.186-0.55-0.526v-0.305c0-0.638-0.51-1.154-1.15-1.154z" fill="url(#linearGradient9)" fill-rule="evenodd" stroke="#fff" stroke-width="2"/><path d="m325 59.07c-0.64 0-1.16 0.516-1.16 1.154v0.288c0 0.293-0.23 0.543-0.54 0.543h-0.12c-0.64 0-1.16 0.704-1.16 1.342v5.445c0 0.638 0.52 1.154 1.16 1.154h6.56c0.64 0 1.16-0.516 1.16-1.154v-5.445c0-0.638-0.52-1.342-1.16-1.342h-0.14c-0.26 0.02-0.55-0.186-0.55-0.526v-0.305c0-0.638-0.51-1.154-1.15-1.154z" fill="url(#linearGradient9)" fill-rule="evenodd"/><rect x="325" y="60" width="3" height="2" rx=".3978" ry=".3978" color="#000000" fill="url(#linearGradient11)"/><path d="m300.6 93.52c-10.11-0.638 23.68-8.647 25.95-26.52" fill="none" filter="url(#filter4618)" opacity=".4944" stroke="url(#radialGradient81)" stroke-width="2"/><rect x="323.5" y="62.5" width="6" height="5" rx=".1768" ry=".1768" color="#000000" fill="#d3d7cf" stroke="url(#linearGradient12)"/><rect transform="scale(-1)" x="-328.5" y="-66.5" width="4" height="3" rx=".1768" ry=".1768" color="#000000" fill="#888a85" stroke="url(#linearGradient13)"/><path d="m325 63.81c-1.03 8.083-9.29 14.95-16.38 19.75-3.54 2.401-6.67 4.247-8.53 5.718-0.46 0.368-0.85 0.712-1.18 1.125-0.34 0.414 0.82 1.821 1.56 1.287 3.35-2.449 5.69-2.784 12.14-7.804 5.82-4.537 14.14-9.908 15.39-19.7z" color="#000000" fill="url(#linearGradient85)" fill-rule="evenodd" stroke="#3465a4" stroke-linejoin="round"/><path transform="scale(-1)" d="m-324.5-63.99c0 0.1-0.13 0.492-0.21 0.492h-3.64c-0.1 0-0.18-0.08-0.18-0.177v-2.646c0-0.1 0.42-0.177 0.5-0.177" color="#000000" fill="none" stroke="url(#linearGradient13)"/></g></svg>
