<svg xmlns="http://www.w3.org/2000/svg" width="16px" height="16px" viewBox="0 0 24 24"><path d="m 20.676773,1.5174439 c 1.034415,0 1.863811,0.8293959 1.863811,1.8638109 V 13.632216 c 0,1.034415 -0.829396,1.863811 -1.863811,1.863811 h -10.25096 c -1.0344155,0 -1.8638113,-0.829396 -1.8638113,-1.863811 v -2.795717 h 1.8638113 v 2.795717 h 10.25096 V 3.3812548 h -10.25096 v 1.863811 H 8.5620017 v -1.863811 c 0,-1.034415 0.8293958,-1.8638109 1.8638113,-1.8638109 m 4.659528,5.5914328 c 1.034415,0 1.863811,0.8293958 1.863811,1.8638109 V 11.768405 H 15.085341 V 8.9726876 H 4.8343798 V 19.223648 H 15.085341 v -1.863811 h 1.863811 v 1.863811 c 0,1.034415 -0.829396,1.863811 -1.863811,1.863811 H 4.8343798 c -1.034415,0 -1.8638109,-0.829396 -1.8638109,-1.863811 V 8.9726876 c 0,-1.0344151 0.8293959,-1.8638109 1.8638109,-1.8638109 H 15.085341" fill="#4DA1C0"/></svg>