<svg width="29.103" height="29.103" xmlns="http://www.w3.org/2000/svg" viewBox="0 0 29.1 29.1"><defs><linearGradient id="b"><stop offset="0" stop-color="#f6f6f5"/><stop offset=".6" stop-color="#e1e1dd"/><stop offset="1" stop-color="#ccccc6"/></linearGradient><linearGradient id="c"><stop offset="0" stop-color="#fff"/><stop offset="1" stop-color="#fff" stop-opacity="0"/></linearGradient><linearGradient id="d"><stop offset="0" stop-color="#fff"/><stop offset="1" stop-color="#b4b4b4"/></linearGradient><linearGradient id="e"><stop offset="0" stop-color="#4d4d4d"/><stop offset="1"/></linearGradient><linearGradient id="p" gradientUnits="userSpaceOnUse" gradientTransform="matrix(1 0 0 2.2579 58.19 -1.73)" x1="30.31" y1="27.31" x2="30.31" y2="24.69" href="#a"/><linearGradient id="a"><stop offset="0" stop-color="#edd400"/><stop offset="1" stop-color="#edd400" stop-opacity="0"/></linearGradient><linearGradient id="q" gradientUnits="userSpaceOnUse" gradientTransform="matrix(1 0 0 2.2579 58.32 -1.73)" x1="30.31" y1="27.31" x2="30.31" y2="24.69" href="#a"/><linearGradient id="r" gradientUnits="userSpaceOnUse" gradientTransform="matrix(1 0 0 2.2579 56.43 -1.73)" x1="30.31" y1="27.31" x2="30.31" y2="24.69" href="#a"/><linearGradient id="s" gradientUnits="userSpaceOnUse" gradientTransform="matrix(1 0 0 2.2579 49.71 -1.73)" x1="30.31" y1="27.31" x2="30.31" y2="24.69" href="#a"/><linearGradient id="t" gradientUnits="userSpaceOnUse" gradientTransform="matrix(1 0 0 2.2579 49.88 -1.73)" x1="30.31" y1="27.31" x2="30.31" y2="24.69" href="#a"/><linearGradient id="u" gradientUnits="userSpaceOnUse" gradientTransform="matrix(1 0 0 2.2579 49.94 -1.73)" x1="30.31" y1="27.31" x2="30.31" y2="24.69" href="#a"/><linearGradient id="v" gradientUnits="userSpaceOnUse" gradientTransform="matrix(1 0 0 2.2579 50.04 -1.73)" x1="30.31" y1="27.31" x2="30.31" y2="24.69" href="#a"/><linearGradient id="f"><stop offset="0" stop-color="#fff"/><stop offset="1" stop-color="#c6c6c6"/></linearGradient><radialGradient id="g" gradientUnits="userSpaceOnUse" gradientTransform="matrix(5.6733 0 0 1.6733 -488.69 4.9)" cx="99.48" cy="14.74" fx="99.48" fy="14.74" r="29.13" href="#b"/><radialGradient id="j" cx="105.2" cy="-.37" fx="105.2" fy="-.37" r="29.4" gradientTransform="matrix(3.5399 0 0 3.5072 -267.19 1.19)" gradientUnits="userSpaceOnUse" href="#c"/><radialGradient id="k" cx="157.34" cy="30.8" fx="157.34" fy="30.8" r="1.03" gradientUnits="userSpaceOnUse" href="#d"/><radialGradient id="l" gradientUnits="userSpaceOnUse" cx="157.34" cy="30.8" fx="157.34" fy="30.8" r="1.03" href="#d"/><radialGradient id="m" gradientUnits="userSpaceOnUse" cx="157.34" cy="30.8" fx="157.34" fy="30.8" r="1.03" href="#d"/><radialGradient id="n" gradientUnits="userSpaceOnUse" cx="157.34" cy="30.8" fx="157.34" fy="30.8" r="1.03" href="#d"/><radialGradient id="o" gradientUnits="userSpaceOnUse" gradientTransform="matrix(1.9342 0 0 2.1266 -109.64 -21.13)" cx="99.22" cy="38.57" fx="99.22" fy="38.57" r="11.37" href="#e"/><radialGradient id="x" gradientUnits="userSpaceOnUse" gradientTransform="matrix(2.2881 0 0 1.5903 -108.36 -28.42)" cx="84.12" cy="49.95" fx="84.12" fy="49.95" r="12.95" href="#f"/><filter color-interpolation-filters="sRGB" id="i" x="-.02" y="-.02" width="1.04" height="1.04"><feGaussianBlur stdDeviation=".28"/></filter><filter color-interpolation-filters="sRGB" id="w" y="-.16" height="1.33" x="-inf" width="inf"><feGaussianBlur stdDeviation=".1"/></filter><clipPath clipPathUnits="userSpaceOnUse" id="h"><rect width="58.26" height="58.26" x="68.78" y="-.09" rx="2.65" ry="2.65" opacity=".74" fill="none" stroke="#000" stroke-width=".53"/></clipPath></defs><g transform="translate(-23.25 -7.89)scale(.49953)"><rect ry="2.65" rx="2.65" y="15.8" x="46.54" height="58.26" width="58.26" fill="url(#g)" fill-rule="evenodd"/><rect transform="translate(-22.25 15.89)" clip-path="url(#h)" width="58.26" height="58.26" x="68.78" y="-.09" rx="2.65" ry="2.65" opacity=".35" fill="none" stroke="#000" stroke-width="1.06" filter="url(#i)"/><rect transform="matrix(.98182 0 0 .96381 -20.46 17.45)" ry="2.7" rx="2.65" y="-.09" x="68.78" height="58.26" width="58.26" clip-path="url(#h)" fill="none" stroke="url(#j)" stroke-width="1.09" filter="url(#i)"/><g transform="translate(-22.25 16.95)" fill-rule="evenodd"><circle transform="translate(-52 -21.12)scale(.78645)" cx="157.34" cy="31.09" r="1.03" fill="#fff"/><circle transform="translate(-52 -21.62)scale(.78645)" cx="157.34" cy="31.09" r="1.03" fill="url(#k)"/></g><g transform="translate(29.66 16.95)" fill-rule="evenodd"><circle transform="translate(-52 -21.12)scale(.78645)" cx="157.34" cy="31.09" r="1.03" fill="#fff"/><circle transform="translate(-52 -21.62)scale(.78645)" cx="157.34" cy="31.09" r="1.03" fill="url(#l)"/></g><g transform="translate(-22.25 67.8)" fill-rule="evenodd"><circle transform="translate(-52 -21.12)scale(.78645)" cx="157.34" cy="31.09" r="1.03" opacity=".54" fill="#fff"/><circle transform="translate(-52 -21.62)scale(.78645)" cx="157.34" cy="31.09" r="1.03" fill="url(#m)"/></g><g transform="translate(29.66 67.8)" fill-rule="evenodd"><circle transform="translate(-52 -21.12)scale(.78645)" cx="157.34" cy="31.09" r="1.03" opacity=".56" fill="#fff"/><circle transform="translate(-52 -21.62)scale(.78645)" cx="157.34" cy="31.09" r="1.03" fill="url(#n)"/></g><g transform="translate(-5.3 -4.24)"><path d="M77.4 35.89a.6.6 0 0 0-.62.62v3.69h-4.7c-.65 0-1.17.52-1.17 1.17v18.34c0 .65.52 1.17 1.18 1.17h20.37c.66 0 1.18-.52 1.18-1.18V41.38c0-.65-.52-1.17-1.18-1.17H87.9V36.5a.6.6 0 0 0-.63-.62z" fill="url(#o)" fill-rule="evenodd"/><path d="M84.69 58.1v-4.5" fill="none" stroke="url(#p)" stroke-linecap="round"/><path d="M86.82 58.1v-4.5" fill="none" stroke="url(#q)" stroke-linecap="round"/><path d="M88.93 58.1v-4.5" fill="none" stroke="url(#r)" stroke-linecap="round"/><path d="M76.21 58.1v-4.5" fill="none" stroke="url(#s)" stroke-linecap="round"/><path d="M78.38 58.1v-4.5" fill="none" stroke="url(#t)" stroke-linecap="round"/><path d="M80.44 58.1v-4.5" fill="none" stroke="url(#u)" stroke-linecap="round"/><path d="M82.54 58.1v-4.5" fill="none" stroke="url(#v)" stroke-linecap="round" filter="url(#w)"/><path d="M77.4 35.6c-.5 0-.92.41-.92.91v3.39h-4.4c-.8 0-1.47.66-1.47 1.48V59.7c0 .82.66 1.48 1.48 1.48h20.37c.82 0 1.48-.66 1.48-1.47V41.38c0-.82-.67-1.48-1.48-1.48H88.2v-3.39c0-.5-.42-.92-.93-.92z" fill="none" stroke="url(#x)" stroke-width=".53"/></g></g></svg>