<svg width="44.951" height="55.651" xmlns:xlink="http://www.w3.org/1999/xlink" xmlns="http://www.w3.org/2000/svg" viewBox="0 0 45 55.7"><defs><linearGradient id="n"><stop offset="0" stop-color="#f6f6f5"/><stop offset=".6" stop-color="#e1e1dd"/><stop offset="1" stop-color="#ccccc6"/></linearGradient><linearGradient id="f"><stop offset="0" stop-color="#fff"/><stop offset="1" stop-color="#fff" stop-opacity="0"/></linearGradient><linearGradient id="o"><stop offset="0" stop-color="#fff"/><stop offset="1" stop-color="#b4b4b4"/></linearGradient><linearGradient id="p"><stop offset="0" stop-color="#4d4d4d"/><stop offset="1"/></linearGradient><linearGradient xlink:href="#a" id="C" gradientUnits="userSpaceOnUse" gradientTransform="matrix(1 0 0 2.2579 58.2 -1.7)" x1="30.3" y1="27.3" x2="30.3" y2="24.7"/><linearGradient id="a"><stop offset="0" stop-color="#edd400"/><stop offset="1" stop-color="#edd400" stop-opacity="0"/></linearGradient><linearGradient xlink:href="#a" id="D" gradientUnits="userSpaceOnUse" gradientTransform="matrix(1 0 0 2.2579 58.3 -1.7)" x1="30.3" y1="27.3" x2="30.3" y2="24.7"/><linearGradient xlink:href="#a" id="E" gradientUnits="userSpaceOnUse" gradientTransform="matrix(1 0 0 2.2579 56.4 -1.7)" x1="30.3" y1="27.3" x2="30.3" y2="24.7"/><linearGradient xlink:href="#a" id="F" gradientUnits="userSpaceOnUse" gradientTransform="matrix(1 0 0 2.2579 49.7 -1.7)" x1="30.3" y1="27.3" x2="30.3" y2="24.7"/><linearGradient xlink:href="#a" id="G" gradientUnits="userSpaceOnUse" gradientTransform="matrix(1 0 0 2.2579 49.9 -1.7)" x1="30.3" y1="27.3" x2="30.3" y2="24.7"/><linearGradient xlink:href="#a" id="H" gradientUnits="userSpaceOnUse" gradientTransform="matrix(1 0 0 2.2579 50 -1.7)" x1="30.3" y1="27.3" x2="30.3" y2="24.7"/><linearGradient xlink:href="#a" id="I" gradientUnits="userSpaceOnUse" gradientTransform="matrix(1 0 0 2.2579 50 -1.7)" x1="30.3" y1="27.3" x2="30.3" y2="24.7"/><linearGradient id="q"><stop offset="0" stop-color="#fff"/><stop offset="1" stop-color="#c6c6c6"/></linearGradient><linearGradient xlink:href="#b" id="M" gradientUnits="userSpaceOnUse" x1="-2.2" y1="35.8" x2="-5.5" y2="26.5"/><linearGradient id="b"><stop offset="0" stop-color="#878983"/><stop offset="1" stop-color="#d4d4d3"/></linearGradient><linearGradient xlink:href="#c" id="O" gradientUnits="userSpaceOnUse" x1="4.4" y1="58.9" x2=".8" y2="54.4" gradientTransform="translate(0 -1.3)scale(1.0224)"/><linearGradient id="c"><stop offset="0" stop-color="#e6e7e5"/><stop offset=".3" stop-color="#a5a79f"/><stop offset=".8" stop-color="#c7c9c3"/><stop offset="1" stop-color="#fff"/></linearGradient><linearGradient xlink:href="#d" id="P" gradientUnits="userSpaceOnUse" gradientTransform="matrix(.96429 0 0 .97222 -.3 1.7)" x1="-4.2" y1="59.9" x2="-4.2" y2="54.7"/><linearGradient id="d"><stop offset="0" stop-color="#fff"/><stop offset="1" stop-color="#d3d7cf"/></linearGradient><linearGradient xlink:href="#e" id="Q" gradientUnits="userSpaceOnUse" gradientTransform="translate(-4 -24)" x1="-2" y1="51.1" x2="-3.4" y2="54"/><linearGradient id="e"><stop offset="0"/><stop offset="1" stop-opacity="0"/></linearGradient><linearGradient xlink:href="#f" id="R" x1="-4.2" y1="37.1" x2="-4.2" y2="30" gradientUnits="userSpaceOnUse"/><linearGradient xlink:href="#g" id="T" gradientUnits="userSpaceOnUse" gradientTransform="translate(-4 -24)" x1="-4.7" y1="52.6" x2=".9" y2="50.6"/><linearGradient id="g"><stop offset="0" stop-color="#eeeeec"/><stop offset="1" stop-color="#babdb6"/></linearGradient><linearGradient xlink:href="#h" id="U" gradientUnits="userSpaceOnUse" gradientTransform="translate(-4 -24)" x1="-5.1" y1="50.5" x2=".3" y2="49.5"/><linearGradient id="h"><stop offset="0" stop-color="#eeeeec"/><stop offset="1" stop-color="#fff"/></linearGradient><linearGradient xlink:href="#i" id="V" gradientUnits="userSpaceOnUse" gradientTransform="translate(-4 -24)" x1="-6" y1="52.9" x2="-6" y2="51.8"/><linearGradient id="i"><stop offset="0" stop-color="#888a85"/><stop offset="1" stop-color="#fff"/></linearGradient><linearGradient xlink:href="#j" id="W" gradientUnits="userSpaceOnUse" gradientTransform="matrix(1 0 0 1.0286 -4 -25.1)" x1="-3.5" y1="55.9" x2="-3.5" y2="59.4"/><linearGradient id="j"><stop offset="0" stop-color="#555753"/><stop offset="1" stop-color="#d3d7cf"/></linearGradient><linearGradient xlink:href="#k" id="X" x1="-97.2" y1="153" x2="-96.7" y2="149.2" gradientUnits="userSpaceOnUse"/><linearGradient id="k"><stop offset="0" stop-color="#4d4d4d" stop-opacity=".2"/><stop offset="1" stop-color="#181818"/></linearGradient><linearGradient xlink:href="#l" id="Y" gradientUnits="userSpaceOnUse" gradientTransform="translate(-110 113.3)" x1="37.6" y1="40.3" x2="39.6" y2="49.8"/><linearGradient id="l"><stop offset="0" stop-color="#729fcf"/><stop offset="1" stop-color="#729fcf" stop-opacity="0"/></linearGradient><linearGradient xlink:href="#f" id="Z" gradientUnits="userSpaceOnUse" gradientTransform="translate(-110 113.3)" x1="41.2" y1="38.3" x2="42.1" y2="42.9"/><linearGradient xlink:href="#d" id="ab" gradientUnits="userSpaceOnUse" gradientTransform="matrix(1.125 0 0 1.1667 -94.1 79.1)" x1="-4.1" y1="58.8" x2="-4.1" y2="55"/><linearGradient xlink:href="#e" id="ac" gradientUnits="userSpaceOnUse" gradientTransform="translate(-90 113.3)" x1="-6.4" y1="32.4" x2="-7.8" y2="34.6"/><linearGradient xlink:href="#m" id="s" gradientUnits="userSpaceOnUse" x1="44" y1="180.5" x2="44" y2="242.5" gradientTransform="translate(-123.4 103.5)scale(.25138)"/><linearGradient id="m"><stop offset="0"/><stop offset=".2" stop-color="#fff"/><stop offset=".8" stop-color="#fff"/><stop offset="1"/></linearGradient><linearGradient id="r"><stop offset="0" stop-color="#e6e7e5"/><stop offset="1" stop-color="#e6e7e5" stop-opacity="0"/></linearGradient><radialGradient xlink:href="#n" id="t" gradientUnits="userSpaceOnUse" gradientTransform="matrix(5.6733 0 0 1.6733 -488.7 4.9)" cx="99.5" cy="14.7" fx="99.5" fy="14.7" r="29.1"/><radialGradient xlink:href="#f" id="w" cx="105.2" cy="-.4" fx="105.2" fy="-.4" r="29.4" gradientTransform="matrix(3.5399 0 0 3.5072 -267.2 1.2)" gradientUnits="userSpaceOnUse"/><radialGradient xlink:href="#o" id="x" cx="157.3" cy="30.8" fx="157.3" fy="30.8" r="1" gradientUnits="userSpaceOnUse"/><radialGradient xlink:href="#o" id="y" gradientUnits="userSpaceOnUse" cx="157.3" cy="30.8" fx="157.3" fy="30.8" r="1"/><radialGradient xlink:href="#o" id="z" gradientUnits="userSpaceOnUse" cx="157.3" cy="30.8" fx="157.3" fy="30.8" r="1"/><radialGradient xlink:href="#o" id="A" gradientUnits="userSpaceOnUse" cx="157.3" cy="30.8" fx="157.3" fy="30.8" r="1"/><radialGradient xlink:href="#p" id="B" gradientUnits="userSpaceOnUse" gradientTransform="matrix(1.9342 0 0 2.1266 -109.6 -21.1)" cx="99.2" cy="38.6" fx="99.2" fy="38.6" r="11.4"/><radialGradient xlink:href="#q" id="K" gradientUnits="userSpaceOnUse" gradientTransform="matrix(2.2881 0 0 1.5903 -108.4 -28.4)" cx="84.1" cy="50" fx="84.1" fy="50" r="13"/><radialGradient xlink:href="#f" id="ag" cx="-73.9" cy="146.2" fx="-73.9" fy="146.2" r="20.1" gradientTransform="matrix(1 0 0 .55708 0 68.8)" gradientUnits="userSpaceOnUse"/><radialGradient xlink:href="#f" id="ah" gradientUnits="userSpaceOnUse" gradientTransform="matrix(.41351 0 0 .23036 -62.7 120.8)" cx="-101.2" cy="162.9" fx="-101.2" fy="162.9" r="20.1"/><radialGradient xlink:href="#e" id="ai" gradientUnits="userSpaceOnUse" gradientTransform="matrix(1 0 0 .68844 0 10.8)" cx="14.4" cy="34.8" fx="14.4" fy="34.8" r="8.8"/><radialGradient xlink:href="#r" id="ak" cx="211.4" cy="217.4" fx="211.4" fy="217.4" r="21.6" gradientTransform="matrix(.52965 0 0 .55108 -17 -13.3)" gradientUnits="userSpaceOnUse"/><radialGradient xlink:href="#r" id="al" gradientUnits="userSpaceOnUse" gradientTransform="matrix(-.39975 0 0 -.41593 110 184.8)" cx="207.4" cy="217.2" fx="207.4" fy="217.2" r="21.6"/><filter color-interpolation-filters="sRGB" id="v" x="0" y="0" width="1" height="1"><feGaussianBlur stdDeviation=".3"/></filter><filter color-interpolation-filters="sRGB" id="J" y="-.2" height="1.3" x="-inf" width="inf"><feGaussianBlur stdDeviation=".1"/></filter><filter color-interpolation-filters="sRGB" id="N" x="0" y="0" width="1.1" height="1.1"><feGaussianBlur stdDeviation=".1"/></filter><filter color-interpolation-filters="sRGB" id="S" x="0" y="0" width="1" height="1"><feGaussianBlur stdDeviation=".1"/></filter><filter color-interpolation-filters="sRGB" id="aa" x="0" y="0" width="1" height="1.1"><feGaussianBlur stdDeviation=".2"/></filter><filter color-interpolation-filters="sRGB" id="af" x="0" y="0" width="1" height="1.1"><feGaussianBlur stdDeviation=".2"/></filter><filter color-interpolation-filters="sRGB" id="aj" x="-.4" width="1.8" y="-.6" height="2.1"><feGaussianBlur stdDeviation="2.9"/></filter><clipPath clipPathUnits="userSpaceOnUse" id="u"><rect width="58.3" height="58.3" x="68.8" y="-.1" rx="2.6" ry="2.6" opacity=".7" fill="none" stroke="#000" stroke-width=".5"/></clipPath><clipPath clipPathUnits="userSpaceOnUse" id="L"><path d="M-6.6 24.5q-.6 0-.9.5h0l-.4.3-4.2 1.3h-.1q-1 .4-1.1 1t.1 1q.6.7 1.4.7l-.4.5-.1.2-.1.5q0 0 0 0v6.7q0 .5.2.9.3.3 1 .4h7.8q.5 0 .9-.4L2 33.3q.4-.4.4-.9v-6.6q0-.6-.4-.9-.3-.4-.8-.4Z" fill="none" stroke="#555753" stroke-width=".3" stroke-linecap="round" stroke-linejoin="round" stroke-dashoffset=".7"/></clipPath><clipPath clipPathUnits="userSpaceOnUse" id="ae"><path d="m-95.3 143.8-8.1 6.5q-3.1 2.6-4.7 4.8-1 1.1-.7 2.8.3 1 1.1 1.4t1.5.5q3.3.2 7.9-1.3l10.2-3.2q5.5-2 10.4-3 4.8-1.2 7.3-.6c.8.2.8.4.8.4l-.2.9c-.6 1.2-2.3 3.1-4.2 5-4 3.6-8.9 7-8.9 7l1.8 2.5s5-3.5 9.1-7.4c2.1-2 4-3.9 4.9-5.8q.8-1.6.3-3.3-.7-1.7-2.8-2.2-3.8-.7-8.8.5-5 1.3-10.6 3-5.5 2-10.1 3.3t-6.5 1.2c.6-1 2.3-2.6 4.1-4.2l8-6.3z" fill="none" stroke="#204a87" stroke-linejoin="round"/></clipPath><mask maskUnits="userSpaceOnUse" id="ad"><rect width="51.3" height="17.3" x="-115.6" y="147" rx=".7" ry=".7" fill="url(#s)" fill-rule="evenodd" stroke-width="2"/></mask></defs><g transform="translate(-86 -126.5)"><g transform="translate(73 118.6)scale(.49953)"><rect ry="2.6" rx="2.6" y="15.8" x="46.5" height="58.3" width="58.3" fill="url(#t)" fill-rule="evenodd"/><rect transform="translate(-22.2 15.9)" clip-path="url(#u)" width="58.3" height="58.3" x="68.8" y="-.1" rx="2.6" ry="2.6" opacity=".4" fill="none" stroke="#000" stroke-width="1.1" filter="url(#v)"/><rect transform="matrix(.98182 0 0 .96381 -20.5 17.5)" ry="2.7" rx="2.6" y="-.1" x="68.8" height="58.3" width="58.3" clip-path="url(#u)" fill="none" stroke="url(#w)" stroke-width="1.1" filter="url(#v)"/><g transform="translate(-22.2 17)" fill-rule="evenodd"><circle transform="translate(-52 -21.1)scale(.78645)" cx="157.3" cy="31.1" r="1" fill="#fff"/><circle transform="translate(-52 -21.6)scale(.78645)" cx="157.3" cy="31.1" r="1" fill="url(#x)"/></g><g transform="translate(29.7 17)" fill-rule="evenodd"><circle transform="translate(-52 -21.1)scale(.78645)" cx="157.3" cy="31.1" r="1" fill="#fff"/><circle transform="translate(-52 -21.6)scale(.78645)" cx="157.3" cy="31.1" r="1" fill="url(#y)"/></g><g transform="translate(-22.2 67.8)" fill-rule="evenodd"><circle transform="translate(-52 -21.1)scale(.78645)" cx="157.3" cy="31.1" r="1" opacity=".5" fill="#fff"/><circle transform="translate(-52 -21.6)scale(.78645)" cx="157.3" cy="31.1" r="1" fill="url(#z)"/></g><g transform="translate(29.7 67.8)" fill-rule="evenodd"><circle transform="translate(-52 -21.1)scale(.78645)" cx="157.3" cy="31.1" r="1" opacity=".6" fill="#fff"/><circle transform="translate(-52 -21.6)scale(.78645)" cx="157.3" cy="31.1" r="1" fill="url(#A)"/></g><g transform="translate(-5.3 -4.2)"><path d="M77.4 35.9q-.5 0-.6.6v3.7H72q-1.1 0-1.2 1.2v18.3q0 1.1 1.2 1.2h20.4q1 0 1.1-1.2V41.4q-.1-1.1-1.1-1.2h-4.6v-3.7q0-.5-.6-.6z" fill="url(#B)" fill-rule="evenodd"/><path d="M84.7 58.1v-4.5" fill="none" stroke="url(#C)" stroke-linecap="round"/><path d="M86.8 58.1v-4.5" fill="none" stroke="url(#D)" stroke-linecap="round"/><path d="M89 58.1v-4.5" fill="none" stroke="url(#E)" stroke-linecap="round"/><path d="M76.2 58.1v-4.5" fill="none" stroke="url(#F)" stroke-linecap="round"/><path d="M78.4 58.1v-4.5" fill="none" stroke="url(#G)" stroke-linecap="round"/><path d="M80.4 58.1v-4.5" fill="none" stroke="url(#H)" stroke-linecap="round"/><path d="M82.5 58.1v-4.5" fill="none" stroke="url(#I)" stroke-linecap="round" filter="url(#J)"/><path d="M77.4 35.6a1 1 0 0 0-1 1v3.3h-4.3q-1.4.1-1.5 1.5v18.3q.2 1.4 1.5 1.5h20.4q1.3-.2 1.4-1.5V41.4q-.1-1.3-1.4-1.5h-4.3v-3.4q0-.9-1-1z" fill="none" stroke="url(#K)" stroke-width=".5"/></g></g><g transform="translate(79.7 119)scale(.49953)"><path clip-path="url(#L)" d="M-6.6 24.5q-.6 0-.9.5h0l-.4.3-4.2 1.3h-.1q-1 .4-1.1 1t.1 1q.6.7 1.4.7l-.4.5-.1.2-.1.5q0 0 0 0v6.7q0 .5.2.9.3.3 1 .4h7.8q.5 0 .9-.4L2 33.3q.4-.4.4-.9v-6.6q0-.6-.4-.9-.3-.4-.8-.4Z" transform="translate(53.4 11.2)scale(2.132)" fill="#7d7d7d" fill-rule="evenodd" stroke="url(#M)" stroke-width=".5" stroke-linecap="round" stroke-linejoin="round" stroke-dashoffset=".7" filter="url(#N)"/><g transform="translate(53.3 12)scale(2.107)"><g transform="matrix(1.1667 0 0 1.2 -3.8 -36.2)" fill-rule="evenodd"><path d="M-2.3 50.8q-.4 0-.6.3l-4 4-.2.5v5.6q0 .6.7.7H.4q.3 0 .5-.2l4-4 .3-.5v-5.7L5 51l-.5-.2Z" fill="url(#O)"/><path d="M-6.4 55.2H.1q.5 0 .6.6v5.4q0 .5-.6.6h-6.5l-.6-.6v-5.4q0-.5.6-.6" fill="url(#P)"/></g><path d="m-5 25-5 5h4l5-5z" opacity=".1" fill="url(#Q)" fill-rule="evenodd"/><path d="m-1 25-9.5 4H-7l5-3z" fill="#babdb6" fill-rule="evenodd"/><path transform="translate(0 -.4)scale(1.0124)" d="m-6.6 25-.2.2H-7v.1h0l-.1.2-.3.2-.4.2-4.5 1.3q-.6.3-.7.5v.1q.1.2 1 .4.5 0 .7.7.1.5-.2 1l-.4.4v7.6H-3q0 0 0 0l5-5.2V25z" opacity=".5" fill="none" stroke="url(#R)" stroke-width=".3" stroke-linecap="round" stroke-linejoin="round" stroke-dashoffset=".7" filter="url(#S)"/><path d="m-1 25-11 2.5 2 1.5h3l5-3z" fill="url(#T)" fill-rule="evenodd"/><path d="m-5 25-7 2h4l7-2z" fill="url(#U)" fill-rule="evenodd"/><path d="M-12 27h4c-2 1-.5 2 1 2h-4c-1.5 0-3-1-1-2" fill="url(#V)" fill-rule="evenodd"/><path d="M-9.6 32h4.2q.3 0 .4.4v3.2q0 .4-.4.4h-4.2q-.4 0-.4-.4v-3.2q0-.4.4-.4" fill="url(#W)" fill-rule="evenodd"/></g><path d="m-95.2 149.3-1.3 2.4h-3.5l2-2.4z" transform="translate(242.9 -226.7)scale(2.107)" opacity=".2" fill="url(#X)" fill-rule="evenodd"/><path d="m-95.3 143.8-8.1 6.5q-3.1 2.6-4.7 4.8-1 1.1-.7 2.8.3 1 1.1 1.4t1.5.5q3.3.2 7.9-1.3l10.2-3.2q5.5-2 10.4-3 4.8-1.2 7.3-.6c.8.2.8.4.8.4l-.2.9c-.6 1.2-2.3 3.1-4.2 5-4 3.6-8.9 7-8.9 7l1.8 2.5s5-3.5 9.1-7.4c2.1-2 4-3.9 4.9-5.8q.8-1.6.3-3.3-.7-1.7-2.8-2.2-3.8-.7-8.8.5-5 1.3-10.6 3-5.5 2-10.1 3.3t-6.5 1.2c.6-1 2.3-2.6 4.1-4.2l8-6.3z" transform="translate(242.9 -226.7)scale(2.107)" fill="url(#Y)" fill-rule="evenodd"/><path d="M-94.3 144.6s-18.5 12.6-12 13.4c6.5.7 28-10 36-8s-12 16-12 16" transform="translate(242.9 -226.7)scale(2.107)" opacity=".2" fill="none" stroke="url(#Z)" filter="url(#aa)"/><path d="m-99.9 143.3.3 2h4.2q.4 0 .4.4v3.2l2-.3V144q0-.7-.7-.8z" transform="translate(242.9 -226.7)scale(2.107)" fill="url(#ab)" fill-rule="evenodd"/><path d="M-99.6 145.3h4.2q.4 0 .4.4v3.1q0 .5-.4.5h-4.2q-.3 0-.4-.5v-3q0-.5.4-.5" transform="translate(242.9 -226.7)scale(2.107)" opacity=".4" fill="url(#ac)" fill-rule="evenodd"/><path mask="url(#ad)" clip-path="url(#ae)" d="m-95.3 143.8-8.1 6.5q-3.1 2.6-4.7 4.8-1 1.1-.7 2.8.3 1 1.1 1.4t1.5.5q3.3.2 7.9-1.3l10.2-3.2q5.5-2 10.4-3 4.8-1.2 7.3-.6c.8.2.8.4.8.4l-.2.9c-.6 1.2-2.3 3.1-4.2 5-4 3.6-8.9 7-8.9 7l1.8 2.5s5-3.5 9.1-7.4c2.1-2 4-3.9 4.9-5.8q.8-1.6.3-3.3-.7-1.7-2.8-2.2-3.8-.7-8.8.5-5 1.3-10.6 3-5.5 2-10.1 3.3t-6.5 1.2c.6-1 2.3-2.6 4.1-4.2l8-6.3z" transform="translate(242.9 -226.7)scale(2.107)" opacity=".5" fill="none" stroke="#204a87" stroke-width=".5" stroke-linejoin="round" filter="url(#af)"/><path d="M-94.3 144.6s-18.5 12.6-12 13.4c6.5.7 28-10 36-8s-12 16-12 16" transform="translate(242.9 -226.7)scale(2.107)" fill="none" stroke="url(#ag)" filter="url(#aa)"/><path d="M-94.3 144.6s-18.5 12.6-12 13.4c6.5.7 28-10 36-8s-12 16-12 16" transform="translate(242.9 -226.7)scale(2.107)" fill="none" stroke="url(#ah)" filter="url(#aa)"/><ellipse transform="matrix(2.4357 0 0 3.1841 16 -28.9)" cx="14.4" cy="34.8" rx="8.8" ry="6.1" opacity=".2" fill="url(#ai)" fill-rule="evenodd" filter="url(#aj)"/><path d="M79 120c8.5-7.4 18.6-13.8 22.9-23.8-6.6 9-15 16-23 23.8" transform="scale(.99998)" fill="url(#ak)" fill-rule="evenodd"/><path d="M41 84.6c-6.4 3.9-18.2 10-23 19.7 7-8.7 15-13.7 23-19.7" transform="scale(.99998)" opacity=".5" fill="url(#al)" fill-rule="evenodd"/></g></g></svg>