<svg width="44.41" height="50.44" version="1.1" viewBox="0 0 44.46 50.49" xmlns="http://www.w3.org/2000/svg" xmlns:xlink="http://www.w3.org/1999/xlink"><defs><linearGradient id="f"><stop stop-color="#fff" offset="0"/><stop stop-color="#fff" stop-opacity="0" offset="1"/></linearGradient><linearGradient id="a"><stop stop-color="#edd400" offset="0"/><stop stop-color="#edd400" stop-opacity="0" offset="1"/></linearGradient><linearGradient id="d"><stop stop-color="#fff" offset="0"/><stop stop-color="#d3d7cf" offset="1"/></linearGradient><linearGradient id="e"><stop offset="0"/><stop stop-opacity="0" offset="1"/></linearGradient><radialGradient id="radialGradient7885" cx="14.36" cy="34.79" r="8.795" gradientTransform="matrix(1 0 0 .6884 0 10.84)" gradientUnits="userSpaceOnUse" xlink:href="#e"/><filter id="filter5386" x="-.01972" y="-.02176" width="1.039" height="1.044" color-interpolation-filters="sRGB"><feGaussianBlur stdDeviation="0.26293105"/></filter><linearGradient id="linearGradient7887" x1="-7.975" x2="-11.01" y1="25.36" y2="-6.568" gradientTransform="matrix(2 0 0 1.933 43.5 .5333)" gradientUnits="userSpaceOnUse"><stop stop-color="#d3d7cf" offset="0"/><stop stop-color="#fff" offset="1"/></linearGradient><linearGradient id="linearGradient7889" x1="-7.852" x2="-5.51" y1="3.755" y2="18.94" gradientUnits="userSpaceOnUse" xlink:href="#f"/><linearGradient id="linearGradient7891" x1="28.62" x2="30.5" y1="41.12" y2="47.81" gradientUnits="userSpaceOnUse" xlink:href="#e"/><filter id="filter5406" x="-.04335" y="-.07587" width="1.087" height="1.152" color-interpolation-filters="sRGB"><feGaussianBlur stdDeviation="0.78208031"/></filter><linearGradient id="linearGradient7893" x1="1.626" x2=".8221" y1="55.22" y2="54.42" gradientUnits="userSpaceOnUse"><stop stop-color="#adb0a8" offset="0"/><stop stop-color="#fff" offset="1"/></linearGradient><linearGradient id="linearGradient7895" x1="-4.221" x2="-4.221" y1="59.88" y2="54.71" gradientTransform="matrix(.9643 0 0 .9722 -.25 1.694)" gradientUnits="userSpaceOnUse" xlink:href="#d"/><linearGradient id="linearGradient7897" x1="-1.989" x2="-3.359" y1="51.14" y2="54" gradientTransform="translate(-4,-24)" gradientUnits="userSpaceOnUse" xlink:href="#e"/><linearGradient id="linearGradient7899" x1="-4.685" x2=".8839" y1="52.64" y2="50.56" gradientTransform="translate(-4,-24)" gradientUnits="userSpaceOnUse"><stop stop-color="#eeeeec" offset="0"/><stop stop-color="#babdb6" offset="1"/></linearGradient><linearGradient id="linearGradient7901" x1="-5.082" x2=".2652" y1="50.52" y2="49.46" gradientTransform="translate(-4,-24)" gradientUnits="userSpaceOnUse"><stop stop-color="#eeeeec" offset="0"/><stop stop-color="#fff" offset="1"/></linearGradient><linearGradient id="linearGradient7903" x1="-5.969" x2="-5.969" y1="52.88" y2="51.81" gradientTransform="translate(-4,-24)" gradientUnits="userSpaceOnUse"><stop stop-color="#888a85" offset="0"/><stop stop-color="#fff" offset="1"/></linearGradient><linearGradient id="linearGradient7905" x1="-3.536" x2="-3.536" y1="55.87" y2="59.44" gradientTransform="matrix(1 0 0 1.029 -4 -25.14)" gradientUnits="userSpaceOnUse"><stop stop-color="#555753" offset="0"/><stop stop-color="#d3d7cf" offset="1"/></linearGradient><linearGradient id="linearGradient7907" x1="32.81" x2="32.81" y1="21" y2="26.2" gradientTransform="matrix(1.088 0 0 1.086 -1.581 -8.943)" gradientUnits="userSpaceOnUse"><stop stop-color="#2e3436" offset="0"/><stop stop-color="#555753" offset="1"/></linearGradient><linearGradient id="linearGradient7909" x1="28.88" x2="29" y1="29" y2="16" gradientTransform="translate(1,-7)" gradientUnits="userSpaceOnUse" xlink:href="#f"/><linearGradient id="linearGradient7919" x1="30.31" x2="30.31" y1="27.31" y2="24.69" gradientUnits="userSpaceOnUse" xlink:href="#a"/><linearGradient id="linearGradient7921" x1="37.62" x2="38.88" y1="40.31" y2="45.06" gradientUnits="userSpaceOnUse"><stop stop-color="#729fcf" offset="0"/><stop stop-color="#729fcf" stop-opacity="0" offset="1"/></linearGradient><linearGradient id="linearGradient7923" x1="38.75" x2="40.12" y1="40.62" y2="46.56" gradientUnits="userSpaceOnUse"><stop stop-color="#3465a4" offset="0"/><stop stop-color="#3465a4" stop-opacity="0" offset="1"/></linearGradient><linearGradient id="linearGradient7925" x1="41.19" x2="42.12" y1="38.31" y2="42.94" gradientUnits="userSpaceOnUse" xlink:href="#f"/><linearGradient id="linearGradient7927" x1="-4.11" x2="-4.11" y1="58.81" y2="55" gradientTransform="matrix(1.125 0 0 1.167 15.88 -34.14)" gradientUnits="userSpaceOnUse" xlink:href="#d"/><linearGradient id="linearGradient7929" x1="-6.406" x2="-7.781" y1="32.44" y2="34.56" gradientUnits="userSpaceOnUse" xlink:href="#e"/></defs><g transform="matrix(.9021 0 0 .9021 .9226 -.9079)" enable-background="new"><g fill-rule="evenodd"><path d="m5 12h5-3z" fill="#fff"/><ellipse transform="matrix(1.156 0 0 1.117 -1.489 -5.813)" cx="14.36" cy="34.79" rx="8.795" ry="6.055" fill="url(#radialGradient7885)" opacity=".459"/><rect transform="matrix(1.016 0 0 1.016 -.4902 -.2715)" x="15.38" y="2.875" width="32" height="29" rx="3.723" ry="3.723" filter="url(#filter5386)" opacity=".1205"/><rect x="14.5" y="1.5" width="32" height="29" rx="2.877" ry="2.781" fill="url(#linearGradient7887)" stroke="#888a85" stroke-dashoffset=".7" stroke-linecap="round" stroke-linejoin="round" stroke-opacity=".9924"/></g><path transform="matrix(2.143 0 0 2.087 44.43 -.6302)" d="m-12.5 1.498c-0.573 0-1.002 0.429-1.002 1.002v11c0 0.573 0.429 1.002 1.002 1.002h12c0.573 0 1.002-0.429 1.002-1.002v-11c0-0.573-0.429-1.002-1.002-1.002z" fill="none" stroke="url(#linearGradient7889)" stroke-dashoffset=".7" stroke-linecap="round" stroke-linejoin="round" stroke-opacity=".9924" stroke-width=".4729"/><path transform="translate(.25 -.625)" d="m14.9 31a0.5095 0.5095 0 0 0-0.393 0.102s-4.318 3.332-8.232 6.572c-1.965 1.627-3.742 3.245-4.82 4.894-0.5228 0.8-1.105 1.856-0.7207 3.202 0.2088 0.73 0.7167 1.346 1.324 1.705 0.5543 0.327 1.119 0.468 1.701 0.535 2.271 0.262 4.92-0.406 8.043-1.297 3.13-0.893 6.69-2.089 10.27-3.256 3.578-1.166 7.182-2.3 10.3-2.986 3.107-0.685 5.777-0.846 7.143-0.504 0.217 0.05 0.251 0.08 0.332 0.107-0.02 0.106-0.04 0.226-0.139 0.432-0.49 1.041-2.155 2.984-4.074 4.783-3.845 3.605-8.789 7.08-8.789 7.08a0.5095 0.5095 0 0 0-0.121 0.713l1.75 2.438a0.5095 0.5095 0 0 0 0.705 0.121s5.059-3.528 9.213-7.422c2.074-1.945 3.939-3.932 4.926-6.029 0.492-1.047 0.861-2.332 0.359-3.649-0.51-1.339-1.784-2.154-3.166-2.5-2.606-0.651-5.653-0.213-9.014 0.527-3.366 0.743-7.06 1.867-10.67 3.045s-7.133 2.396-10.11 3.245c-2.185 0.623-3.874 0.901-5.107 1.003 0.7861-0.874 1.894-1.958 3.26-3.089 3.712-3.073 7.958-6.366 7.956-6.366a0.5095 0.5095 0 0 0 0.11-0.687l-1.688-2.5a0.5095 0.5095 0 0 0-0.339-0.219z" fill="url(#linearGradient7891)" fill-rule="evenodd" filter="url(#filter5406)" opacity=".3193"/><g transform="translate(20)"><g transform="matrix(1.167 0 0 1.2 -3.833 -36.2)" fill-rule="evenodd"><path d="m-2.344 51c-0.2048 0-0.3812 0.101-0.5 0.25l-4.016 4c-0.035 0.132-0.099 0.271-0.1406 0.406v5.521c0 0.364 0.2965 0.656 0.6563 0.656h6.687c0.1799 0 0.3514-0.07 0.4688-0.187l4-4c0.1174-0.119 0.1875-0.287 0.1875-0.469v-5.521c0-0.182-0.0701-0.35-0.1875-0.468-0.1191-0.119-0.2889-0.188-0.4688-0.188z" fill="url(#linearGradient7893)"/><path d="m-6.374 55.17h6.462c0.3469 0 0.6262 0.284 0.6262 0.638v5.39c0 0.354-0.2793 0.638-0.6262 0.638h-6.462c-0.3468 0-0.6261-0.284-0.6261-0.638v-5.39c0-0.354 0.2793-0.638 0.6261-0.638z" fill="url(#linearGradient7895)"/></g><path d="m-5 25-5 5h4l5-5h-4" fill="url(#linearGradient7897)" fill-rule="evenodd" opacity=".1231"/><path d="m-1 25-9.5 4h3.5l5-3 1-1" fill="#babdb6" fill-rule="evenodd"/><path d="m-6.562 25.5c-0.024 0-0.055 0-0.1562 0.125-0.03 0.02-0.061 0.04-0.094 0.06-0.02 0.02-0.041 0.04-0.062 0.06-0.02 0.02-0.041 0.04-0.062 0.06h-0.031c-0.02 0.02-0.041 0.04-0.062 0.06l-0.1875 0.187c-0.1069 0.101-0.2351 0.176-0.375 0.219l-4.252 1.229c-0.4 0.208-0.534 0.349-0.594 0.469 0 0 0.04 0.134 0 0.09 0.08 0.1 0.361 0.253 0.844 0.344 0.34 0.07 0.617 0.314 0.727 0.643s0.04 0.692-0.196 0.951l-0.343 0.375c-0.02 0.09-0.05 0.17-0.09 0.312v0.06 6.5c0 0.05 0 0.116 0.06 0.188 0.03 0.04 0.104 0.06 0.157 0.06h7.844c0.093 0 0.1684-0.01 0.2188-0.06-2e-4 -0.01-2e-4 -0.02 0-0.03l4.654-4.808c0.0522-0.054 0.0625-0.079 0.0625-0.188v-6.625c0-0.108-0.01-0.164-0.062-0.219-0.0373-0.037-0.1555-0.062-0.188-0.062z" fill="none" opacity=".5336" stroke="#fff" stroke-dashoffset=".7" stroke-linecap="round" stroke-linejoin="round"/><path d="m-6.562 24.53c-0.3877 0-0.6917 0.219-0.9062 0.469l-0.031-0.03-0.031 0.06-0.3438 0.313-4.25 1.218c-0.03 0-0.06 0.02-0.09 0.03-0.549 0.274-0.902 0.554-1.094 0.937-0.192 0.384-0.116 0.867 0.125 1.156 0.329 0.394 0.858 0.553 1.407 0.657l-0.407 0.437c-0.06 0.05-0.1 0.116-0.125 0.188-0.03 0.121-0.07 0.316-0.125 0.5-0.02 0.04-0.03 0.08-0.03 0.125v6.656c0 0.299 0.113 0.582 0.313 0.813 0.199 0.23 0.511 0.406 0.875 0.406h7.843c0.3236 0 0.6569-0.116 0.9063-0.375l4.651-4.81c0.2259-0.235 0.3437-0.539 0.3437-0.875v-6.625c0-0.335-0.1178-0.64-0.3437-0.875-0.2227-0.229-0.5504-0.375-0.874-0.375z" fill="none" stroke="#555753" stroke-dashoffset=".7" stroke-linecap="round" stroke-linejoin="round"/><g fill-rule="evenodd"><path d="m-1 25-11 2.5 2 1.5h3l5-3 1-1" fill="url(#linearGradient7899)"/><path d="m-5 25-7 2h4l7-2h-4" fill="url(#linearGradient7901)"/><path d="m-12 27h4c-2 1-0.5 2 1 2h-4c-1.5 0-3-1-1-2z" fill="url(#linearGradient7903)"/><path d="m-9.594 32h4.188c0.2248 0 0.4058 0.195 0.4058 0.438v3.125c0 0.242-0.181 0.437-0.4058 0.437h-4.188c-0.2248 0-0.4058-0.195-0.4058-0.437v-3.125c0-0.243 0.181-0.438 0.4058-0.438z" fill="url(#linearGradient7905)"/></g></g><path d="m29.48 10.07c-0.639 0-1.155 0.516-1.155 1.154v0.288c0 0.293-0.229 0.543-0.544 0.543h-1.563c-0.639 0-1.155 0.704-1.155 1.342v6.445c0 0.638 0.516 1.154 1.155 1.154h8.564c0.639 0 1.155-0.516 1.155-1.154v-6.445c0-0.638-0.516-1.342-1.155-1.342h-1.563c-0.262 0.02-0.544-0.186-0.544-0.526v-0.305c0-0.638-0.516-1.154-1.155-1.154z" fill="url(#linearGradient7907)" fill-rule="evenodd"/><path d="m29.56 9.438c-1.109 0-1.984 0.9085-2.062 2h-0.938c-1.159 0-2.125 0.965-2.125 2.125v5.874c0 1.16 0.966 2.125 2.125 2.125h7.876c1.159 0 2.125-0.965 2.125-2.125v-5.874c0-1.16-0.966-2.125-2.125-2.125h-0.938c-0.078-1.092-0.953-2-2.063-2z" fill="none" stroke="url(#linearGradient7909)" stroke-dashoffset=".7" stroke-linecap="round"/><g transform="translate(1,-8)" fill="none" stroke="url(#linearGradient7919)" stroke-linecap="round" stroke-width="1px"><path d="m26.5 26.5v-2"/><path d="m28.5 26.5v-2"/><path d="m30.5 26.5v-2"/><path d="m32.5 26.5v-2"/></g><path d="m14.69 30.56s-4.19 3.268-8.094 6.501c-1.952 1.616-3.698 3.221-4.719 4.781-0.5103 0.78-0.9871 1.623-0.6562 2.781 0.1654 0.579 0.6113 1.121 1.094 1.406s0.9582 0.406 1.5 0.469c2.124 0.245 4.731-0.394 7.844-1.281 3.113-0.888 6.669-2.083 10.25-3.25 3.581-1.168 7.197-2.306 10.34-3s5.835-0.885 7.375-0.5c0.729 0.182 0.746 0.301 0.75 0.312 0 0.01 0.06 0.336-0.219 0.938-0.566 1.204-2.245 3.116-4.187 4.937-3.885 3.642-8.844 7.125-8.844 7.125l1.75 2.438s5.041-3.517 9.156-7.375c2.058-1.929 3.879-3.892 4.813-5.875 0.466-0.992 0.777-2.113 0.344-3.25-0.434-1.137-1.542-1.87-2.813-2.188-2.46-0.615-5.444-0.204-8.781 0.532-3.337 0.735-7.019 1.855-10.62 3.031-3.607 1.176-7.129 2.395-10.12 3.25-2.912 0.83-5.298 1.22-6.469 1.125 0.6199-0.948 2.296-2.554 4.156-4.094 3.721-3.08 7.969-6.375 7.969-6.375z" fill="url(#linearGradient7921)" fill-rule="evenodd" stroke="url(#linearGradient7923)" stroke-linejoin="round"/><path d="m15.67 31.27s-18.44 12.69-11.94 13.44c6.5 0.75 28-10 36-8s-12 16-12 16" fill="none" opacity=".1903" stroke="url(#linearGradient7925)" stroke-width="1px"/><path d="m10.09 30.03 0.317 2h4.188c0.225 0 0.406 0.195 0.406 0.438v3.125l2-0.313v-4.469c0-0.424-0.314-0.781-0.719-0.781z" fill="url(#linearGradient7927)" fill-rule="evenodd"/><path transform="translate(20)" d="m-9.594 32h4.188c0.2248 0 0.4058 0.195 0.4058 0.438v3.125c0 0.242-0.181 0.437-0.4058 0.437h-4.188c-0.2248 0-0.4058-0.195-0.4058-0.437v-3.125c0-0.243 0.181-0.438 0.4058-0.438z" fill="url(#linearGradient7929)" fill-rule="evenodd" opacity=".3545"/></g></svg>
