<svg width="32" height="32" version="1.1" viewBox="0 0 48 48" xmlns="http://www.w3.org/2000/svg" xmlns:xlink="http://www.w3.org/1999/xlink"><defs><linearGradient id="linearGradient7887" x1="-7.975" x2="-11.01" y1="25.36" y2="-6.568" gradientTransform="matrix(2 0 0 1.933 43.5 .5333)" gradientUnits="userSpaceOnUse"><stop stop-color="#d3d7cf" offset="0"/><stop stop-color="#fff" offset="1"/></linearGradient><linearGradient id="linearGradient7889" x1="-7.852" x2="-5.51" y1="3.755" y2="18.94" gradientUnits="userSpaceOnUse"><stop stop-color="#fff" offset="0"/><stop stop-color="#fff" stop-opacity="0" offset="1"/></linearGradient><filter id="filter5386" x="-.01972" y="-.02176" width="1.039" height="1.044" color-interpolation-filters="sRGB"><feGaussianBlur stdDeviation="0.26293105"/></filter><linearGradient id="linearGradient7893" x1="1.626" x2=".8221" y1="55.22" y2="54.42" gradientUnits="userSpaceOnUse"><stop stop-color="#adb0a8" offset="0"/><stop stop-color="#fff" offset="1"/></linearGradient><linearGradient id="linearGradient7895" x1="-4.221" x2="-4.221" y1="59.88" y2="54.71" gradientTransform="matrix(.9643 0 0 .9722 -.25 1.694)" gradientUnits="userSpaceOnUse" xlink:href="#linearGradient7269-5"/><linearGradient id="linearGradient7269-5"><stop stop-color="#fff" offset="0"/><stop stop-color="#d3d7cf" offset="1"/></linearGradient><linearGradient id="linearGradient7897" x1="-1.989" x2="-3.359" y1="51.14" y2="54" gradientTransform="translate(-4,-24)" gradientUnits="userSpaceOnUse" xlink:href="#linearGradient7822-4"/><linearGradient id="linearGradient7822-4"><stop offset="0"/><stop stop-opacity="0" offset="1"/></linearGradient><linearGradient id="linearGradient7899" x1="-4.685" x2=".8839" y1="52.64" y2="50.56" gradientTransform="translate(-4,-24)" gradientUnits="userSpaceOnUse"><stop stop-color="#eeeeec" offset="0"/><stop stop-color="#babdb6" offset="1"/></linearGradient><linearGradient id="linearGradient7901" x1="-5.082" x2=".2652" y1="50.52" y2="49.46" gradientTransform="translate(-4,-24)" gradientUnits="userSpaceOnUse"><stop stop-color="#eeeeec" offset="0"/><stop stop-color="#fff" offset="1"/></linearGradient><linearGradient id="linearGradient7903" x1="-5.969" x2="-5.969" y1="52.88" y2="51.81" gradientTransform="translate(-4,-24)" gradientUnits="userSpaceOnUse"><stop stop-color="#888a85" offset="0"/><stop stop-color="#fff" offset="1"/></linearGradient><linearGradient id="linearGradient7905" x1="-3.536" x2="-3.536" y1="55.87" y2="59.44" gradientTransform="matrix(1 0 0 1.029 -4 -25.14)" gradientUnits="userSpaceOnUse"><stop stop-color="#555753" offset="0"/><stop stop-color="#d3d7cf" offset="1"/></linearGradient><linearGradient id="linearGradient7921" x1="17.94" x2="23.28" y1="42.91" y2="43.08" gradientUnits="userSpaceOnUse"><stop stop-color="#729fcf" offset="0"/><stop stop-color="#729fcf" stop-opacity="0" offset="1"/></linearGradient><linearGradient id="linearGradient7923" x1="17.83" x2="28.36" y1="40.38" y2="40.87" gradientUnits="userSpaceOnUse"><stop stop-color="#3465a4" offset="0"/><stop stop-color="#3465a4" stop-opacity="0" offset="1"/></linearGradient><linearGradient id="linearGradient7927" x1="-4.11" x2="-4.11" y1="58.81" y2="55" gradientTransform="matrix(1.125 0 0 1.167 15.88 -34.14)" gradientUnits="userSpaceOnUse" xlink:href="#linearGradient7269-5"/><linearGradient id="linearGradient7929" x1="-6.406" x2="-7.781" y1="32.44" y2="34.56" gradientUnits="userSpaceOnUse" xlink:href="#linearGradient7822-4"/></defs><clipPath id="b"><rect x="68.78" y="-.0933" width="58.26" height="58.26" rx="2.648"/></clipPath><filter id="c" x="-.021" y="-.021" width="1.042" height="1.042" color-interpolation-filters="sRGB"><feGaussianBlur stdDeviation=".28282197"/></filter><clipPath id="h"><path d="m-6.562 24.53c-0.3877 0-0.6917 0.219-0.9062 0.469l-0.031-0.03-0.031 0.06-0.3438 0.313-4.25 1.218c-0.03 0-0.06 0.02-0.09 0.03-0.549 0.274-0.902 0.554-1.094 0.937-0.192 0.384-0.116 0.867 0.125 1.156 0.329 0.394 0.858 0.553 1.407 0.657l-0.407 0.437c-0.06 0.05-0.1 0.116-0.125 0.188-0.03 0.121-0.07 0.316-0.125 0.5-0.02 0.04-0.03 0.08-0.03 0.125v6.656c0 0.299 0.113 0.582 0.313 0.813 0.199 0.23 0.511 0.406 0.875 0.406h7.843c0.3236 0 0.6569-0.116 0.9063-0.375l4.651-4.81c0.2259-0.235 0.3437-0.539 0.3437-0.875v-6.625c0-0.335-0.1178-0.64-0.3437-0.875-0.2227-0.229-0.5504-0.375-0.874-0.375z"/></clipPath><filter id="i" x="-.03844" y="-.04352" width="1.077" height="1.087" color-interpolation-filters="sRGB"><feGaussianBlur stdDeviation=".1491362"/></filter><filter id="p" x="-.02026" y="-.02354" width="1.04" height="1.047" color-interpolation-filters="sRGB"><feGaussianBlur stdDeviation=".071069152"/></filter><filter id="x" x="-.03625" y="-.04222" width="1.071" height="1.083" color-interpolation-filters="sRGB"><feGaussianBlur stdDeviation=".16679387"/></filter><clipPath id="A"><path d="m-95.3 143.8s-4.189 3.27-8.1 6.5c-1.95 1.62-3.69 3.22-4.72 4.78-0.51 0.78-0.98 1.62-0.65 2.78 0.16 0.58 0.61 1.12 1.09 1.41 0.48 0.28 0.96 0.4 1.5 0.47 2.13 0.24 4.73-0.4 7.849-1.28 3.113-0.89 6.669-2.09 10.25-3.25 3.581-1.17 7.196-2.31 10.34-3 3.147-0.7 5.835-0.89 7.375-0.5 0.729 0.18 0.745 0.3 0.75 0.31 0 0 0.06 0.33-0.219 0.94-0.567 1.2-2.245 3.11-4.187 4.93-3.885 3.64-8.844 7.13-8.844 7.13l1.75 2.44s5.041-3.52 9.156-7.38c2.058-1.93 3.879-3.89 4.813-5.87 0.466-1 0.776-2.12 0.343-3.25-0.433-1.14-1.541-1.87-2.812-2.19-2.46-0.62-5.444-0.21-8.781 0.53-3.337 0.73-7.019 1.85-10.62 3.03-3.607 1.18-7.129 2.4-10.12 3.25-2.913 0.83-5.293 1.22-6.473 1.13 0.62-0.95 2.3-2.56 4.16-4.1 3.721-3.08 7.969-6.37 7.969-6.37z"/></clipPath><mask id="B" maskUnits="userSpaceOnUse"><rect x="-115.6" y="147" width="51.28" height="17.34" rx=".6657" fill="url(#C)" fill-rule="evenodd" stroke-width="2"/></mask><linearGradient id="C" x1="-112.3" x2="-112.3" y1="148.9" y2="164.5" gradientUnits="userSpaceOnUse"><stop offset="0"/><stop stop-color="#fff" offset=".2177"/><stop stop-color="#fff" offset=".7659"/><stop offset="1"/></linearGradient><filter id="D" x="-.0125" y="-.04971" width="1.026" height="1.099" color-interpolation-filters="sRGB"><feGaussianBlur stdDeviation="0.001 0.244"/></filter><filter id="H" x="-.395" y="-.5737" width="1.79" height="2.147" color-interpolation-filters="sRGB"><feGaussianBlur stdDeviation="2.8946329"/></filter><g transform="matrix(1.297 0 0 1.297 -13.6 -.805)" enable-background="new"><g enable-background="new"><rect x="14.5" y="1.5" width="32" height="29" rx="2.877" ry="2.781" fill="url(#linearGradient7887)" fill-rule="evenodd" stroke="#888a85" stroke-dashoffset=".7" stroke-linecap="round" stroke-linejoin="round" stroke-opacity=".9924"/><path transform="matrix(2.143 0 0 2.087 44.43 -.6302)" d="m-12.5 1.498c-0.573 0-1.002 0.429-1.002 1.002v11c0 0.573 0.429 1.002 1.002 1.002h12c0.573 0 1.002-0.429 1.002-1.002v-11c0-0.573-0.429-1.002-1.002-1.002z" fill="none" stroke="url(#linearGradient7889)" stroke-dashoffset=".7" stroke-linecap="round" stroke-linejoin="round" stroke-opacity=".9924" stroke-width=".4729"/><rect transform="matrix(1.016 0 0 1.016 -.49 -.2715)" x="15.38" y="2.875" width="32" height="29" rx="3.723" ry="3.723" fill-rule="evenodd" filter="url(#filter5386)" opacity=".1205"/></g><g transform="translate(14.11 -13.86)"><g transform="translate(20)"><g fill-rule="evenodd"><g transform="matrix(1.167 0 0 1.2 -3.833 -36.2)"><path d="m-2.344 51c-0.2048 0-0.3812 0.101-0.5 0.25l-4.016 4c-0.035 0.132-0.099 0.271-0.1406 0.406v5.521c0 0.364 0.2965 0.656 0.6563 0.656h6.687c0.1799 0 0.3514-0.07 0.4688-0.187l4-4c0.1174-0.119 0.1875-0.287 0.1875-0.469v-5.521c0-0.182-0.0701-0.35-0.1875-0.468-0.1191-0.119-0.2889-0.188-0.4688-0.188z" fill="url(#linearGradient7893)"/><path d="m-6.374 55.17h6.462c0.3469 0 0.6262 0.284 0.6262 0.638v5.39c0 0.354-0.2793 0.638-0.6262 0.638h-6.462c-0.3468 0-0.6261-0.284-0.6261-0.638v-5.39c0-0.354 0.2793-0.638 0.6261-0.638z" fill="url(#linearGradient7895)"/></g><path d="m-5 25-5 5h4l5-5h-4" fill="url(#linearGradient7897)" opacity=".1231"/><path d="m-1 25-9.5 4h3.5l5-3 1-1" fill="#babdb6"/></g><path d="m-6.562 25.5c-0.024 0-0.055 0-0.1562 0.125-0.03 0.02-0.061 0.04-0.094 0.06-0.02 0.02-0.041 0.04-0.062 0.06-0.02 0.02-0.041 0.04-0.062 0.06h-0.031c-0.02 0.02-0.041 0.04-0.062 0.06l-0.1875 0.187c-0.1069 0.101-0.2351 0.176-0.375 0.219l-4.252 1.229c-0.4 0.208-0.534 0.349-0.594 0.469 0 0 0.04 0.134 0 0.09 0.08 0.1 0.361 0.253 0.844 0.344 0.34 0.07 0.617 0.314 0.727 0.643s0.04 0.692-0.196 0.951l-0.343 0.375c-0.02 0.09-0.05 0.17-0.09 0.312v6.56c0 0.05 0 0.116 0.06 0.188 0.03 0.04 0.104 0.06 0.157 0.06h7.844c0.093 0 0.1684-0.01 0.2188-0.06-2e-4 -0.01-2e-4 -0.02 0-0.03l4.654-4.808c0.0522-0.054 0.0625-0.079 0.0625-0.188v-6.625c0-0.108-0.01-0.164-0.062-0.219-0.0373-0.037-0.1555-0.062-0.188-0.062z" fill="none" opacity=".5336" stroke="#fff" stroke-dashoffset=".7" stroke-linecap="round" stroke-linejoin="round"/><path d="m-6.562 24.53c-0.3877 0-0.6917 0.219-0.9062 0.469l-0.031-0.03-0.031 0.06-0.3438 0.313-4.25 1.218c-0.03 0-0.06 0.02-0.09 0.03-0.549 0.274-0.902 0.554-1.094 0.937-0.192 0.384-0.116 0.867 0.125 1.156 0.329 0.394 0.858 0.553 1.407 0.657l-0.407 0.437c-0.06 0.05-0.1 0.116-0.125 0.188-0.03 0.121-0.07 0.316-0.125 0.5-0.02 0.04-0.03 0.08-0.03 0.125v6.656c0 0.299 0.113 0.582 0.313 0.813 0.199 0.23 0.511 0.406 0.875 0.406h7.843c0.3236 0 0.6569-0.116 0.9063-0.375l4.651-4.81c0.2259-0.235 0.3437-0.539 0.3437-0.875v-6.625c0-0.335-0.1178-0.64-0.3437-0.875-0.2227-0.229-0.5504-0.375-0.874-0.375z" fill="none" stroke="#555753" stroke-dashoffset=".7" stroke-linecap="round" stroke-linejoin="round"/><g fill-rule="evenodd"><path d="m-1 25-11 2.5 2 1.5h3l5-3 1-1" fill="url(#linearGradient7899)"/><path d="m-5 25-7 2h4l7-2h-4" fill="url(#linearGradient7901)"/><path d="m-12 27h4c-2 1-0.5 2 1 2h-4c-1.5 0-3-1-1-2z" fill="url(#linearGradient7903)"/><path d="m-9.594 32h4.188c0.2248 0 0.4058 0.195 0.4058 0.438v3.125c0 0.242-0.181 0.437-0.4058 0.437h-4.188c-0.2248 0-0.4058-0.195-0.4058-0.437v-3.125c0-0.243 0.181-0.438 0.4058-0.438z" fill="url(#linearGradient7905)"/></g></g><path d="m14.69 30.56s-4.19 3.268-8.094 6.501c-1.952 1.616-15.7 15.22-16.72 16.78-0.511 0.78-0.987 1.623-0.656 2.781 0.165 0.579 0.608 1.686 1.093 1.406 1.832-1.057 1.547-1.056 2.929-2.438 0.6199-0.948 13.43-14.68 15.29-16.22 3.721-3.08 7.969-6.375 7.969-6.375z" fill="url(#linearGradient7921)" fill-rule="evenodd" stroke="url(#linearGradient7923)" stroke-linejoin="round"/><path d="m15.67 31.27s-18.44 12.69-11.94 13.44-14.09 7.825-6.088 9.825" fill="none" opacity=".1903" stroke-opacity="0"/><path d="m10.09 30.03 0.317 2h4.188c0.225 0 0.406 0.195 0.406 0.438v3.125l2-0.313v-4.469c0-0.424-0.314-0.781-0.719-0.781z" fill="url(#linearGradient7927)" fill-rule="evenodd"/><path transform="translate(20)" d="m-9.594 32h4.188c0.2248 0 0.4058 0.195 0.4058 0.438v3.125c0 0.242-0.181 0.437-0.4058 0.437h-4.188c-0.2248 0-0.4058-0.195-0.4058-0.437v-3.125c0-0.243 0.181-0.438 0.4058-0.438z" fill="url(#linearGradient7929)" fill-rule="evenodd" opacity=".3545"/></g></g></svg>
