<svg height="42.85" viewBox="0 0 44.95 42.85" width="44.95" xmlns="http://www.w3.org/2000/svg" xmlns:xlink="http://www.w3.org/1999/xlink"><defs><filter id="filter4684" x="-.09275" y="-.106" width="1.186" height="1.212"><feGaussianBlur stdDeviation="0.71917802"/></filter><linearGradient id="linearGradient3278" x1="-6.411" x2="-10.07" y1="25.76" y2="1.873" gradientTransform="matrix(1.5 0 0 1.4 336.2 52.8)" gradientUnits="userSpaceOnUse"><stop stop-color="#d3d7cf" offset="0"/><stop stop-color="#fff" offset="1"/></linearGradient><linearGradient id="linearGradient4307" x1="25.05" x2="27.76" y1="16.17" y2="24.54" gradientTransform="matrix(1.088 0 0 1.086 294.4 40.06)" gradientUnits="userSpaceOnUse" xlink:href="#linearGradient7340-2"/><linearGradient id="linearGradient7340-2"><stop stop-color="#555753" offset="0"/><stop stop-color="#888a85" offset="1"/></linearGradient><linearGradient id="linearGradient4182" x1="326.5" x2="326.5" y1="61.7" y2="60.69" gradientUnits="userSpaceOnUse"><stop stop-color="#babdb6" offset="0"/><stop stop-color="#fff" offset="1"/></linearGradient><radialGradient id="radialGradient4612" cx="306.5" cy="86.38" r="21.91" gradientTransform="matrix(2.238 -.5404 .1485 .615 -392 204.4)" gradientUnits="userSpaceOnUse"><stop offset="0"/><stop stop-opacity="0" offset="1"/></radialGradient><filter id="filter4618" x="-.07545" y="-.06204" width="1.151" height="1.143"><feGaussianBlur stdDeviation="0.89652215"/></filter><linearGradient id="linearGradient4212" x1="322.3" x2="328.4" y1="62.62" y2="68.74" gradientTransform="matrix(.75 0 0 .8333 81.62 10.42)" gradientUnits="userSpaceOnUse" xlink:href="#linearGradient4206"/><linearGradient id="linearGradient4206"><stop stop-color="#fff" offset="0"/><stop stop-color="#babdb6" offset="1"/></linearGradient><linearGradient id="linearGradient4231" x1="325.4" x2="328.4" y1="63.27" y2="68.74" gradientTransform="matrix(.5 0 0 .5 -489.8 -97.75)" gradientUnits="userSpaceOnUse" xlink:href="#linearGradient4206"/><linearGradient id="linearGradient4380" x1="320" x2="330.2" y1="60.75" y2="87.75" gradientUnits="userSpaceOnUse" xlink:href="#linearGradient4374"/><linearGradient id="linearGradient4374"><stop stop-color="#fff" offset="0"/><stop stop-color="#fff" stop-opacity="0" offset="1"/></linearGradient><linearGradient id="linearGradient3248-0" x1="-47.16" x2="-46.15" y1="39.38" y2="44.17" gradientTransform="translate(386,50)" gradientUnits="userSpaceOnUse"><stop stop-color="#729fcf" offset="0"/><stop stop-color="#729fcf" stop-opacity="0" offset="1"/></linearGradient><linearGradient id="linearGradient3250-1" x1="-48" x2="-46.75" y1="40.38" y2="45.69" gradientTransform="translate(386,50)" gradientUnits="userSpaceOnUse"><stop stop-color="#3465a4" offset="0"/><stop stop-color="#3465a4" stop-opacity="0" offset="1"/></linearGradient><linearGradient id="linearGradient4604" x1="335.8" x2="336.8" y1="90.5" y2="96" gradientUnits="userSpaceOnUse" xlink:href="#linearGradient4374"/></defs><clipPath id="b"><rect x="68.78" y="-.0933" width="58.26" height="58.26" rx="2.648"/></clipPath><filter id="c" x="-.021" y="-.021" width="1.042" height="1.042" color-interpolation-filters="sRGB"><feGaussianBlur stdDeviation=".28282197"/></filter><clipPath id="h"><path d="m-6.562 24.53c-.3877 0-.6917.219-.9062.469l-.031-.03-.031.06-.3438.313-4.25 1.218c-.03 0-.06.02-.09.03-.549.274-.902.554-1.094.937-.192.384-.116.867.125 1.156.329.394.858.553 1.407.657l-.407.437c-.06.05-.1.116-.125.188-.03.121-.07.316-.125.5-.02.04-.03.08-.03.125v6.656c0 .299.113.582.313.813.199.23.511.406.875.406h7.843c.3236 0 .6569-.116.9063-.375l4.651-4.81c.2259-.235.3437-.539.3437-.875v-6.625c0-.335-.1178-.64-.3437-.875-.2227-.229-.5504-.375-.874-.375z"/></clipPath><filter id="i" x="-.03844" y="-.04352" width="1.077" height="1.087" color-interpolation-filters="sRGB"><feGaussianBlur stdDeviation=".1491362"/></filter><filter id="p" x="-.02026" y="-.02354" width="1.04" height="1.047" color-interpolation-filters="sRGB"><feGaussianBlur stdDeviation=".071069152"/></filter><filter id="x" x="-.02305" y="-.0379" width="1.046" height="1.076" color-interpolation-filters="sRGB"><feGaussianBlur stdDeviation=".16679387"/></filter><clipPath id="A"><path d="m-95.3 143.8s-4.189 3.27-8.097 6.5c-1.95 1.62-3.69 3.22-4.72 4.78-.51.78-.98 1.62-.65 2.78.16.58.61 1.12 1.09 1.41.48.28.96.4 1.5.47 2.13.24 4.73-.4 7.846-1.28 3.113-.89 6.669-2.09 10.25-3.25 3.581-1.17 7.196-2.31 10.34-3 3.147-.7 5.835-.89 7.375-.5.729.18.745.3.75.31 0 0 .06.33-.219.94-.567 1.2-2.245 3.11-4.187 4.93-3.885 3.64-8.844 7.13-8.844 7.13l1.75 2.44s5.041-3.52 9.156-7.38c2.058-1.93 3.879-3.89 4.813-5.87.466-1 .776-2.12.343-3.25-.433-1.14-1.541-1.87-2.812-2.19-2.46-.62-5.444-.21-8.781.53-3.337.73-7.019 1.85-10.62 3.03-3.607 1.18-7.129 2.4-10.12 3.25-2.914.83-5.294 1.22-6.474 1.13.62-.95 2.3-2.56 4.16-4.1 3.722-3.08 7.97-6.37 7.97-6.37z"/></clipPath><mask id="B" maskUnits="userSpaceOnUse"><rect x="-115.6" y="147" width="51.28" height="17.34" rx=".6657" fill="url(#C)" fill-rule="evenodd" stroke-width="2"/></mask><linearGradient id="C" x1="-112.3" x2="-112.3" y1="148.9" y2="164.5" gradientUnits="userSpaceOnUse"><stop offset="0"/><stop stop-color="#fff" offset=".2177"/><stop stop-color="#fff" offset=".7659"/><stop offset="1"/></linearGradient><filter id="D" x="-.01972" y="-.03535" width="1.04" height="1.071" color-interpolation-filters="sRGB"><feGaussianBlur stdDeviation=".24373953"/></filter><filter id="H" x="-.395" y="-.5737" width="1.79" height="2.147" color-interpolation-filters="sRGB"><feGaussianBlur stdDeviation="2.8946329"/></filter><g transform="matrix(.9132 0 0 .9132 -270.6 -47.69)" enable-background="new"><g fill-rule="evenodd"><rect x="315.5" y="54.5" width="24" height="21" rx="1.567" ry="1.567" filter="url(#filter4684)" opacity=".1907" stroke="#000" stroke-dashoffset=".7" stroke-linecap="round" stroke-linejoin="round" stroke-opacity=".9924"/><rect x="314.5" y="53.5" width="24" height="21" rx="1.567" ry="1.567" fill="url(#linearGradient3278)" stroke="#888a85" stroke-dashoffset=".7" stroke-linecap="round" stroke-linejoin="round" stroke-opacity=".9924"/><path d="m325 59.07c-0.64 0-1.16 0.516-1.16 1.154v0.288c0 0.293-0.23 0.543-0.54 0.543h-0.12c-0.64 0-1.16 0.704-1.16 1.342v5.445c0 0.638 0.52 1.154 1.16 1.154h6.56c0.64 0 1.16-0.516 1.16-1.154v-5.445c0-0.638-0.52-1.342-1.16-1.342h-0.14c-0.26 0.02-0.55-0.186-0.55-0.526v-0.305c0-0.638-0.51-1.154-1.15-1.154z" fill="url(#linearGradient4307)" stroke="#fff" stroke-width="2"/><path d="m325 59.07c-0.64 0-1.16 0.516-1.16 1.154v0.288c0 0.293-0.23 0.543-0.54 0.543h-0.12c-0.64 0-1.16 0.704-1.16 1.342v5.445c0 0.638 0.52 1.154 1.16 1.154h6.56c0.64 0 1.16-0.516 1.16-1.154v-5.445c0-0.638-0.52-1.342-1.16-1.342h-0.14c-0.26 0.02-0.55-0.186-0.55-0.526v-0.305c0-0.638-0.51-1.154-1.15-1.154z" fill="url(#linearGradient4307)"/></g><rect x="325" y="60" width="3" height="2" rx=".3978" ry=".3978" color="#000000" fill="url(#linearGradient4182)"/><path d="m327.7 103.7s20-14 12-16-28.06 7.627-38 7c-10.11-0.638 22.5-9.83 24.77-27.71" fill="none" filter="url(#filter4618)" opacity=".4944" stroke="url(#radialGradient4612)" stroke-width="2"/><rect x="323.5" y="62.5" width="6" height="5" rx=".1768" ry=".1768" color="#000000" fill="#d3d7cf" stroke="url(#linearGradient4212)"/><rect transform="scale(-1)" x="-328.5" y="-66.5" width="4" height="3" rx=".1768" ry=".1768" color="#000000" fill="#888a85" stroke="url(#linearGradient4231)"/><rect x="315.5" y="54.5" width="22" height="19" rx=".5674" ry=".5674" fill="none" stroke="url(#linearGradient4380)" stroke-dashoffset=".7" stroke-linecap="round" stroke-linejoin="round" stroke-opacity=".9924"/><path d="m325 63.81c-1.03 8.083-9.29 14.95-16.38 19.75-3.54 2.401-6.67 4.247-8.53 5.718-0.46 0.368-0.85 0.712-1.18 1.125-0.34 0.414-0.74 1.02-0.57 1.907 0.17 0.886 0.92 1.362 1.47 1.562 0.56 0.2 1.11 0.299 1.81 0.344 5.52 0.347 13.01-2.019 20.25-4.094 7.25-2.075 14.34-3.76 17.5-2.969 0.73 0.182 0.75 0.332 0.75 0.344 0 0.01 0 0.304-0.25 0.906-0.56 1.204-2.21 3.148-4.15 4.969-3.89 3.642-8.85 7.095-8.85 7.095l1.72 2.47s5.04-3.519 9.16-7.377c2.06-1.93 3.91-3.892 4.84-5.875 0.47-0.992 0.75-2.114 0.32-3.25-0.44-1.137-1.55-1.87-2.82-2.188-4.83-1.209-11.76 0.918-19.03 3-6.88 1.972-13.91 3.965-18.4 3.938 1.62-1.195 4.33-2.874 7.65-5.125 7.26-4.922 16.44-12.08 17.69-21.88z" color="#000000" fill="url(#linearGradient3248-0)" fill-rule="evenodd" stroke="url(#linearGradient3250-1)" stroke-linejoin="round"/><path transform="scale(-1)" d="m-324.5-63.68c0 0.1-0.1 0.177-0.18 0.177h-3.64c-0.1 0-0.18-0.08-0.18-0.177v-2.646c0-0.1 0.1-0.177 0.18-0.177" color="#000000" fill="none" stroke="url(#linearGradient4231)"/><path d="m327.1 101.4s20-14 12-16-28.07 7.626-38 7c-10.11-0.638 22.49-9.831 24.76-27.71" fill="none" opacity=".614" stroke="url(#linearGradient4604)"/></g></svg>
