<svg height="42.85" viewBox="0 0 44.95 42.85" width="44.95" xmlns="http://www.w3.org/2000/svg" xmlns:xlink="http://www.w3.org/1999/xlink"><radialGradient id="a" cx="99.48" cy="14.74" gradientTransform="matrix(5.673 .00000004 -.00000001 1.673 -488.7 4.898)" gradientUnits="userSpaceOnUse" r="29.13"><stop offset="0" stop-color="#f6f6f5"/><stop offset=".6022" stop-color="#e1e1dd"/><stop offset="1" stop-color="#ccccc6"/></radialGradient><clipPath id="b"><rect height="58.26" rx="2.648" width="58.26" x="68.78" y="-.0933"/></clipPath><filter id="c" color-interpolation-filters="sRGB" height="1.042" width="1.042" x="-.021" y="-.021"><feGaussianBlur stdDeviation=".28282197"/></filter><radialGradient id="d" cx="105.2" cy="-.3655" gradientTransform="matrix(3.54 0 0 3.507 -267.2 1.189)" gradientUnits="userSpaceOnUse" r="29.4" xlink:href="#e"/><linearGradient id="e"><stop offset="0" stop-color="#fff"/><stop offset="1" stop-color="#fff" stop-opacity="0"/></linearGradient><radialGradient id="f" cx="157.3" cy="30.8" gradientUnits="userSpaceOnUse" r="1.031"><stop offset="0" stop-color="#fff"/><stop offset="1" stop-color="#b4b4b4"/></radialGradient><linearGradient id="g" gradientUnits="userSpaceOnUse" x1="-2.242" x2="-5.476" y1="35.85" y2="26.52"><stop offset="0" stop-color="#878983"/><stop offset="1" stop-color="#d4d4d3"/></linearGradient><clipPath id="h"><path d="m-6.562 24.53c-.3877 0-.6917.219-.9062.469l-.031-.03-.031.06-.3438.313-4.25 1.218c-.03 0-.06.02-.09.03-.549.274-.902.554-1.094.937-.192.384-.116.867.125 1.156.329.394.858.553 1.407.657l-.407.437c-.06.05-.1.116-.125.188-.03.121-.07.316-.125.5-.02.04-.03.08-.03.125v6.656c0 .299.113.582.313.813.199.23.511.406.875.406h7.843c.3236 0 .6569-.116.9063-.375l4.651-4.81c.2259-.235.3437-.539.3437-.875v-6.625c0-.335-.1178-.64-.3437-.875-.2227-.229-.5504-.375-.874-.375z"/></clipPath><filter id="i" color-interpolation-filters="sRGB" height="1.087" width="1.077" x="-.03844" y="-.04351"><feGaussianBlur stdDeviation=".1491362"/></filter><linearGradient id="j" gradientUnits="userSpaceOnUse" x1="4.502234" x2=".8895662" y1="58.88358" y2="54.31524"><stop offset="0" stop-color="#e6e7e5"/><stop offset=".2782" stop-color="#a5a79f"/><stop offset=".7827" stop-color="#c7c9c3"/><stop offset="1" stop-color="#fff"/></linearGradient><linearGradient id="k" gradientTransform="matrix(.9643 0 0 .9722 -.25 1.694)" gradientUnits="userSpaceOnUse" x1="-4.221" x2="-4.221" xlink:href="#l" y1="59.88" y2="54.71"/><linearGradient id="l"><stop offset="0" stop-color="#fff"/><stop offset="1" stop-color="#d3d7cf"/></linearGradient><linearGradient id="m" gradientUnits="userSpaceOnUse" x1="-5.989" x2="-7.359" xlink:href="#n" y1="27.14" y2="30"/><linearGradient id="n"><stop offset="0"/><stop offset="1" stop-opacity="0"/></linearGradient><linearGradient id="o" gradientUnits="userSpaceOnUse" x1="-4.156" x2="-4.156" xlink:href="#e" y1="37.15" y2="29.99"/><filter id="p" color-interpolation-filters="sRGB" height="1.047" width="1.04" x="-.02026" y="-.02354"><feGaussianBlur stdDeviation=".071069152"/></filter><linearGradient id="q" gradientUnits="userSpaceOnUse" x1="-8.685" x2="-3.1161" y1="28.64" y2="26.56"><stop offset="0" stop-color="#eeeeec"/><stop offset="1" stop-color="#babdb6"/></linearGradient><linearGradient id="r" gradientUnits="userSpaceOnUse" x1="-9.082" x2="-3.7348" y1="26.52" y2="25.46"><stop offset="0" stop-color="#eeeeec"/><stop offset="1" stop-color="#fff"/></linearGradient><linearGradient id="s" gradientUnits="userSpaceOnUse" x1="-9.969" x2="-9.969" y1="28.88" y2="27.81"><stop offset="0" stop-color="#888a85"/><stop offset="1" stop-color="#fff"/></linearGradient><linearGradient id="t" gradientTransform="matrix(1 0 0 1.029 -4 -25.14)" gradientUnits="userSpaceOnUse" x1="-3.536" x2="-3.536" y1="55.87" y2="59.44"><stop offset="0" stop-color="#555753"/><stop offset="1" stop-color="#d3d7cf"/></linearGradient><linearGradient id="u" gradientUnits="userSpaceOnUse" x1="-97.16" x2="-96.72" y1="153" y2="149.2"><stop offset="0" stop-color="#4d4d4d" stop-opacity=".1604"/><stop offset="1" stop-color="#181818"/></linearGradient><linearGradient id="v" gradientUnits="userSpaceOnUse" x1="-72.38" x2="-70.37" y1="153.61" y2="163.14"><stop offset="0" stop-color="#729fcf"/><stop offset="1" stop-color="#729fcf" stop-opacity="0"/></linearGradient><linearGradient id="w" gradientUnits="userSpaceOnUse" x1="-68.81" x2="-67.88" xlink:href="#e" y1="151.61" y2="156.24"/><filter id="x" color-interpolation-filters="sRGB" height="1.076" width="1.046" x="-.02305" y="-.0379"><feGaussianBlur stdDeviation=".16679387"/></filter><linearGradient id="y" gradientTransform="matrix(1.125 0 0 1.167 -94.12 79.14)" gradientUnits="userSpaceOnUse" x1="-4.11" x2="-4.11" xlink:href="#l" y1="58.81" y2="55"/><linearGradient id="z" gradientUnits="userSpaceOnUse" x1="-96.396" x2="-97.771" xlink:href="#n" y1="145.74" y2="147.86"/><clipPath id="A"><path d="m-95.3 143.8s-4.189 3.27-8.097 6.5c-1.95 1.62-3.69 3.22-4.72 4.78-.51.78-.98 1.62-.65 2.78.16.58.61 1.12 1.09 1.41.48.28.96.4 1.5.47 2.13.24 4.73-.4 7.846-1.28 3.113-.89 6.669-2.09 10.25-3.25 3.581-1.17 7.196-2.31 10.34-3 3.147-.7 5.835-.89 7.375-.5.729.18.745.3.75.31 0 0 .06.33-.219.94-.567 1.2-2.245 3.11-4.187 4.93-3.885 3.64-8.844 7.13-8.844 7.13l1.75 2.44s5.041-3.52 9.156-7.38c2.058-1.93 3.879-3.89 4.813-5.87.466-1 .776-2.12.343-3.25-.433-1.14-1.541-1.87-2.812-2.19-2.46-.62-5.444-.21-8.781.53-3.337.73-7.019 1.85-10.62 3.03-3.607 1.18-7.129 2.4-10.12 3.25-2.914.83-5.294 1.22-6.474 1.13.62-.95 2.3-2.56 4.16-4.1 3.722-3.08 7.97-6.37 7.97-6.37z"/></clipPath><mask id="B" maskUnits="userSpaceOnUse"><rect fill="url(#C)" fill-rule="evenodd" height="17.34" rx=".6657" stroke-width="2" width="51.28" x="-115.6" y="147"/></mask><linearGradient id="C" gradientUnits="userSpaceOnUse" x1="-112.3384" x2="-112.3384" y1="148.8777" y2="164.4645"><stop offset="0"/><stop offset=".2177" stop-color="#fff"/><stop offset=".7659" stop-color="#fff"/><stop offset="1"/></linearGradient><filter id="D" color-interpolation-filters="sRGB" height="1.071" width="1.04" x="-.01972" y="-.03535"><feGaussianBlur stdDeviation=".24373953"/></filter><radialGradient id="E" cx="-73.93" cy="146.2" gradientTransform="matrix(1 0 0 .5571 0 68.77)" gradientUnits="userSpaceOnUse" r="20.14" xlink:href="#e"/><radialGradient id="F" cx="-101.2" cy="162.9" gradientTransform="matrix(.4135 0 0 .2304 -62.74 120.8)" gradientUnits="userSpaceOnUse" r="20.14" xlink:href="#e"/><radialGradient id="G" cx="14.36" cy="34.79" gradientTransform="matrix(1 0 0 .6884 0 10.84)" gradientUnits="userSpaceOnUse" r="8.795" xlink:href="#n"/><filter id="H" color-interpolation-filters="sRGB" height="2.147" width="1.79" x="-.395" y="-.5737"><feGaussianBlur stdDeviation="2.8946329"/></filter><radialGradient id="I" cx="211.4" cy="217.4" gradientTransform="matrix(.5296 0 0 .5511 -17.02 -13.29)" gradientUnits="userSpaceOnUse" r="21.62" xlink:href="#J"/><linearGradient id="J"><stop offset="0" stop-color="#e6e7e5"/><stop offset="1" stop-color="#e6e7e5" stop-opacity="0"/></linearGradient><radialGradient id="K" cx="207.4" cy="217.2" gradientTransform="matrix(-.3998 0 0 -.4159 110 184.8)" gradientUnits="userSpaceOnUse" r="21.62" xlink:href="#J"/><g enable-background="new" transform="matrix(.4995 0 0 .4995 -20.95 -5.3)"><rect fill="url(#a)" fill-rule="evenodd" height="58.26" rx="2.648" stroke-width=".5296" width="58.26" x="46.54" y="15.8"/><rect height="58.26" rx="2.648" style="fill:none;opacity:.3533;stroke:#000;stroke-width:1.059;clip-path:url(#b);filter:url(#c)" transform="translate(-22.24 15.89)" width="58.26" x="68.78" y="-.0933"/><rect clip-path="url(#b)" fill="none" filter="url(#c)" height="58.26" rx="2.648" ry="2.698" stroke="url(#d)" stroke-width="1.089" transform="matrix(.9818 0 0 .9638 -20.46 17.46)" width="58.26" x="68.78" y="-.0933"/><g fill-rule="evenodd"><g transform="translate(-22.24 16.95)"><circle cx="71.70072" cy="3.329176" fill="#fff" r=".8107784" stroke-width=".7864"/><circle cx="157.3" cy="31.09" fill="url(#f)" r="1.031" transform="matrix(.7864 0 0 .7864 -52 -21.62)"/></g><g transform="translate(29.66 16.95)"><circle cx="71.70072" cy="3.329176" fill="#fff" r=".8107784" stroke-width=".7864"/><circle cx="157.3" cy="31.09" fill="url(#f)" r="1.031" transform="matrix(.7864 0 0 .7864 -52 -21.62)"/></g><g transform="translate(-22.24 67.8)"><circle cx="71.70072" cy="3.329176" fill="#fff" opacity=".5435" r=".8107784" stroke-width=".7864"/><circle cx="157.3" cy="31.09" fill="url(#f)" r="1.031" transform="matrix(.7864 0 0 .7864 -52 -21.62)"/></g><g transform="translate(29.66 67.8)"><circle cx="71.70072" cy="3.329176" fill="#fff" opacity=".5598" r=".8107784" stroke-width=".7864"/><circle cx="157.3" cy="31.09" fill="url(#f)" r="1.031" transform="matrix(.7864 0 0 .7864 -52 -21.62)"/></g></g></g><g enable-background="new" transform="matrix(.4995 0 0 .4995 -6.29 -20.2)"><path d="m-6.562 24.53c-.3877 0-.6917.219-.9062.469l-.031-.03-.031.06-.3438.313-4.25 1.218c-.03 0-.06.02-.09.03-.549.274-.902.554-1.094.937-.192.384-.116.867.125 1.156.329.394.858.553 1.407.657l-.407.437c-.06.05-.1.116-.125.188-.03.121-.07.316-.125.5-.02.04-.03.08-.03.125v6.656c0 .299.113.582.313.813.199.23.511.406.875.406h7.843c.3236 0 .6569-.116.9063-.375l4.651-4.81c.2259-.235.3437-.539.3437-.875v-6.625c0-.335-.1178-.64-.3437-.875-.2227-.229-.5504-.375-.874-.375z" style="fill:#7d7d7d;fill-rule:evenodd;stroke-dashoffset:.7;stroke-linecap:round;stroke-linejoin:round;stroke-width:.4969;clip-path:url(#h);filter:url(#i);stroke:url(#g)" transform="matrix(2.132 0 0 2.132 53.43 11.2)"/><g enable-background="new" transform="matrix(2.107 0 0 2.107 53.29 11.99)"><g fill-rule="evenodd"><g transform="matrix(1.167 0 0 1.2 -3.833 -36.2)"><path d="m-2.347 50.84c-.2093 0-.3897.103-.5112.255l-4.106 4.09c-.036.135-.1013.278-.1437.416v5.644c0 .372.3031.671.6709.671h6.838c.1839 0 .3593-.07.4793-.191l4.09-4.09c.12-.121.1917-.294.1917-.479v-5.645c0-.186-.072-.358-.1917-.479-.1218-.122-.2954-.192-.4793-.192z" fill="url(#j)"/><path d="m-6.374 55.17h6.462c.3469 0 .6262.284.6262.638v5.39c0 .354-.2793.638-.6262.638h-6.462c-.3468 0-.6261-.284-.6261-.638v-5.39c0-.354.2793-.638.6261-.638z" fill="url(#k)"/></g><path d="m-5 25-5 5h4l5-5z" fill="url(#m)" opacity=".1231"/><path d="m-1 25-9.5 4h3.5l5-3z" fill="#babdb6"/></g><path d="m-6.645 25.05c-.026 0-.059 0-.168.134-.032.02-.066.05-.1008.07-.021.02-.044.04-.067.07-.021.02-.044.05-.067.07h-.034c-.021.02-.044.05-.067.07l-.2016.202c-.1149.108-.2527.188-.4032.235l-4.57 1.31c-.431.224-.574.376-.638.504-.001 0 .04.145 0 .101.09.106.387.271.907.37.365.07.663.337.781.691s.04.744-.21 1.022l-.37.403c-.02.1-.06.183-.1.336v.07 6.988c0 .06 0 .124.07.202.03.04.111.07.168.07h8.433c.1 0 .1811-.01.2352-.07-.0002-.01-.0002-.02 0-.03l5.006-5.174c.056-.06.067-.09.067-.202v-7.123c0-.116-.011-.176-.067-.235-.04-.04-.1666-.07-.2016-.07h-8.4z" style="fill:none;opacity:.5336;stroke-dashoffset:.7;stroke-linecap:round;stroke-linejoin:round;stroke-width:.267;filter:url(#p);stroke:url(#o)" transform="matrix(1.012 0 0 1.012 .06759 -.3893)"/><g fill-rule="evenodd"><path d="m-1 25-11 2.5 2 1.5h3l5-3z" fill="url(#q)"/><path d="m-5 25-7 2h4l7-2z" fill="url(#r)"/><path d="m-12 27h4c-2 1-.5 2 1 2h-4c-1.5 0-3-1-1-2z" fill="url(#s)"/><path d="m-9.594 32h4.188c.2248 0 .4058.195.4058.438v3.125c0 .242-.181.437-.4058.437h-4.188c-.2248 0-.4058-.195-.4058-.437v-3.125c0-.243.181-.438.4058-.438z" fill="url(#t)"/></g></g><path d="m-95.21 149.3-1.257 2.45h-3.519l2.011-2.45z" fill="url(#u)" fill-rule="evenodd" opacity=".2337" transform="matrix(2.107 0 0 2.107 242.9 -226.7)"/><path d="m-95.3 143.8s-4.189 3.27-8.097 6.5c-1.95 1.62-3.69 3.22-4.72 4.78-.51.78-.98 1.62-.65 2.78.16.58.61 1.12 1.09 1.41.48.28.96.4 1.5.47 2.13.24 4.73-.4 7.846-1.28 3.113-.89 6.669-2.09 10.25-3.25 3.581-1.17 7.196-2.31 10.34-3 3.147-.7 5.835-.89 7.375-.5.729.18.745.3.75.31 0 0 .06.33-.219.94-.567 1.2-2.245 3.11-4.187 4.93-3.885 3.64-8.844 7.13-8.844 7.13l1.75 2.44s5.041-3.52 9.156-7.38c2.058-1.93 3.879-3.89 4.813-5.87.466-1 .776-2.12.343-3.25-.433-1.14-1.541-1.87-2.812-2.19-2.46-.62-5.444-.21-8.781.53-3.337.73-7.019 1.85-10.62 3.03-3.607 1.18-7.129 2.4-10.12 3.25-2.914.83-5.294 1.22-6.474 1.13.62-.95 2.3-2.56 4.16-4.1 3.722-3.08 7.97-6.37 7.97-6.37z" fill="url(#v)" fill-rule="evenodd" transform="matrix(2.107 0 0 2.107 242.9 -226.7)"/><path d="m-94.32 144.6s-18.44 12.68-11.94 13.43c6.505.75 28-10 36-8s-12 16-12 16" fill="none" filter="url(#x)" opacity=".1903" stroke="url(#w)" transform="matrix(2.107 0 0 2.107 242.9 -226.7)"/><path d="m-99.9 143.3.317 2h4.188c.224 0 .406.19.406.44v3.12l2-.31v-4.47c0-.43-.314-.78-.719-.78z" fill="url(#y)" fill-rule="evenodd" transform="matrix(2.107 0 0 2.107 242.9 -226.7)"/><path d="m-99.58 145.3h4.188c.225 0 .406.19.406.43v3.13c0 .24-.181.44-.406.44h-4.188c-.225 0-.406-.2-.406-.44v-3.13c0-.24.181-.43.406-.43z" fill="url(#z)" fill-rule="evenodd" opacity=".3545" transform="matrix(2.107 0 0 2.107 242.9 -226.7)"/><g fill="none"><path d="m-95.3 143.8s-4.189 3.27-8.097 6.5c-1.95 1.62-3.69 3.22-4.72 4.78-.51.78-.98 1.62-.65 2.78.16.58.61 1.12 1.09 1.41.48.28.96.4 1.5.47 2.13.24 4.73-.4 7.846-1.28 3.113-.89 6.669-2.09 10.25-3.25 3.581-1.17 7.196-2.31 10.34-3 3.147-.7 5.835-.89 7.375-.5.729.18.745.3.75.31 0 0 .06.33-.219.94-.567 1.2-2.245 3.11-4.187 4.93-3.885 3.64-8.844 7.13-8.844 7.13l1.75 2.44s5.041-3.52 9.156-7.38c2.058-1.93 3.879-3.89 4.813-5.87.466-1 .776-2.12.343-3.25-.433-1.14-1.541-1.87-2.812-2.19-2.46-.62-5.444-.21-8.781.53-3.337.73-7.019 1.85-10.62 3.03-3.607 1.18-7.129 2.4-10.12 3.25-2.914.83-5.294 1.22-6.474 1.13.62-.95 2.3-2.56 4.16-4.1 3.722-3.08 7.97-6.37 7.97-6.37z" style="opacity:.4802;stroke:#204a87;stroke-linejoin:round;stroke-width:.5028;clip-path:url(#A);filter:url(#D);mask:url(#B)" transform="matrix(2.107 0 0 2.107 242.9 -226.7)"/><path d="m-94.32 144.6s-18.44 12.68-11.94 13.43c6.505.75 28-10 36-8s-12 16-12 16" filter="url(#x)" stroke="url(#E)" transform="matrix(2.107 0 0 2.107 242.9 -226.7)"/><path d="m-94.32 144.6s-18.44 12.68-11.94 13.43c6.505.75 28-10 36-8s-12 16-12 16" filter="url(#x)" stroke="url(#F)" transform="matrix(2.107 0 0 2.107 242.9 -226.7)"/></g><g fill-rule="evenodd"><ellipse cx="14.36" cy="34.79" fill="url(#G)" filter="url(#H)" opacity=".1535" rx="8.795" ry="6.055" transform="matrix(2.435692 0 0 3.183677 15.9761 -28.91591)"/><path d="m78.98 120c8.522-7.39 18.66-13.8 22.91-23.83-6.566 9.02-15.05 16.11-22.91 23.83z" fill="url(#I)" transform="translate(-.000081 -.000083)"/><path d="m41.01 84.61c-6.362 3.877-18.17 9.907-22.97 19.68 7.049-8.641 15.03-13.71 22.97-19.68z" fill="url(#K)" opacity=".5272" transform="translate(-.000081 -.000083)"/></g></g></svg>