<svg height="32" width="32" viewBox="0 0 96 96" xmlns="http://www.w3.org/2000/svg" xmlns:xlink="http://www.w3.org/1999/xlink"><linearGradient id="a"><stop offset="0" stop-color="#fff"/><stop offset="1" stop-color="#fff" stop-opacity="0"/></linearGradient><linearGradient id="b"><stop offset="0" stop-color="#aaa"/><stop offset="1" stop-color="#f0f0f0"/></linearGradient><linearGradient id="c" gradientUnits="userSpaceOnUse" x1="76" x2="76" xlink:href="#b" y1="14" y2="-66"/><linearGradient id="d" gradientUnits="userSpaceOnUse" x1="56" x2="56" xlink:href="#b" y1="14" y2="-50"/><linearGradient id="e" gradientUnits="userSpaceOnUse" x1="44" x2="44" xlink:href="#b" y1="14" y2="-34"/><linearGradient id="f" gradientUnits="userSpaceOnUse" x1="16" x2="16" xlink:href="#b" y1="14" y2="-18"/><linearGradient id="g" gradientUnits="userSpaceOnUse" x1="78" x2="78" xlink:href="#a" y1="-66" y2="6.027772"/><linearGradient id="h" gradientUnits="userSpaceOnUse" x1="19" x2="19" xlink:href="#a" y1="-18" y2="14.140317"/><linearGradient id="i" gradientUnits="userSpaceOnUse" x1="37" x2="37" xlink:href="#a" y1="-34" y2="14.010415"/><linearGradient id="j" gradientUnits="userSpaceOnUse" x1="57" x2="57" xlink:href="#a" y1="-50" y2="14.007812"/><g transform="translate(0 74)"><path d="m74-67.96875c-3.827486 0-6.96875 3.141264-6.96875 6.96875v11.28125c-1.274027-1.358769-3.036218-2.25-5.03125-2.25h-8c-3.827486 0-6.96875 3.141264-6.96875 6.96875v11.28125c-1.274027-1.358769-3.036218-2.25-5.03125-2.25h-8c-3.827486 0-6.96875 3.141264-6.96875 6.96875v11.28125c-1.274027-1.358769-3.036218-2.25-5.03125-2.25h-8c-3.827486 0-6.96875 3.141264-6.96875 6.96875v24c0 3.827486 3.141264 6.96875 6.96875 6.96875h8c2.611074 0 4.807585-1.51241 6-3.65625 1.192415 2.14384 3.388926 3.65625 6 3.65625h8c2.611074 0 4.807585-1.51241 6-3.65625 1.192415 2.14384 3.388926 3.65625 6 3.65625h8c2.611074 0 4.807585-1.51241 6-3.65625 1.192415 2.14384 3.388926 3.65625 6 3.65625h8c3.827486 0 6.96875-3.141264 6.96875-6.96875v-72c0-3.827486-3.141264-6.96875-6.96875-6.96875z" opacity=".08"/><path d="m74-66.96875c-3.283091 0-5.96875 2.685659-5.96875 5.96875v72c0 3.283091 2.685659 5.96875 5.96875 5.96875h8c3.283091 0 5.96875-2.685659 5.96875-5.96875v-72c0-3.283091-2.685659-5.96875-5.96875-5.96875zm-20 16c-3.283091 0-5.96875 2.685659-5.96875 5.96875v56c0 3.283091 2.685659 5.96875 5.96875 5.96875h8c3.283091 0 5.96875-2.685659 5.96875-5.96875v-56c0-3.283091-2.685659-5.96875-5.96875-5.96875zm-20 16c-3.283091 0-5.96875 2.685659-5.96875 5.96875v40c0 3.283091 2.685659 5.96875 5.96875 5.96875h8c3.283091 0 5.96875-2.685659 5.96875-5.96875v-40c0-3.283091-2.685659-5.96875-5.96875-5.96875zm-20 16c-3.283091 0-5.96875 2.685659-5.96875 5.96875v24c0 3.283091 2.685659 5.96875 5.96875 5.96875h8c3.283091 0 5.96875-2.685659 5.96875-5.96875v-24c0-3.283091-2.685659-5.96875-5.96875-5.96875z" opacity=".1"/><path d="m74-66.03125c-2.763365 0-5.03125 2.267885-5.03125 5.03125v72c0 2.763365 2.267885 5.03125 5.03125 5.03125h8c2.763365 0 5.03125-2.267885 5.03125-5.03125v-72c0-2.763365-2.267885-5.03125-5.03125-5.03125zm-20 16c-2.763365 0-5.03125 2.267885-5.03125 5.03125v56c0 2.763365 2.267885 5.03125 5.03125 5.03125h8c2.763365 0 5.03125-2.267885 5.03125-5.03125v-56c0-2.763365-2.267885-5.03125-5.03125-5.03125zm-20 16c-2.763365 0-5.03125 2.267885-5.03125 5.03125v40c0 2.763365 2.267885 5.03125 5.03125 5.03125h8c2.763365 0 5.03125-2.267885 5.03125-5.03125v-40c0-2.763365-2.267885-5.03125-5.03125-5.03125zm-20 16c-2.763365 0-5.03125 2.267885-5.03125 5.03125v24c0 2.763365 2.267885 5.03125 5.03125 5.03125h8c2.763365 0 5.03125-2.267885 5.03125-5.03125v-24c0-2.763365-2.267885-5.03125-5.03125-5.03125z" opacity=".15"/><path d="m74-65c-2.216 0-4 1.784-4 4v72c0 2.216 1.784 4 4 4h8c2.216 0 4-1.784 4-4v-72c0-2.216-1.784-4-4-4zm-20 16c-2.216 0-4 1.784-4 4v56c0 2.216 1.784 4 4 4h8c2.216 0 4-1.784 4-4v-56c0-2.216-1.784-4-4-4zm-20 16c-2.216 0-4 1.784-4 4v40c0 2.216 1.784 4 4 4h8c2.216 0 4-1.784 4-4v-40c0-2.216-1.784-4-4-4zm-20 16c-2.216 0-4 1.784-4 4v24c0 2.216 1.784 4 4 4h8c2.216 0 4-1.784 4-4v-24c0-2.216-1.784-4-4-4z" opacity=".3"/><rect fill="url(#c)" height="80" rx="4" width="16" x="70" y="-66"/><rect fill="url(#d)" height="64" rx="4" width="16" x="50" y="-50"/><rect fill="url(#e)" height="48" rx="4" width="16" x="30" y="-34"/><rect fill="url(#f)" height="32" rx="4" width="16" x="10" y="-18"/><path d="m74-66c-2.216 0-4 1.784-4 4v72c0 1.798949 1.184428 3.275003 2.8125 3.78125-1.09126-.454671-1.84375-1.508071-1.84375-2.78125v-72c0-1.697572 1.333678-3.03125 3.03125-3.03125h8c1.697572 0 3.03125 1.333678 3.03125 3.03125v72c0 1.273179-.75249 2.326579-1.84375 2.78125 1.628072-.506247 2.8125-1.982301 2.8125-3.78125v-72c0-2.216-1.784-4-4-4z" fill="url(#g)" opacity=".6"/><path d="m54-50c-2.216 0-4 1.784-4 4v56c0 1.798949 1.184428 3.275003 2.8125 3.78125-1.09126-.454671-1.84375-1.508071-1.84375-2.78125v-56c0-1.697572 1.333678-3.03125 3.03125-3.03125h8c1.697572 0 3.03125 1.333678 3.03125 3.03125v56c0 1.273179-.75249 2.326579-1.84375 2.78125 1.628072-.506247 2.8125-1.982301 2.8125-3.78125v-56c0-2.216-1.784-4-4-4z" fill="url(#j)" opacity=".6"/><path d="m34-34c-2.216 0-4 1.784-4 4v40c0 1.798949 1.184428 3.275003 2.8125 3.78125-1.09126-.454671-1.84375-1.508071-1.84375-2.78125v-40c0-1.697572 1.333678-3.03125 3.03125-3.03125h8c1.697572 0 3.03125 1.333678 3.03125 3.03125v40c0 1.273179-.75249 2.326579-1.84375 2.78125 1.628072-.506247 2.8125-1.982301 2.8125-3.78125v-40c0-2.216-1.784-4-4-4z" fill="url(#i)" opacity=".6"/><path d="m14-18c-2.216 0-4 1.784-4 4v24c0 1.798949 1.184428 3.275003 2.8125 3.78125-1.09126-.454671-1.84375-1.508071-1.84375-2.78125v-24c0-1.697572 1.333678-3.03125 3.03125-3.03125h8c1.697572 0 3.03125 1.333678 3.03125 3.03125v24c0 1.273179-.75249 2.326579-1.84375 2.78125 1.628072-.506247 2.8125-1.982301 2.8125-3.78125v-24c0-2.216-1.784-4-4-4z" fill="url(#h)" opacity=".6"/></g></svg>