<svg width="31.888" height="31.888" xmlns="http://www.w3.org/2000/svg" viewBox="0 0 31.89 31.89" xmlns:xlink="http://www.w3.org/1999/xlink"><defs><radialGradient id="d" cx="99.48" cy="14.74" r="29.13" fx="99.48" fy="14.74" gradientTransform="matrix(5.6733 0 0 1.6733 -488.69 4.9)" gradientUnits="userSpaceOnUse" href="#a"/><radialGradient id="g" cx="105.2" cy="-.37" r="29.4" fx="105.2" fy="-.37" gradientTransform="matrix(3.5399 0 0 3.5072 -267.19 1.19)" gradientUnits="userSpaceOnUse" href="#b"/><radialGradient id="h" cx="84.12" cy="49.95" r="12.95" fx="84.12" fy="49.95" gradientTransform="matrix(2.2881 0 0 1.5903 -108.36 -28.42)" gradientUnits="userSpaceOnUse" href="#c"/><radialGradient id="i" cx="84.12" cy="49.95" r="12.95" fx="84.12" fy="49.95" gradientTransform="matrix(2.2881 0 0 1.5903 -108.36 -28.42)" gradientUnits="userSpaceOnUse" href="#c"/><radialGradient id="k" cx="84.12" cy="49.95" r="12.95" fx="84.12" fy="49.95" gradientTransform="matrix(2.2881 0 0 1.5903 -108.36 -28.42)" gradientUnits="userSpaceOnUse" href="#c"/><radialGradient id="j" cx="84.12" cy="49.95" r="12.95" fx="84.12" fy="49.95" gradientTransform="matrix(2.2881 0 0 1.5903 -108.36 -28.42)" gradientUnits="userSpaceOnUse" href="#c"/><linearGradient id="a"><stop offset="0" stop-color="#f6f6f5"/><stop offset=".6" stop-color="#e1e1dd"/><stop offset="1" stop-color="#ccccc6"/></linearGradient><linearGradient id="b"><stop offset="0" stop-color="#fff"/><stop offset="1" stop-color="#fff" stop-opacity="0"/></linearGradient><linearGradient id="c"><stop offset="0" stop-color="#fff"/><stop offset="1" stop-color="#c6c6c6"/></linearGradient><clipPath id="e" clipPathUnits="userSpaceOnUse"><rect width="58.26" height="58.26" x="68.78" y="-.09" fill="none" stroke="#000" stroke-width=".53" opacity=".74" rx="2.65" ry="2.65"/></clipPath><filter id="f" width="1.04" height="1.04" x="-.02" y="-.02" color-interpolation-filters="sRGB"><feGaussianBlur stdDeviation=".28"/></filter></defs><g transform="translate(-39.5 -13.4)scale(.8488)"><rect width="58.26" height="58.26" x="46.54" y="15.8" fill="url(#d)" fill-rule="evenodd" rx="2.65" ry="2.65"/><rect width="58.26" height="58.26" x="68.78" y="-.09" fill="none" stroke="#000" stroke-width="1.06" clip-path="url(#e)" filter="url(#f)" opacity=".35" rx="2.65" ry="2.65" transform="translate(-22.25 15.89)"/><rect width="58.26" height="58.26" x="68.78" y="-.09" fill="none" stroke="url(#g)" stroke-width="1.09" clip-path="url(#e)" filter="url(#f)" rx="2.65" ry="2.7" transform="matrix(.98182 0 0 .96381 -20.46 17.45)"/><g fill="#999" transform="translate(-19.07 -16.95)"><use fill-rule="evenodd" href="#prefix__h"/><path stroke="url(#h)" stroke-width=".53" d="M77.4 35.6c-.5 0-.92.41-.92.91v3.39h-4.4c-.8 0-1.47.66-1.47 1.48V59.7c0 .82.66 1.48 1.48 1.48h20.37c.82 0 1.48-.66 1.48-1.47V41.38c0-.82-.67-1.48-1.48-1.48H88.2v-3.39c0-.5-.42-.92-.93-.92z"/></g><g fill="#999" transform="translate(6.91 -16.95)"><use fill-rule="evenodd" href="#prefix__h"/><path stroke="url(#i)" stroke-width=".53" d="M77.4 35.6c-.5 0-.92.41-.92.91v3.39h-4.4c-.8 0-1.47.66-1.47 1.48V59.7c0 .82.66 1.48 1.48 1.48h20.37c.82 0 1.48-.66 1.48-1.47V41.38c0-.82-.67-1.48-1.48-1.48H88.2v-3.39c0-.5-.42-.92-.93-.92z"/></g><g fill="#999" transform="matrix(1 0 0 -1 -19.07 107.37)"><use fill-rule="evenodd" href="#prefix__h"/><path stroke="url(#j)" stroke-width=".53" d="M77.4 35.6c-.5 0-.92.41-.92.91v3.39h-4.4c-.8 0-1.47.66-1.47 1.48V59.7c0 .82.66 1.48 1.48 1.48h20.37c.82 0 1.48-.66 1.48-1.47V41.38c0-.82-.67-1.48-1.48-1.48H88.2v-3.39c0-.5-.42-.92-.93-.92z"/></g><g fill="#999" transform="matrix(1 0 0 -1 6.91 107.37)"><use fill-rule="evenodd" href="#prefix__h"/><path stroke="url(#k)" stroke-width=".53" d="M77.4 35.6c-.5 0-.92.41-.92.91v3.39h-4.4c-.8 0-1.47.66-1.47 1.48V59.7c0 .82.66 1.48 1.48 1.48h20.37c.82 0 1.48-.66 1.48-1.47V41.38c0-.82-.67-1.48-1.48-1.48H88.2v-3.39c0-.5-.42-.92-.93-.92z"/></g></g></svg>