<svg width="31.888" height="31.888" xmlns="http://www.w3.org/2000/svg" viewBox="0 0 31.888 31.888"><defs><linearGradient id="b"><stop offset="0" stop-color="#f6f6f5"/><stop offset=".602" stop-color="#e1e1dd"/><stop offset="1" stop-color="#ccccc6"/></linearGradient><linearGradient id="c"><stop offset="0" stop-color="#fff"/><stop offset="1" stop-color="#fff" stop-opacity="0"/></linearGradient><linearGradient id="d"><stop offset="0" stop-color="#4d4d4d"/><stop offset="1"/></linearGradient><linearGradient id="k" gradientUnits="userSpaceOnUse" gradientTransform="matrix(1 0 0 2.2579 58.186 -1.726)" x1="30.312" y1="27.313" x2="30.312" y2="24.688" href="#a"/><linearGradient id="a"><stop offset="0" stop-color="#edd400"/><stop offset="1" stop-color="#edd400" stop-opacity="0"/></linearGradient><linearGradient id="l" gradientUnits="userSpaceOnUse" gradientTransform="matrix(1 0 0 2.2579 58.319 -1.726)" x1="30.312" y1="27.313" x2="30.312" y2="24.688" href="#a"/><linearGradient id="m" gradientUnits="userSpaceOnUse" gradientTransform="matrix(1 0 0 2.2579 56.432 -1.726)" x1="30.312" y1="27.313" x2="30.312" y2="24.688" href="#a"/><linearGradient id="n" gradientUnits="userSpaceOnUse" gradientTransform="matrix(1 0 0 2.2579 49.712 -1.726)" x1="30.312" y1="27.313" x2="30.312" y2="24.688" href="#a"/><linearGradient id="o" gradientUnits="userSpaceOnUse" gradientTransform="matrix(1 0 0 2.2579 49.877 -1.726)" x1="30.312" y1="27.313" x2="30.312" y2="24.688" href="#a"/><linearGradient id="p" gradientUnits="userSpaceOnUse" gradientTransform="matrix(1 0 0 2.2579 49.943 -1.726)" x1="30.312" y1="27.313" x2="30.312" y2="24.688" href="#a"/><linearGradient id="q" gradientUnits="userSpaceOnUse" gradientTransform="matrix(1 0 0 2.2579 50.043 -1.726)" x1="30.312" y1="27.313" x2="30.312" y2="24.688" href="#a"/><linearGradient id="e"><stop offset="0" stop-color="#fff"/><stop offset="1" stop-color="#c6c6c6"/></linearGradient><linearGradient id="u" gradientUnits="userSpaceOnUse" gradientTransform="matrix(1 0 0 2.2579 58.186 -1.726)" x1="30.312" y1="27.313" x2="30.312" y2="24.688" href="#a"/><linearGradient id="v" gradientUnits="userSpaceOnUse" gradientTransform="matrix(1 0 0 2.2579 58.319 -1.726)" x1="30.312" y1="27.313" x2="30.312" y2="24.688" href="#a"/><linearGradient id="w" gradientUnits="userSpaceOnUse" gradientTransform="matrix(1 0 0 2.2579 56.432 -1.726)" x1="30.312" y1="27.313" x2="30.312" y2="24.688" href="#a"/><linearGradient id="x" gradientUnits="userSpaceOnUse" gradientTransform="matrix(1 0 0 2.2579 49.712 -1.726)" x1="30.312" y1="27.313" x2="30.312" y2="24.688" href="#a"/><linearGradient id="y" gradientUnits="userSpaceOnUse" gradientTransform="matrix(1 0 0 2.2579 49.877 -1.726)" x1="30.312" y1="27.313" x2="30.312" y2="24.688" href="#a"/><linearGradient id="z" gradientUnits="userSpaceOnUse" gradientTransform="matrix(1 0 0 2.2579 49.943 -1.726)" x1="30.312" y1="27.313" x2="30.312" y2="24.688" href="#a"/><linearGradient id="A" gradientUnits="userSpaceOnUse" gradientTransform="matrix(1 0 0 2.2579 50.043 -1.726)" x1="30.312" y1="27.313" x2="30.312" y2="24.688" href="#a"/><linearGradient id="M" gradientUnits="userSpaceOnUse" gradientTransform="matrix(1 0 0 2.2579 58.186 -1.726)" x1="30.312" y1="27.313" x2="30.312" y2="24.688" href="#a"/><linearGradient id="N" gradientUnits="userSpaceOnUse" gradientTransform="matrix(1 0 0 2.2579 58.319 -1.726)" x1="30.312" y1="27.313" x2="30.312" y2="24.688" href="#a"/><linearGradient id="O" gradientUnits="userSpaceOnUse" gradientTransform="matrix(1 0 0 2.2579 56.432 -1.726)" x1="30.312" y1="27.313" x2="30.312" y2="24.688" href="#a"/><linearGradient id="P" gradientUnits="userSpaceOnUse" gradientTransform="matrix(1 0 0 2.2579 49.712 -1.726)" x1="30.312" y1="27.313" x2="30.312" y2="24.688" href="#a"/><linearGradient id="Q" gradientUnits="userSpaceOnUse" gradientTransform="matrix(1 0 0 2.2579 49.877 -1.726)" x1="30.312" y1="27.313" x2="30.312" y2="24.688" href="#a"/><linearGradient id="R" gradientUnits="userSpaceOnUse" gradientTransform="matrix(1 0 0 2.2579 49.943 -1.726)" x1="30.312" y1="27.313" x2="30.312" y2="24.688" href="#a"/><linearGradient id="S" gradientUnits="userSpaceOnUse" gradientTransform="matrix(1 0 0 2.2579 50.043 -1.726)" x1="30.312" y1="27.313" x2="30.312" y2="24.688" href="#a"/><linearGradient id="D" gradientUnits="userSpaceOnUse" gradientTransform="matrix(1 0 0 2.2579 58.186 -1.726)" x1="30.312" y1="27.313" x2="30.312" y2="24.688" href="#a"/><linearGradient id="E" gradientUnits="userSpaceOnUse" gradientTransform="matrix(1 0 0 2.2579 58.319 -1.726)" x1="30.312" y1="27.313" x2="30.312" y2="24.688" href="#a"/><linearGradient id="F" gradientUnits="userSpaceOnUse" gradientTransform="matrix(1 0 0 2.2579 56.432 -1.726)" x1="30.312" y1="27.313" x2="30.312" y2="24.688" href="#a"/><linearGradient id="G" gradientUnits="userSpaceOnUse" gradientTransform="matrix(1 0 0 2.2579 49.712 -1.726)" x1="30.312" y1="27.313" x2="30.312" y2="24.688" href="#a"/><linearGradient id="H" gradientUnits="userSpaceOnUse" gradientTransform="matrix(1 0 0 2.2579 49.877 -1.726)" x1="30.312" y1="27.313" x2="30.312" y2="24.688" href="#a"/><linearGradient id="I" gradientUnits="userSpaceOnUse" gradientTransform="matrix(1 0 0 2.2579 49.943 -1.726)" x1="30.312" y1="27.313" x2="30.312" y2="24.688" href="#a"/><linearGradient id="J" gradientUnits="userSpaceOnUse" gradientTransform="matrix(1 0 0 2.2579 50.043 -1.726)" x1="30.312" y1="27.313" x2="30.312" y2="24.688" href="#a"/><radialGradient id="f" gradientUnits="userSpaceOnUse" gradientTransform="matrix(5.6733 0 0 1.6733 -488.69 4.898)" cx="99.477" cy="14.743" fx="99.477" fy="14.743" r="29.131" href="#b"/><radialGradient id="i" cx="105.2" cy="-.366" fx="105.2" fy="-.366" r="29.403" gradientTransform="matrix(3.5399 0 0 3.5072 -267.19 1.189)" gradientUnits="userSpaceOnUse" href="#c"/><radialGradient id="j" gradientUnits="userSpaceOnUse" gradientTransform="matrix(1.9342 0 0 2.1266 -109.64 -21.131)" cx="99.223" cy="38.566" fx="99.223" fy="38.566" r="11.366" href="#d"/><radialGradient id="s" gradientUnits="userSpaceOnUse" gradientTransform="matrix(2.2881 0 0 1.5903 -108.36 -28.416)" cx="84.119" cy="49.951" fx="84.119" fy="49.951" r="12.953" href="#e"/><radialGradient id="t" gradientUnits="userSpaceOnUse" gradientTransform="matrix(1.9342 0 0 2.1266 -109.64 -21.131)" cx="99.223" cy="38.566" fx="99.223" fy="38.566" r="11.366" href="#d"/><radialGradient id="B" gradientUnits="userSpaceOnUse" gradientTransform="matrix(2.2881 0 0 1.5903 -108.36 -28.416)" cx="84.119" cy="49.951" fx="84.119" fy="49.951" r="12.953" href="#e"/><radialGradient id="L" gradientUnits="userSpaceOnUse" gradientTransform="matrix(1.9342 0 0 2.1266 -109.64 -21.131)" cx="99.223" cy="38.566" fx="99.223" fy="38.566" r="11.366" href="#d"/><radialGradient id="T" gradientUnits="userSpaceOnUse" gradientTransform="matrix(2.2881 0 0 1.5903 -108.36 -28.416)" cx="84.119" cy="49.951" fx="84.119" fy="49.951" r="12.953" href="#e"/><radialGradient id="C" gradientUnits="userSpaceOnUse" gradientTransform="matrix(1.9342 0 0 2.1266 -109.64 -21.131)" cx="99.223" cy="38.566" fx="99.223" fy="38.566" r="11.366" href="#d"/><radialGradient id="K" gradientUnits="userSpaceOnUse" gradientTransform="matrix(2.2881 0 0 1.5903 -108.36 -28.416)" cx="84.119" cy="49.951" fx="84.119" fy="49.951" r="12.953" href="#e"/><filter color-interpolation-filters="sRGB" id="h" x="-.021" y="-.021" width="1.042" height="1.042"><feGaussianBlur stdDeviation=".283"/></filter><filter color-interpolation-filters="sRGB" id="r" y="-.163" height="1.325" x="-inf" width="inf"><feGaussianBlur stdDeviation=".098"/></filter><clipPath clipPathUnits="userSpaceOnUse" id="g"><rect width="58.261" height="58.261" x="68.784" y="-.093" rx="2.648" ry="2.648" opacity=".743" fill="none" stroke="#000" stroke-width=".53"/></clipPath></defs><g transform="translate(-39.501 -13.409)scale(.8488)"><rect ry="2.648" rx="2.648" y="15.796" x="46.539" height="58.261" width="58.261" fill="url(#f)" fill-rule="evenodd"/><rect transform="translate(-22.245 15.889)" clip-path="url(#g)" width="58.261" height="58.261" x="68.784" y="-.093" rx="2.648" ry="2.648" opacity=".353" fill="none" stroke="#000" stroke-width="1.059" filter="url(#h)"/><rect transform="matrix(.98182 0 0 .96381 -20.465 17.455)" ry="2.698" rx="2.648" y="-.093" x="68.784" height="58.261" width="58.261" clip-path="url(#g)" fill="none" stroke="url(#i)" stroke-width="1.089" filter="url(#h)"/><g transform="translate(-19.065 -16.947)"><path d="M77.405 35.89a.62.62 0 0 0-.624.624v3.684h-4.696c-.654 0-1.177.523-1.177 1.177v18.33c0 .654.523 1.177 1.177 1.177h20.377c.654 0 1.178-.523 1.178-1.177v-18.33c0-.654-.524-1.177-1.178-1.177h-4.563v-3.684a.62.62 0 0 0-.624-.624z" fill="url(#j)" fill-rule="evenodd"/><path d="M84.686 58.109v-4.516" fill="none" stroke="url(#k)" stroke-linecap="round"/><path d="M86.819 58.109v-4.516" fill="none" stroke="url(#l)" stroke-linecap="round"/><path d="M88.932 58.109v-4.516" fill="none" stroke="url(#m)" stroke-linecap="round"/><path d="M76.212 58.109v-4.516" fill="none" stroke="url(#n)" stroke-linecap="round"/><path d="M78.377 58.109v-4.516" fill="none" stroke="url(#o)" stroke-linecap="round"/><path d="M80.443 58.109v-4.516" fill="none" stroke="url(#p)" stroke-linecap="round"/><path d="M82.543 58.109v-4.516" fill="none" stroke="url(#q)" stroke-linecap="round" filter="url(#r)"/><path d="M77.404 35.594a.925.925 0 0 0-.92.92V39.9h-4.398c-.812 0-1.475.663-1.475 1.475v18.33c0 .812.663 1.475 1.475 1.475h20.377c.812 0 1.474-.663 1.475-1.475v-18.33c0-.812-.663-1.475-1.475-1.475h-4.268v-3.386a.925.925 0 0 0-.92-.92z" fill="none" stroke="url(#s)" stroke-width=".53"/></g><g transform="translate(6.91 -16.947)"><path d="M77.405 35.89a.62.62 0 0 0-.624.624v3.684h-4.696c-.654 0-1.177.523-1.177 1.177v18.33c0 .654.523 1.177 1.177 1.177h20.377c.654 0 1.178-.523 1.178-1.177v-18.33c0-.654-.524-1.177-1.178-1.177h-4.563v-3.684a.62.62 0 0 0-.624-.624z" fill="url(#t)" fill-rule="evenodd"/><path d="M84.686 58.109v-4.516" fill="none" stroke="url(#u)" stroke-linecap="round"/><path d="M86.819 58.109v-4.516" fill="none" stroke="url(#v)" stroke-linecap="round"/><path d="M88.932 58.109v-4.516" fill="none" stroke="url(#w)" stroke-linecap="round"/><path d="M76.212 58.109v-4.516" fill="none" stroke="url(#x)" stroke-linecap="round"/><path d="M78.377 58.109v-4.516" fill="none" stroke="url(#y)" stroke-linecap="round"/><path d="M80.443 58.109v-4.516" fill="none" stroke="url(#z)" stroke-linecap="round"/><path d="M82.543 58.109v-4.516" fill="none" stroke="url(#A)" stroke-linecap="round" filter="url(#r)"/><path d="M77.404 35.594a.925.925 0 0 0-.92.92V39.9h-4.398c-.812 0-1.475.663-1.475 1.475v18.33c0 .812.663 1.475 1.475 1.475h20.377c.812 0 1.474-.663 1.475-1.475v-18.33c0-.812-.663-1.475-1.475-1.475h-4.268v-3.386a.925.925 0 0 0-.92-.92z" fill="none" stroke="url(#B)" stroke-width=".53"/></g><g transform="matrix(1 0 0 -1 -19.065 107.37)"><path d="M77.405 35.89a.62.62 0 0 0-.624.624v3.684h-4.696c-.654 0-1.177.523-1.177 1.177v18.33c0 .654.523 1.177 1.177 1.177h20.377c.654 0 1.178-.523 1.178-1.177v-18.33c0-.654-.524-1.177-1.178-1.177h-4.563v-3.684a.62.62 0 0 0-.624-.624z" fill="url(#C)" fill-rule="evenodd"/><path d="M84.686 58.109v-4.516" fill="none" stroke="url(#D)" stroke-linecap="round"/><path d="M86.819 58.109v-4.516" fill="none" stroke="url(#E)" stroke-linecap="round"/><path d="M88.932 58.109v-4.516" fill="none" stroke="url(#F)" stroke-linecap="round"/><path d="M76.212 58.109v-4.516" fill="none" stroke="url(#G)" stroke-linecap="round"/><path d="M78.377 58.109v-4.516" fill="none" stroke="url(#H)" stroke-linecap="round"/><path d="M80.443 58.109v-4.516" fill="none" stroke="url(#I)" stroke-linecap="round"/><path d="M82.543 58.109v-4.516" fill="none" stroke="url(#J)" stroke-linecap="round" filter="url(#r)"/><path d="M77.404 35.594a.925.925 0 0 0-.92.92V39.9h-4.398c-.812 0-1.475.663-1.475 1.475v18.33c0 .812.663 1.475 1.475 1.475h20.377c.812 0 1.474-.663 1.475-1.475v-18.33c0-.812-.663-1.475-1.475-1.475h-4.268v-3.386a.925.925 0 0 0-.92-.92z" fill="none" stroke="url(#K)" stroke-width=".53"/></g><g transform="matrix(1 0 0 -1 6.91 107.37)"><path d="M77.405 35.89a.62.62 0 0 0-.624.624v3.684h-4.696c-.654 0-1.177.523-1.177 1.177v18.33c0 .654.523 1.177 1.177 1.177h20.377c.654 0 1.178-.523 1.178-1.177v-18.33c0-.654-.524-1.177-1.178-1.177h-4.563v-3.684a.62.62 0 0 0-.624-.624z" fill="url(#L)" fill-rule="evenodd"/><path d="M84.686 58.109v-4.516" fill="none" stroke="url(#M)" stroke-linecap="round"/><path d="M86.819 58.109v-4.516" fill="none" stroke="url(#N)" stroke-linecap="round"/><path d="M88.932 58.109v-4.516" fill="none" stroke="url(#O)" stroke-linecap="round"/><path d="M76.212 58.109v-4.516" fill="none" stroke="url(#P)" stroke-linecap="round"/><path d="M78.377 58.109v-4.516" fill="none" stroke="url(#Q)" stroke-linecap="round"/><path d="M80.443 58.109v-4.516" fill="none" stroke="url(#R)" stroke-linecap="round"/><path d="M82.543 58.109v-4.516" fill="none" stroke="url(#S)" stroke-linecap="round" filter="url(#r)"/><path d="M77.404 35.594a.925.925 0 0 0-.92.92V39.9h-4.398c-.812 0-1.475.663-1.475 1.475v18.33c0 .812.663 1.475 1.475 1.475h20.377c.812 0 1.474-.663 1.475-1.475v-18.33c0-.812-.663-1.475-1.475-1.475h-4.268v-3.386a.925.925 0 0 0-.92-.92z" fill="none" stroke="url(#T)" stroke-width=".53"/></g></g></svg>