<svg xmlns="http://www.w3.org/2000/svg" width="16px" height="16px" viewBox="0 0 24 24"><path d="m 4.9107807,5.6988848 c -1.1,0 -2,0.9 -2,2 v 4.0000002 c 0,1.11 0.9,2 2,2 h 6.0000003 v 2 H 9.9107807 c -0.55,0 -1,0.45 -1,1 h -7 v 2 h 7 c 0,0.55 0.45,1 1,1 h 4.0000003 c 0.55,0 1,-0.45 1,-1 h 7 v -2 h -7 c 0,-0.55 -0.45,-1 -1,-1 h -1 v -2 h 6 c 1.11,0 2,-0.89 2,-2 V 7.6988848 c 0,-1.1 -0.89,-2 -2,-2 H 4.9107807 m 1,3 h 2 v 2.0000002 h -2 V 8.6988848 m 3.5,0 H 11.410781 V 10.698885 H 9.4107807 V 8.6988848 m 3.5000003,0 h 2 v 2.0000002 h -2 z" fill="#4F4F4F"/></svg>