<!-- Source: https://freesvg.org/1543427258 -->
<svg width="32px" height="35px" version="1.1" viewBox="0 0 32.82 35.26" xmlns="http://www.w3.org/2000/svg"><defs><clipPath id="clipPath16061-3-7"><rect x="-733.4" y="-820.4" width="27.23" height="29.04" fill="#272b2a"/></clipPath></defs><g transform="translate(-82.38 -129.5)" opacity=".4"><g stroke-linecap="round" stroke-linejoin="round"><rect x="82.38" y="129.5" width="32.82" height="35.26" fill="#333" stroke-width="1.378"/><rect x="84.84" y="131.4" width="30.39" height="31.97" fill="#dfdfdf" stroke-width="1.262"/><g fill="#2f4f34" stroke-width=".926"><rect x="101.2" y="156.9" width="13.08" height="2.174"/><rect x="86.8" y="156.9" width="13.08" height="2.174"/><rect x="101.2" y="134.8" width="13.08" height="2.174"/><rect x="86.78" y="134.8" width="13.08" height="2.174"/></g></g><g transform="translate(26.84 72.14)"><path transform="matrix(.483 0 0 -.4794 414.2 -302.1)" d="m-733.4-806.9h27.23v15.58h-27.23z" clip-path="url(#clipPath16061-3-7)" fill="#333"/><path transform="matrix(1.826 0 0 1.812 65.57 -461.7)" d="m-0.6627 302.7h2.378v-4.18h-2.378z" fill="#171a19" stroke-width=".2646"/><path transform="matrix(1.826 0 0 1.812 65.57 -461.7)" d="m-1.507 302.4h4.063v-4.72h-4.063z" fill="#333" stroke-width=".2646"/><path transform="matrix(1.826 0 0 1.812 65.57 -461.7)" d="m2.324 302.3v-1.8h-3.598v1.8" fill="none" stroke="#000" stroke-width=".1588"/><g fill="none" stroke="#000" stroke-width=".1598"><path transform="matrix(1.826 0 0 1.812 65.57 -461.7)" d="m-1.35 299.3v-1.69h2.208v1.69"/><path transform="matrix(1.826 0 0 1.812 65.57 -461.7)" d="m-0.8206 299.3v-1.69h2.208v1.69"/><path transform="matrix(1.826 0 0 1.812 65.57 -461.7)" d="m-0.2649 299.3v-1.69h2.208v1.69"/><path transform="matrix(1.826 0 0 1.812 65.57 -461.7)" d="m0.2907 299.3v-1.69h2.208v1.69"/></g><path transform="matrix(.483 0 0 -.4794 428.6 -302.1)" d="m-733.4-806.9h27.23v15.58h-27.23z" clip-path="url(#clipPath16061-3-7)" fill="#333"/><path transform="matrix(1.826 0 0 1.812 65.57 -461.7)" d="m7.239 302.7h2.378v-4.18h-2.378z" fill="#171a19" stroke-width=".2646"/><path transform="matrix(1.826 0 0 1.812 65.57 -461.7)" d="m6.395 302.4h4.063v-4.72h-4.063z" fill="#333" stroke-width=".2646"/><path transform="matrix(1.826 0 0 1.812 65.57 -461.7)" d="m10.23 302.3v-1.8h-3.598v1.8" fill="none" stroke="#000" stroke-width=".1588"/><g fill="none" stroke="#000" stroke-width=".1598"><path transform="matrix(1.826 0 0 1.812 65.57 -461.7)" d="m6.552 299.3v-1.69h2.208v1.69"/><path transform="matrix(1.826 0 0 1.812 65.57 -461.7)" d="m7.081 299.3v-1.69h2.208v1.69"/><path transform="matrix(1.826 0 0 1.812 65.57 -461.7)" d="m7.637 299.3v-1.69h2.208v1.69"/><path transform="matrix(1.826 0 0 1.812 65.57 -461.7)" d="m8.192 299.3v-1.69h2.209v1.69"/></g><path transform="matrix(.483 0 0 .4794 414.2 451.6)" d="m-733.4-806.9h27.23v15.58h-27.23z" clip-path="url(#clipPath16061-3-7)" fill="#333"/><path transform="matrix(1.826 0 0 1.812 65.57 -461.7)" d="m-0.6627 289.4h2.378v4.19h-2.378z" fill="#171a19" stroke-width=".2646"/><path transform="matrix(1.826 0 0 1.812 65.57 -461.7)" d="m-1.507 289.7h4.063v4.72h-4.063z" fill="#333" stroke-width=".2646"/><path transform="matrix(1.826 0 0 1.812 65.57 -461.7)" d="m2.324 289.8v1.8h-3.598v-1.8" fill="none" stroke="#000" stroke-width=".1588"/><g fill="none" stroke="#000" stroke-width=".1598"><path transform="matrix(1.826 0 0 1.812 65.57 -461.7)" d="m-1.35 292.8v1.69h2.208v-1.69"/><path transform="matrix(1.826 0 0 1.812 65.57 -461.7)" d="m-0.8206 292.8v1.69h2.208v-1.69"/><path transform="matrix(1.826 0 0 1.812 65.57 -461.7)" d="m-0.2649 292.8v1.69h2.208v-1.69"/><path transform="matrix(1.826 0 0 1.812 65.57 -461.7)" d="m0.2907 292.8v1.69h2.208v-1.69"/></g><path transform="matrix(.483 0 0 .4794 428.6 451.6)" d="m-733.4-806.9h27.23v15.58h-27.23z" clip-path="url(#clipPath16061-3-7)" fill="#333"/><path transform="matrix(1.826 0 0 1.812 65.57 -461.7)" d="m7.239 289.4h2.378v4.19h-2.378z" fill="#171a19" stroke-width=".2646"/><path transform="matrix(1.826 0 0 1.812 65.57 -461.7)" d="m6.395 289.7h4.063v4.72h-4.063z" fill="#333" stroke-width=".2646"/><path transform="matrix(1.826 0 0 1.812 65.57 -461.7)" d="m10.23 289.8v1.8h-3.598v-1.8" fill="none" stroke="#000" stroke-width=".1588"/><g fill="none" stroke="#000" stroke-width=".1598"><path transform="matrix(1.826 0 0 1.812 65.57 -461.7)" d="m6.552 292.8v1.69h2.208v-1.69"/><path transform="matrix(1.826 0 0 1.812 65.57 -461.7)" d="m7.081 292.8v1.69h2.208v-1.69"/><path transform="matrix(1.826 0 0 1.812 65.57 -461.7)" d="m7.637 292.8v1.69h2.208v-1.69"/><path transform="matrix(1.826 0 0 1.812 65.57 -461.7)" d="m8.192 292.8v1.69h2.209v-1.69"/></g><text transform="scale(1.004 .9963)" x="65.369" y="61.765" fill="#000000" font-family="Sans" font-size="2.94px" letter-spacing="0px" stroke-width=".245px" word-spacing="0px" style="line-height:28.7061px" xml:space="preserve"><tspan x="65.369" y="61.765" style="line-height:28.7061px">1</tspan><tspan x="65.369" y="90.471" style="line-height:28.7061px">2</tspan></text><text transform="scale(1.004 .9963)" x="79.722" y="61.765" fill="#000000" font-family="Sans" font-size="2.94px" letter-spacing="0px" stroke-width=".245px" word-spacing="0px" style="line-height:28.7061px" xml:space="preserve"><tspan x="79.722" y="61.765" style="line-height:28.7061px">3</tspan><tspan x="79.722" y="90.471" style="line-height:28.7061px">4</tspan></text><g transform="translate(81.33 -116.8)"><g transform="translate(0 -.09547)"><g transform="matrix(.5 0 0 .5 6.296 85.53)"><rect transform="matrix(1.005 0 0 .9931 -281.8 141.2)" x="243.8" y="41.43" width="6" height="4.623" stroke-linecap="round" stroke-linejoin="round"/><text transform="scale(1.006 .9943)" x="-36.006" y="186.46" fill="#ffffff" font-family="Sans" font-size="1.957px" font-weight="bold" letter-spacing="0px" stroke-width=".1631px" word-spacing="0px" style="line-height:125%" xml:space="preserve"><tspan x="-36.006" y="186.46">LNK</tspan></text></g><g transform="matrix(.5 0 0 .5 -2.123 88.09)"><rect transform="matrix(1.005 0 0 .9931 -281.8 141.2)" x="243.8" y="36.28" width="6" height="4.623" stroke-linecap="round" stroke-linejoin="round"/><text transform="scale(1.006 .9943)" x="-35.828" y="181.31" fill="#ffffff" font-family="Sans" font-size="1.957px" font-weight="bold" letter-spacing="0px" stroke-width=".1631px" word-spacing="0px" style="line-height:125%" xml:space="preserve"><tspan x="-35.828" y="181.31">ACT</tspan></text></g></g><g transform="translate(14.51 -.09547)"><g transform="matrix(.5 0 0 .5 6.296 85.53)"><rect transform="matrix(1.005 0 0 .9931 -281.8 141.2)" x="243.8" y="41.43" width="6" height="4.623" stroke-linecap="round" stroke-linejoin="round"/><text transform="scale(1.006 .9943)" x="-36.006" y="186.46" fill="#ffffff" font-family="Sans" font-size="1.957px" font-weight="bold" letter-spacing="0px" stroke-width=".1631px" word-spacing="0px" style="line-height:125%" xml:space="preserve"><tspan x="-36.006" y="186.46">LNK</tspan></text></g><g transform="matrix(.5 0 0 .5 -2.123 88.09)"><rect transform="matrix(1.005 0 0 .9931 -281.8 141.2)" x="243.8" y="36.28" width="6" height="4.623" stroke-linecap="round" stroke-linejoin="round"/><text transform="scale(1.006 .9943)" x="-35.828" y="181.31" fill="#ffffff" font-family="Sans" font-size="1.957px" font-weight="bold" letter-spacing="0px" stroke-width=".1631px" word-spacing="0px" style="line-height:125%" xml:space="preserve"><tspan x="-35.828" y="181.31">ACT</tspan></text></g></g><g transform="translate(0 27.64)"><g transform="matrix(.5 0 0 .5 6.296 85.53)"><rect transform="matrix(1.005 0 0 .9931 -281.8 141.2)" x="243.8" y="41.43" width="6" height="4.623" stroke-linecap="round" stroke-linejoin="round"/><text transform="scale(1.006 .9943)" x="-36.006" y="186.46" fill="#ffffff" font-family="Sans" font-size="1.957px" font-weight="bold" letter-spacing="0px" stroke-width=".1631px" word-spacing="0px" style="line-height:125%" xml:space="preserve"><tspan x="-36.006" y="186.46">LNK</tspan></text></g><g transform="matrix(.5 0 0 .5 -2.123 88.09)"><rect transform="matrix(1.005 0 0 .9931 -281.8 141.2)" x="243.8" y="36.28" width="6" height="4.623" stroke-linecap="round" stroke-linejoin="round"/><text transform="scale(1.006 .9943)" x="-35.828" y="181.31" fill="#ffffff" font-family="Sans" font-size="1.957px" font-weight="bold" letter-spacing="0px" stroke-width=".1631px" word-spacing="0px" style="line-height:125%" xml:space="preserve"><tspan x="-35.828" y="181.31">ACT</tspan></text></g></g><g transform="translate(14.51 27.64)"><g transform="matrix(.5 0 0 .5 6.296 85.53)"><rect transform="matrix(1.005 0 0 .9931 -281.8 141.2)" x="243.8" y="41.43" width="6" height="4.623" stroke-linecap="round" stroke-linejoin="round"/><text transform="scale(1.006 .9943)" x="-36.006" y="186.46" fill="#ffffff" font-family="Sans" font-size="1.957px" font-weight="bold" letter-spacing="0px" stroke-width=".1631px" word-spacing="0px" style="line-height:125%" xml:space="preserve"><tspan x="-36.006" y="186.46">LNK</tspan></text></g><g transform="matrix(.5 0 0 .5 -2.123 88.09)"><rect transform="matrix(1.005 0 0 .9931 -281.8 141.2)" x="243.8" y="36.28" width="6" height="4.623" stroke-linecap="round" stroke-linejoin="round"/><text transform="scale(1.006 .9943)" x="-35.828" y="181.31" fill="#ffffff" font-family="Sans" font-size="1.957px" font-weight="bold" letter-spacing="0px" stroke-width=".1631px" word-spacing="0px" style="line-height:125%" xml:space="preserve"><tspan x="-35.828" y="181.31">ACT</tspan></text></g></g></g></g></g></svg>
