<svg width="32" height="32" version="1.1" viewBox="0 0 48 48" xmlns="http://www.w3.org/2000/svg" xmlns:xlink="http://www.w3.org/1999/xlink"><defs><linearGradient id="linearGradient5940"><stop stop-color="#2e3436" offset="0"/><stop stop-color="#555753" offset="1"/></linearGradient><linearGradient id="linearGradient4598"><stop stop-color="#fff" offset="0"/><stop stop-color="#fff" stop-opacity="0" offset="1"/></linearGradient><linearGradient id="linearGradient7422"><stop stop-color="#edd400" offset="0"/><stop stop-color="#edd400" stop-opacity="0" offset="1"/></linearGradient><linearGradient id="linearGradient565184-2" x1="32.81" x2="32.81" y1="21" y2="26.2" gradientTransform="matrix(1.631 0 0 1.63 98.35 78.44)" gradientUnits="userSpaceOnUse" xlink:href="#linearGradient5940"/><linearGradient id="linearGradient565186-6" x1="28.88" x2="29" y1="29" y2="16" gradientTransform="matrix(1.5 0 0 1.5 102.2 81.36)" gradientUnits="userSpaceOnUse" xlink:href="#linearGradient4598"/><linearGradient id="linearGradient565196-0" x1="30.31" x2="30.31" y1="27.31" y2="24.69" gradientUnits="userSpaceOnUse" xlink:href="#linearGradient7422"/><linearGradient id="linearGradient576026-2" x1="-7.975" x2="-11.01" y1="25.36" y2="-6.568" gradientTransform="matrix(2 0 0 1.933 43.98 -63.51)" gradientUnits="userSpaceOnUse"><stop stop-color="#d3d7cf" offset="0"/><stop stop-color="#fff" offset="1"/></linearGradient><linearGradient id="linearGradient576028-6" x1="-7.852" x2="-5.51" y1="3.755" y2="18.94" gradientTransform="matrix(2.143 0 0 2.087 44.91 -64.67)" gradientUnits="userSpaceOnUse"><stop stop-color="#fff" offset="0"/><stop stop-color="#fff" stop-opacity="0" offset="1"/></linearGradient><filter id="filter5386-64-0" x="-.008195" y="-.02176" width="1.016" height="1.044" color-interpolation-filters="sRGB"><feGaussianBlur stdDeviation="0.26293105"/></filter></defs><clipPath id="b"><rect x="68.78" y="-.0933" width="58.26" height="58.26" rx="2.648"/></clipPath><filter id="c" x="-.021" y="-.021" width="1.042" height="1.042" color-interpolation-filters="sRGB"><feGaussianBlur stdDeviation=".28282197"/></filter><clipPath id="h"><path d="m-6.562 24.53c-0.3877 0-0.6917 0.219-0.9062 0.469l-0.031-0.03-0.031 0.06-0.3438 0.313-4.25 1.218c-0.03 0-0.06 0.02-0.09 0.03-0.549 0.274-0.902 0.554-1.094 0.937-0.192 0.384-0.116 0.867 0.125 1.156 0.329 0.394 0.858 0.553 1.407 0.657l-0.407 0.437c-0.06 0.05-0.1 0.116-0.125 0.188-0.03 0.121-0.07 0.316-0.125 0.5-0.02 0.04-0.03 0.08-0.03 0.125v6.656c0 0.299 0.113 0.582 0.313 0.813 0.199 0.23 0.511 0.406 0.875 0.406h7.843c0.3236 0 0.6569-0.116 0.9063-0.375l4.651-4.81c0.2259-0.235 0.3437-0.539 0.3437-0.875v-6.625c0-0.335-0.1178-0.64-0.3437-0.875-0.2227-0.229-0.5504-0.375-0.874-0.375z"/></clipPath><filter id="i" x="-.03844" y="-.04352" width="1.077" height="1.087" color-interpolation-filters="sRGB"><feGaussianBlur stdDeviation=".1491362"/></filter><filter id="p" x="-.02026" y="-.02354" width="1.04" height="1.047" color-interpolation-filters="sRGB"><feGaussianBlur stdDeviation=".071069152"/></filter><filter id="x" x="-.03625" y="-.04222" width="1.071" height="1.083" color-interpolation-filters="sRGB"><feGaussianBlur stdDeviation=".16679387"/></filter><clipPath id="A"><path d="m-95.3 143.8s-4.189 3.27-8.1 6.5c-1.95 1.62-3.69 3.22-4.72 4.78-0.51 0.78-0.98 1.62-0.65 2.78 0.16 0.58 0.61 1.12 1.09 1.41 0.48 0.28 0.96 0.4 1.5 0.47 2.13 0.24 4.73-0.4 7.849-1.28 3.113-0.89 6.669-2.09 10.25-3.25 3.581-1.17 7.196-2.31 10.34-3 3.147-0.7 5.835-0.89 7.375-0.5 0.729 0.18 0.745 0.3 0.75 0.31 0 0 0.06 0.33-0.219 0.94-0.567 1.2-2.245 3.11-4.187 4.93-3.885 3.64-8.844 7.13-8.844 7.13l1.75 2.44s5.041-3.52 9.156-7.38c2.058-1.93 3.879-3.89 4.813-5.87 0.466-1 0.776-2.12 0.343-3.25-0.433-1.14-1.541-1.87-2.812-2.19-2.46-0.62-5.444-0.21-8.781 0.53-3.337 0.73-7.019 1.85-10.62 3.03-3.607 1.18-7.129 2.4-10.12 3.25-2.913 0.83-5.293 1.22-6.473 1.13 0.62-0.95 2.3-2.56 4.16-4.1 3.721-3.08 7.969-6.37 7.969-6.37z"/></clipPath><mask id="B" maskUnits="userSpaceOnUse"><rect x="-115.6" y="147" width="51.28" height="17.34" rx=".6657" fill="url(#C)" fill-rule="evenodd" stroke-width="2"/></mask><linearGradient id="C" x1="-112.3" x2="-112.3" y1="148.9" y2="164.5" gradientUnits="userSpaceOnUse"><stop offset="0"/><stop stop-color="#fff" offset=".2177"/><stop stop-color="#fff" offset=".7659"/><stop offset="1"/></linearGradient><filter id="D" x="-.0125" y="-.04971" width="1.026" height="1.099" color-interpolation-filters="sRGB"><feGaussianBlur stdDeviation="0.001 0.244"/></filter><filter id="H" x="-.395" y="-.5737" width="1.79" height="2.147" color-interpolation-filters="sRGB"><feGaussianBlur stdDeviation="2.8946329"/></filter><g opacity=".7"><g transform="matrix(.5923 0 0 .5923 -7.406 54.4)" enable-background="new"><rect x="14.98" y="-62.54" width="77" height="29" rx="2.877" ry="2.781" fill="url(#linearGradient576026-2)" fill-rule="evenodd" stroke="#888a85" stroke-dashoffset=".7" stroke-linecap="round" stroke-linejoin="round" stroke-opacity=".9924"/><path d="m18.12-61.54c-1.228 0-2.147 0.896-2.147 2.092v22.96c0 1.195 0.919 2.091 2.147 2.091h70.85c1.228 0 2.147-0.896 2.147-2.091v-22.96c0-1.196-0.919-2.092-2.147-2.092z" fill="none" stroke="url(#linearGradient576028-6)" stroke-dashoffset=".7" stroke-linecap="round" stroke-linejoin="round" stroke-opacity=".9924"/><rect transform="matrix(1.016 0 0 1.016 -.01036 -64.31)" x="15.38" y="2.875" width="77" height="29" rx="3.723" ry="3.723" fill-rule="evenodd" filter="url(#filter5386-64-0)" opacity=".1205"/></g><g transform="matrix(.5239 0 0 .5239 -36.99 -6.367)"><g transform="translate(-60.1 -57.19)"><path d="m144.9 107c-0.96 0-1.73 0.77-1.73 1.73v0.43c0 0.44-0.34 0.82-0.82 0.82h-2.34c-0.96 0-1.73 1.05-1.73 2.01v9.67c0 0.96 0.77 1.73 1.73 1.73h12.84c0.96 0 1.74-0.77 1.74-1.73v-9.67c0-0.96-0.78-2.01-1.74-2.01h-2.34c-0.39 0-0.82-0.28-0.82-0.79v-0.46c0-0.96-0.77-1.73-1.73-1.73z" fill="url(#linearGradient565184-2)" fill-rule="evenodd" stroke-width="1.5"/><path d="m145.1 106c-1.67 0-2.98 1.37-3.1 3h-1.4c-1.74 0-3.19 1.45-3.19 3.19v8.81c0 1.74 1.45 3.19 3.19 3.19h11.81c1.74 0 3.19-1.45 3.19-3.19v-8.81c0-1.74-1.45-3.19-3.19-3.19h-1.41c-0.12-1.63-1.43-3-3.09-3z" fill="none" stroke="url(#linearGradient565186-6)" stroke-dashoffset=".7" stroke-linecap="round" stroke-width="1.5"/><g transform="matrix(1.5 0 0 1.5 102.2 79.86)" fill="none" stroke="url(#linearGradient565196-0)" stroke-linecap="round" stroke-width="1px"><path d="m26.5 26.5v-2"/><path d="m28.5 26.5v-2"/><path d="m30.5 26.5v-2"/><path d="m32.5 26.5v-2"/></g></g></g><text x="5.4346" y="32.032" fill="#000000" font-family="Sans" font-size="2.565px" letter-spacing="0px" stroke-width=".6412px" word-spacing="0px" style="line-height:1.25" xml:space="preserve"><tspan x="5.4346" y="32.032" font-family="Carlito" font-weight="bold">LAN1</tspan></text><g transform="matrix(.5239 0 0 .5239 -26.22 -6.367)"><g transform="translate(-60.1 -57.19)"><path d="m144.9 107c-0.96 0-1.73 0.77-1.73 1.73v0.43c0 0.44-0.34 0.82-0.82 0.82h-2.34c-0.96 0-1.73 1.05-1.73 2.01v9.67c0 0.96 0.77 1.73 1.73 1.73h12.84c0.96 0 1.74-0.77 1.74-1.73v-9.67c0-0.96-0.78-2.01-1.74-2.01h-2.34c-0.39 0-0.82-0.28-0.82-0.79v-0.46c0-0.96-0.77-1.73-1.73-1.73z" fill="url(#linearGradient565184-2)" fill-rule="evenodd" stroke-width="1.5"/><path d="m145.1 106c-1.67 0-2.98 1.37-3.1 3h-1.4c-1.74 0-3.19 1.45-3.19 3.19v8.81c0 1.74 1.45 3.19 3.19 3.19h11.81c1.74 0 3.19-1.45 3.19-3.19v-8.81c0-1.74-1.45-3.19-3.19-3.19h-1.41c-0.12-1.63-1.43-3-3.09-3z" fill="none" stroke="url(#linearGradient565186-6)" stroke-dashoffset=".7" stroke-linecap="round" stroke-width="1.5"/><g transform="matrix(1.5 0 0 1.5 102.2 79.86)" fill="none" stroke="url(#linearGradient565196-0)" stroke-linecap="round" stroke-width="1px"><path d="m26.5 26.5v-2"/><path d="m28.5 26.5v-2"/><path d="m30.5 26.5v-2"/><path d="m32.5 26.5v-2"/></g></g></g><text x="16.197" y="32.032" fill="#000000" font-family="Sans" font-size="2.565px" letter-spacing="0px" stroke-width=".6412px" word-spacing="0px" style="line-height:1.25" xml:space="preserve"><tspan x="16.197" y="32.032" font-family="Carlito" font-weight="bold">LAN2</tspan></text><g transform="matrix(.5239 0 0 .5239 -15.5 -6.367)"><g transform="translate(-60.1 -57.19)"><path d="m144.9 107c-0.96 0-1.73 0.77-1.73 1.73v0.43c0 0.44-0.34 0.82-0.82 0.82h-2.34c-0.96 0-1.73 1.05-1.73 2.01v9.67c0 0.96 0.77 1.73 1.73 1.73h12.84c0.96 0 1.74-0.77 1.74-1.73v-9.67c0-0.96-0.78-2.01-1.74-2.01h-2.34c-0.39 0-0.82-0.28-0.82-0.79v-0.46c0-0.96-0.77-1.73-1.73-1.73z" fill="url(#linearGradient565184-2)" fill-rule="evenodd" stroke-width="1.5"/><path d="m145.1 106c-1.67 0-2.98 1.37-3.1 3h-1.4c-1.74 0-3.19 1.45-3.19 3.19v8.81c0 1.74 1.45 3.19 3.19 3.19h11.81c1.74 0 3.19-1.45 3.19-3.19v-8.81c0-1.74-1.45-3.19-3.19-3.19h-1.41c-0.12-1.63-1.43-3-3.09-3z" fill="none" stroke="url(#linearGradient565186-6)" stroke-dashoffset=".7" stroke-linecap="round" stroke-width="1.5"/><g transform="matrix(1.5 0 0 1.5 102.2 79.86)" fill="none" stroke="url(#linearGradient565196-0)" stroke-linecap="round" stroke-width="1px"><path d="m26.5 26.5v-2"/><path d="m28.5 26.5v-2"/><path d="m30.5 26.5v-2"/><path d="m32.5 26.5v-2"/></g></g></g><text x="26.959" y="32.032" fill="#000000" font-family="Sans" font-size="2.565px" letter-spacing="0px" stroke-width=".6412px" word-spacing="0px" style="line-height:1.25" xml:space="preserve"><tspan x="26.959" y="32.032" font-family="Carlito" font-weight="bold">LAN3</tspan></text><g transform="matrix(.5239 0 0 .5239 -4.675 -6.367)"><g transform="translate(-60.1 -57.19)"><path d="m144.9 107c-0.96 0-1.73 0.77-1.73 1.73v0.43c0 0.44-0.34 0.82-0.82 0.82h-2.34c-0.96 0-1.73 1.05-1.73 2.01v9.67c0 0.96 0.77 1.73 1.73 1.73h12.84c0.96 0 1.74-0.77 1.74-1.73v-9.67c0-0.96-0.78-2.01-1.74-2.01h-2.34c-0.39 0-0.82-0.28-0.82-0.79v-0.46c0-0.96-0.77-1.73-1.73-1.73z" fill="url(#linearGradient565184-2)" fill-rule="evenodd" stroke-width="1.5"/><path d="m145.1 106c-1.67 0-2.98 1.37-3.1 3h-1.4c-1.74 0-3.19 1.45-3.19 3.19v8.81c0 1.74 1.45 3.19 3.19 3.19h11.81c1.74 0 3.19-1.45 3.19-3.19v-8.81c0-1.74-1.45-3.19-3.19-3.19h-1.41c-0.12-1.63-1.43-3-3.09-3z" fill="none" stroke="url(#linearGradient565186-6)" stroke-dashoffset=".7" stroke-linecap="round" stroke-width="1.5"/><g transform="matrix(1.5 0 0 1.5 102.2 79.86)" fill="none" stroke="url(#linearGradient565196-0)" stroke-linecap="round" stroke-width="1px"><path d="m26.5 26.5v-2"/><path d="m28.5 26.5v-2"/><path d="m30.5 26.5v-2"/><path d="m32.5 26.5v-2"/></g></g></g><text x="37.722" y="32.032" fill="#000000" font-family="Sans" font-size="2.565px" letter-spacing="0px" stroke-width=".6412px" word-spacing="0px" style="line-height:1.25" xml:space="preserve"><tspan x="37.722" y="32.032" font-family="Carlito" font-weight="bold">LAN4</tspan></text></g></svg>
