<svg width="32" height="32" version="1.1" viewBox="0 0 48 48" xmlns="http://www.w3.org/2000/svg" xmlns:xlink="http://www.w3.org/1999/xlink"><defs><linearGradient id="linearGradient36138"><stop stop-color="#fff" offset="0"/><stop stop-color="#fff" stop-opacity="0" offset="1"/></linearGradient><linearGradient id="linearGradient7887" x1="-7.975" x2="-11.01" y1="25.36" y2="-6.568" gradientTransform="matrix(2 0 0 1.933 43.5 .5333)" gradientUnits="userSpaceOnUse"><stop stop-color="#d3d7cf" offset="0"/><stop stop-color="#fff" offset="1"/></linearGradient><linearGradient id="linearGradient7889" x1="-7.852" x2="-5.51" y1="3.755" y2="18.94" gradientUnits="userSpaceOnUse"><stop stop-color="#fff" offset="0"/><stop stop-color="#fff" stop-opacity="0" offset="1"/></linearGradient><linearGradient id="linearGradient7822-4"><stop offset="0"/><stop stop-opacity="0" offset="1"/></linearGradient><linearGradient id="linearGradient5940"><stop stop-color="#2e3436" offset="0"/><stop stop-color="#555753" offset="1"/></linearGradient><linearGradient id="linearGradient5911-7-1"><stop stop-color="#f6f6f5" offset="0"/><stop stop-color="#ecece9" offset=".381"/><stop stop-color="#c5c5be" offset=".7619"/><stop stop-color="#fff" offset="1"/></linearGradient><filter id="filter10631-9-19-8" x="-.05439" y="-.09755" width="1.109" height="1.195"><feGaussianBlur stdDeviation="0.5906498"/></filter><radialGradient id="radialGradient8346-8" cx="18.25" cy="15.72" r="29.99" gradientTransform="matrix(.43 0 0 .4288 2.023 23.88)" gradientUnits="userSpaceOnUse"><stop stop-color="#fff" offset="0"/><stop stop-color="#eeeeec" offset=".1552"/><stop stop-color="#eeeeec" offset=".6311"/><stop stop-color="#babdb6" offset=".8155"/><stop stop-color="#888a85" offset="1"/></radialGradient><radialGradient id="radialGradient8350-2" cx="24.88" cy="23" r="19.19" gradientTransform="matrix(.4286 0 0 .3992 16.53 89.55)" gradientUnits="userSpaceOnUse" xlink:href="#linearGradient7822-4"/><radialGradient id="radialGradient8380-4" cx="24.88" cy="23" r="19.19" gradientTransform="matrix(.4286 0 0 .3992 16.81 89.8)" gradientUnits="userSpaceOnUse" xlink:href="#linearGradient7822-4"/><radialGradient id="radialGradient8410-6" cx="23.93" cy="14.66" r="19.19" gradientTransform="matrix(.7542 0 0 .7024 8.717 84.97)" gradientUnits="userSpaceOnUse"><stop stop-color="#f6f6f5" offset="0"/><stop stop-color="#ecece9" offset=".4992"/><stop stop-color="#9a9a8d" offset=".7619"/><stop stop-color="#fff" offset="1"/></radialGradient><radialGradient id="radialGradient8416-0" cx="24.14" cy="14.21" r="19.19" gradientTransform="matrix(.7542 0 0 .7024 8.717 84.97)" gradientUnits="userSpaceOnUse" xlink:href="#linearGradient5911-7-1"/><radialGradient id="radialGradient8440-0" cx="24.74" cy="17.35" r="19.19" gradientTransform="matrix(.6124 0 0 .5703 12.04 86.93)" gradientUnits="userSpaceOnUse"><stop stop-color="#f6f6f5" offset="0"/><stop stop-color="#ecece9" offset=".538"/><stop stop-color="#97978a" offset=".8543"/><stop stop-color="#fff" offset="1"/></radialGradient><radialGradient id="radialGradient8470-2" cx="77.56" cy="152.5" r="13.03" gradientTransform="matrix(1.963 0 0 1.094 -74.66 -21.12)" gradientUnits="userSpaceOnUse"><stop stop-color="#fff" offset="0"/><stop stop-color="#fff" stop-opacity="0" offset="1"/></radialGradient><linearGradient id="linearGradient3387"><stop stop-color="#8f9388" offset="0"/><stop stop-color="#c6cac2" offset=".5"/><stop stop-color="#d3d7cf" stop-opacity="0" offset="1"/></linearGradient><linearGradient id="linearGradient32908" x1="22.36" x2="28.25" y1="11.89" y2="11.89" gradientUnits="userSpaceOnUse" xlink:href="#linearGradient3387"/><linearGradient id="linearGradient36140" x1="22.36" x2="28.25" y1="11.89" y2="11.89" gradientUnits="userSpaceOnUse" xlink:href="#linearGradient36138"/><linearGradient id="linearGradient36952" x1="22.36" x2="28.25" y1="11.89" y2="11.89" gradientUnits="userSpaceOnUse" xlink:href="#linearGradient36138"/><filter id="filter5386-65" x="-.01972" y="-.02176" width="1.039" height="1.044" color-interpolation-filters="sRGB"><feGaussianBlur stdDeviation="0.26293105"/></filter><filter id="filter5386-2-2" x="-.01972" y="-.02176" width="1.039" height="1.044" color-interpolation-filters="sRGB"><feGaussianBlur stdDeviation="0.26293105"/></filter><linearGradient id="linearGradient7422"><stop stop-color="#edd400" offset="0"/><stop stop-color="#edd400" stop-opacity="0" offset="1"/></linearGradient><linearGradient id="linearGradient2128329" x1="32.81" x2="32.81" y1="21" y2="26.2" gradientTransform="matrix(.903 0 0 .9021 36.25 -116.5)" gradientUnits="userSpaceOnUse" xlink:href="#linearGradient5940"/><linearGradient id="linearGradient2128331" x1="28.88" x2="29" y1="29" y2="16" gradientTransform="matrix(.8304 0 0 .8304 38.39 -114.9)" gradientUnits="userSpaceOnUse" xlink:href="#linearGradient36138"/><linearGradient id="linearGradient2128333" x1="30.31" x2="30.31" y1="27.31" y2="24.69" gradientTransform="matrix(.8304 0 0 .8304 38.39 -115.7)" gradientUnits="userSpaceOnUse" xlink:href="#linearGradient7422"/><linearGradient id="linearGradient50053" x1="-7.975" x2="-11.01" y1="25.36" y2="-6.568" gradientTransform="matrix(2 0 0 1.933 43.5 .5333)" gradientUnits="userSpaceOnUse" xlink:href="#linearGradient7887"/><linearGradient id="linearGradient50055" x1="-7.852" x2="-5.51" y1="3.755" y2="18.94" gradientUnits="userSpaceOnUse" xlink:href="#linearGradient7889"/></defs><clipPath id="b"><rect x="68.78" y="-.0933" width="58.26" height="58.26" rx="2.648"/></clipPath><filter id="c" x="-.021" y="-.021" width="1.042" height="1.042" color-interpolation-filters="sRGB"><feGaussianBlur stdDeviation=".28282197"/></filter><clipPath id="h"><path d="m-6.562 24.53c-0.3877 0-0.6917 0.219-0.9062 0.469l-0.031-0.03-0.031 0.06-0.3438 0.313-4.25 1.218c-0.03 0-0.06 0.02-0.09 0.03-0.549 0.274-0.902 0.554-1.094 0.937-0.192 0.384-0.116 0.867 0.125 1.156 0.329 0.394 0.858 0.553 1.407 0.657l-0.407 0.437c-0.06 0.05-0.1 0.116-0.125 0.188-0.03 0.121-0.07 0.316-0.125 0.5-0.02 0.04-0.03 0.08-0.03 0.125v6.656c0 0.299 0.113 0.582 0.313 0.813 0.199 0.23 0.511 0.406 0.875 0.406h7.843c0.3236 0 0.6569-0.116 0.9063-0.375l4.651-4.81c0.2259-0.235 0.3437-0.539 0.3437-0.875v-6.625c0-0.335-0.1178-0.64-0.3437-0.875-0.2227-0.229-0.5504-0.375-0.874-0.375z"/></clipPath><filter id="i" x="-.03844" y="-.04352" width="1.077" height="1.087" color-interpolation-filters="sRGB"><feGaussianBlur stdDeviation=".1491362"/></filter><filter id="p" x="-.02026" y="-.02354" width="1.04" height="1.047" color-interpolation-filters="sRGB"><feGaussianBlur stdDeviation=".071069152"/></filter><filter id="x" x="-.03625" y="-.04222" width="1.071" height="1.083" color-interpolation-filters="sRGB"><feGaussianBlur stdDeviation=".16679387"/></filter><clipPath id="A"><path d="m-95.3 143.8s-4.189 3.27-8.1 6.5c-1.95 1.62-3.69 3.22-4.72 4.78-0.51 0.78-0.98 1.62-0.65 2.78 0.16 0.58 0.61 1.12 1.09 1.41 0.48 0.28 0.96 0.4 1.5 0.47 2.13 0.24 4.73-0.4 7.849-1.28 3.113-0.89 6.669-2.09 10.25-3.25 3.581-1.17 7.196-2.31 10.34-3 3.147-0.7 5.835-0.89 7.375-0.5 0.729 0.18 0.745 0.3 0.75 0.31 0 0 0.06 0.33-0.219 0.94-0.567 1.2-2.245 3.11-4.187 4.93-3.885 3.64-8.844 7.13-8.844 7.13l1.75 2.44s5.041-3.52 9.156-7.38c2.058-1.93 3.879-3.89 4.813-5.87 0.466-1 0.776-2.12 0.343-3.25-0.433-1.14-1.541-1.87-2.812-2.19-2.46-0.62-5.444-0.21-8.781 0.53-3.337 0.73-7.019 1.85-10.62 3.03-3.607 1.18-7.129 2.4-10.12 3.25-2.913 0.83-5.293 1.22-6.473 1.13 0.62-0.95 2.3-2.56 4.16-4.1 3.721-3.08 7.969-6.37 7.969-6.37z"/></clipPath><mask id="B" maskUnits="userSpaceOnUse"><rect x="-115.6" y="147" width="51.28" height="17.34" rx=".6657" fill="url(#C)" fill-rule="evenodd" stroke-width="2"/></mask><linearGradient id="C" x1="-112.3" x2="-112.3" y1="148.9" y2="164.5" gradientUnits="userSpaceOnUse"><stop offset="0"/><stop stop-color="#fff" offset=".2177"/><stop stop-color="#fff" offset=".7659"/><stop offset="1"/></linearGradient><filter id="D" x="-.0125" y="-.04971" width="1.026" height="1.099" color-interpolation-filters="sRGB"><feGaussianBlur stdDeviation="0.001 0.244"/></filter><filter id="H" x="-.395" y="-.5737" width="1.79" height="2.147" color-interpolation-filters="sRGB"><feGaussianBlur stdDeviation="2.8946329"/></filter><g transform="translate(23.4 24.87)" opacity=".7"><g transform="matrix(.6351 0 0 .6351 -6.855 1.584)" enable-background="new"><rect x="14.5" y="1.5" width="32" height="29" rx="2.877" ry="2.781" fill="url(#linearGradient50053)" fill-rule="evenodd" stroke="#888a85" stroke-dashoffset=".7" stroke-linecap="round" stroke-linejoin="round" stroke-opacity=".9924"/><path transform="matrix(2.143 0 0 2.087 44.43 -.6302)" d="m-12.5 1.498c-0.573 0-1.002 0.429-1.002 1.002v11c0 0.573 0.429 1.002 1.002 1.002h12c0.573 0 1.002-0.429 1.002-1.002v-11c0-0.573-0.429-1.002-1.002-1.002z" fill="none" stroke="url(#linearGradient50055)" stroke-dashoffset=".7" stroke-linecap="round" stroke-linejoin="round" stroke-opacity=".9924" stroke-width=".4729"/><rect transform="matrix(1.016 0 0 1.016 -.49 -.2715)" x="15.38" y="2.875" width="32" height="29" rx="3.723" ry="3.723" fill-rule="evenodd" filter="url(#filter5386-65)" opacity=".1205"/></g><g transform="translate(-50.61 107.7)"><path d="m62.04-100.7c-0.5306 0-0.9595 0.4284-0.9595 0.9585v0.239c0 0.2435-0.1904 0.4511-0.4515 0.4511h-1.298c-0.5306 0-0.9595 0.5841-0.9595 1.114v5.352c0 0.5301 0.4289 0.9585 0.9595 0.9585h7.111c0.5306 0 0.9595-0.4284 0.9595-0.9585v-5.352c0-0.5301-0.4288-1.114-0.9595-1.114h-1.298c-0.2174 0.01467-0.4515-0.1547-0.4515-0.437v-0.2531c0-0.5301-0.4289-0.9585-0.9595-0.9585z" fill="url(#linearGradient2128329)" fill-rule="evenodd" stroke-width=".8304"/><g fill="none" stroke-linecap="round"><path d="m62.11-101.3c-0.9212 0-1.648 0.754-1.713 1.661h-0.7785c-0.9625 0-1.765 0.8021-1.765 1.765v4.879c0 0.9625 0.8021 1.765 1.765 1.765h6.539c0.9625 0 1.765-0.8021 1.765-1.765v-4.879c0-0.9625-0.8021-1.765-1.765-1.765h-0.7785c-0.06462-0.9068-0.7915-1.661-1.713-1.661z" stroke="url(#linearGradient2128331)" stroke-dashoffset=".7" stroke-width=".8304"/><g stroke="url(#linearGradient2128333)" stroke-width=".8304px"><path d="m60.4-93.73v-1.661"/><path d="m62.06-93.73v-1.661"/><path d="m63.72-93.73v-1.661"/><path d="m65.38-93.73v-1.661"/></g></g></g></g><g transform="translate(-23.42 -24.88)" opacity=".7"><g transform="matrix(.6351 0 0 .6351 16.55 26.45)" enable-background="new"><rect x="14.5" y="1.5" width="32" height="29" rx="2.877" ry="2.781" fill="url(#linearGradient50053)" fill-rule="evenodd" stroke="#888a85" stroke-dashoffset=".7" stroke-linecap="round" stroke-linejoin="round" stroke-opacity=".9924"/><path transform="matrix(2.143 0 0 2.087 44.43 -.6302)" d="m-12.5 1.498c-0.573 0-1.002 0.429-1.002 1.002v11c0 0.573 0.429 1.002 1.002 1.002h12c0.573 0 1.002-0.429 1.002-1.002v-11c0-0.573-0.429-1.002-1.002-1.002z" fill="none" stroke="url(#linearGradient50055)" stroke-dashoffset=".7" stroke-linecap="round" stroke-linejoin="round" stroke-opacity=".9924" stroke-width=".4729"/><rect transform="matrix(1.016 0 0 1.016 -.49 -.2715)" x="15.38" y="2.875" width="32" height="29" rx="3.723" ry="3.723" fill-rule="evenodd" filter="url(#filter5386-2-2)" opacity=".1205"/></g><g transform="translate(-27 132.9)"><path d="m62.04-100.7c-0.5306 0-0.9595 0.4284-0.9595 0.9585v0.239c0 0.2435-0.1904 0.4511-0.4515 0.4511h-1.298c-0.5306 0-0.9595 0.5841-0.9595 1.114v5.352c0 0.5301 0.4289 0.9585 0.9595 0.9585h7.111c0.5306 0 0.9595-0.4284 0.9595-0.9585v-5.352c0-0.5301-0.4288-1.114-0.9595-1.114h-1.298c-0.2174 0.01467-0.4515-0.1547-0.4515-0.437v-0.2531c0-0.5301-0.4289-0.9585-0.9595-0.9585z" fill="url(#linearGradient2128329)" fill-rule="evenodd" stroke-width=".8304"/><g fill="none" stroke-linecap="round"><path d="m62.11-101.3c-0.9212 0-1.648 0.754-1.713 1.661h-0.7785c-0.9625 0-1.765 0.8021-1.765 1.765v4.879c0 0.9625 0.8021 1.765 1.765 1.765h6.539c0.9625 0 1.765-0.8021 1.765-1.765v-4.879c0-0.9625-0.8021-1.765-1.765-1.765h-0.7785c-0.06462-0.9068-0.7915-1.661-1.713-1.661z" stroke="url(#linearGradient2128331)" stroke-dashoffset=".7" stroke-width=".8304"/><g stroke="url(#linearGradient2128333)" stroke-width=".8304px"><path d="m60.4-93.73v-1.661"/><path d="m62.06-93.73v-1.661"/><path d="m63.72-93.73v-1.661"/><path d="m65.38-93.73v-1.661"/></g></g></g></g><g transform="matrix(0 -1.116 .9877 0 24.66 52.67)" fill="url(#linearGradient36952)" stroke="url(#linearGradient32908)"><rect x="22.65" y="10.74" width="5.314" height="2.304" opacity=".7" stroke-width=".5772"/><path d="m22.7 11.88 5.271-0.04727" fill-rule="evenodd" opacity=".19" stroke-width=".795"/></g><g fill="url(#linearGradient36140)" stroke="url(#linearGradient32908)"><rect x="22.65" y="10.74" width="5.314" height="2.304" opacity=".7" stroke-width=".5772"/><path d="m22.7 11.88 5.271-0.04727" fill-rule="evenodd" opacity=".19" stroke-width=".795"/></g><g transform="translate(9.14 -86.16)" opacity=".7"><g transform="translate(14.59 64.7)" opacity=".7"><path d="m21.84 34.23c0 4.97-4.041 9-9.025 9-4.984 0-9.025-4.029-9.025-9 0-4.97 4.041-8.999 9.025-8.999 4.984 0 9.025 4.029 9.025 8.999z" fill="url(#radialGradient8346-8)" stroke-width="1.388"/></g><g fill="url(#radialGradient8350-2)" stroke-width=".4285"><path d="m35.42 97.76v0l-0.2335 0.2645c-0.1432-0.1686-0.3039-0.3105-0.4671-0.4586l-0.3583 0.0527-0.3273-0.3699v0.4578l0.2804 0.2121 0.1867 0.2113 0.2494-0.282c0.06279 0.1176 0.1247 0.2351 0.1871 0.3527v0.3523l-0.2809 0.3172-0.514 0.3527-0.3893 0.3883-0.2494-0.2829 0.1247-0.3172-0.2491-0.282-0.4206-0.8988-0.3583-0.405-0.09378 0.1054 0.1406 0.5113 0.2645 0.2996c0.1511 0.436 0.3005 0.8527 0.4989 1.27 0.3076 0 0.5977-0.03265 0.9032-0.07113v0.2469l-0.3738 0.9166-0.3428 0.3875-0.2804 0.6v0.9866l0.09378 0.3883-0.1557 0.1758-0.3432 0.2117-0.3583 0.2996 0.2963 0.3348-0.4052 0.3532 0.07783 0.2285-0.6078 0.6879h-0.4047l-0.3428 0.2117h-0.2185v-0.282l-0.09292-0.5649c-0.1206-0.354-0.2461-0.7055-0.3738-1.057 0-0.2594 0.01547-0.5164 0.03099-0.7758l0.1561-0.3523-0.2185-0.4235 0.0159-0.5816-0.2963-0.3348 0.1482-0.4846-0.2411-0.2734h-0.4211l-0.1402-0.1586-0.4206 0.2647-0.1712-0.1944-0.3897 0.3349c-0.2645-0.2998-0.5295-0.5994-0.7944-0.899l-0.3114-0.7406 0.2804-0.4226-0.1557-0.1761 0.3424-0.8114c0.2813-0.3498 0.5751-0.6854 0.8723-1.022l0.5299-0.141 0.5919-0.07031 0.4052 0.1059 0.5763 0.5812 0.2026-0.2289 0.28-0.03513 0.5299 0.1761h0.4052l0.2804-0.2469 0.1247-0.1761-0.2809-0.1761-0.4675-0.03513c-0.1297-0.1799-0.2503-0.369-0.4043-0.5289l-0.1561 0.07031-0.06236 0.4586-0.2804-0.3172-0.06193-0.3531-0.3114-0.246h-0.1252l0.3118 0.3523-0.1247 0.3172-0.2491 0.07031 0.1557-0.3172-0.2809-0.1406-0.2486-0.282-0.4679 0.1054-0.06193 0.1406-0.2804 0.1766-0.1557 0.3879-0.3893 0.1937-0.1716-0.1937h-0.1867v-0.6347l0.4052-0.2117h0.3114l-0.06279-0.2465-0.2486-0.2469 0.4202-0.08831 0.2335-0.264 0.1867-0.3176h0.3432l-0.09378-0.2465 0.2185-0.141v0.282l0.4671 0.1054 0.4671-0.3875 0.03137-0.1766 0.4047-0.2818c-0.1465 0.01821-0.293 0.03158-0.4361 0.07053v-0.3175l0.1557-0.3525h-0.1557l-0.3422 0.3172-0.09378 0.1764 0.09378 0.2471-0.1561 0.4226-0.2491-0.141-0.2176-0.2465-0.3432 0.2465-0.1247-0.5638 0.5919-0.3877v-0.2117l0.3742-0.2467 0.5919-0.1412 0.4052 0.1412 0.7475 0.141-0.1867 0.2113h-0.4052l0.4052 0.423 0.3114-0.3523 0.09459-0.155s1.195 1.07 1.877 2.241c0.6827 1.171 1.003 2.552 1.003 2.832z"/><path d="m27.7 92.84-0.03137 0.2113 0.2185 0.141 0.3734-0.2467-0.1867-0.2115-0.2494 0.1412-0.1243-0.03535"/><path d="m28.04 91.39-0.8103-0.3174-0.9342 0.1057-1.153 0.3172-0.2181 0.2117 0.7166 0.4933v0.282l-0.2804 0.282 0.3742 0.7408 0.2486-0.1414 0.3122-0.4933c0.4813-0.1488 0.9129-0.3174 1.37-0.5289l0.3742-0.9517"/><path d="m28.89 94.35-0.1247-0.3176-0.2185 0.0707 0.06279 0.3875 0.2804-0.1406"/><path d="m29.01 94.28-0.06236 0.4235 0.3428-0.0707 0.2491-0.2465-0.2181-0.2117c-0.07325-0.195-0.1574-0.377-0.2491-0.564h-0.1867v0.2113l0.1243 0.141v0.3172"/></g><path d="m24.68 101.2-0.2494-0.4937-0.4673-0.1057-0.2492-0.6695-0.623 0.07031-0.5295-0.3875-0.5611 0.4933v0.0778c-0.1697-0.049-0.3784-0.0557-0.5295-0.1486l-0.1247-0.3523v-0.3879l-0.3738 0.03513c0.0312-0.2469 0.06215-0.4933 0.09356-0.7402h-0.2183l-0.2179 0.282-0.2183 0.1054-0.3116-0.1758-0.0312-0.3879 0.06236-0.423 0.4675-0.3523h0.3738l0.06215-0.2117 0.4673 0.1054 0.3428 0.4235 0.06236-0.7055 0.592-0.4933 0.2181-0.5289 0.4361-0.1761 0.2492-0.3523 0.5606-0.1063 0.2806-0.4226h-0.8413l0.5297-0.2469h0.3736l0.5299-0.1766 0.06236-0.2109-0.1871-0.1766-0.2181-0.0707 0.06236-0.2113-0.1557-0.3172-0.374 0.1406 0.06236-0.2818-0.4361-0.2469-0.3426 0.599 0.03099 0.2117-0.3426 0.1414-0.2183 0.4582-0.09335-0.423-0.592-0.2469-0.09356-0.3172 0.7789-0.4586 0.3428-0.3172 0.0312-0.3877-0.1869-0.1059-0.2492-0.03535-0.1557 0.3879s-0.2605 0.05103-0.3275 0.06757c-0.8555 0.7881-2.584 2.489-2.986 5.701 0.0159 0.07447 0.2911 0.5063 0.2911 0.5063l0.6542 0.3875 0.6542 0.1766 0.2806 0.3527 0.4359 0.3172 0.2492-0.0351 0.1869 0.0841v0.0569l-0.2491 0.6697-0.1871 0.282 0.06236 0.1414-0.1557 0.528 0.5609 1.023 0.5606 0.4937 0.2494 0.3523-0.03137 0.7406 0.1871 0.4226-0.1871 0.8109s-0.01466-5e-3 0.0092 0.0761c0.02409 0.0812 0.9982 0.6218 1.06 0.5758 0.06172-0.0469 0.1145-0.0879 0.1145-0.0879l-0.06215-0.1758 0.2491-0.2469 0.09356-0.2469 0.4052-0.1414 0.3114-0.7758-0.09335-0.2109 0.2176-0.3172 0.4675-0.1063 0.2494-0.564-0.06236-0.7046 0.3738-0.5289 0.06236-0.5289c-0.5115-0.2536-1.019-0.5147-1.526-0.7758" fill="url(#radialGradient8380-4)" stroke-width=".4285"/><g fill="url(#radialGradient8350-2)" stroke-width=".4285"><path d="m23.71 92.98 0.3114 0.2115h0.2494v-0.2467l-0.3114-0.141-0.2494 0.1761"/><path d="m22.9 92.7-0.1559 0.3877h0.3116l0.1559-0.3525c0.1344-0.09499 0.2681-0.1906 0.4049-0.282l0.3116 0.1059c0.2076 0.141 0.4152 0.282 0.623 0.4228l0.3118-0.2818-0.343-0.141-0.1559-0.3174-0.5919-0.07053-0.0312-0.1764-0.2804 0.0707-0.1245 0.2467-0.1559-0.3174-0.06215 0.141 0.0312 0.3525-0.2493 0.2117"/><path d="m24.03 91.81 0.1559-0.1408 0.3116-0.07053c0.2134-0.1038 0.4277-0.1737 0.6542-0.2469l-0.1243-0.2115-0.4022 0.05776-0.19 0.1893-0.3133 0.04542-0.2785 0.1308-0.1354 0.06547-0.08268 0.1107 0.4047 0.07031"/><path d="m24.56 95.16 0.1871-0.282-0.2806-0.2113 0.09356 0.4933"/></g><path d="m35.76 97.57v0l-0.2417 0.2737c-0.1481-0.1745-0.3145-0.3213-0.4834-0.4746l-0.3707 0.05454-0.3387-0.3828v0.4737l0.2902 0.2195 0.1932 0.2187 0.2581-0.2918c0.06498 0.1217 0.1291 0.2433 0.1936 0.365v0.3646l-0.2906 0.3282-0.5319 0.365-0.4028 0.4018-0.2581-0.2927 0.1291-0.3282-0.2577-0.2918-0.4353-0.9301-0.3707-0.4191-0.09704 0.1091 0.1455 0.5292 0.2737 0.31c0.1563 0.4512 0.311 0.8824 0.5163 1.314 0.3184 0 0.6185-0.03379 0.9347-0.0736v0.2555l-0.3868 0.9485-0.3547 0.401-0.2902 0.6209v1.021l0.09704 0.4018-0.1611 0.1819-0.3552 0.2191-0.3707 0.31 0.3067 0.3464-0.4193 0.3654 0.08055 0.2364-0.6289 0.7119h-0.4188l-0.3547 0.2191h-0.2261v-0.2918l-0.09616-0.5846c-0.1248-0.3663-0.2547-0.73-0.3868-1.094 0-0.2685 0.01601-0.5343 0.03207-0.8028l0.1616-0.3646-0.2261-0.4382 0.01646-0.6019-0.3067-0.3464 0.1533-0.5014-0.2495-0.283h-0.4357l-0.1451-0.1641-0.4353 0.2739-0.1771-0.2011-0.4033 0.3466c-0.2737-0.3102-0.5479-0.6203-0.8221-0.9303l-0.3223-0.7664 0.2902-0.4373-0.1611-0.1823 0.3543-0.8396c0.2911-0.362 0.5951-0.7093 0.9027-1.058l0.5483-0.1459 0.6125-0.07276 0.4193 0.1096 0.5964 0.6014 0.2097-0.2369 0.2898-0.03636 0.5483 0.1823h0.4193l0.2902-0.2555 0.1291-0.1823-0.2906-0.1823-0.4838-0.03636c-0.1343-0.1862-0.259-0.3819-0.4184-0.5473l-0.1616 0.07276-0.06453 0.4746-0.2902-0.3282-0.06409-0.3654-0.3223-0.2546h-0.1295l0.3227 0.3646-0.1291 0.3282-0.2577 0.07276 0.1611-0.3282-0.2906-0.1455-0.2573-0.2918-0.4842 0.1091-0.06409 0.1455-0.2902 0.1827-0.1611 0.4014-0.4028 0.2005-0.1776-0.2005h-0.1932v-0.6568l0.4193-0.2191h0.3223l-0.06498-0.255-0.2573-0.2555 0.4349-0.09138 0.2417-0.2732 0.1932-0.3286h0.3552l-0.09704-0.255 0.2261-0.1459v0.2918l0.4834 0.1091 0.4834-0.401 0.03247-0.1827 0.4188-0.2916c-0.1516 0.01884-0.3032 0.03268-0.4513 0.07298v-0.3286l0.1611-0.3648h-0.1611l-0.3541 0.3282-0.09704 0.1825 0.09704 0.2557-0.1616 0.4373-0.2577-0.1459-0.2252-0.255-0.3552 0.255-0.1291-0.5835 0.6125-0.4012v-0.2191l0.3872-0.2553 0.6125-0.1461 0.4193 0.1461 0.7736 0.1459-0.1932 0.2187h-0.4193l0.4193 0.4378 0.3223-0.3646 0.09789-0.1604s1.236 1.108 1.943 2.319c0.7065 1.212 1.038 2.64 1.038 2.931z" fill="url(#radialGradient8410-6)" stroke-width=".4435"/><g fill="url(#radialGradient8416-0)" stroke-width=".4435"><path d="m27.78 92.48-0.03247 0.2187 0.2261 0.1459 0.3864-0.2553-0.1932-0.2189-0.2581 0.1461-0.1286-0.03658"/><path d="m28.13 90.99-0.8385-0.3284-0.9668 0.1093-1.193 0.3282-0.2257 0.2191 0.7415 0.5105v0.2918l-0.2902 0.2918 0.3872 0.7666 0.2573-0.1464 0.3231-0.5105c0.4981-0.1539 0.9447-0.3284 1.418-0.5473l0.3872-0.9849"/><path d="m29 94.05-0.1291-0.3286-0.2261 0.07316 0.06498 0.401 0.2902-0.1455"/><path d="m29.13 93.98-0.06453 0.4382 0.3547-0.07316 0.2577-0.255-0.2257-0.2191c-0.0758-0.2018-0.1629-0.3901-0.2577-0.5837h-0.1932v0.2187l0.1286 0.1459v0.3282"/></g><path d="m24.36 100.9-0.2581-0.5109-0.4836-0.1093-0.2579-0.6928-0.6447 0.07276-0.5479-0.401-0.5806 0.5105v0.08052c-0.1756-0.05068-0.3915-0.0576-0.5479-0.1537l-0.1291-0.3646v-0.4014l-0.3868 0.03636c0.03229-0.2555 0.06431-0.5105 0.09682-0.766h-0.2259l-0.2254 0.2918-0.2259 0.1091-0.3225-0.1819-0.03229-0.4014 0.06453-0.4378 0.4838-0.3646h0.3868l0.06431-0.2191 0.4836 0.1091 0.3547 0.4382 0.06453-0.7301 0.6126-0.5105 0.2257-0.5473 0.4513-0.1823 0.2579-0.3646 0.5802-0.11 0.2904-0.4373h-0.8706l0.5481-0.2555h0.3866l0.5483-0.1827 0.06453-0.2182-0.1936-0.1827-0.2257-0.07316 0.06453-0.2187-0.1611-0.3282-0.387 0.1455 0.06453-0.2916-0.4513-0.2555-0.3545 0.6198 0.03207 0.2191-0.3545 0.1464-0.2259 0.4741-0.0966-0.4378-0.6126-0.2555-0.09682-0.3282 0.8061-0.4746 0.3547-0.3282 0.03229-0.4012-0.1934-0.1096-0.2579-0.03658-0.1611 0.4014s-0.2696 0.05281-0.3389 0.06992c-0.8853 0.8156-2.674 2.576-3.09 5.9 0.01646 0.07706 0.3012 0.5239 0.3012 0.5239l0.677 0.401 0.677 0.1827 0.2904 0.365 0.4511 0.3282 0.2579-0.0364 0.1934 0.087v0.0589l-0.2577 0.693-0.1936 0.2918 0.06453 0.1464-0.1611 0.5464 0.5804 1.058 0.5802 0.5109 0.2581 0.3646-0.03247 0.7664 0.1936 0.4373-0.1936 0.8392s-0.01517-5e-3 0.0095 0.0788c0.02493 0.084 1.033 0.6435 1.097 0.5958 0.06387-0.0485 0.1185-0.0909 0.1185-0.0909l-0.06431-0.1819 0.2577-0.2555 0.09682-0.2555 0.4193-0.1464 0.3223-0.8028-0.0966-0.2182 0.2252-0.3282 0.4838-0.11 0.2581-0.5837-0.06453-0.7292 0.3868-0.5473 0.06453-0.5473c-0.5293-0.2624-1.054-0.5326-1.58-0.8028" fill="url(#radialGradient8440-0)" stroke-width=".4435"/><g fill="url(#radialGradient8416-0)" stroke-width=".4435"><path d="m23.65 92.63 0.3223 0.2189h0.2581v-0.2553l-0.3223-0.1459-0.2581 0.1823"/><path d="m22.81 92.34-0.1614 0.4012h0.3225l0.1614-0.3648c0.139-0.0983 0.2774-0.1972 0.419-0.2918l0.3225 0.1096c0.2148 0.1459 0.4297 0.2918 0.6447 0.4375l0.3227-0.2916-0.355-0.1459-0.1614-0.3284-0.6125-0.07298-0.03229-0.1825-0.2902 0.07316-0.1288 0.2553-0.1614-0.3284-0.06431 0.1459 0.03229 0.3648-0.258 0.219"/><path d="m23.97 91.42 0.1614-0.1457 0.3225-0.07298c0.2209-0.1074 0.4426-0.1797 0.677-0.2555l-0.1286-0.2189-0.4163 0.05977-0.1967 0.1959-0.3242 0.047-0.2882 0.1353-0.1401 0.06775-0.08556 0.1145 0.4188 0.07276"/><path d="m24.52 94.89 0.1936-0.2918-0.2904-0.2187 0.09682 0.5105"/></g><path transform="matrix(.6434 0 0 .6434 -22.48 14.32)" d="m64.62 130c-0.05592 0.4898-0.09375 0.9954-0.09375 1.5 0 7.193 5.838 13.03 13.03 13.03 7.193 0 13.03-5.838 13.03-13.03 0-0.5048-0.0378-1.01-0.09375-1.5-0.7534 6.478-6.259 11.53-12.94 11.53-6.679 0-12.18-5.053-12.94-11.53z" fill="url(#radialGradient8470-2)" fill-rule="evenodd" filter="url(#filter10631-9-19-8)" opacity=".5351"/></g></svg>
