<svg height="32.002" viewBox="0 0 22.731 32.002" width="22.731" xmlns="http://www.w3.org/2000/svg" xmlns:xlink="http://www.w3.org/1999/xlink"><defs><filter id="filter4684" x="-.09275" y="-.106" width="1.186" height="1.212"><feGaussianBlur stdDeviation="0.71917802"/></filter><linearGradient id="linearGradient3278" x1="-6.411" x2="-10.07" y1="25.76" y2="1.873" gradientTransform="matrix(1.5 0 0 1.4 466.2 52.8)" gradientUnits="userSpaceOnUse"><stop stop-color="#d3d7cf" offset="0"/><stop stop-color="#fff" offset="1"/></linearGradient><linearGradient id="linearGradient4307" x1="25.05" x2="27.76" y1="16.17" y2="24.54" gradientTransform="matrix(1.088 0 0 1.086 424.4 40.06)" gradientUnits="userSpaceOnUse" xlink:href="#linearGradient7340-2"/><linearGradient id="linearGradient7340-2"><stop stop-color="#555753" offset="0"/><stop stop-color="#888a85" offset="1"/></linearGradient><linearGradient id="linearGradient4182" x1="326.5" x2="326.5" y1="61.7" y2="60.69" gradientTransform="translate(130)" gradientUnits="userSpaceOnUse"><stop stop-color="#babdb6" offset="0"/><stop stop-color="#fff" offset="1"/></linearGradient><radialGradient id="radialGradient4612" cx="306.5" cy="86.38" r="21.91" gradientTransform="matrix(2.238 -.5404 .1485 .615 -262 204.4)" gradientUnits="userSpaceOnUse"><stop offset="0"/><stop stop-opacity="0" offset="1"/></radialGradient><filter id="filter4618" x="-.07545" y="-.06204" width="1.151" height="1.143"><feGaussianBlur stdDeviation="0.89652215"/></filter><linearGradient id="linearGradient4212" x1="322.3" x2="328.4" y1="62.62" y2="68.74" gradientTransform="matrix(.75 0 0 .8333 211.6 10.42)" gradientUnits="userSpaceOnUse" xlink:href="#linearGradient4206"/><linearGradient id="linearGradient4206"><stop stop-color="#fff" offset="0"/><stop stop-color="#babdb6" offset="1"/></linearGradient><linearGradient id="linearGradient4231" x1="325.4" x2="328.4" y1="63.27" y2="68.74" gradientTransform="matrix(.5 0 0 .5 -619.8 -97.75)" gradientUnits="userSpaceOnUse" xlink:href="#linearGradient4206"/><linearGradient id="linearGradient4380" x1="320" x2="330.2" y1="60.75" y2="87.75" gradientTransform="translate(130)" gradientUnits="userSpaceOnUse" xlink:href="#linearGradient4374"/><linearGradient id="linearGradient4374"><stop stop-color="#fff" offset="0"/><stop stop-color="#fff" stop-opacity="0" offset="1"/></linearGradient><linearGradient id="linearGradient3248-0" x1="-47.16" x2="-46.15" y1="39.38" y2="44.17" gradientTransform="translate(516,50)" gradientUnits="userSpaceOnUse"><stop stop-color="#729fcf" offset="0"/><stop stop-color="#729fcf" stop-opacity="0" offset="1"/></linearGradient><linearGradient id="linearGradient3250-1" x1="-48" x2="-46.75" y1="40.38" y2="45.69" gradientTransform="translate(516,50)" gradientUnits="userSpaceOnUse"><stop stop-color="#3465a4" offset="0"/><stop stop-color="#3465a4" stop-opacity="0" offset="1"/></linearGradient><linearGradient id="linearGradient4501" x1="325.4" x2="328.4" y1="63.27" y2="68.74" gradientTransform="matrix(-.5 0 0 -.5 619.8 97.75)" gradientUnits="userSpaceOnUse" xlink:href="#linearGradient4206"/><linearGradient id="linearGradient4604" x1="335.8" x2="336.8" y1="90.5" y2="96" gradientTransform="translate(130)" gradientUnits="userSpaceOnUse" xlink:href="#linearGradient4374"/><radialGradient id="radialGradient3533" cx="13.32" cy="114.8" r="16" gradientTransform="matrix(2.993 0 0 .9272 -27.06 9.21)" gradientUnits="userSpaceOnUse" xlink:href="#linearGradient2851"/><linearGradient id="linearGradient2851"><stop stop-color="#fff" offset="0"/><stop stop-color="#fff" offset=".2651"/><stop stop-color="#babdb6" offset="1"/></linearGradient><radialGradient id="radialGradient3595" cx="42.17" cy="43.19" r="7.954" gradientTransform="matrix(2.89 0 0 1.133 -114.7 -42.49)" gradientUnits="userSpaceOnUse" xlink:href="#linearGradient2851"/></defs><filter id="c" x="-.1411" y="-.1588" width="1.282" height="1.318"><feGaussianBlur stdDeviation=".85"/></filter><filter id="f" x="-.04263" y="-.04513" width="1.085" height="1.09"><feGaussianBlur stdDeviation=".497"/></filter><g transform="matrix(.6588 0 0 .6588 1 -2.635)" enable-background="new"><path transform="translate(0,-103)" d="m17.5 108c-1.366 0-2.484 1.11-2.484 2.48 0 0.24 0.116 0.44 0.179 0.66-1.947 0.33-3.637 1.39-4.765 2.92-0.141-0-0.27-0.1-0.43-0.1h-0.02c0-1.09-0.8939-1.98-1.984-1.98s-1.984 0.89-1.984 1.98c0 0.86 0.5697 1.59 1.346 1.86-0.043 0.1-0.089 0.2-0.1211 0.31-0.2388-0.1-0.4606-0.15-0.7402-0.15-1.124 0-2.052 0.6-2.688 1.43-0.3838-0.25-0.8171-0.43-1.312-0.43-1.366 0-2.484 1.11-2.484 2.48 0 1.37 1.118 2.48 2.484 2.48 0.4954 0 0.9287-0.18 1.312-0.43 0.636 0.83 1.563 1.43 2.688 1.43h0.1c0.686 1.18 1.931 2 3.4 2 0.707 0 1.366-0.21 1.949-0.53 1.258 0.95 2.798 1.53 4.488 1.53 2.007 0 3.811-0.81 5.153-2.1 0.294 0.1 0.588 0.1 0.91 0.1 1.705 0 3.21-0.81 4.215-2.03h0.285c0.633 0 1.204-0.23 1.697-0.57 0.352 0.33 0.783 0.57 1.303 0.57 1.09 0 1.984-0.89 1.984-1.98s-0.894-1.98-1.984-1.98h-0.244c-0.356-1.06-1.257-1.85-2.402-2-0.187-0.37-0.424-0.72-0.692-1.04 0.188-0.31 0.322-0.65 0.322-1.03 0-1.09-0.894-1.98-1.984-1.98-0.751 0-1.322 0.47-1.654 1.09-0.275-0-0.547-0.1-0.846-0.1-0.323 0-0.619 0-0.914 0.1-0.581-0.56-1.259-1.01-2-1.36 0.23-0.37 0.398-0.79 0.398-1.26 0-1.37-1.118-2.48-2.484-2.48z" opacity=".1"/><g transform="translate(0,-104)" stroke-linecap="square" stroke-linejoin="round"><path d="m17.5 108.5c-1.104 0-2 0.9-2 2 0 0.37 0.102 0.73 0.281 1.03-2.143 0.2-4.013 1.37-5.156 3.06-0.202 0-0.407-0.1-0.625-0.1-0.2183 0-0.4231 0-0.625 0.1 0.076-0.18 0.125-0.38 0.125-0.59 0-0.83-0.672-1.5-1.5-1.5s-1.5 0.67-1.5 1.5 0.672 1.5 1.5 1.5c-0.2565 0.34-0.4175 0.77-0.4688 1.22-0.3267-0.12-0.662-0.22-1.031-0.22-1.134 0-2.115 0.63-2.625 1.56-0.3592-0.34-0.8392-0.56-1.375-0.56-1.104 0-2 0.9-2 2s0.896 2 2 2c0.5358 0 1.016-0.22 1.375-0.56 0.5102 0.93 1.492 1.56 2.625 1.56h0.3437c0.555 1.2 1.748 2.03 3.156 2.03 0.725 0 1.41-0.22 1.969-0.59 1.212 1 2.77 1.59 4.468 1.59 1.964 0 3.729-0.82 5-2.13 0.347 0.1 0.694 0.13 1.063 0.13 1.654 0 3.121-0.82 4.031-2.06 0.154 0 0.307 0.1 0.469 0.1 0.674 0 1.3-0.25 1.75-0.69 0.267 0.42 0.722 0.69 1.25 0.69 0.828 0 1.5-0.67 1.5-1.5s-0.672-1.5-1.5-1.5c-0.197 0-0.39 0.1-0.563 0.12-0.181-1.17-1.153-2.09-2.375-2.12-0.24-0.55-0.56-1.05-0.968-1.47 0.253-0.27 0.406-0.63 0.406-1.03 0-0.83-0.672-1.5-1.5-1.5-0.7 0-1.273 0.48-1.438 1.12-0.346-0.1-0.693-0.12-1.062-0.12s-0.716 0-1.063 0.12c-0.717-0.73-1.581-1.32-2.562-1.68 0.381-0.37 0.625-0.87 0.625-1.44 0-1.1-0.896-2-2-2z" fill="url(#radialGradient3533)" stroke="#729fcf"/><path d="m17.5 109.5c-0.558 0-0.99 0.43-0.99 0.99 0 0.19 0.05 0.37 0.136 0.51a1.009 1.009 0 0 1-0.771 1.53c-1.834 0.17-3.435 1.17-4.414 2.62a1.009 1.009 0 0 1-1.09 0.41c-0.165-0-0.279-0.1-0.371-0.1s-0.2064 0-0.3711 0.1a1.009 1.009 0 0 1-0.6406-0.2 1.009 1.009 0 0 1-0.1797 0.73c-0.1391 0.19-0.2431 0.45-0.2754 0.73a1.009 1.009 0 0 1-1.356 0.83c-0.278-0.1-0.4846-0.15-0.6777-0.15-0.7573 0-1.4 0.42-1.74 1.04a1.009 1.009 0 0 1-1.582 0.24c-0.1895-0.18-0.4168-0.28-0.6777-0.28-0.5582 0-0.9902 0.43-0.9902 0.99s0.432 0.99 0.9902 0.99c0.2609 0 0.4882-0.1 0.6777-0.28a1.009 1.009 0 0 1 1.582 0.24c0.3406 0.62 0.9829 1.04 1.74 1.04h0.2266a1.009 1.009 0 0 1 1.033 0.57c0.3983 0.87 1.228 1.45 2.24 1.45 0.524 0 1.015-0.16 1.404-0.42a1.009 1.009 0 0 1 1.209 0.1c1.034 0.86 2.358 1.36 3.824 1.36 1.682 0 3.184-0.7 4.278-1.82a1.009 1.009 0 0 1 0.939-0.28c0.298 0.1 0.566 0.1 0.846 0.1 1.32 0 2.488-0.66 3.219-1.65a1.009 1.009 0 0 1 1.002-0.39h0.279c0.421 0 0.795-0.16 1.049-0.4a1.009 1.009 0 0 1 1.547 0.17c0.09 0.15 0.227 0.23 0.404 0.23 0.282 0 0.49-0.21 0.49-0.49s-0.208-0.49-0.49-0.49h-0.188a1.009 1.009 0 0 1-1.373-0.78c-0.11-0.72-0.671-1.25-1.402-1.27a1.009 1.009 0 0 1-0.898-0.6c-0.199-0.45-0.455-0.85-0.77-1.18a1.009 1.009 0 0 1-0.01-1.39c0.08-0.1 0.131-0.2 0.131-0.34 0-0.28-0.208-0.49-0.49-0.49-0.244 0-0.402 0.14-0.459 0.36a1.009 1.009 0 0 1-1.195 0.74c-0.298-0.1-0.566-0.1-0.846-0.1s-0.548 0-0.846 0.1a1.009 1.009 0 0 1-0.939-0.28c-0.623-0.64-1.361-1.14-2.192-1.45a1.009 1.009 0 0 1-0.345-1.67c0.2-0.19 0.312-0.43 0.312-0.71 0-0.56-0.432-0.99-0.99-0.99zm-9.5 4c-0.2822 0-0.4902 0.21-0.4902 0.49s0.208 0.49 0.4902 0.49a1.009 1.009 0 0 1 0.5234 0.2 1.009 1.009 0 0 1-0.078-0.49c0.028-0.1 0.045-0.15 0.045-0.2 0-0.28-0.208-0.49-0.4902-0.49z" fill="none" stroke="#fff"/></g></g><g transform="matrix(.4674 0 0 .4674 -199.3 -20.25)" enable-background="new"><g fill-rule="evenodd"><rect x="445.5" y="54.5" width="24" height="21" rx="1.567" ry="1.567" filter="url(#filter4684)" opacity=".1907" stroke="#000" stroke-dashoffset=".7" stroke-linecap="round" stroke-linejoin="round" stroke-opacity=".9924"/><rect x="444.5" y="53.5" width="24" height="21" rx="1.567" ry="1.567" fill="url(#linearGradient3278)" stroke="#888a85" stroke-dashoffset=".7" stroke-linecap="round" stroke-linejoin="round" stroke-opacity=".9924"/><path d="m455 59.07c-0.64 0-1.16 0.516-1.16 1.154v0.288c0 0.293-0.23 0.543-0.54 0.543h-0.12c-0.64 0-1.16 0.704-1.16 1.342v5.445c0 0.638 0.52 1.154 1.16 1.154h6.56c0.64 0 1.16-0.516 1.16-1.154v-5.445c0-0.638-0.52-1.342-1.16-1.342h-0.14c-0.26 0.02-0.55-0.186-0.55-0.526v-0.305c0-0.638-0.51-1.154-1.15-1.154z" fill="url(#linearGradient4307)" stroke="#fff" stroke-width="2"/><path d="m455 59.07c-0.64 0-1.16 0.516-1.16 1.154v0.288c0 0.293-0.23 0.543-0.54 0.543h-0.12c-0.64 0-1.16 0.704-1.16 1.342v5.445c0 0.638 0.52 1.154 1.16 1.154h6.56c0.64 0 1.16-0.516 1.16-1.154v-5.445c0-0.638-0.52-1.342-1.16-1.342h-0.14c-0.26 0.02-0.55-0.186-0.55-0.526v-0.305c0-0.638-0.51-1.154-1.15-1.154z" fill="url(#linearGradient4307)"/></g><rect x="455" y="60" width="3" height="2" rx=".3978" ry=".3978" color="#000000" fill="url(#linearGradient4182)"/><path d="m457.7 103.7s20-14 12-16-28.06 7.627-38 7c-10.11-0.638 22.5-9.83 24.77-27.71" fill="none" filter="url(#filter4618)" opacity=".4944" stroke="url(#radialGradient4612)" stroke-width="2"/><rect x="453.5" y="62.5" width="6" height="5" rx=".1768" ry=".1768" color="#000000" fill="#d3d7cf" stroke="url(#linearGradient4212)"/><rect transform="scale(-1)" x="-458.5" y="-66.5" width="4" height="3" rx=".1768" ry=".1768" color="#000000" fill="#888a85" stroke="url(#linearGradient4231)"/><rect x="445.5" y="54.5" width="22" height="19" rx=".5674" ry=".5674" fill="none" stroke="url(#linearGradient4380)" stroke-dashoffset=".7" stroke-linecap="round" stroke-linejoin="round" stroke-opacity=".9924"/><path d="m455 63.81c-1.03 8.083-9.29 14.95-16.38 19.75-3.54 2.401-6.67 4.247-8.53 5.718-0.46 0.368-0.85 0.712-1.18 1.125-0.34 0.414-0.74 1.02-0.57 1.907 0.17 0.886 0.92 1.362 1.47 1.562 0.56 0.2 1.11 0.299 1.81 0.344 5.52 0.347 13.01-2.019 20.25-4.094 7.25-2.075 14.34-3.76 17.5-2.969 0.73 0.182 0.75 0.332 0.75 0.344 0 0.01 0 0.304-0.25 0.906-0.56 1.204-2.21 3.148-4.15 4.969-3.89 3.642-8.85 7.095-8.85 7.095l1.72 2.47s5.04-3.519 9.16-7.377c2.06-1.93 3.91-3.892 4.84-5.875 0.47-0.992 0.75-2.114 0.32-3.25-0.44-1.137-1.55-1.87-2.82-2.188-4.83-1.209-11.76 0.918-19.03 3-6.88 1.972-13.91 3.965-18.4 3.938 1.62-1.195 4.33-2.874 7.65-5.125 7.26-4.922 16.44-12.08 17.69-21.88z" color="#000000" fill="url(#linearGradient3248-0)" fill-rule="evenodd" stroke="url(#linearGradient3250-1)" stroke-linejoin="round"/><path d="m454.5 63.68c0-0.1 0.1-0.177 0.18-0.177h3.64c0.1 0 0.18 0.08 0.18 0.177v2.646c0 0.1-0.1 0.177-0.18 0.177" color="#000000" fill="none" stroke="url(#linearGradient4501)"/><path d="m457.1 101.4s20-14 12-16-28.07 7.626-38 7c-10.11-0.638 22.49-9.831 24.76-27.71" fill="none" opacity=".614" stroke="url(#linearGradient4604)"/></g><g transform="matrix(.8255 0 0 .8255 .8993 10.73)" enable-background="new" stroke-linecap="round" stroke-linejoin="round"><path d="m7.938 4.062c-0.696 0.135-1.316 0.5049-1.75 1.031-0.2742-0.3584-0.7017-0.5937-1.188-0.5937-0.828 0-1.5 0.672-1.5 1.5 0 0.3263 0.1041 0.6287 0.2812 0.875-0.6152 0.2714-1.031 0.9098-1.031 1.625 0 0.077 0.022 0.1442 0.031 0.2187-0.2265-0.1378-0.4964-0.2187-0.781-0.2187-0.828 0-1.5 0.672-1.5 1.5s0.672 1.5 1.5 1.5c0.414 0 0.791-0.166 1.062-0.437 0.2413 0.833 1.027 1.437 1.938 1.437 0.3402 0 0.657-0.1 0.9375-0.25 0.4911 0.751 1.349 1.25 2.312 1.25s1.821-0.499 2.313-1.25c0.28 0.15 0.597 0.25 0.937 0.25 0.803 0 1.495-0.472 1.813-1.156 0.203 0.103 0.444 0.156 0.687 0.156 0.828 0 1.5-0.672 1.5-1.5s-0.672-1.5-1.5-1.5c-0.207 0-0.414 0.049-0.594 0.125 0.053-0.2019 0.094-0.4067 0.094-0.625 0-1.348-1.07-2.45-2.406-2.5-0.309-0.5332-0.781-0.9586-1.344-1.219z" fill="url(#radialGradient3595)" stroke="#729fcf"/><path d="m8.049 4.982c-0.4622 0.1062-0.8821 0.3416-1.166 0.6856a0.9018 0.9018 0 0 1-1.412-0.0274c-0.1151-0.1504-0.276-0.2383-0.4707-0.2383-0.3401 0-0.5977 0.2576-0.5977 0.5977 0 0.1346 0.041 0.2495 0.1114 0.3477a0.9018 0.9018 0 0 1-0.3692 1.352c-0.2747 0.1212-0.4922 0.4353-0.4922 0.8008 0-0.091 7e-4 -0.074 0.024 0.1016a0.9018 0.9018 0 0 1-1.364 0.8886c-0.0893-0.0543-0.1987-0.0879-0.3125-0.0879-0.3401 0-0.5977 0.2576-0.5977 0.5977 0 0.34 0.2576 0.598 0.5977 0.598 0.173 0 0.3195-0.07 0.4258-0.172a0.9018 0.9018 0 0 1 1.502 0.387c0.1284 0.443 0.5602 0.785 1.072 0.785 0.1634 0 0.3331-0.05 0.5117-0.143a0.9018 0.9018 0 0 1 1.18 0.301c0.328 0.502 0.9058 0.842 1.559 0.842s1.231-0.34 1.559-0.842a0.9018 0.9018 0 0 1 1.179-0.301c0.179 0.1 0.349 0.143 0.512 0.143 0.45 0 0.82-0.26 0.994-0.635a0.9018 0.9018 0 0 1 1.227-0.424c0.06 0.03 0.168 0.06 0.279 0.06 0.34 0 0.598-0.258 0.598-0.598 0-0.3401-0.258-0.5977-0.598-0.5977-0.06 0-0.164 0.02-0.242 0.053a0.9018 0.9018 0 0 1-1.225-1.06c0.044-0.1687 0.065-0.2914 0.065-0.3965 0-0.8709-0.678-1.567-1.537-1.6a0.9018 0.9018 0 0 1-0.747-0.4473c-0.201-0.3472-0.5219-0.6172-0.8882-0.8027z" fill="none" stroke="#fff"/></g></svg>
