<svg xmlns="http://www.w3.org/2000/svg" height="31.923" viewBox="0 0 26.136 31.923" width="26.136"><linearGradient id="u" gradientUnits="userSpaceOnUse" x1="30.312" x2="30.312" y1="27.313" y2="24.688"><stop offset="0" stop-color="#edd400"/><stop offset="1" stop-color="#edd400" stop-opacity="0"/></linearGradient><radialGradient id="e" cx="13.324" cy="114.78" gradientTransform="matrix(2.9927 0 0 .92715 -27.059 9.21)" gradientUnits="userSpaceOnUse" r="16" href="#a"/><linearGradient id="a"><stop offset="0" stop-color="#fff"/><stop offset=".265" stop-color="#fff"/><stop offset="1" stop-color="#babdb6"/></linearGradient><linearGradient id="b"><stop offset="0"/><stop offset="1" stop-opacity="0"/></linearGradient><radialGradient id="A" cx="42.168" cy="43.191" gradientTransform="matrix(2.8899 0 0 1.1328 -114.74 -42.489)" gradientUnits="userSpaceOnUse" r="7.955" href="#a"/><radialGradient id="f" cx="14.363" cy="34.786" gradientTransform="matrix(1 0 0 .68844 0 10.838)" gradientUnits="userSpaceOnUse" r="8.795" href="#b"/><filter id="g" color-interpolation-filters="sRGB" height="1.044" width="1.039" x="-.02" y="-.022"><feGaussianBlur stdDeviation=".263"/></filter><linearGradient id="h" gradientTransform="matrix(2 0 0 1.9333 43.5 .533)" gradientUnits="userSpaceOnUse" x1="-7.975" x2="-11.006" y1="25.357" y2="-6.568"><stop offset="0" stop-color="#d3d7cf"/><stop offset="1" stop-color="#fff"/></linearGradient><linearGradient id="i" gradientUnits="userSpaceOnUse" x1="-7.852" x2="-5.51" y1="3.755" y2="18.938" href="#c"/><linearGradient id="c"><stop offset="0" stop-color="#fff"/><stop offset="1" stop-color="#fff" stop-opacity="0"/></linearGradient><linearGradient id="j" gradientUnits="userSpaceOnUse" x1="28.625" x2="30.5" y1="41.125" y2="47.812" href="#b"/><filter id="k" color-interpolation-filters="sRGB" height="1.152" width="1.087" x="-.043" y="-.076"><feGaussianBlur stdDeviation=".782"/></filter><linearGradient id="l" gradientUnits="userSpaceOnUse" x1="1.626" x2=".822" y1="55.219" y2="54.416"><stop offset="0" stop-color="#adb0a8"/><stop offset="1" stop-color="#fff"/></linearGradient><linearGradient id="m" gradientTransform="matrix(.96429 0 0 .97222 -.25 1.694)" gradientUnits="userSpaceOnUse" x1="-4.221" x2="-4.221" y1="59.879" y2="54.708" href="#d"/><linearGradient id="d"><stop offset="0" stop-color="#fff"/><stop offset="1" stop-color="#d3d7cf"/></linearGradient><linearGradient id="n" gradientUnits="userSpaceOnUse" x1="-5.989" x2="-7.359" y1="27.138" y2="30" href="#b"/><linearGradient id="o" gradientUnits="userSpaceOnUse" x1="-8.685" x2="-3.116" y1="28.64" y2="26.563"><stop offset="0" stop-color="#eeeeec"/><stop offset="1" stop-color="#babdb6"/></linearGradient><linearGradient id="p" gradientUnits="userSpaceOnUse" x1="-9.082" x2="-3.735" y1="26.519" y2="25.458"><stop offset="0" stop-color="#eeeeec"/><stop offset="1" stop-color="#fff"/></linearGradient><linearGradient id="q" gradientUnits="userSpaceOnUse" x1="-9.969" x2="-9.969" y1="28.875" y2="27.812"><stop offset="0" stop-color="#888a85"/><stop offset="1" stop-color="#fff"/></linearGradient><linearGradient id="r" gradientTransform="matrix(1 0 0 1.0286 -4 -25.143)" gradientUnits="userSpaceOnUse" x1="-3.535" x2="-3.535" y1="55.867" y2="59.445"><stop offset="0" stop-color="#555753"/><stop offset="1" stop-color="#d3d7cf"/></linearGradient><linearGradient id="s" gradientTransform="matrix(1.0875 0 0 1.0864 -1.581 -8.943)" gradientUnits="userSpaceOnUse" x1="32.812" x2="32.812" y1="21" y2="26.205"><stop offset="0" stop-color="#2e3436"/><stop offset="1" stop-color="#555753"/></linearGradient><linearGradient id="t" gradientUnits="userSpaceOnUse" x1="29.875" x2="30" y1="22" y2="9" href="#c"/><linearGradient id="v" gradientUnits="userSpaceOnUse" x1="37.625" x2="38.875" y1="40.312" y2="45.062"><stop offset="0" stop-color="#729fcf"/><stop offset="1" stop-color="#729fcf" stop-opacity="0"/></linearGradient><linearGradient id="w" gradientUnits="userSpaceOnUse" x1="38.75" x2="40.125" y1="40.625" y2="46.562"><stop offset="0" stop-color="#3465a4"/><stop offset="1" stop-color="#3465a4" stop-opacity="0"/></linearGradient><linearGradient id="x" gradientUnits="userSpaceOnUse" x1="41.188" x2="42.124" y1="38.312" y2="42.938" href="#c"/><linearGradient id="y" gradientTransform="matrix(1.125 0 0 1.1667 15.875 -34.135)" gradientUnits="userSpaceOnUse" x1="-4.11" x2="-4.11" y1="58.808" y2="55" href="#d"/><linearGradient id="z" gradientUnits="userSpaceOnUse" x1="-6.406" x2="-7.781" y1="32.438" y2="34.562" href="#b"/><g transform="translate(.222 -2.121)scale(.5303)"><path d="M17.5 5.02a2.486 2.486 0 0 0-2.484 2.48c0 .24.116.44.179.66a7.45 7.45 0 0 0-4.765 2.92c-.141 0-.27-.1-.43-.1h-.02C9.98 9.89 9.086 9 7.996 9s-1.985.89-1.985 1.98c0 .86.57 1.59 1.346 1.86-.043.1-.09.2-.121.31a1.8 1.8 0 0 0-.74-.15c-1.125 0-2.052.6-2.688 1.43-.384-.25-.817-.43-1.312-.43A2.486 2.486 0 0 0 .01 16.48c0 1.37 1.118 2.48 2.485 2.48.495 0 .928-.18 1.312-.43.636.83 1.563 1.43 2.688 1.43h.1c.686 1.18 1.93 2 3.4 2 .707 0 1.366-.21 1.949-.53 1.258.95 2.798 1.53 4.488 1.53 2.007 0 3.811-.81 5.153-2.1.294.1.588.1.91.1 1.705 0 3.21-.81 4.215-2.03h.285c.633 0 1.204-.23 1.697-.57.352.33.783.57 1.303.57 1.09 0 1.984-.89 1.984-1.98s-.894-1.98-1.984-1.98h-.244c-.356-1.06-1.257-1.85-2.402-2a5.5 5.5 0 0 0-.692-1.04c.188-.31.322-.65.322-1.03 0-1.09-.894-1.98-1.984-1.98-.751 0-1.322.47-1.654 1.09-.275 0-.547-.1-.846-.1-.323 0-.619 0-.914.1a7.5 7.5 0 0 0-2-1.36c.23-.37.398-.79.398-1.26 0-1.37-1.118-2.48-2.484-2.48z" opacity=".1"/><g stroke-linecap="square" stroke-linejoin="round" transform="translate(0 -104)"><path d="M17.5 108.5a2.003 2.003 0 0 0-1.719 3.03 7.02 7.02 0 0 0-5.156 3.06c-.202 0-.407-.1-.625-.1s-.423 0-.625.1c.076-.18.125-.38.125-.59a1.5 1.5 0 1 0-1.5 1.5 2.5 2.5 0 0 0-.469 1.22c-.326-.12-.662-.22-1.031-.22a2.99 2.99 0 0 0-2.625 1.56 2 2 0 0 0-1.375-.56c-1.104 0-2 .9-2 2s.896 2 2 2c.536 0 1.016-.22 1.375-.56A2.99 2.99 0 0 0 6.5 122.5h.344A3.47 3.47 0 0 0 10 124.53c.725 0 1.41-.22 1.969-.59a7 7 0 0 0 4.468 1.59c1.964 0 3.729-.82 5-2.13.347.1.694.13 1.063.13 1.654 0 3.121-.82 4.031-2.06.154 0 .307.1.469.1.674 0 1.3-.25 1.75-.69.267.42.722.69 1.25.69a1.5 1.5 0 1 0 0-3c-.197 0-.39.1-.563.12-.181-1.17-1.153-2.09-2.375-2.12-.24-.55-.56-1.05-.968-1.47.253-.27.406-.63.406-1.03a1.5 1.5 0 0 0-1.5-1.5c-.7 0-1.273.48-1.438 1.12-.346-.1-.693-.12-1.062-.12s-.716 0-1.063.12a7 7 0 0 0-2.562-1.68c.381-.37.625-.87.625-1.44 0-1.1-.896-2-2-2z" fill="url(#e)" stroke="#729fcf"/><path d="M17.5 109.51c-.558 0-.99.43-.99.99 0 .19.05.37.136.51a1.01 1.01 0 0 1-.771 1.53 6 6 0 0 0-4.414 2.62 1.01 1.01 0 0 1-1.09.41c-.165 0-.279-.1-.371-.1s-.206 0-.371.1a1 1 0 0 1-.64-.2 1 1 0 0 1-.18.73c-.14.19-.243.45-.276.73a1.01 1.01 0 0 1-1.355.83c-.278-.1-.485-.15-.678-.15-.757 0-1.4.42-1.74 1.04a1.01 1.01 0 0 1-1.582.24.96.96 0 0 0-.678-.28c-.558 0-.99.43-.99.99s.432.99.99.99c.26 0 .488-.1.678-.28a1.01 1.01 0 0 1 1.582.24c.34.62.983 1.04 1.74 1.04h.227a1.01 1.01 0 0 1 1.033.57c.398.87 1.228 1.45 2.24 1.45a2.54 2.54 0 0 0 1.404-.42 1.01 1.01 0 0 1 1.209.1c1.034.86 2.358 1.36 3.824 1.36 1.682 0 3.184-.7 4.278-1.82a1.01 1.01 0 0 1 .939-.28c.298.1.566.1.846.1 1.32 0 2.488-.66 3.219-1.65a1.01 1.01 0 0 1 1.002-.39H27c.421 0 .795-.16 1.049-.4a1.01 1.01 0 0 1 1.547.17c.09.15.227.23.404.23.282 0 .49-.21.49-.49s-.208-.49-.49-.49h-.188a1.01 1.01 0 0 1-1.373-.78c-.11-.72-.671-1.25-1.402-1.27a1.01 1.01 0 0 1-.898-.6 4.1 4.1 0 0 0-.77-1.18 1.01 1.01 0 0 1-.01-1.39c.08-.1.131-.2.131-.34 0-.28-.208-.49-.49-.49-.244 0-.402.14-.459.36a1.01 1.01 0 0 1-1.195.74c-.298-.1-.566-.1-.846-.1s-.548 0-.846.1a1.01 1.01 0 0 1-.939-.28 6 6 0 0 0-2.192-1.45 1.01 1.01 0 0 1-.345-1.67c.2-.19.312-.43.312-.71 0-.56-.432-.99-.99-.99zm-9.5 4c-.282 0-.49.21-.49.49s.208.49.49.49a1 1 0 0 1 .523.2 1 1 0 0 1-.078-.49c.028-.1.045-.15.045-.2 0-.28-.208-.49-.49-.49z" fill="none" stroke="#fff"/></g></g><g transform="translate(.542 1.707)scale(.5303)"><g fill-rule="evenodd"><path d="M5 12h5-3z" fill="#fff"/><ellipse cx="14.363" cy="34.786" fill="url(#f)" opacity=".459" rx="8.795" ry="6.055" transform="matrix(1.156 0 0 1.1168 -1.49 -5.813)"/><rect filter="url(#g)" height="29" opacity=".12" rx="3.723" transform="translate(-.49 -.271)scale(1.0156)" width="32" x="15.375" y="2.875"/><rect height="29" rx="2.877" ry="2.781" width="32" x="14.5" y="1.5" stroke="#888a85" stroke-linecap="round" stroke-linejoin="round" stroke-dashoffset=".7" stroke-opacity=".992" fill="url(#h)"/></g><path d="M-12.5 1.498A.98.98 0 0 0-13.502 2.5v11a.98.98 0 0 0 1.002 1.002h12A.98.98 0 0 0 .502 13.5v-11A.98.98 0 0 0-.5 1.498z" transform="matrix(2.1429 0 0 2.0868 44.429 -.63)" fill="none" stroke-width=".473" stroke-linecap="round" stroke-linejoin="round" stroke-dashoffset=".7" stroke-opacity=".992" stroke="url(#i)"/><path d="M14.895 30.996a.5.5 0 0 0-.393.102s-4.318 3.332-8.233 6.572c-1.964 1.627-3.741 3.245-4.82 4.894-.523.8-1.105 1.856-.72 3.202a2.96 2.96 0 0 0 1.324 1.705c.554.327 1.118.468 1.7.535 2.272.262 4.92-.406 8.044-1.297 3.13-.893 6.69-2.089 10.267-3.256 3.578-1.166 7.182-2.3 10.295-2.986 3.107-.685 5.777-.846 7.143-.504.217.05.251.08.332.107-.02.106-.04.226-.139.432-.49 1.041-2.155 2.984-4.074 4.783-3.845 3.605-8.789 7.08-8.789 7.08a.51.51 0 0 0-.121.713l1.75 2.438a.51.51 0 0 0 .705.121s5.059-3.528 9.213-7.422c2.074-1.945 3.939-3.932 4.926-6.029.492-1.047.861-2.332.359-3.649-.51-1.339-1.784-2.154-3.166-2.5-2.606-.651-5.653-.213-9.014.527-3.366.743-7.06 1.867-10.673 3.045s-7.133 2.396-10.108 3.245c-2.185.623-3.874.901-5.107 1.003.786-.874 1.893-1.958 3.26-3.089 3.711-3.073 7.957-6.366 7.956-6.366a.51.51 0 0 0 .11-.687l-1.688-2.5a.5.5 0 0 0-.339-.219" fill="url(#j)" fill-rule="evenodd" filter="url(#k)" opacity=".319" transform="translate(.25 -.625)"/><g transform="translate(20)"><g fill-rule="evenodd"><g transform="matrix(1.1667 0 0 1.2 -3.833 -36.2)"><path d="M-2.344 51a.64.64 0 0 0-.5.25l-4.015 4c-.035.132-.1.271-.141.406v5.521c0 .364.297.656.656.656H.344a.67.67 0 0 0 .469-.187l4-4A.67.67 0 0 0 5 57.177v-5.521c0-.182-.07-.35-.187-.468a.66.66 0 0 0-.47-.188z" fill="url(#l)"/><path d="M-6.374 55.167H.088a.63.63 0 0 1 .626.638v5.39a.63.63 0 0 1-.626.638h-6.462A.63.63 0 0 1-7 61.195v-5.39a.63.63 0 0 1 .626-.638" fill="url(#m)"/></g><path d="m-5 25-5 5h4l5-5z" fill="url(#n)" opacity=".123"/><path d="m-1 25-9.5 4H-7l5-3z" fill="#babdb6"/></g><path d="M-6.562 25.5c-.024 0-.055 0-.157.125q-.044.03-.094.06l-.062.06-.062.06h-.03l-.063.06-.187.187a.96.96 0 0 1-.375.219l-4.252 1.229c-.4.208-.534.349-.594.469 0 0 .04.134 0 .09.08.1.361.253.844.344.34.07.617.314.727.643s.04.692-.196.951l-.343.375c-.02.09-.05.17-.09.312v6.56c0 .05 0 .116.06.188.03.04.104.06.157.06h7.844c.092 0 .168-.01.218-.06v-.03l4.655-4.808c.052-.054.062-.079.062-.188v-6.625c0-.108-.01-.164-.062-.219-.037-.037-.155-.062-.188-.062z" opacity=".534" fill="none" stroke="#fff" stroke-linecap="round" stroke-linejoin="round" stroke-dashoffset=".7"/><path d="M-6.562 24.531c-.388 0-.692.219-.907.469l-.03-.03-.032.06-.343.313-4.251 1.218c-.03 0-.06.02-.09.03-.549.274-.902.554-1.094.937-.192.384-.116.867.125 1.156.329.394.858.553 1.407.657l-.407.437c-.06.05-.1.116-.125.188-.03.121-.07.316-.125.5q-.03.059-.03.125v6.656c0 .299.113.582.313.813.199.23.511.406.875.406h7.843c.324 0 .657-.116.906-.375l4.651-4.81c.226-.235.344-.539.344-.875v-6.625c0-.335-.118-.64-.344-.875a1.25 1.25 0 0 0-.874-.375z" fill="none" stroke="#555753" stroke-dashoffset=".7" stroke-linecap="round" stroke-linejoin="round"/><g fill-rule="evenodd"><path d="m-1 25-11 2.5 2 1.5h3l5-3z" fill="url(#o)"/><path d="m-5 25-7 2h4l7-2z" fill="url(#p)"/><path d="M-12 27h4c-2 1-.5 2 1 2h-4c-1.5 0-3-1-1-2" fill="url(#q)"/><path d="M-9.594 32h4.188c.225 0 .406.195.406.438v3.125c0 .242-.181.437-.406.437h-4.188c-.225 0-.406-.195-.406-.437v-3.125c0-.243.181-.438.406-.438" fill="url(#r)"/></g></g><path d="M29.48 10.068c-.639 0-1.155.516-1.155 1.154v.288a.54.54 0 0 1-.544.543h-1.563c-.639 0-1.155.704-1.155 1.342v6.445c0 .638.516 1.154 1.155 1.154h8.564c.639 0 1.155-.516 1.155-1.154v-6.445c0-.638-.516-1.342-1.155-1.342h-1.563a.514.514 0 0 1-.544-.526v-.305c0-.638-.516-1.154-1.155-1.154z" fill="url(#s)" fill-rule="evenodd"/><path d="M29.562 9.438c-1.109 0-1.984.908-2.062 2h-.938a2.143 2.143 0 0 0-2.125 2.125v5.874c0 1.16.966 2.125 2.125 2.125h7.876a2.143 2.143 0 0 0 2.125-2.125v-5.874c0-1.16-.966-2.125-2.125-2.125H33.5c-.078-1.092-.953-2-2.063-2z" fill="none" stroke="url(#t)" stroke-dashoffset=".7" stroke-linecap="round"/><path d="M26.5 26.5v-2m1.97 1.981v-2m4 2v-2M30.5 26.5v-2" fill="none" stroke="url(#u)" stroke-linecap="round" transform="translate(1 -8)"/><path d="M14.688 30.562s-4.19 3.268-8.094 6.501c-1.952 1.616-3.698 3.221-4.719 4.781-.51.78-.987 1.623-.656 2.781.165.579.611 1.121 1.093 1.406s.959.406 1.5.469c2.124.245 4.732-.394 7.844-1.281 3.113-.888 6.669-2.083 10.25-3.25 3.581-1.168 7.197-2.306 10.344-3s5.835-.885 7.375-.5c.729.182.746.301.75.312 0 .01.06.336-.219.938-.566 1.204-2.245 3.116-4.187 4.937-3.885 3.642-8.844 7.125-8.844 7.125l1.75 2.438s5.041-3.517 9.156-7.375c2.058-1.929 3.879-3.892 4.813-5.875.466-.992.777-2.113.344-3.25s-1.542-1.87-2.813-2.188c-2.46-.615-5.444-.204-8.781.532-3.337.735-7.019 1.855-10.625 3.031-3.607 1.176-7.129 2.395-10.125 3.25-2.912.83-5.298 1.22-6.469 1.125.62-.948 2.296-2.554 4.156-4.094A376 376 0 0 1 16.5 33z" fill="url(#v)" fill-rule="evenodd" stroke="url(#w)" stroke-linejoin="round"/><path d="M15.672 31.27S-2.765 43.957 3.735 44.707s28-10 36-8-12 16-12 16" fill="none" opacity=".19" stroke="url(#x)"/><g fill-rule="evenodd"><path d="m10.089 30.031.317 2h4.188c.225 0 .406.195.406.438v3.125l2-.313v-4.469c0-.424-.314-.781-.719-.781z" fill="url(#y)"/><path d="M-9.594 32h4.188c.225 0 .406.195.406.438v3.125c0 .242-.181.437-.406.437h-4.188c-.225 0-.406-.195-.406-.437v-3.125c0-.243.181-.438.406-.438" fill="url(#z)" opacity=".354" transform="translate(20)"/></g></g><g stroke-linecap="round" stroke-linejoin="round" transform="translate(8.5 18.704)scale(.5303)"><path d="M7.938 4.063a3 3 0 0 0-1.75 1.03A1.5 1.5 0 0 0 5 4.5a1.5 1.5 0 0 0-1.219 2.375c-.615.271-1.031.91-1.031 1.625 0 .077.022.144.031.219a1.5 1.5 0 1 0 .281 2.344A2.02 2.02 0 0 0 5 12.5c.34 0 .657-.1.938-.25a2.767 2.767 0 0 0 4.625 0c.28.15.597.25.937.25.803 0 1.495-.472 1.813-1.156.203.103.444.156.687.156a1.5 1.5 0 0 0 0-3c-.207 0-.414.049-.594.125A2.4 2.4 0 0 0 13.5 8c0-1.348-1.07-2.45-2.406-2.5A3 3 0 0 0 9.75 4.281z" fill="url(#A)" stroke="#729fcf"/><path d="M8.049 4.982c-.462.107-.882.342-1.166.686a.902.902 0 0 1-1.412-.027A.58.58 0 0 0 5 5.402.585.585 0 0 0 4.402 6c0 .135.041.25.112.348a.902.902 0 0 1-.37 1.351c-.274.121-.492.435-.492.801 0-.091.001-.074.024.102a.902.902 0 0 1-1.364.888A.6.6 0 0 0 2 9.402a.585.585 0 0 0-.598.598c0 .34.258.598.598.598a.6.6 0 0 0 .426-.172.902.902 0 0 1 1.502.387c.128.443.56.785 1.072.785q.244-.002.512-.143a.9.9 0 0 1 1.18.301 1.866 1.866 0 0 0 3.117 0 .9.9 0 0 1 1.179-.301c.179.1.349.143.512.143.45 0 .82-.26.994-.635a.9.9 0 0 1 1.227-.424c.06.03.168.06.279.06.34 0 .598-.258.598-.598A.586.586 0 0 0 14 9.403c-.06 0-.164.02-.242.053a.902.902 0 0 1-1.225-1.06c.044-.168.065-.29.065-.396 0-.87-.678-1.567-1.537-1.6a.9.9 0 0 1-.747-.447c-.201-.347-.522-.617-.888-.803z" fill="none" stroke="#fff"/></g></svg>