<svg xmlns="http://www.w3.org/2000/svg" height="32.002" viewBox="0 0 22.731 32.002" width="22.731"><linearGradient id="g" gradientTransform="matrix(1.143 0 0 1.137 299.1 122.6)" gradientUnits="userSpaceOnUse" x1="17.55" x2="20.71" y1="7.198" y2="14.26"><stop offset="0" stop-color="#555753"/><stop offset="1" stop-color="#888a85"/></linearGradient><radialGradient id="b" cx="13.32" cy="114.8" gradientTransform="matrix(2.993 0 0 .9272 -27.06 9.21)" gradientUnits="userSpaceOnUse" r="16" href="#a"/><linearGradient id="a"><stop offset="0" stop-color="#fff"/><stop offset=".265" stop-color="#fff"/><stop offset="1" stop-color="#babdb6"/></linearGradient><filter id="c" height="1.317" width="1.282" x="-.141" y="-.159"><feGaussianBlur stdDeviation=".85"/></filter><linearGradient id="d" gradientTransform="matrix(2 0 0 1.933 346.5 126.5)" gradientUnits="userSpaceOnUse" x1="-9.538" x2="-11.57" y1="17.4" y2=".091"><stop offset="0" stop-color="#d3d7cf"/><stop offset="1" stop-color="#fff"/></linearGradient><radialGradient id="e" cx="309.9" cy="157.4" gradientTransform="matrix(3.121 -.5741 .1706 .9276 -698.2 185.9)" gradientUnits="userSpaceOnUse" r="13.98"><stop offset="0"/><stop offset="1" stop-opacity="0"/></radialGradient><filter id="f" height="1.09" width="1.085" x="-.043" y="-.045"><feGaussianBlur stdDeviation=".497"/></filter><linearGradient id="h" gradientTransform="matrix(.8333 0 0 1 53.17 0)" gradientUnits="userSpaceOnUse" x1="324.7" x2="324.7" y1="133.8" y2="138"><stop offset="0" stop-color="#babdb6"/><stop offset="1" stop-color="#eeeeec"/></linearGradient><linearGradient id="i" gradientUnits="userSpaceOnUse" x1="323.98" x2="325.74" y1="150.17" y2="154.94"><stop offset="0" stop-color="#9ebdde"/><stop offset="1" stop-color="#9ebdde" stop-opacity="0"/></linearGradient><linearGradient id="j" gradientUnits="userSpaceOnUse" x1="327.16" x2="328.93" y1="150.17" y2="155.74"><stop offset="0" stop-color="#3465a4"/><stop offset="1" stop-color="#3465a4" stop-opacity="0"/></linearGradient><radialGradient id="k" cx="42.17" cy="43.19" gradientTransform="matrix(2.89 0 0 1.133 -114.7 -42.49)" gradientUnits="userSpaceOnUse" r="7.954" href="#a"/><g transform="translate(0 -2.824)scale(.70597)"><path d="M17.5 5a2.486 2.486 0 0 0-2.484 2.48c0 .24.116.44.179.66a7.45 7.45 0 0 0-4.765 2.92c-.141 0-.27-.1-.43-.1h-.02c0-1.09-.894-1.98-1.984-1.98s-1.984.89-1.984 1.98c0 .86.57 1.59 1.346 1.86-.043.1-.089.2-.121.31a1.8 1.8 0 0 0-.74-.15c-1.124 0-2.052.6-2.688 1.43-.384-.25-.817-.43-1.312-.43-1.366 0-2.484 1.11-2.484 2.48s1.118 2.48 2.484 2.48c.495 0 .928-.18 1.312-.43.636.83 1.563 1.43 2.688 1.43h.1c.686 1.18 1.93 2 3.4 2 .707 0 1.366-.21 1.949-.53 1.258.95 2.798 1.53 4.488 1.53 2.007 0 3.811-.81 5.153-2.1.294.1.588.1.91.1 1.705 0 3.21-.81 4.215-2.03h.285c.633 0 1.204-.23 1.697-.57.352.33.783.57 1.303.57 1.09 0 1.984-.89 1.984-1.98s-.894-1.98-1.984-1.98h-.244c-.356-1.06-1.257-1.85-2.402-2a5.5 5.5 0 0 0-.692-1.04c.188-.31.322-.65.322-1.03 0-1.09-.894-1.98-1.984-1.98-.751 0-1.322.47-1.654 1.09-.275 0-.547-.1-.846-.1-.323 0-.619 0-.914.1a7.5 7.5 0 0 0-2-1.36c.23-.37.398-.79.398-1.26 0-1.37-1.118-2.48-2.484-2.48z" opacity=".1"/><g stroke-linecap="square" stroke-linejoin="round" transform="translate(0 -104)"><path d="M17.5 108.5a2.003 2.003 0 0 0-1.719 3.03 7.02 7.02 0 0 0-5.156 3.06c-.202 0-.407-.1-.625-.1s-.423 0-.625.1c.076-.18.125-.38.125-.59a1.5 1.5 0 1 0-1.5 1.5 2.5 2.5 0 0 0-.469 1.22c-.326-.12-.662-.22-1.03-.22-1.135 0-2.116.63-2.626 1.56a2 2 0 0 0-1.375-.56c-1.104 0-2 .9-2 2s.896 2 2 2c.536 0 1.016-.22 1.375-.56A2.99 2.99 0 0 0 6.5 122.5h.344A3.47 3.47 0 0 0 10 124.53c.725 0 1.41-.22 1.969-.59a7 7 0 0 0 4.468 1.59c1.964 0 3.729-.82 5-2.13.347.1.694.13 1.063.13 1.654 0 3.121-.82 4.031-2.06.154 0 .307.1.469.1.674 0 1.3-.25 1.75-.69.267.42.722.69 1.25.69a1.5 1.5 0 1 0 0-3c-.197 0-.39.1-.563.12-.181-1.17-1.153-2.09-2.375-2.12-.24-.55-.56-1.05-.968-1.47.253-.27.406-.63.406-1.03a1.5 1.5 0 0 0-1.5-1.5c-.7 0-1.273.48-1.438 1.12-.346-.1-.693-.12-1.062-.12s-.716 0-1.063.12a7 7 0 0 0-2.562-1.68c.381-.37.625-.87.625-1.44 0-1.1-.896-2-2-2z" fill="url(#b)" stroke="#729fcf"/><path d="M17.5 109.5c-.558 0-.99.43-.99.99 0 .19.05.37.136.51a1.01 1.01 0 0 1-.771 1.53 6 6 0 0 0-4.414 2.62 1.01 1.01 0 0 1-1.09.41c-.165 0-.279-.1-.371-.1s-.206 0-.371.1a1 1 0 0 1-.64-.2 1 1 0 0 1-.18.73c-.14.19-.243.45-.276.73a1.01 1.01 0 0 1-1.356.83c-.278-.1-.484-.15-.677-.15-.758 0-1.4.42-1.74 1.04a1.01 1.01 0 0 1-1.582.24.96.96 0 0 0-.678-.28c-.558 0-.99.43-.99.99s.432.99.99.99c.26 0 .488-.1.678-.28a1.01 1.01 0 0 1 1.582.24c.34.62.982 1.04 1.74 1.04h.226a1.01 1.01 0 0 1 1.033.57c.398.87 1.228 1.45 2.24 1.45a2.54 2.54 0 0 0 1.404-.42 1.01 1.01 0 0 1 1.209.1c1.034.86 2.358 1.36 3.824 1.36 1.682 0 3.184-.7 4.278-1.82a1.01 1.01 0 0 1 .939-.28c.298.1.566.1.846.1 1.32 0 2.488-.66 3.219-1.65a1.01 1.01 0 0 1 1.002-.39h.279c.421 0 .795-.16 1.049-.4a1.01 1.01 0 0 1 1.547.17c.09.15.227.23.404.23.282 0 .49-.21.49-.49s-.208-.49-.49-.49h-.188a1.01 1.01 0 0 1-1.373-.78c-.11-.72-.671-1.25-1.402-1.27a1.01 1.01 0 0 1-.898-.6 4.1 4.1 0 0 0-.77-1.18 1.01 1.01 0 0 1-.01-1.39c.08-.1.131-.2.131-.34 0-.28-.208-.49-.49-.49-.244 0-.402.14-.459.36a1.01 1.01 0 0 1-1.195.74c-.298-.1-.566-.1-.846-.1s-.548 0-.846.1a1.01 1.01 0 0 1-.939-.28 6 6 0 0 0-2.192-1.45 1.01 1.01 0 0 1-.345-1.67c.2-.19.312-.43.312-.71 0-.56-.432-.99-.99-.99zm-9.5 4c-.282 0-.49.21-.49.49s.208.49.49.49a1 1 0 0 1 .523.2 1 1 0 0 1-.078-.49c.028-.1.045-.15.045-.2 0-.28-.208-.49-.49-.49z" fill="none" stroke="#fff"/></g></g><g transform="translate(-213.07 -83.933)scale(.70597)"><g fill-rule="evenodd"><path d="M314.5 128.5h15.94c.57 0 1.03.46 1.03 1.03v13.94c0 .57-.46 1.03-1.03 1.03H314.5c-.57 0-1.03-.46-1.03-1.03v-13.94c0-.57.46-1.03 1.03-1.03" opacity=".2" stroke="#000" stroke-linecap="round" stroke-linejoin="round" stroke-dashoffset=".7" stroke-opacity=".992" filter="url(#c)"/><path d="M308 138h5-3z" fill="#fff"/><path d="M313.5 127.5h15.94c.57 0 1.03.46 1.03 1.03v13.94c0 .57-.46 1.03-1.03 1.03H313.5c-.57 0-1.03-.46-1.03-1.03v-13.94c0-.57.46-1.03 1.03-1.03" stroke="#888a85" stroke-linecap="round" stroke-linejoin="round" stroke-dashoffset=".7" stroke-opacity=".992" fill="url(#d)"/></g><path d="M313.5 128.5h16.02v14H313.5z" fill="none" stroke="#fff" stroke-linecap="round" stroke-linejoin="round" stroke-dashoffset=".7" stroke-opacity=".992"/><path d="M320.6 136.6s-11.5 11.52-13.69 13.55c-1.1 1.02-1.92 1.89-2.29 2.91-.18.51-.16 1.24.29 1.75.44.51 1.02.67 1.65.72 3.27.28 7.9-.78 12.38-1.84 4.48-1.07 8.85-2.16 10.84-2.16.46 0 .51 0 .59.1-.15.37-.82 1.3-1.78 2.22-2 1.92-8.72 7.59-8.72 7.59l1.13 1.59s6.82-5.7 9-7.78c1.09-1.04 2.04-2.01 2.41-3.19.18-.59.1-1.45-.5-1.94-.58-.49-1.28-.59-2.13-.59-2.64 0-6.86 1.16-11.31 2.22-4.46 1.06-9.11 2-11.75 1.78h-.1c.17-.33.7-1.05 1.62-1.91 2.02-1.87 13.44-13.4 13.44-13.4l.7-1.59h-1.82z" fill="url(#e)" fill-rule="evenodd" filter="url(#f)" opacity=".279"/><path d="M319 132v1.02c0-.1-.31 0-.31 0-.43 0-.71.28-.71.57v4.83c0 .3.25.57.71.57h5.58c.46 0 .71-.27.71-.57v-4.75c0-.3-.26-.68-.71-.65L324 133v-1z" fill="url(#g)" stroke="#fff" stroke-width="2"/><path d="M319 132v1.02c0-.1-.31 0-.31 0-.43 0-.71.28-.71.57v4.83c0 .3.25.57.71.57h5.58c.46 0 .71-.27.71-.57v-4.75c0-.3-.26-.68-.71-.65L324 133v-1z" fill="url(#g)"/><path d="M319 134h5v4.03h-5z" fill="url(#h)"/><rect fill="#555753" height="2.125" rx=".531" ry=".594" width="3" x="320" y="135"/><path d="M320.6 135.6s-11.5 11.52-13.69 13.55c-1.1 1.02-1.92 1.89-2.29 2.91-.18.51-.16 1.24.29 1.75.44.51 1.02.67 1.65.72 3.27.28 7.9-.78 12.38-1.84 4.48-1.07 8.85-2.16 10.84-2.16.46 0 .51 0 .59.1-.15.37-.82 1.3-1.78 2.22-2 1.92-8.72 7.59-8.72 7.59l1.13 1.59s6.82-5.7 9-7.78c1.09-1.04 2.04-2.01 2.41-3.19.18-.59.1-1.45-.5-1.94-.58-.49-1.28-.59-2.13-.59-2.64 0-6.86 1.16-11.31 2.22-4.46 1.06-9.11 2-11.75 1.78h-.1c.17-.33.7-1.05 1.62-1.91 2.02-1.87 13.44-13.4 13.44-13.4l.7-1.59h-1.82z" fill="url(#i)" fill-rule="evenodd" stroke="url(#j)" stroke-linejoin="round"/><path d="M320 134h3v-1h-3z" fill="#fff"/></g><g stroke-linecap="round" stroke-linejoin="round" transform="translate(1.6 9.983)scale(.70597)"><path d="M7.938 4.062a3 3 0 0 0-1.75 1.031A1.5 1.5 0 0 0 5 4.499a1.5 1.5 0 0 0-1.219 2.375c-.615.272-1.03.91-1.03 1.625 0 .077.021.144.03.219a1.5 1.5 0 1 0 .281 2.344A2.02 2.02 0 0 0 5 12.499c.34 0 .657-.1.938-.25a2.767 2.767 0 0 0 4.625 0c.28.15.597.25.937.25.803 0 1.495-.472 1.813-1.156.203.103.444.156.687.156a1.5 1.5 0 0 0 0-3c-.207 0-.414.05-.594.125.05-.202.09-.406.09-.625 0-1.348-1.07-2.45-2.406-2.5A3 3 0 0 0 9.75 4.28z" fill="url(#k)" stroke="#729fcf"/><path d="M8.049 4.982c-.462.106-.882.342-1.166.686a.902.902 0 0 1-1.412-.028.58.58 0 0 0-.47-.238.585.585 0 0 0-.598.598c0 .134.04.25.111.347a.902.902 0 0 1-.37 1.352c-.274.122-.491.436-.491.801 0-.09 0-.074.024.102a.902.902 0 0 1-1.364.888A.6.6 0 0 0 2 9.402c-.34 0-.598.258-.598.598s.258.598.598.598a.6.6 0 0 0 .426-.172.902.902 0 0 1 1.502.387c.128.443.56.785 1.072.785q.244-.002.512-.143a.9.9 0 0 1 1.18.301 1.866 1.866 0 0 0 3.118 0 .9.9 0 0 1 1.179-.301c.179.1.349.143.512.143.45 0 .82-.26.994-.635a.9.9 0 0 1 1.227-.424c.06.03.168.06.279.06.34 0 .598-.258.598-.598s-.258-.598-.598-.598c-.06 0-.164.02-.242.053a.902.902 0 0 1-1.225-1.06c.04-.168.06-.291.06-.396 0-.871-.678-1.567-1.537-1.6a.9.9 0 0 1-.742-.447c-.201-.348-.522-.618-.889-.803z" fill="none" stroke="#fff"/></g></svg>