<svg width="32" height="32" version="1.1" viewBox="0 0 48 48" xmlns="http://www.w3.org/2000/svg" xmlns:xlink="http://www.w3.org/1999/xlink"><defs><linearGradient id="linearGradient7889" x1="-7.852" x2="-5.51" y1="3.755" y2="18.94" gradientUnits="userSpaceOnUse"><stop stop-color="#fff" offset="0"/><stop stop-color="#fff" stop-opacity="0" offset="1"/></linearGradient><filter id="filter5386" x="-.01972" y="-.02176" width="1.039" height="1.044" color-interpolation-filters="sRGB"><feGaussianBlur stdDeviation="0.26293105"/></filter><linearGradient id="linearGradient7822-4"><stop offset="0"/><stop stop-opacity="0" offset="1"/></linearGradient><linearGradient id="linearGradient4598"><stop stop-color="#fff" offset="0"/><stop stop-color="#fff" stop-opacity="0" offset="1"/></linearGradient><linearGradient id="linearGradient7652-3"><stop stop-color="#729fcf" offset="0"/><stop stop-color="#729fcf" stop-opacity="0" offset="1"/></linearGradient><linearGradient id="linearGradient1643253" x1="-7.975" x2="-11.01" y1="25.36" y2="-6.568" gradientTransform="matrix(2 0 0 1.933 43.5 .5333)" gradientUnits="userSpaceOnUse"><stop stop-color="#d3d7cf" offset="0"/><stop stop-color="#fff" offset="1"/></linearGradient><filter id="filter10631-9-19" x="-.0544" y="-.09756" width="1.109" height="1.195"><feGaussianBlur stdDeviation="0.5906498"/></filter><radialGradient id="radialGradient8346" cx="18.25" cy="15.72" r="29.99" gradientTransform="matrix(.4532 0 0 .452 115.9 33.56)" gradientUnits="userSpaceOnUse"><stop stop-color="#d3e9ff" offset="0"/><stop stop-color="#f3f9ff" offset=".1552"/><stop stop-color="#376497" offset=".6311"/><stop stop-color="#273e5d" offset=".8155"/><stop stop-color="#526ea5" offset="1"/></radialGradient><linearGradient id="linearGradient8348" x1="145.2" x2="144.4" y1="-41.41" y2="46.08" gradientTransform="matrix(.08489 0 0 .08523 116.4 34.32)" gradientUnits="userSpaceOnUse"><stop stop-color="#acc5ed" offset="0"/><stop stop-color="#193b6e" offset="1"/></linearGradient><radialGradient id="radialGradient8350" cx="24.88" cy="23" r="19.19" gradientTransform="matrix(1 0 0 .9316 0 1.573)" gradientUnits="userSpaceOnUse" xlink:href="#linearGradient7822-4"/><radialGradient id="radialGradient8380" cx="24.88" cy="23" r="19.19" gradientTransform="matrix(1 0 0 .9316 .6567 2.136)" gradientUnits="userSpaceOnUse" xlink:href="#linearGradient7822-4"/><radialGradient id="radialGradient8410" cx="23.93" cy="14.66" r="19.19" gradientTransform="matrix(1.7 0 0 1.584 -16.91 -7.702)" gradientUnits="userSpaceOnUse"><stop stop-color="#f6f6f5" offset="0"/><stop stop-color="#ecece9" offset=".4992"/><stop stop-color="#9a9a8d" offset=".7619"/><stop stop-color="#fff" offset="1"/></radialGradient><radialGradient id="radialGradient8412" cx="24.14" cy="14.21" r="19.19" gradientTransform="matrix(1.7 0 0 1.584 -16.91 -7.702)" gradientUnits="userSpaceOnUse"><stop stop-color="#f6f6f5" offset="0"/><stop stop-color="#ecece9" offset=".381"/><stop stop-color="#c5c5be" offset=".7619"/><stop stop-color="#fff" offset="1"/></radialGradient><radialGradient id="radialGradient8440" cx="24.74" cy="17.35" r="19.19" gradientTransform="matrix(1.381 0 0 1.286 -9.42 -3.294)" gradientUnits="userSpaceOnUse"><stop stop-color="#f6f6f5" offset="0"/><stop stop-color="#ecece9" offset=".538"/><stop stop-color="#97978a" offset=".8543"/><stop stop-color="#fff" offset="1"/></radialGradient><radialGradient id="radialGradient8470" cx="77.56" cy="152.5" r="13.03" gradientTransform="matrix(1.963 0 0 1.094 -74.66 -21.12)" gradientUnits="userSpaceOnUse" xlink:href="#linearGradient4598"/><filter id="filter5386-2" x="-.01972" y="-.02176" width="1.039" height="1.044" color-interpolation-filters="sRGB"><feGaussianBlur stdDeviation="0.26293105"/></filter><linearGradient id="linearGradient6175" x1="22.36" x2="28.25" y1="11.89" y2="11.89" gradientUnits="userSpaceOnUse" xlink:href="#linearGradient7652-3"/><linearGradient id="linearGradient6239" x1="22.69" x2="27.97" y1="11.85" y2="11.85" gradientUnits="userSpaceOnUse" xlink:href="#linearGradient4598"/><linearGradient id="linearGradient9" x1="25.05" x2="27.76" y1="16.17" y2="24.54" gradientTransform="matrix(1.088 0 0 1.086 294.4 40.06)" gradientUnits="userSpaceOnUse" xlink:href="#linearGradient3983"/><linearGradient id="linearGradient3983"><stop stop-color="#555753" offset="0"/><stop stop-color="#888a85" offset="1"/></linearGradient><linearGradient id="linearGradient11" x1="326.5" x2="326.5" y1="61.7" y2="60.69" gradientUnits="userSpaceOnUse" xlink:href="#linearGradient4175"/><linearGradient id="linearGradient4175"><stop stop-color="#babdb6" offset="0"/><stop stop-color="#fff" offset="1"/></linearGradient><radialGradient id="radialGradient4612-0" cx="306.5" cy="86.38" r="21.91" gradientTransform="matrix(2.238 -.5404 .1485 .615 -392 204.4)" gradientUnits="userSpaceOnUse" xlink:href="#linearGradient7822-4"/><filter id="filter4618-7" x="-.07545" y="-.06204" width="1.151" height="1.143"><feGaussianBlur stdDeviation="0.89652215"/></filter><linearGradient id="linearGradient12" x1="322.3" x2="328.4" y1="62.62" y2="68.74" gradientTransform="matrix(.75 0 0 .8333 81.62 10.42)" gradientUnits="userSpaceOnUse" xlink:href="#linearGradient4206"/><linearGradient id="linearGradient4206"><stop stop-color="#fff" offset="0"/><stop stop-color="#babdb6" offset="1"/></linearGradient><linearGradient id="linearGradient13" x1="325.4" x2="328.4" y1="63.27" y2="68.74" gradientTransform="matrix(.5 0 0 .5 -489.8 -97.75)" gradientUnits="userSpaceOnUse" xlink:href="#linearGradient4206"/><linearGradient id="linearGradient14" x1="-47.16" x2="-46.15" y1="39.38" y2="44.17" gradientTransform="translate(386,50)" gradientUnits="userSpaceOnUse" xlink:href="#linearGradient7652-3"/><linearGradient id="linearGradient15" x1="-48" x2="-46.75" y1="40.38" y2="45.69" gradientTransform="translate(386,50)" gradientUnits="userSpaceOnUse"><stop stop-color="#3465a4" offset="0"/><stop stop-color="#3465a4" stop-opacity="0" offset="1"/></linearGradient><radialGradient id="radialGradient81" cx="306.5" cy="86.38" r="21.91" gradientTransform="matrix(1.058 -1.042 .4439 .4509 -55.95 372.2)" gradientUnits="userSpaceOnUse" xlink:href="#linearGradient7822-4"/><filter id="filter4618" x="-.1134" y="-.08587" width="1.226" height="1.205"><feGaussianBlur stdDeviation="0.89652215"/></filter><linearGradient id="linearGradient85" x1="-75.84" x2="-75.96" y1="48.62" y2="53.84" gradientTransform="translate(386,50)" gradientUnits="userSpaceOnUse" xlink:href="#linearGradient7652-3"/></defs><clipPath id="b"><rect x="68.78" y="-.0933" width="58.26" height="58.26" rx="2.648"/></clipPath><filter id="c" x="-.021" y="-.021" width="1.042" height="1.042" color-interpolation-filters="sRGB"><feGaussianBlur stdDeviation=".28282197"/></filter><clipPath id="h"><path d="m-6.562 24.53c-0.3877 0-0.6917 0.219-0.9062 0.469l-0.031-0.03-0.031 0.06-0.3438 0.313-4.25 1.218c-0.03 0-0.06 0.02-0.09 0.03-0.549 0.274-0.902 0.554-1.094 0.937-0.192 0.384-0.116 0.867 0.125 1.156 0.329 0.394 0.858 0.553 1.407 0.657l-0.407 0.437c-0.06 0.05-0.1 0.116-0.125 0.188-0.03 0.121-0.07 0.316-0.125 0.5-0.02 0.04-0.03 0.08-0.03 0.125v6.656c0 0.299 0.113 0.582 0.313 0.813 0.199 0.23 0.511 0.406 0.875 0.406h7.843c0.3236 0 0.6569-0.116 0.9063-0.375l4.651-4.81c0.2259-0.235 0.3437-0.539 0.3437-0.875v-6.625c0-0.335-0.1178-0.64-0.3437-0.875-0.2227-0.229-0.5504-0.375-0.874-0.375z"/></clipPath><filter id="i" x="-.03844" y="-.04352" width="1.077" height="1.087" color-interpolation-filters="sRGB"><feGaussianBlur stdDeviation=".1491362"/></filter><filter id="p" x="-.02026" y="-.02354" width="1.04" height="1.047" color-interpolation-filters="sRGB"><feGaussianBlur stdDeviation=".071069152"/></filter><filter id="x" x="-.03625" y="-.04222" width="1.071" height="1.083" color-interpolation-filters="sRGB"><feGaussianBlur stdDeviation=".16679387"/></filter><clipPath id="A"><path d="m-95.3 143.8s-4.189 3.27-8.1 6.5c-1.95 1.62-3.69 3.22-4.72 4.78-0.51 0.78-0.98 1.62-0.65 2.78 0.16 0.58 0.61 1.12 1.09 1.41 0.48 0.28 0.96 0.4 1.5 0.47 2.13 0.24 4.73-0.4 7.849-1.28 3.113-0.89 6.669-2.09 10.25-3.25 3.581-1.17 7.196-2.31 10.34-3 3.147-0.7 5.835-0.89 7.375-0.5 0.729 0.18 0.745 0.3 0.75 0.31 0 0 0.06 0.33-0.219 0.94-0.567 1.2-2.245 3.11-4.187 4.93-3.885 3.64-8.844 7.13-8.844 7.13l1.75 2.44s5.041-3.52 9.156-7.38c2.058-1.93 3.879-3.89 4.813-5.87 0.466-1 0.776-2.12 0.343-3.25-0.433-1.14-1.541-1.87-2.812-2.19-2.46-0.62-5.444-0.21-8.781 0.53-3.337 0.73-7.019 1.85-10.62 3.03-3.607 1.18-7.129 2.4-10.12 3.25-2.913 0.83-5.293 1.22-6.473 1.13 0.62-0.95 2.3-2.56 4.16-4.1 3.721-3.08 7.969-6.37 7.969-6.37z"/></clipPath><mask id="B" maskUnits="userSpaceOnUse"><rect x="-115.6" y="147" width="51.28" height="17.34" rx=".6657" fill="url(#C)" fill-rule="evenodd" stroke-width="2"/></mask><linearGradient id="C" x1="-112.3" x2="-112.3" y1="148.9" y2="164.5" gradientUnits="userSpaceOnUse"><stop offset="0"/><stop stop-color="#fff" offset=".2177"/><stop stop-color="#fff" offset=".7659"/><stop offset="1"/></linearGradient><filter id="D" x="-.0125" y="-.04971" width="1.026" height="1.099" color-interpolation-filters="sRGB"><feGaussianBlur stdDeviation="0.001 0.244"/></filter><filter id="H" x="-.395" y="-.5737" width="1.79" height="2.147" color-interpolation-filters="sRGB"><feGaussianBlur stdDeviation="2.8946329"/></filter><rect x="22.65" y="10.74" width="5.314" height="2.304" fill="url(#linearGradient6175)" opacity=".7" stroke="#3364a3" stroke-width=".5772"/><path d="m22.7 11.88 5.271-0.04727" fill="none" opacity=".19" stroke="url(#linearGradient6239)" stroke-width=".795"/><g transform="rotate(-90 37.29 12.78)"><rect x="22.65" y="10.74" width="5.314" height="2.304" fill="url(#linearGradient6175)" opacity=".7" stroke="#3364a3" stroke-width=".5772"/><path d="m22.7 11.88 5.271-0.04727" fill="none" opacity=".19" stroke="url(#linearGradient6239)" stroke-width=".795"/></g><g transform="matrix(.6351 0 0 .6351 16.55 26.45)" enable-background="new"><rect x="14.5" y="1.5" width="32" height="29" rx="2.877" ry="2.781" fill="url(#linearGradient1643253)" fill-rule="evenodd" stroke="#888a85" stroke-dashoffset=".7" stroke-linecap="round" stroke-linejoin="round" stroke-opacity=".9924"/><path transform="matrix(2.143 0 0 2.087 44.43 -.6302)" d="m-12.5 1.498c-0.573 0-1.002 0.429-1.002 1.002v11c0 0.573 0.429 1.002 1.002 1.002h12c0.573 0 1.002-0.429 1.002-1.002v-11c0-0.573-0.429-1.002-1.002-1.002z" fill="none" stroke="url(#linearGradient7889)" stroke-dashoffset=".7" stroke-linecap="round" stroke-linejoin="round" stroke-opacity=".9924" stroke-width=".4729"/><rect transform="matrix(1.016 0 0 1.016 -.49 -.2715)" x="15.38" y="2.875" width="32" height="29" rx="3.723" ry="3.723" fill-rule="evenodd" filter="url(#filter5386-2)" opacity=".1205"/></g><g transform="matrix(.6351 0 0 .6351 -6.855 1.584)" enable-background="new"><rect x="14.5" y="1.5" width="32" height="29" rx="2.877" ry="2.781" fill="url(#linearGradient1643253)" fill-rule="evenodd" stroke="#888a85" stroke-dashoffset=".7" stroke-linecap="round" stroke-linejoin="round" stroke-opacity=".9924"/><path transform="matrix(2.143 0 0 2.087 44.43 -.6302)" d="m-12.5 1.498c-0.573 0-1.002 0.429-1.002 1.002v11c0 0.573 0.429 1.002 1.002 1.002h12c0.573 0 1.002-0.429 1.002-1.002v-11c0-0.573-0.429-1.002-1.002-1.002z" fill="none" stroke="url(#linearGradient7889)" stroke-dashoffset=".7" stroke-linecap="round" stroke-linejoin="round" stroke-opacity=".9924" stroke-width=".4729"/><rect transform="matrix(1.016 0 0 1.016 -.49 -.2715)" x="15.38" y="2.875" width="32" height="29" rx="3.723" ry="3.723" fill-rule="evenodd" filter="url(#filter5386)" opacity=".1205"/><g transform="matrix(1.406 0 0 1.406 -428.3 -73.72)" enable-background="new"><path d="m325 59.07c-0.64 0-1.16 0.516-1.16 1.154v0.288c0 0.293-0.23 0.543-0.54 0.543h-0.12c-0.64 0-1.16 0.704-1.16 1.342v5.445c0 0.638 0.52 1.154 1.16 1.154h6.56c0.64 0 1.16-0.516 1.16-1.154v-5.445c0-0.638-0.52-1.342-1.16-1.342h-0.14c-0.26 0.02-0.55-0.186-0.55-0.526v-0.305c0-0.638-0.51-1.154-1.15-1.154z" fill="url(#linearGradient9)" fill-rule="evenodd" stroke="#fff" stroke-width="2"/><path d="m325 59.07c-0.64 0-1.16 0.516-1.16 1.154v0.288c0 0.293-0.23 0.543-0.54 0.543h-0.12c-0.64 0-1.16 0.704-1.16 1.342v5.445c0 0.638 0.52 1.154 1.16 1.154h6.56c0.64 0 1.16-0.516 1.16-1.154v-5.445c0-0.638-0.52-1.342-1.16-1.342h-0.14c-0.26 0.02-0.55-0.186-0.55-0.526v-0.305c0-0.638-0.51-1.154-1.15-1.154z" fill="url(#linearGradient9)" fill-rule="evenodd"/><rect x="325" y="60" width="3" height="2" rx=".3978" ry=".3978" color="#000000" fill="url(#linearGradient11)"/><path d="m300.6 93.52c-10.11-0.638 23.68-8.647 25.95-26.52" fill="none" filter="url(#filter4618)" opacity=".4944" stroke="url(#radialGradient81)" stroke-width="2"/><rect x="323.5" y="62.5" width="6" height="5" rx=".1768" ry=".1768" color="#000000" fill="#d3d7cf" stroke="url(#linearGradient12)"/><rect transform="scale(-1)" x="-328.5" y="-66.5" width="4" height="3" rx=".1768" ry=".1768" color="#000000" fill="#888a85" stroke="url(#linearGradient13)"/><path d="m325 63.81c-1.03 8.083-9.29 14.95-16.38 19.75-3.54 2.401-6.67 4.247-8.53 5.718-0.46 0.368-0.85 0.712-1.18 1.125-0.34 0.414 0.82 1.821 1.56 1.287 3.35-2.449 5.69-2.784 12.14-7.804 5.82-4.537 14.14-9.908 15.39-19.7z" color="#000000" fill="url(#linearGradient85)" fill-rule="evenodd" stroke="#3465a4" stroke-linejoin="round"/><path transform="scale(-1)" d="m-324.5-63.99c0 0.1-0.13 0.492-0.21 0.492h-3.64c-0.1 0-0.18-0.08-0.18-0.177v-2.646c0-0.1 0.42-0.177 0.5-0.177" color="#000000" fill="none" stroke="url(#linearGradient13)"/></g></g><g transform="matrix(1.202 0 0 1.202 -349.5 -160.4)"><g transform="matrix(.7892 0 0 .7892 220.7 108.9)"><path d="m136.8 44.46c0 5.239-4.259 9.486-9.512 9.486s-9.512-4.247-9.512-9.486c0-5.238 4.259-9.485 9.512-9.485s9.512 4.246 9.512 9.485z" fill="url(#radialGradient8346)" stroke="url(#linearGradient8348)" stroke-width="1.463"/><g transform="matrix(.4517 0 0 .4516 115.8 33.87)"><g fill="url(#radialGradient8350)"><path d="m44.07 20.71-0.5449 0.6172c-0.334-0.3936-0.709-0.7246-1.09-1.07l-0.8359 0.123-0.7637-0.8633v1.068l0.6543 0.4951 0.4355 0.4932 0.582-0.6582c0.1465 0.2744 0.291 0.5488 0.4365 0.8232v0.8223l-0.6553 0.7402-1.199 0.8232-0.9082 0.9063-0.582-0.6602 0.291-0.7402-0.5811-0.6582-0.9814-2.098-0.8359-0.9453-0.2188 0.2461 0.3281 1.193 0.6172 0.6992c0.3525 1.018 0.7012 1.99 1.164 2.963 0.7178 0 1.394-0.0762 2.107-0.166v0.5762l-0.8721 2.139-0.7998 0.9043-0.6543 1.4v2.303l0.2188 0.9063-0.3633 0.4102-0.8008 0.4941-0.8359 0.6992 0.6914 0.7813-0.9453 0.8242 0.1816 0.5332-1.418 1.606h-0.9443l-0.7998 0.4941h-0.5098v-0.6582l-0.2168-1.318c-0.2813-0.8262-0.5742-1.646-0.8721-2.467 0-0.6055 0.0361-1.205 0.0723-1.81l0.3643-0.8223-0.5098-0.9883 0.0371-1.357-0.6914-0.7813 0.3457-1.131-0.5625-0.6382h-0.9824l-0.3271-0.3701-0.9814 0.6177-0.3994-0.4536-0.9092 0.7817c-0.6172-0.6997-1.235-1.399-1.854-2.098l-0.7266-1.728 0.6543-0.9863-0.3633-0.4111 0.7988-1.894c0.6563-0.8164 1.342-1.6 2.035-2.386l1.236-0.3291 1.381-0.1641 0.9453 0.2471 1.345 1.356 0.4727-0.5342 0.6533-0.082 1.236 0.4111h0.9453l0.6543-0.5762 0.291-0.4111-0.6553-0.4111-1.091-0.082c-0.3027-0.4199-0.584-0.8613-0.9434-1.234l-0.3643 0.1641-0.1455 1.07-0.6543-0.7402-0.1445-0.8242-0.7266-0.5742h-0.292l0.7275 0.8223-0.291 0.7402-0.5811 0.1641 0.3633-0.7402-0.6553-0.3281-0.5801-0.6582-1.092 0.2461-0.1445 0.3281-0.6543 0.4121-0.3633 0.9053-0.9082 0.4521-0.4004-0.4521h-0.4355v-1.481l0.9453-0.4941h0.7266l-0.1465-0.5752-0.5801-0.5762 0.9805-0.2061 0.5449-0.6162 0.4355-0.7412h0.8008l-0.2188-0.5752 0.5098-0.3291v0.6582l1.09 0.2461 1.09-0.9043 0.0732-0.4121 0.9443-0.6577c-0.3418 0.0425-0.6836 0.0737-1.018 0.1646v-0.7411l0.3633-0.8228h-0.3633l-0.7984 0.7402-0.2188 0.4116 0.2188 0.5767-0.3643 0.9863-0.5811-0.3291-0.5078-0.5752-0.8008 0.5752-0.291-1.316 1.381-0.9048v-0.4941l0.873-0.5757 1.381-0.3296 0.9453 0.3296 1.744 0.3291-0.4355 0.4932h-0.9453l0.9453 0.9873 0.7266-0.8223 0.2207-0.3618s2.787 2.498 4.38 5.23c1.593 2.733 2.341 5.955 2.341 6.609z"/><path d="m26.07 9.236-0.0732 0.4932 0.5098 0.3291 0.8711-0.5757-0.4355-0.4937-0.582 0.3296-0.29-0.0825"/><path d="m26.87 5.863-1.891-0.7407-2.18 0.2466-2.69 0.7402-0.5088 0.4941 1.672 1.151v0.6582l-0.6543 0.6582 0.873 1.729 0.5801-0.3301 0.7285-1.151c1.123-0.3472 2.13-0.7407 3.197-1.234l0.873-2.221"/><path d="m28.83 12.77-0.291-0.7412-0.5098 0.165 0.1465 0.9043 0.6543-0.3281"/><path d="m29.12 12.61-0.1455 0.9883 0.7998-0.165 0.5811-0.5752-0.5088-0.4941c-0.1709-0.4551-0.3672-0.8799-0.5811-1.316h-0.4355v0.4932l0.29 0.3291v0.7402"/></g><path d="m19.02 28.81-0.582-1.152-1.09-0.2466-0.5815-1.562-1.454 0.1641-1.235-0.9043-1.309 1.151v0.1816c-0.396-0.1143-0.8828-0.1299-1.235-0.3467l-0.291-0.8223v-0.9053l-0.8721 0.082c0.0728-0.5762 0.145-1.151 0.2183-1.728h-0.5093l-0.5083 0.6582-0.5093 0.2461-0.7271-0.4102-0.0728-0.9053 0.1455-0.9873 1.091-0.8223h0.8721l0.145-0.4941 1.09 0.2461 0.7998 0.9883 0.1455-1.646 1.381-1.151 0.5088-1.234 1.018-0.4111 0.5815-0.8223 1.308-0.248 0.6548-0.9863h-1.963l1.236-0.5762h0.8716l1.236-0.4121 0.1455-0.4922-0.4365-0.4121-0.5088-0.165 0.1455-0.4932-0.3633-0.7402-0.8726 0.3281 0.1455-0.6577-1.018-0.5762-0.7993 1.398 0.0723 0.4941-0.7993 0.3301-0.5093 1.069-0.2178-0.9873-1.381-0.5762-0.2183-0.7402 1.817-1.07 0.7998-0.7402 0.0728-0.9048-0.436-0.2471-0.5815-0.0825-0.3633 0.9053s-0.6079 0.1191-0.7642 0.1577c-1.996 1.839-6.029 5.81-6.966 13.31 0.0371 0.1738 0.6792 1.182 0.6792 1.182l1.526 0.9043 1.526 0.4121 0.6548 0.8232 1.017 0.7402 0.5815-0.082 0.436 0.1963v0.1328l-0.5811 1.563-0.4365 0.6582 0.1455 0.3301-0.3633 1.232 1.309 2.387 1.308 1.152 0.582 0.8223-0.0732 1.728 0.4365 0.9863-0.4365 1.893s-0.0342-0.0117 0.0215 0.1777c0.0562 0.1895 2.329 1.451 2.474 1.344 0.144-0.1094 0.2671-0.2051 0.2671-0.2051l-0.145-0.4102 0.5811-0.5762 0.2183-0.5762 0.9453-0.3301 0.7266-1.81-0.2178-0.4922 0.5078-0.7402 1.091-0.248 0.582-1.316-0.1455-1.644 0.8721-1.234 0.1455-1.234c-1.193-0.5918-2.377-1.201-3.562-1.81" fill="url(#radialGradient8380)"/><g fill="url(#radialGradient8350)"><path d="m16.77 9.565 0.7266 0.4937h0.582v-0.5757l-0.7266-0.3291-0.582 0.4111"/><path d="m14.88 8.907-0.3638 0.9048h0.7271l0.3638-0.8228c0.3135-0.2217 0.6255-0.4448 0.9448-0.6582l0.7271 0.2471c0.4844 0.3291 0.9688 0.6582 1.454 0.9868l0.7275-0.6577-0.8003-0.3291-0.3638-0.7407-1.381-0.1646-0.0728-0.4116-0.6543 0.165-0.2904 0.5758-0.3638-0.7407-0.145 0.3291 0.0728 0.8228-0.5816 0.494"/><path d="m17.49 6.85 0.3638-0.3286 0.7271-0.1646c0.498-0.2422 0.998-0.4053 1.526-0.5762l-0.29-0.4937-0.9385 0.1348-0.4434 0.4419-0.731 0.106-0.6499 0.3052-0.3159 0.1528-0.1929 0.2583 0.9443 0.1641"/><path d="m18.73 14.67 0.4365-0.6582-0.6548-0.4932 0.2183 1.151"/></g></g><g transform="matrix(.4675 0 0 .4673 115.5 33.35)"><path d="m44.07 20.71-0.5449 0.6172c-0.334-0.3936-0.709-0.7246-1.09-1.07l-0.8359 0.123-0.7637-0.8633v1.068l0.6543 0.4951 0.4355 0.4932 0.582-0.6582c0.1465 0.2744 0.291 0.5488 0.4365 0.8232v0.8223l-0.6553 0.7402-1.199 0.8232-0.9082 0.9063-0.582-0.6602 0.291-0.7402-0.5811-0.6582-0.9814-2.098-0.8359-0.9453-0.2188 0.2461 0.3281 1.193 0.6172 0.6992c0.3525 1.018 0.7012 1.99 1.164 2.963 0.7178 0 1.394-0.0762 2.107-0.166v0.5762l-0.8721 2.139-0.7998 0.9043-0.6543 1.4v2.303l0.2188 0.9063-0.3633 0.4102-0.8008 0.4941-0.8359 0.6992 0.6914 0.7813-0.9453 0.8242 0.1816 0.5332-1.418 1.606h-0.9443l-0.7998 0.4941h-0.5098v-0.6582l-0.2168-1.318c-0.2813-0.8262-0.5742-1.646-0.8721-2.467 0-0.6055 0.0361-1.205 0.0723-1.81l0.3643-0.8223-0.5098-0.9883 0.0371-1.357-0.6914-0.7813 0.3457-1.131-0.5625-0.6382h-0.9824l-0.3271-0.3701-0.9814 0.6177-0.3994-0.4536-0.9092 0.7817c-0.6172-0.6997-1.235-1.399-1.854-2.098l-0.7266-1.728 0.6543-0.9863-0.3633-0.4111 0.7988-1.894c0.6563-0.8164 1.342-1.6 2.035-2.386l1.236-0.3291 1.381-0.1641 0.9453 0.2471 1.345 1.356 0.4727-0.5342 0.6533-0.082 1.236 0.4111h0.9453l0.6543-0.5762 0.291-0.4111-0.6553-0.4111-1.091-0.082c-0.3027-0.4199-0.584-0.8613-0.9434-1.234l-0.3643 0.1641-0.1455 1.07-0.6543-0.7402-0.1445-0.8242-0.7266-0.5742h-0.292l0.7275 0.8223-0.291 0.7402-0.5811 0.1641 0.3633-0.7402-0.6553-0.3281-0.5801-0.6582-1.092 0.2461-0.1445 0.3281-0.6543 0.4121-0.3633 0.9053-0.9082 0.4521-0.4004-0.4521h-0.4355v-1.481l0.9453-0.4941h0.7266l-0.1465-0.5752-0.5801-0.5762 0.9805-0.2061 0.5449-0.6162 0.4355-0.7412h0.8008l-0.2188-0.5752 0.5098-0.3291v0.6582l1.09 0.2461 1.09-0.9043 0.0732-0.4121 0.9443-0.6577c-0.3418 0.0425-0.6836 0.0737-1.018 0.1646v-0.7411l0.3633-0.8228h-0.3633l-0.7984 0.7402-0.2188 0.4116 0.2188 0.5767-0.3643 0.9863-0.5811-0.3291-0.5078-0.5752-0.8008 0.5752-0.291-1.316 1.381-0.9048v-0.4941l0.873-0.5757 1.381-0.3296 0.9453 0.3296 1.744 0.3291-0.4355 0.4932h-0.9453l0.9453 0.9873 0.7266-0.8223 0.2207-0.3618s2.787 2.498 4.38 5.23c1.593 2.733 2.341 5.955 2.341 6.609z" fill="url(#radialGradient8410)"/><g fill="url(#radialGradient8412)"><path d="m26.07 9.236-0.0732 0.4932 0.5098 0.3291 0.8711-0.5757-0.4355-0.4937-0.582 0.3296-0.29-0.0825"/><path d="m26.87 5.863-1.891-0.7407-2.18 0.2466-2.69 0.7402-0.5088 0.4941 1.672 1.151v0.6582l-0.6543 0.6582 0.873 1.729 0.5801-0.3301 0.7285-1.151c1.123-0.3472 2.13-0.7407 3.197-1.234l0.873-2.221"/><path d="m28.83 12.77-0.291-0.7412-0.5098 0.165 0.1465 0.9043 0.6543-0.3281"/><path d="m29.12 12.61-0.1455 0.9883 0.7998-0.165 0.5811-0.5752-0.5088-0.4941c-0.1709-0.4551-0.3672-0.8799-0.5811-1.316h-0.4355v0.4932l0.29 0.3291v0.7402"/></g><path d="m18.37 28.24-0.582-1.152-1.09-0.2466-0.5815-1.562-1.454 0.1641-1.235-0.9043-1.309 1.151v0.1816c-0.396-0.1143-0.8828-0.1299-1.235-0.3467l-0.291-0.8223v-0.9053l-0.8721 0.082c0.0728-0.5762 0.145-1.151 0.2183-1.728h-0.5093l-0.5083 0.6582-0.5093 0.2461-0.7271-0.4102-0.0728-0.9053 0.1455-0.9873 1.091-0.8223h0.8721l0.145-0.4941 1.09 0.2461 0.7998 0.9883 0.1455-1.646 1.381-1.151 0.5088-1.234 1.018-0.4111 0.5815-0.8223 1.308-0.248 0.6548-0.9863h-1.963l1.236-0.5762h0.8716l1.236-0.4121 0.1455-0.4922-0.4365-0.4121-0.5088-0.165 0.1455-0.4932-0.3633-0.7402-0.8726 0.3281 0.1455-0.6577-1.018-0.5762-0.7993 1.398 0.0723 0.4941-0.7993 0.3301-0.5093 1.069-0.2178-0.9873-1.381-0.5762-0.2183-0.7402 1.817-1.07 0.7998-0.7402 0.0728-0.9048-0.436-0.2471-0.5815-0.0825-0.3633 0.9053s-0.6079 0.1191-0.7642 0.1577c-1.996 1.839-6.029 5.81-6.966 13.31 0.0371 0.1738 0.6792 1.182 0.6792 1.182l1.526 0.9043 1.526 0.4121 0.6548 0.8232 1.017 0.7402 0.5815-0.082 0.436 0.1963v0.1328l-0.5811 1.563-0.4365 0.6582 0.1455 0.3301-0.3633 1.232 1.309 2.387 1.308 1.152 0.582 0.8223-0.0732 1.728 0.4365 0.9863-0.4365 1.893s-0.0342-0.0117 0.0215 0.1777c0.0562 0.1895 2.329 1.451 2.474 1.344 0.144-0.1094 0.2671-0.2051 0.2671-0.2051l-0.145-0.4102 0.5811-0.5762 0.2183-0.5762 0.9453-0.3301 0.7266-1.81-0.2178-0.4922 0.5078-0.7402 1.091-0.248 0.582-1.316-0.1455-1.644 0.8721-1.234 0.1455-1.234c-1.193-0.5918-2.377-1.201-3.562-1.81" fill="url(#radialGradient8440)"/><g fill="url(#radialGradient8412)"><path d="m16.77 9.565 0.7266 0.4937h0.582v-0.5757l-0.7266-0.3291-0.582 0.4111"/><path d="m14.88 8.907-0.3638 0.9048h0.7271l0.3638-0.8228c0.3135-0.2217 0.6255-0.4448 0.9448-0.6582l0.7271 0.2471c0.4844 0.3291 0.9688 0.6582 1.454 0.9868l0.7275-0.6577-0.8003-0.3291-0.3638-0.7407-1.381-0.1646-0.0728-0.4116-0.6543 0.165-0.2904 0.5758-0.3638-0.7407-0.145 0.3291 0.0728 0.8228-0.5816 0.494"/><path d="m17.49 6.85 0.3638-0.3286 0.7271-0.1646c0.498-0.2422 0.998-0.4053 1.526-0.5762l-0.29-0.4937-0.9385 0.1348-0.4434 0.4419-0.731 0.106-0.6499 0.3052-0.3159 0.1528-0.1929 0.2583 0.9443 0.1641"/><path d="m18.73 14.67 0.4365-0.6582-0.6548-0.4932 0.2183 1.151"/></g></g><circle transform="matrix(.6004 0 0 .6004 12.08 -70.07)" cx="191.9" cy="190.8" r="13.88" fill="none" opacity=".5351" stroke="#fff" stroke-width="2.265"/><path transform="matrix(.6781 0 0 .6781 74.68 -44.71)" d="m64.62 130c-0.05592 0.4898-0.09375 0.9954-0.09375 1.5 0 7.193 5.838 13.03 13.03 13.03 7.193 0 13.03-5.838 13.03-13.03 0-0.5048-0.0378-1.01-0.09375-1.5-0.7534 6.478-6.259 11.53-12.94 11.53-6.679 0-12.18-5.053-12.94-11.53z" fill="url(#radialGradient8470)" fill-rule="evenodd" filter="url(#filter10631-9-19)" opacity=".5351"/></g></g><g transform="matrix(.8965 0 0 .8965 -256.5 -20.48)" enable-background="new"><path d="m325 59.07c-0.64 0-1.16 0.516-1.16 1.154v0.288c0 0.293-0.23 0.543-0.54 0.543h-0.12c-0.64 0-1.16 0.704-1.16 1.342v5.445c0 0.638 0.52 1.154 1.16 1.154h6.56c0.64 0 1.16-0.516 1.16-1.154v-5.445c0-0.638-0.52-1.342-1.16-1.342h-0.14c-0.26 0.02-0.55-0.186-0.55-0.526v-0.305c0-0.638-0.51-1.154-1.15-1.154z" fill="url(#linearGradient9)" fill-rule="evenodd" stroke="#fff" stroke-width="2"/><path d="m325 59.07c-0.64 0-1.16 0.516-1.16 1.154v0.288c0 0.293-0.23 0.543-0.54 0.543h-0.12c-0.64 0-1.16 0.704-1.16 1.342v5.445c0 0.638 0.52 1.154 1.16 1.154h6.56c0.64 0 1.16-0.516 1.16-1.154v-5.445c0-0.638-0.52-1.342-1.16-1.342h-0.14c-0.26 0.02-0.55-0.186-0.55-0.526v-0.305c0-0.638-0.51-1.154-1.15-1.154z" fill="url(#linearGradient9)" fill-rule="evenodd"/><rect x="325" y="60" width="3" height="2" rx=".3978" ry=".3978" color="#000000" fill="url(#linearGradient11)"/><path d="m327.7 103.7s20-14 12-16-28.06 7.627-38 7c-10.11-0.638 22.5-9.83 24.77-27.71" fill="none" filter="url(#filter4618-7)" opacity=".4944" stroke="url(#radialGradient4612-0)" stroke-width="2"/><rect x="323.5" y="62.5" width="6" height="5" rx=".1768" ry=".1768" color="#000000" fill="#d3d7cf" stroke="url(#linearGradient12)"/><rect transform="scale(-1)" x="-328.5" y="-66.5" width="4" height="3" rx=".1768" ry=".1768" color="#000000" fill="#888a85" stroke="url(#linearGradient13)"/><path d="m325 63.81c-1.03 8.083-9.29 14.95-16.38 19.75-3.54 2.401-6.67 4.247-8.53 5.718-0.46 0.368-0.85 0.712-1.18 1.125-0.34 0.414-0.74 1.02-0.57 1.907 0.17 0.886 0.92 1.362 1.47 1.562 0.56 0.2 1.11 0.299 1.81 0.344 5.52 0.347 13.01-2.019 20.25-4.094 7.25-2.075 14.34-3.76 17.5-2.969 0.73 0.182 0.75 0.332 0.75 0.344 0 0.01 0 0.304-0.25 0.906-0.56 1.204-2.21 3.148-4.15 4.969-3.89 3.642-8.85 7.095-8.85 7.095l1.72 2.47s5.04-3.519 9.16-7.377c2.06-1.93 3.91-3.892 4.84-5.875 0.47-0.992 0.75-2.114 0.32-3.25-0.44-1.137-1.55-1.87-2.82-2.188-4.83-1.209-11.76 0.918-19.03 3-6.88 1.972-13.91 3.965-18.4 3.938 1.62-1.195 4.33-2.874 7.65-5.125 7.26-4.922 16.44-12.08 17.69-21.88z" color="#000000" fill="url(#linearGradient14)" fill-rule="evenodd" stroke="url(#linearGradient15)" stroke-linejoin="round"/><path transform="scale(-1)" d="m-324.5-64c0 0.1-0.1 0.501-0.17 0.501h-3.64c-0.1 0-0.18-0.08-0.18-0.177v-2.646c0-0.1 0.42-0.177 0.5-0.177" color="#000000" fill="none" stroke="url(#linearGradient13)"/></g></svg>
