<svg width="32" height="32" version="1.1" viewBox="0 0 48 48" xmlns="http://www.w3.org/2000/svg" xmlns:xlink="http://www.w3.org/1999/xlink"><defs><linearGradient id="linearGradient7887" x1="-7.975" x2="-11.01" y1="25.36" y2="-6.568" gradientTransform="matrix(2 0 0 1.933 43.5 .5333)" gradientUnits="userSpaceOnUse"><stop stop-color="#d3d7cf" offset="0"/><stop stop-color="#fff" offset="1"/></linearGradient><linearGradient id="linearGradient7889" x1="-7.852" x2="-5.51" y1="3.755" y2="18.94" gradientUnits="userSpaceOnUse"><stop stop-color="#fff" offset="0"/><stop stop-color="#fff" stop-opacity="0" offset="1"/></linearGradient><filter id="filter5386" x="-.01972" y="-.02176" width="1.039" height="1.044" color-interpolation-filters="sRGB"><feGaussianBlur stdDeviation="0.26293105"/></filter><linearGradient id="linearGradient7893" x1="1.626" x2=".8221" y1="55.22" y2="54.42" gradientUnits="userSpaceOnUse"><stop stop-color="#adb0a8" offset="0"/><stop stop-color="#fff" offset="1"/></linearGradient><linearGradient id="linearGradient7895" x1="-4.221" x2="-4.221" y1="59.88" y2="54.71" gradientTransform="matrix(.9643 0 0 .9722 -.25 1.694)" gradientUnits="userSpaceOnUse" xlink:href="#linearGradient7269-5"/><linearGradient id="linearGradient7269-5"><stop stop-color="#fff" offset="0"/><stop stop-color="#d3d7cf" offset="1"/></linearGradient><linearGradient id="linearGradient7897" x1="-1.989" x2="-3.359" y1="51.14" y2="54" gradientTransform="translate(-4,-24)" gradientUnits="userSpaceOnUse" xlink:href="#linearGradient7822-4"/><linearGradient id="linearGradient7822-4"><stop offset="0"/><stop stop-opacity="0" offset="1"/></linearGradient><linearGradient id="linearGradient7899" x1="-4.685" x2=".8839" y1="52.64" y2="50.56" gradientTransform="translate(-4,-24)" gradientUnits="userSpaceOnUse"><stop stop-color="#eeeeec" offset="0"/><stop stop-color="#babdb6" offset="1"/></linearGradient><linearGradient id="linearGradient7901" x1="-5.082" x2=".2652" y1="50.52" y2="49.46" gradientTransform="translate(-4,-24)" gradientUnits="userSpaceOnUse"><stop stop-color="#eeeeec" offset="0"/><stop stop-color="#fff" offset="1"/></linearGradient><linearGradient id="linearGradient7903" x1="-5.969" x2="-5.969" y1="52.88" y2="51.81" gradientTransform="translate(-4,-24)" gradientUnits="userSpaceOnUse"><stop stop-color="#888a85" offset="0"/><stop stop-color="#fff" offset="1"/></linearGradient><linearGradient id="linearGradient7905" x1="-3.536" x2="-3.536" y1="55.87" y2="59.44" gradientTransform="matrix(1,0,0,1.029,-4,-25.14)" gradientUnits="userSpaceOnUse"><stop stop-color="#555753" offset="0"/><stop stop-color="#d3d7cf" offset="1"/></linearGradient><linearGradient id="linearGradient7921" x1="17.94" x2="23.28" y1="42.91" y2="43.08" gradientUnits="userSpaceOnUse"><stop stop-color="#729fcf" offset="0"/><stop stop-color="#729fcf" stop-opacity="0" offset="1"/></linearGradient><linearGradient id="linearGradient7923" x1="17.83" x2="28.36" y1="40.38" y2="40.87" gradientUnits="userSpaceOnUse"><stop stop-color="#3465a4" offset="0"/><stop stop-color="#3465a4" stop-opacity="0" offset="1"/></linearGradient><linearGradient id="linearGradient7927" x1="-4.11" x2="-4.11" y1="58.81" y2="55" gradientTransform="matrix(1.125,0,0,1.167,15.88,-34.14)" gradientUnits="userSpaceOnUse" xlink:href="#linearGradient7269-5"/><linearGradient id="linearGradient7929" x1="-6.406" x2="-7.781" y1="32.44" y2="34.56" gradientUnits="userSpaceOnUse" xlink:href="#linearGradient7822-4"/><linearGradient id="linearGradient4598"><stop stop-color="#fff" offset="0"/><stop stop-color="#fff" stop-opacity="0" offset="1"/></linearGradient><linearGradient id="linearGradient7652-3"><stop stop-color="#729fcf" offset="0"/><stop stop-color="#729fcf" stop-opacity="0" offset="1"/></linearGradient><linearGradient id="linearGradient7889-3" x1="-7.852" x2="-5.51" y1="3.755" y2="18.94" gradientUnits="userSpaceOnUse"><stop stop-color="#fff" offset="0"/><stop stop-color="#fff" stop-opacity="0" offset="1"/></linearGradient><linearGradient id="linearGradient1643253" x1="-7.975" x2="-11.01" y1="25.36" y2="-6.568" gradientTransform="matrix(2 0 0 1.933 43.5 .5333)" gradientUnits="userSpaceOnUse" xlink:href="#linearGradient7887"/><filter id="filter10631-9-19" x="-.05439" y="-.09755" width="1.109" height="1.195"><feGaussianBlur stdDeviation="0.5906498"/></filter><linearGradient id="linearGradient5911-7-1"><stop stop-color="#f6f6f5" offset="0"/><stop stop-color="#ecece9" offset=".381"/><stop stop-color="#c5c5be" offset=".7619"/><stop stop-color="#fff" offset="1"/></linearGradient><radialGradient id="radialGradient8346" cx="18.25" cy="15.72" r="29.99" gradientTransform="matrix(.4532 0 0 .452 115.9 33.56)" gradientUnits="userSpaceOnUse"><stop stop-color="#d3e9ff" offset="0"/><stop stop-color="#f3f9ff" offset=".1552"/><stop stop-color="#376497" offset=".6311"/><stop stop-color="#273e5d" offset=".8155"/><stop stop-color="#526ea5" offset="1"/></radialGradient><linearGradient id="linearGradient8348" x1="145.2" x2="144.4" y1="-41.41" y2="46.08" gradientTransform="matrix(.08489 0 0 .08523 116.4 34.32)" gradientUnits="userSpaceOnUse"><stop stop-color="#acc5ed" offset="0"/><stop stop-color="#193b6e" offset="1"/></linearGradient><radialGradient id="radialGradient8350" cx="24.88" cy="23" r="19.19" gradientTransform="matrix(1 0 0 .9316 0 1.573)" gradientUnits="userSpaceOnUse" xlink:href="#linearGradient7822-4"/><radialGradient id="radialGradient8380" cx="24.88" cy="23" r="19.19" gradientTransform="matrix(1 0 0 .9316 .6567 2.136)" gradientUnits="userSpaceOnUse" xlink:href="#linearGradient7822-4"/><radialGradient id="radialGradient8410" cx="23.93" cy="14.66" r="19.19" gradientTransform="matrix(1.7 0 0 1.584 -16.91 -7.702)" gradientUnits="userSpaceOnUse"><stop stop-color="#f6f6f5" offset="0"/><stop stop-color="#ecece9" offset=".4992"/><stop stop-color="#9a9a8d" offset=".7619"/><stop stop-color="#fff" offset="1"/></radialGradient><radialGradient id="radialGradient8412" cx="24.14" cy="14.21" r="19.19" gradientTransform="matrix(1.7 0 0 1.584 -16.91 -7.702)" gradientUnits="userSpaceOnUse" xlink:href="#linearGradient5911-7-1"/><radialGradient id="radialGradient8440" cx="24.74" cy="17.35" r="19.19" gradientTransform="matrix(1.381 0 0 1.286 -9.42 -3.294)" gradientUnits="userSpaceOnUse"><stop stop-color="#f6f6f5" offset="0"/><stop stop-color="#ecece9" offset=".538"/><stop stop-color="#97978a" offset=".8543"/><stop stop-color="#fff" offset="1"/></radialGradient><radialGradient id="radialGradient8470" cx="77.56" cy="152.5" r="13.03" gradientTransform="matrix(1.963 0 0 1.094 -74.66 -21.12)" gradientUnits="userSpaceOnUse" xlink:href="#linearGradient4598"/><filter id="filter5386-2" x="-.01972" y="-.02176" width="1.039" height="1.044" color-interpolation-filters="sRGB"><feGaussianBlur stdDeviation="0.26293105"/></filter><linearGradient id="linearGradient1840068" x1="1.626" x2=".8221" y1="55.22" y2="54.42" gradientUnits="userSpaceOnUse" xlink:href="#linearGradient7893"/><linearGradient id="linearGradient1840074" x1="-4.685" x2=".8839" y1="52.64" y2="50.56" gradientTransform="translate(-4,-24)" gradientUnits="userSpaceOnUse" xlink:href="#linearGradient7899"/><linearGradient id="linearGradient1840076" x1="-5.082" x2=".2652" y1="50.52" y2="49.46" gradientTransform="translate(-4,-24)" gradientUnits="userSpaceOnUse" xlink:href="#linearGradient7901"/><linearGradient id="linearGradient1840078" x1="-5.969" x2="-5.969" y1="52.88" y2="51.81" gradientTransform="translate(-4,-24)" gradientUnits="userSpaceOnUse" xlink:href="#linearGradient7903"/><linearGradient id="linearGradient1840080" x1="-3.536" x2="-3.536" y1="55.87" y2="59.44" gradientTransform="matrix(1,0,0,1.029,-4,-25.14)" gradientUnits="userSpaceOnUse" xlink:href="#linearGradient7905"/><linearGradient id="linearGradient1840082" x1="17.94" x2="23.28" y1="42.91" y2="43.08" gradientUnits="userSpaceOnUse" xlink:href="#linearGradient7921"/><linearGradient id="linearGradient1840084" x1="17.83" x2="28.36" y1="40.38" y2="40.87" gradientUnits="userSpaceOnUse" xlink:href="#linearGradient7923"/><linearGradient id="linearGradient7897-3" x1="-1.989" x2="-3.359" y1="51.14" y2="54" gradientTransform="matrix(.9854 0 0 .9854 36.45 -17.05)" gradientUnits="userSpaceOnUse" xlink:href="#linearGradient7822-4"/><linearGradient id="linearGradient7927-4" x1="-4.11" x2="-4.11" y1="58.81" y2="55" gradientTransform="matrix(1.109 0 0 1.15 36.33 -27.04)" gradientUnits="userSpaceOnUse" xlink:href="#linearGradient7269-5"/><linearGradient id="linearGradient7929-6" x1="-6.406" x2="-7.781" y1="32.44" y2="34.56" gradientTransform="matrix(.9854 0 0 .9854 40.39 6.598)" gradientUnits="userSpaceOnUse" xlink:href="#linearGradient7822-4"/><linearGradient id="linearGradient6175" x1="22.36" x2="28.25" y1="11.89" y2="11.89" gradientUnits="userSpaceOnUse" xlink:href="#linearGradient7652-3"/><linearGradient id="linearGradient6239" x1="22.69" x2="27.97" y1="11.85" y2="11.85" gradientUnits="userSpaceOnUse" xlink:href="#linearGradient4598"/><linearGradient id="linearGradient1840068-3" x1="1.626" x2=".8221" y1="55.22" y2="54.42" gradientTransform="matrix(1.15 0 0 1.182 36.61 -29.07)" gradientUnits="userSpaceOnUse" xlink:href="#linearGradient7893"/><linearGradient id="linearGradient1840074-3" x1="-4.685" x2=".8839" y1="52.64" y2="50.56" gradientTransform="matrix(.9854 0 0 .9854 36.45 -17.05)" gradientUnits="userSpaceOnUse" xlink:href="#linearGradient7899"/><linearGradient id="linearGradient1840076-3" x1="-5.082" x2=".2652" y1="50.52" y2="49.46" gradientTransform="matrix(.9854 0 0 .9854 36.45 -17.05)" gradientUnits="userSpaceOnUse" xlink:href="#linearGradient7901"/><linearGradient id="linearGradient1840078-3" x1="-5.969" x2="-5.969" y1="52.88" y2="51.81" gradientTransform="matrix(.9854 0 0 .9854 36.45 -17.05)" gradientUnits="userSpaceOnUse" xlink:href="#linearGradient7903"/><linearGradient id="linearGradient1840080-3" x1="-3.536" x2="-3.536" y1="55.87" y2="59.44" gradientTransform="matrix(.9854 0 0 1.014 36.45 -18.17)" gradientUnits="userSpaceOnUse" xlink:href="#linearGradient7905"/><linearGradient id="linearGradient1840082-2" x1="17.94" x2="23.28" y1="42.91" y2="43.08" gradientTransform="matrix(.9854 0 0 .9854 20.68 6.598)" gradientUnits="userSpaceOnUse" xlink:href="#linearGradient7921"/><linearGradient id="linearGradient1840084-9" x1="17.83" x2="28.36" y1="40.38" y2="40.87" gradientTransform="matrix(.9854 0 0 .9854 20.68 6.598)" gradientUnits="userSpaceOnUse" xlink:href="#linearGradient7923"/><linearGradient id="linearGradient9265" x1="-4.221" x2="-4.221" y1="59.88" y2="54.71" gradientTransform="matrix(1.109 0 0 1.15 36.33 -27.07)" gradientUnits="userSpaceOnUse" xlink:href="#linearGradient7269-5"/></defs><clipPath id="b"><rect x="68.78" y="-.0933" width="58.26" height="58.26" rx="2.648"/></clipPath><filter id="c" x="-.021" y="-.021" width="1.042" height="1.042" color-interpolation-filters="sRGB"><feGaussianBlur stdDeviation=".28282197"/></filter><clipPath id="h"><path d="m-6.562 24.53c-0.3877 0-0.6917 0.219-0.9062 0.469l-0.031-0.03-0.031 0.06-0.3438 0.313-4.25 1.218c-0.03 0-0.06 0.02-0.09 0.03-0.549 0.274-0.902 0.554-1.094 0.937-0.192 0.384-0.116 0.867 0.125 1.156 0.329 0.394 0.858 0.553 1.407 0.657l-0.407 0.437c-0.06 0.05-0.1 0.116-0.125 0.188-0.03 0.121-0.07 0.316-0.125 0.5-0.02 0.04-0.03 0.08-0.03 0.125v6.656c0 0.299 0.113 0.582 0.313 0.813 0.199 0.23 0.511 0.406 0.875 0.406h7.843c0.3236 0 0.6569-0.116 0.9063-0.375l4.651-4.81c0.2259-0.235 0.3437-0.539 0.3437-0.875v-6.625c0-0.335-0.1178-0.64-0.3437-0.875-0.2227-0.229-0.5504-0.375-0.874-0.375z"/></clipPath><filter id="i" x="-.03844" y="-.04352" width="1.077" height="1.087" color-interpolation-filters="sRGB"><feGaussianBlur stdDeviation=".1491362"/></filter><filter id="p" x="-.02026" y="-.02354" width="1.04" height="1.047" color-interpolation-filters="sRGB"><feGaussianBlur stdDeviation=".071069152"/></filter><filter id="x" x="-.03625" y="-.04222" width="1.071" height="1.083" color-interpolation-filters="sRGB"><feGaussianBlur stdDeviation=".16679387"/></filter><clipPath id="A"><path d="m-95.3 143.8s-4.189 3.27-8.1 6.5c-1.95 1.62-3.69 3.22-4.72 4.78-0.51 0.78-0.98 1.62-0.65 2.78 0.16 0.58 0.61 1.12 1.09 1.41 0.48 0.28 0.96 0.4 1.5 0.47 2.13 0.24 4.73-0.4 7.849-1.28 3.113-0.89 6.669-2.09 10.25-3.25 3.581-1.17 7.196-2.31 10.34-3 3.147-0.7 5.835-0.89 7.375-0.5 0.729 0.18 0.745 0.3 0.75 0.31 0 0 0.06 0.33-0.219 0.94-0.567 1.2-2.245 3.11-4.187 4.93-3.885 3.64-8.844 7.13-8.844 7.13l1.75 2.44s5.041-3.52 9.156-7.38c2.058-1.93 3.879-3.89 4.813-5.87 0.466-1 0.776-2.12 0.343-3.25-0.433-1.14-1.541-1.87-2.812-2.19-2.46-0.62-5.444-0.21-8.781 0.53-3.337 0.73-7.019 1.85-10.62 3.03-3.607 1.18-7.129 2.4-10.12 3.25-2.913 0.83-5.293 1.22-6.473 1.13 0.62-0.95 2.3-2.56 4.16-4.1 3.721-3.08 7.969-6.37 7.969-6.37z"/></clipPath><mask id="B" maskUnits="userSpaceOnUse"><rect x="-115.6" y="147" width="51.28" height="17.34" rx=".6657" fill="url(#C)" fill-rule="evenodd" stroke-width="2"/></mask><linearGradient id="C" x1="-112.3" x2="-112.3" y1="148.9" y2="164.5" gradientUnits="userSpaceOnUse"><stop offset="0"/><stop stop-color="#fff" offset=".2177"/><stop stop-color="#fff" offset=".7659"/><stop offset="1"/></linearGradient><filter id="D" x="-.0125" y="-.04971" width="1.026" height="1.099" color-interpolation-filters="sRGB"><feGaussianBlur stdDeviation="0.001 0.244"/></filter><filter id="H" x="-.395" y="-.5737" width="1.79" height="2.147" color-interpolation-filters="sRGB"><feGaussianBlur stdDeviation="2.8946329"/></filter><rect x="22.65" y="10.74" width="5.314" height="2.304" fill="url(#linearGradient6175)" opacity=".7" stroke="#3364a3" stroke-width=".5772"/><path d="m22.7 11.88 5.271-0.04727" fill="none" opacity=".19" stroke="url(#linearGradient6239)" stroke-width=".795"/><g transform="rotate(-90 37.29 12.78)"><rect x="22.65" y="10.74" width="5.314" height="2.304" fill="url(#linearGradient6175)" opacity=".7" stroke="#3364a3" stroke-width=".5772"/><path d="m22.7 11.88 5.271-0.04727" fill="none" opacity=".19" stroke="url(#linearGradient6239)" stroke-width=".795"/></g><g transform="matrix(.6351 0 0 .6351 16.55 26.45)" enable-background="new"><rect x="14.5" y="1.5" width="32" height="29" rx="2.877" ry="2.781" fill="url(#linearGradient1643253)" fill-rule="evenodd" stroke="#888a85" stroke-dashoffset=".7" stroke-linecap="round" stroke-linejoin="round" stroke-opacity=".9924"/><path transform="matrix(2.143 0 0 2.087 44.43 -.6302)" d="m-12.5 1.498c-0.573 0-1.002 0.429-1.002 1.002v11c0 0.573 0.429 1.002 1.002 1.002h12c0.573 0 1.002-0.429 1.002-1.002v-11c0-0.573-0.429-1.002-1.002-1.002z" fill="none" stroke="url(#linearGradient7889-3)" stroke-dashoffset=".7" stroke-linecap="round" stroke-linejoin="round" stroke-opacity=".9924" stroke-width=".4729"/><rect transform="matrix(1.016 0 0 1.016 -.49 -.2715)" x="15.38" y="2.875" width="32" height="29" rx="3.723" ry="3.723" fill-rule="evenodd" filter="url(#filter5386-2)" opacity=".1205"/></g><g transform="matrix(.6351 0 0 .6351 -6.855 1.584)" enable-background="new"><rect x="14.5" y="1.5" width="32" height="29" rx="2.877" ry="2.781" fill="url(#linearGradient1643253)" fill-rule="evenodd" stroke="#888a85" stroke-dashoffset=".7" stroke-linecap="round" stroke-linejoin="round" stroke-opacity=".9924"/><path transform="matrix(2.143 0 0 2.087 44.43 -.6302)" d="m-12.5 1.498c-0.573 0-1.002 0.429-1.002 1.002v11c0 0.573 0.429 1.002 1.002 1.002h12c0.573 0 1.002-0.429 1.002-1.002v-11c0-0.573-0.429-1.002-1.002-1.002z" fill="none" stroke="url(#linearGradient7889)" stroke-dashoffset=".7" stroke-linecap="round" stroke-linejoin="round" stroke-opacity=".9924" stroke-width=".4729"/><rect transform="matrix(1.016 0 0 1.016 -.49 -.2715)" x="15.38" y="2.875" width="32" height="29" rx="3.723" ry="3.723" fill-rule="evenodd" filter="url(#filter5386)" opacity=".1205"/></g><g transform="matrix(1.202 0 0 1.202 -349.5 -160.4)"><g transform="matrix(.7892 0 0 .7892 220.7 108.9)"><path d="m136.8 44.46c0 5.239-4.259 9.486-9.512 9.486-5.253 0-9.512-4.247-9.512-9.486 0-5.238 4.259-9.485 9.512-9.485 5.253 0 9.512 4.246 9.512 9.485z" fill="url(#radialGradient8346)" stroke="url(#linearGradient8348)" stroke-width="1.463"/><g transform="matrix(.4517 0 0 .4516 115.8 33.87)" fill="url(#radialGradient8350)"><g fill="url(#radialGradient8350)"><path d="m44.07 20.71v0l-0.5449 0.6172c-0.334-0.3936-0.709-0.7246-1.09-1.07l-0.8359 0.123-0.7637-0.8633v1.068l0.6543 0.4951 0.4355 0.4932 0.582-0.6582c0.1465 0.2744 0.291 0.5488 0.4365 0.8232v0.8223l-0.6553 0.7402-1.199 0.8232-0.9082 0.9063-0.582-0.6602 0.291-0.7402-0.5811-0.6582-0.9814-2.098-0.8359-0.9453-0.2188 0.2461 0.3281 1.193 0.6172 0.6992c0.3525 1.018 0.7012 1.99 1.164 2.963 0.7178 0 1.394-0.0762 2.107-0.166v0.5762l-0.8721 2.139-0.7998 0.9043-0.6543 1.4v2.303l0.2188 0.9063-0.3633 0.4102-0.8008 0.4941-0.8359 0.6992 0.6914 0.7813-0.9453 0.8242 0.1816 0.5332-1.418 1.606h-0.9443l-0.7998 0.4941h-0.5098v-0.6582l-0.2168-1.318c-0.2813-0.8262-0.5742-1.646-0.8721-2.467 0-0.6055 0.0361-1.205 0.0723-1.81l0.3643-0.8223-0.5098-0.9883 0.0371-1.357-0.6914-0.7813 0.3457-1.131-0.5625-0.6382h-0.9824l-0.3271-0.3701-0.9814 0.6177-0.3994-0.4536-0.9092 0.7817c-0.6172-0.6997-1.235-1.399-1.854-2.098l-0.7266-1.728 0.6543-0.9863-0.3633-0.4111 0.7988-1.894c0.6563-0.8164 1.342-1.6 2.035-2.386l1.236-0.3291 1.381-0.1641 0.9453 0.2471 1.345 1.356 0.4727-0.5342 0.6533-0.082 1.236 0.4111h0.9453l0.6543-0.5762 0.291-0.4111-0.6553-0.4111-1.091-0.082c-0.3027-0.4199-0.584-0.8613-0.9434-1.234l-0.3643 0.1641-0.1455 1.07-0.6543-0.7402-0.1445-0.8242-0.7266-0.5742h-0.292l0.7275 0.8223-0.291 0.7402-0.5811 0.1641 0.3633-0.7402-0.6553-0.3281-0.5801-0.6582-1.092 0.2461-0.1445 0.3281-0.6543 0.4121-0.3633 0.9053-0.9082 0.4521-0.4004-0.4521h-0.4355v-1.481l0.9453-0.4941h0.7266l-0.1465-0.5752-0.5801-0.5762 0.9805-0.2061 0.5449-0.6162 0.4355-0.7412h0.8008l-0.2188-0.5752 0.5098-0.3291v0.6582l1.09 0.2461 1.09-0.9043 0.0732-0.4121 0.9443-0.6577c-0.3418 0.0425-0.6836 0.0737-1.018 0.1646v-0.7411l0.3633-0.8228h-0.3633l-0.7984 0.7402-0.2188 0.4116 0.2188 0.5767-0.3643 0.9863-0.5811-0.3291-0.5078-0.5752-0.8008 0.5752-0.291-1.316 1.381-0.9048v-0.4941l0.873-0.5757 1.381-0.3296 0.9453 0.3296 1.744 0.3291-0.4355 0.4932h-0.9453l0.9453 0.9873 0.7266-0.8223 0.2207-0.3618s2.787 2.498 4.38 5.23c1.593 2.733 2.341 5.955 2.341 6.609z"/><path d="m26.07 9.236-0.0732 0.4932 0.5098 0.3291 0.8711-0.5757-0.4355-0.4937-0.582 0.3296-0.29-0.0825"/><path d="m26.87 5.863-1.891-0.7407-2.18 0.2466-2.69 0.7402-0.5088 0.4941 1.672 1.151v0.6582l-0.6543 0.6582 0.873 1.729 0.5801-0.3301 0.7285-1.151c1.123-0.3472 2.13-0.7407 3.197-1.234l0.873-2.221"/><path d="m28.83 12.77-0.291-0.7412-0.5098 0.165 0.1465 0.9043 0.6543-0.3281"/><path d="m29.12 12.61-0.1455 0.9883 0.7998-0.165 0.5811-0.5752-0.5088-0.4941c-0.1709-0.4551-0.3672-0.8799-0.5811-1.316h-0.4355v0.4932l0.29 0.3291v0.7402"/></g><path d="m19.02 28.81-0.582-1.152-1.09-0.2466-0.5815-1.562-1.454 0.1641-1.235-0.9043-1.309 1.151v0.1816c-0.396-0.1143-0.8828-0.1299-1.235-0.3467l-0.291-0.8223v-0.9053l-0.8721 0.082c0.0728-0.5762 0.145-1.151 0.2183-1.728h-0.5093l-0.5083 0.6582-0.5093 0.2461-0.7271-0.4102-0.0728-0.9053 0.1455-0.9873 1.091-0.8223h0.8721l0.145-0.4941 1.09 0.2461 0.7998 0.9883 0.1455-1.646 1.381-1.151 0.5088-1.234 1.018-0.4111 0.5815-0.8223 1.308-0.248 0.6548-0.9863h-1.963l1.236-0.5762h0.8716l1.236-0.4121 0.1455-0.4922-0.4365-0.4121-0.5088-0.165 0.1455-0.4932-0.3633-0.7402-0.8726 0.3281 0.1455-0.6577-1.018-0.5762-0.7993 1.398 0.0723 0.4941-0.7993 0.3301-0.5093 1.069-0.2178-0.9873-1.381-0.5762-0.2183-0.7402 1.817-1.07 0.7998-0.7402 0.0728-0.9048-0.436-0.2471-0.5815-0.0825-0.3633 0.9053s-0.6079 0.1191-0.7642 0.1577c-1.996 1.839-6.029 5.81-6.966 13.31 0.0371 0.1738 0.6792 1.182 0.6792 1.182l1.526 0.9043 1.526 0.4121 0.6548 0.8232 1.017 0.7402 0.5815-0.082 0.436 0.1963v0.1328l-0.5811 1.563-0.4365 0.6582 0.1455 0.3301-0.3633 1.232 1.309 2.387 1.308 1.152 0.582 0.8223-0.0732 1.728 0.4365 0.9863-0.4365 1.893s-0.0342-0.0117 0.0215 0.1777c0.0562 0.1895 2.329 1.451 2.474 1.344 0.144-0.1094 0.2671-0.2051 0.2671-0.2051l-0.145-0.4102 0.5811-0.5762 0.2183-0.5762 0.9453-0.3301 0.7266-1.81-0.2178-0.4922 0.5078-0.7402 1.091-0.248 0.582-1.316-0.1455-1.644 0.8721-1.234 0.1455-1.234c-1.193-0.5918-2.377-1.201-3.562-1.81" fill="url(#radialGradient8380)"/><g fill="url(#radialGradient8350)"><path d="m16.77 9.565 0.7266 0.4937h0.582v-0.5757l-0.7266-0.3291-0.582 0.4111"/><path d="m14.88 8.907-0.3638 0.9048h0.7271l0.3638-0.8228c0.3135-0.2217 0.6255-0.4448 0.9448-0.6582l0.7271 0.2471c0.4844 0.3291 0.9688 0.6582 1.454 0.9868l0.7275-0.6577-0.8003-0.3291-0.3638-0.7407-1.381-0.1646-0.0728-0.4116-0.6543 0.165-0.2904 0.5758-0.3638-0.7407-0.145 0.3291 0.0728 0.8228-0.5816 0.494"/><path d="m17.49 6.85 0.3638-0.3286 0.7271-0.1646c0.498-0.2422 0.998-0.4053 1.526-0.5762l-0.29-0.4937-0.9385 0.1348-0.4434 0.4419-0.731 0.106-0.6499 0.3052-0.3159 0.1528-0.1929 0.2583 0.9443 0.1641"/><path d="m18.73 14.67 0.4365-0.6582-0.6548-0.4932 0.2183 1.151"/></g></g><g transform="matrix(.4675 0 0 .4673 115.5 33.35)" fill="url(#radialGradient8412)"><path d="m44.07 20.71v0l-0.5449 0.6172c-0.334-0.3936-0.709-0.7246-1.09-1.07l-0.8359 0.123-0.7637-0.8633v1.068l0.6543 0.4951 0.4355 0.4932 0.582-0.6582c0.1465 0.2744 0.291 0.5488 0.4365 0.8232v0.8223l-0.6553 0.7402-1.199 0.8232-0.9082 0.9063-0.582-0.6602 0.291-0.7402-0.5811-0.6582-0.9814-2.098-0.8359-0.9453-0.2188 0.2461 0.3281 1.193 0.6172 0.6992c0.3525 1.018 0.7012 1.99 1.164 2.963 0.7178 0 1.394-0.0762 2.107-0.166v0.5762l-0.8721 2.139-0.7998 0.9043-0.6543 1.4v2.303l0.2188 0.9063-0.3633 0.4102-0.8008 0.4941-0.8359 0.6992 0.6914 0.7813-0.9453 0.8242 0.1816 0.5332-1.418 1.606h-0.9443l-0.7998 0.4941h-0.5098v-0.6582l-0.2168-1.318c-0.2813-0.8262-0.5742-1.646-0.8721-2.467 0-0.6055 0.0361-1.205 0.0723-1.81l0.3643-0.8223-0.5098-0.9883 0.0371-1.357-0.6914-0.7813 0.3457-1.131-0.5625-0.6382h-0.9824l-0.3271-0.3701-0.9814 0.6177-0.3994-0.4536-0.9092 0.7817c-0.6172-0.6997-1.235-1.399-1.854-2.098l-0.7266-1.728 0.6543-0.9863-0.3633-0.4111 0.7988-1.894c0.6563-0.8164 1.342-1.6 2.035-2.386l1.236-0.3291 1.381-0.1641 0.9453 0.2471 1.345 1.356 0.4727-0.5342 0.6533-0.082 1.236 0.4111h0.9453l0.6543-0.5762 0.291-0.4111-0.6553-0.4111-1.091-0.082c-0.3027-0.4199-0.584-0.8613-0.9434-1.234l-0.3643 0.1641-0.1455 1.07-0.6543-0.7402-0.1445-0.8242-0.7266-0.5742h-0.292l0.7275 0.8223-0.291 0.7402-0.5811 0.1641 0.3633-0.7402-0.6553-0.3281-0.5801-0.6582-1.092 0.2461-0.1445 0.3281-0.6543 0.4121-0.3633 0.9053-0.9082 0.4521-0.4004-0.4521h-0.4355v-1.481l0.9453-0.4941h0.7266l-0.1465-0.5752-0.5801-0.5762 0.9805-0.2061 0.5449-0.6162 0.4355-0.7412h0.8008l-0.2188-0.5752 0.5098-0.3291v0.6582l1.09 0.2461 1.09-0.9043 0.0732-0.4121 0.9443-0.6577c-0.3418 0.0425-0.6836 0.0737-1.018 0.1646v-0.7411l0.3633-0.8228h-0.3633l-0.7984 0.7402-0.2188 0.4116 0.2188 0.5767-0.3643 0.9863-0.5811-0.3291-0.5078-0.5752-0.8008 0.5752-0.291-1.316 1.381-0.9048v-0.4941l0.873-0.5757 1.381-0.3296 0.9453 0.3296 1.744 0.3291-0.4355 0.4932h-0.9453l0.9453 0.9873 0.7266-0.8223 0.2207-0.3618s2.787 2.498 4.38 5.23c1.593 2.733 2.341 5.955 2.341 6.609z" fill="url(#radialGradient8410)"/><g fill="url(#radialGradient8412)"><path d="m26.07 9.236-0.0732 0.4932 0.5098 0.3291 0.8711-0.5757-0.4355-0.4937-0.582 0.3296-0.29-0.0825"/><path d="m26.87 5.863-1.891-0.7407-2.18 0.2466-2.69 0.7402-0.5088 0.4941 1.672 1.151v0.6582l-0.6543 0.6582 0.873 1.729 0.5801-0.3301 0.7285-1.151c1.123-0.3472 2.13-0.7407 3.197-1.234l0.873-2.221"/><path d="m28.83 12.77-0.291-0.7412-0.5098 0.165 0.1465 0.9043 0.6543-0.3281"/><path d="m29.12 12.61-0.1455 0.9883 0.7998-0.165 0.5811-0.5752-0.5088-0.4941c-0.1709-0.4551-0.3672-0.8799-0.5811-1.316h-0.4355v0.4932l0.29 0.3291v0.7402"/></g><path d="m18.37 28.24-0.582-1.152-1.09-0.2466-0.5815-1.562-1.454 0.1641-1.235-0.9043-1.309 1.151v0.1816c-0.396-0.1143-0.8828-0.1299-1.235-0.3467l-0.291-0.8223v-0.9053l-0.8721 0.082c0.0728-0.5762 0.145-1.151 0.2183-1.728h-0.5093l-0.5083 0.6582-0.5093 0.2461-0.7271-0.4102-0.0728-0.9053 0.1455-0.9873 1.091-0.8223h0.8721l0.145-0.4941 1.09 0.2461 0.7998 0.9883 0.1455-1.646 1.381-1.151 0.5088-1.234 1.018-0.4111 0.5815-0.8223 1.308-0.248 0.6548-0.9863h-1.963l1.236-0.5762h0.8716l1.236-0.4121 0.1455-0.4922-0.4365-0.4121-0.5088-0.165 0.1455-0.4932-0.3633-0.7402-0.8726 0.3281 0.1455-0.6577-1.018-0.5762-0.7993 1.398 0.0723 0.4941-0.7993 0.3301-0.5093 1.069-0.2178-0.9873-1.381-0.5762-0.2183-0.7402 1.817-1.07 0.7998-0.7402 0.0728-0.9048-0.436-0.2471-0.5815-0.0825-0.3633 0.9053s-0.6079 0.1191-0.7642 0.1577c-1.996 1.839-6.029 5.81-6.966 13.31 0.0371 0.1738 0.6792 1.182 0.6792 1.182l1.526 0.9043 1.526 0.4121 0.6548 0.8232 1.017 0.7402 0.5815-0.082 0.436 0.1963v0.1328l-0.5811 1.563-0.4365 0.6582 0.1455 0.3301-0.3633 1.232 1.309 2.387 1.308 1.152 0.582 0.8223-0.0732 1.728 0.4365 0.9863-0.4365 1.893s-0.0342-0.0117 0.0215 0.1777c0.0562 0.1895 2.329 1.451 2.474 1.344 0.144-0.1094 0.2671-0.2051 0.2671-0.2051l-0.145-0.4102 0.5811-0.5762 0.2183-0.5762 0.9453-0.3301 0.7266-1.81-0.2178-0.4922 0.5078-0.7402 1.091-0.248 0.582-1.316-0.1455-1.644 0.8721-1.234 0.1455-1.234c-1.193-0.5918-2.377-1.201-3.562-1.81" fill="url(#radialGradient8440)"/><g fill="url(#radialGradient8412)"><path d="m16.77 9.565 0.7266 0.4937h0.582v-0.5757l-0.7266-0.3291-0.582 0.4111"/><path d="m14.88 8.907-0.3638 0.9048h0.7271l0.3638-0.8228c0.3135-0.2217 0.6255-0.4448 0.9448-0.6582l0.7271 0.2471c0.4844 0.3291 0.9688 0.6582 1.454 0.9868l0.7275-0.6577-0.8003-0.3291-0.3638-0.7407-1.381-0.1646-0.0728-0.4116-0.6543 0.165-0.2904 0.5758-0.3638-0.7407-0.145 0.3291 0.0728 0.8228-0.5816 0.494"/><path d="m17.49 6.85 0.3638-0.3286 0.7271-0.1646c0.498-0.2422 0.998-0.4053 1.526-0.5762l-0.29-0.4937-0.9385 0.1348-0.4434 0.4419-0.731 0.106-0.6499 0.3052-0.3159 0.1528-0.1929 0.2583 0.9443 0.1641"/><path d="m18.73 14.67 0.4365-0.6582-0.6548-0.4932 0.2183 1.151"/></g></g><circle transform="matrix(.6004 0 0 .6004 12.08 -70.07)" cx="191.9" cy="190.8" r="13.88" fill="none" opacity=".5351" stroke="#fff" stroke-width="2.265"/><path transform="matrix(.6781 0 0 .6781 74.68 -44.71)" d="m64.62 130c-0.05592 0.4898-0.09375 0.9954-0.09375 1.5 0 7.193 5.838 13.03 13.03 13.03 7.193 0 13.03-5.838 13.03-13.03 0-0.5048-0.0378-1.01-0.09375-1.5-0.7534 6.478-6.259 11.53-12.94 11.53-6.679 0-12.18-5.053-12.94-11.53z" fill="url(#radialGradient8470)" fill-rule="evenodd" filter="url(#filter10631-9-19)" opacity=".5351"/></g></g><g transform="matrix(.7597 0 0 .7597 -5.673 -7.451)"><g transform="matrix(1.297 0 0 1.297 3.67 -14.65)"><g transform="translate(20)"><g fill-rule="evenodd"><g transform="matrix(1.167,0,0,1.2,-3.833,-36.2)"><path d="m-2.344 51c-0.2048 0-0.3812 0.101-0.5 0.25l-4.016 4c-0.035 0.132-0.099 0.271-0.1406 0.406v5.521c0 0.364 0.2965 0.656 0.6563 0.656h6.687c0.1799 0 0.3514-0.07 0.4688-0.187l4-4c0.1174-0.119 0.1875-0.287 0.1875-0.469v-5.521c0-0.182-0.0701-0.35-0.1875-0.468-0.1191-0.119-0.2889-0.188-0.4688-0.188z" fill="url(#linearGradient1840068)"/><path d="m-6.374 55.17h6.462c0.3469 0 0.6262 0.284 0.6262 0.638v5.39c0 0.354-0.2793 0.638-0.6262 0.638h-6.462c-0.3468 0-0.6261-0.284-0.6261-0.638v-5.39c0-0.354 0.2793-0.638 0.6261-0.638z" fill="url(#linearGradient7895)"/></g><path d="m-5 25-5 5h4l5-5h-4" fill="url(#linearGradient7897)" opacity=".1231"/><path d="m-1 25-9.5 4h3.5l5-3 1-1" fill="#babdb6"/></g><path d="m-6.562 25.5c-0.024 0-0.055 0-0.1562 0.125-0.03 0.02-0.061 0.04-0.094 0.06-0.02 0.02-0.041 0.04-0.062 0.06-0.02 0.02-0.041 0.04-0.062 0.06h-0.031c-0.02 0.02-0.041 0.04-0.062 0.06l-0.1875 0.187c-0.1069 0.101-0.2351 0.176-0.375 0.219l-4.252 1.229c-0.4 0.208-0.534 0.349-0.594 0.469 0 0 0.04 0.134 0 0.09 0.08 0.1 0.361 0.253 0.844 0.344 0.34 0.07 0.617 0.314 0.727 0.643s0.04 0.692-0.196 0.951l-0.343 0.375c-0.02 0.09-0.05 0.17-0.09 0.312v6.56c0 0.05 0 0.116 0.06 0.188 0.03 0.04 0.104 0.06 0.157 0.06h7.844c0.093 0 0.1684-0.01 0.2188-0.06-2e-4 -0.01-2e-4 -0.02 0-0.03l4.654-4.808c0.0522-0.054 0.0625-0.079 0.0625-0.188v-6.625c0-0.108-0.01-0.164-0.062-0.219-0.0373-0.037-0.1555-0.062-0.188-0.062z" fill="none" opacity=".5336" stroke="#fff" stroke-dashoffset=".7" stroke-linecap="round" stroke-linejoin="round"/><path d="m-6.562 24.53c-0.3877 0-0.6917 0.219-0.9062 0.469l-0.031-0.03-0.031 0.06-0.3438 0.313-4.25 1.218c-0.03 0-0.06 0.02-0.09 0.03-0.549 0.274-0.902 0.554-1.094 0.937-0.192 0.384-0.116 0.867 0.125 1.156 0.329 0.394 0.858 0.553 1.407 0.657l-0.407 0.437c-0.06 0.05-0.1 0.116-0.125 0.188-0.03 0.121-0.07 0.316-0.125 0.5-0.02 0.04-0.03 0.08-0.03 0.125v6.656c0 0.299 0.113 0.582 0.313 0.813 0.199 0.23 0.511 0.406 0.875 0.406h7.843c0.3236 0 0.6569-0.116 0.9063-0.375l4.651-4.81c0.2259-0.235 0.3437-0.539 0.3437-0.875v-6.625c0-0.335-0.1178-0.64-0.3437-0.875-0.2227-0.229-0.5504-0.375-0.874-0.375z" fill="none" stroke="#555753" stroke-dashoffset=".7" stroke-linecap="round" stroke-linejoin="round"/><g fill-rule="evenodd"><path d="m-1 25-11 2.5 2 1.5h3l5-3 1-1" fill="url(#linearGradient1840074)"/><path d="m-5 25-7 2h4l7-2h-4" fill="url(#linearGradient1840076)"/><path d="m-12 27h4c-2 1-0.5 2 1 2h-4c-1.5 0-3-1-1-2z" fill="url(#linearGradient1840078)"/><path d="m-9.594 32h4.188c0.2248 0 0.4058 0.195 0.4058 0.438v3.125c0 0.242-0.181 0.437-0.4058 0.437h-4.188c-0.2248 0-0.4058-0.195-0.4058-0.437v-3.125c0-0.243 0.181-0.438 0.4058-0.438z" fill="url(#linearGradient1840080)"/></g></g><path d="m14.69 30.56s-1.275 1.415-5.957 4.73c-4.362 2.84-23.02 3.977-24.04 5.537-0.511 0.78-0.987 1.623-0.656 2.781 0.165 0.579 0.608 1.686 1.093 1.406 1.832-1.057 1.547-1.056 2.929-2.438 0.6199-0.948 18.84-1.469 22.78-5.053 4.234-3.074 5.667-4.529 5.667-4.529z" fill="url(#linearGradient1840082)" fill-rule="evenodd" stroke="url(#linearGradient1840084)" stroke-linejoin="round"/><path d="m15.67 31.27s-18.44 12.69-11.94 13.44-14.09 7.825-6.088 9.825" fill="none" opacity=".1903" stroke-opacity="0"/><path d="m10.09 30.03 0.317 2h4.188c0.225 0 0.406 0.195 0.406 0.438v3.125l2-0.313v-4.469c0-0.424-0.314-0.781-0.719-0.781z" fill="url(#linearGradient7927)" fill-rule="evenodd"/><path transform="translate(20)" d="m-9.594 32h4.188c0.2248 0 0.4058 0.195 0.4058 0.438v3.125c0 0.242-0.181 0.437-0.4058 0.437h-4.188c-0.2248 0-0.4058-0.195-0.4058-0.437v-3.125c0-0.243 0.181-0.438 0.4058-0.438z" fill="url(#linearGradient7929)" fill-rule="evenodd" opacity=".3545"/></g></g><g fill-rule="evenodd"><path d="m33.92 31.23c-0.2355 0-0.4384 0.1194-0.575 0.2956l-4.618 4.73c-0.04025 0.1561-0.1138 0.3204-0.1617 0.4801v6.528c0 0.4304 0.341 0.7757 0.7547 0.7757h7.69c0.2069 0 0.4041-0.08277 0.5391-0.2211l4.6-4.73c0.135-0.1407 0.2156-0.3394 0.2156-0.5546v-6.528c0-0.2152-0.08061-0.4139-0.2156-0.5534-0.137-0.1407-0.3322-0.2223-0.5391-0.2223z" fill="url(#linearGradient1840068-3)" stroke-width="1.166"/><path d="m29.28 36.16h7.431c0.3989 0 0.7201 0.3358 0.7201 0.7544v6.373c0 0.4186-0.3212 0.7544-0.7201 0.7544h-7.431c-0.3988 0-0.72-0.3358-0.72-0.7544v-6.373c0-0.4186 0.3212-0.7544 0.72-0.7544z" fill="url(#linearGradient9265)" stroke-width="1.166"/><path d="m35.46 31.23-4.927 4.927h3.941l4.927-4.927h-3.941" fill="url(#linearGradient7897-3)" opacity=".1231" stroke-width=".9854"/><path d="m39.41 31.23-9.361 3.941h3.449l4.927-2.956 0.9854-0.9854" fill="#babdb6" stroke-width=".9854"/></g><path d="m33.92 31.72c-0.02365 0-0.0542 0-0.1539 0.1232-0.02956 0.01971-0.06011 0.03941-0.09262 0.05912-0.01971 0.01971-0.0404 0.03942-0.06109 0.05912-0.01971 0.01971-0.0404 0.03942-0.06109 0.05912h-0.03055c-0.01971 0.01971-0.0404 0.03941-0.06109 0.05912l-0.1848 0.1843c-0.1053 0.09952-0.2317 0.1734-0.3695 0.2158l-4.19 1.211c-0.3941 0.205-0.5262 0.3439-0.5853 0.4621 0 0 0.03941 0.132 0 0.08868 0.07883 0.09854 0.3557 0.2493 0.8317 0.339 0.335 0.06898 0.608 0.3094 0.7164 0.6336 0.1084 0.3242 0.03942 0.6819-0.1931 0.9371l-0.338 0.3695c-0.01971 0.08868-0.04927 0.1675-0.08868 0.3074v6.464c0 0.04927 0 0.1143 0.05912 0.1852 0.02956 0.03941 0.1025 0.05912 0.1547 0.05912h7.729c0.09164 0 0.1659-0.0099 0.2156-0.05912-1.97e-4 -0.0099-1.97e-4 -0.01971 0-0.02956l4.586-4.738c0.05144-0.05321 0.06159-0.07784 0.06159-0.1852v-6.528c0-0.1064-0.0099-0.1616-0.06109-0.2158-0.03675-0.03646-0.1532-0.06109-0.1852-0.06109z" fill="none" opacity=".5336" stroke="#fff" stroke-dashoffset=".7" stroke-linecap="round" stroke-linejoin="round" stroke-width=".9854"/><path d="m33.92 30.77c-0.382 0-0.6816 0.2158-0.8929 0.4621l-0.03055-0.02956-0.03055 0.05912-0.3388 0.3084-4.188 1.2c-0.02956 0-0.05912 0.01971-0.08868 0.02956-0.541 0.27-0.8888 0.5459-1.078 0.9233-0.1892 0.3784-0.1143 0.8543 0.1232 1.139 0.3242 0.3882 0.8454 0.5449 1.386 0.6474l-0.401 0.4306c-0.05912 0.04927-0.09854 0.1143-0.1232 0.1852-0.02956 0.1192-0.06898 0.3114-0.1232 0.4927-0.01971 0.03941-0.02956 0.07883-0.02956 0.1232v6.559c0 0.2946 0.1113 0.5735 0.3084 0.8011 0.1961 0.2266 0.5035 0.4001 0.8622 0.4001h7.728c0.3189 0 0.6473-0.1143 0.893-0.3695l4.583-4.74c0.2226-0.2316 0.3387-0.5311 0.3387-0.8622v-6.528c0-0.3301-0.1161-0.6306-0.3387-0.8622-0.2194-0.2256-0.5423-0.3695-0.8612-0.3695z" fill="none" stroke="#555753" stroke-dashoffset=".7" stroke-linecap="round" stroke-linejoin="round" stroke-width=".9854"/><g fill-rule="evenodd" stroke-width=".9854"><path d="m39.41 31.23-10.84 2.463 1.971 1.478h2.956l4.927-2.956 0.9854-0.9854" fill="url(#linearGradient1840074-3)"/><path d="m35.46 31.23-6.898 1.971h3.941l6.898-1.971h-3.941" fill="url(#linearGradient1840076-3)"/><path d="m28.57 33.2h3.941c-1.971 0.9854-0.4927 1.971 0.9854 1.971h-3.941c-1.478 0-2.956-0.9854-0.9854-1.971z" fill="url(#linearGradient1840078-3)"/><path d="m30.94 38.13h4.127c0.2215 0 0.3999 0.1921 0.3999 0.4316v3.079c0 0.2385-0.1784 0.4306-0.3999 0.4306h-4.127c-0.2215 0-0.3999-0.1921-0.3999-0.4306v-3.079c0-0.2394 0.1784-0.4316 0.3999-0.4316z" fill="url(#linearGradient1840080-3)"/><path d="m34.12 37.41c-6.442 4.811-4.233 12.24 0.07895 14.64l2.662-0.7483c-4.94-3.233-6.268-7.488-0.2379-13.27z" fill="url(#linearGradient1840082-2)" stroke="url(#linearGradient1840084-9)" stroke-linejoin="round"/></g><g stroke-width=".9854"><path d="m36.12 37.41s-18.17 12.5-11.77 13.24c6.405 0.739-13.88 7.711-5.999 9.681" fill="none" opacity=".1903" stroke-opacity="0"/><path d="m30.63 36.19 0.3124 1.971h4.127c0.2217 0 0.4001 0.1921 0.4001 0.4316v3.079l1.971-0.3084v-4.404c0-0.4178-0.3094-0.7696-0.7085-0.7696z" fill="url(#linearGradient7927-4)" fill-rule="evenodd"/><path d="m30.94 38.13h4.127c0.2215 0 0.3999 0.1921 0.3999 0.4316v3.079c0 0.2385-0.1784 0.4306-0.3999 0.4306h-4.127c-0.2215 0-0.3999-0.1921-0.3999-0.4306v-3.079c0-0.2394 0.1784-0.4316 0.3999-0.4316z" fill="url(#linearGradient7929-6)" fill-rule="evenodd" opacity=".3545"/></g></svg>
