<svg xmlns="http://www.w3.org/2000/svg" width="16px" height="16px" viewBox="0 0 24 24"><path d="m 19.454532,18.625499 v 1.774502 C 19.454531,21.559799 18.498396,22.5 17.318944,22.5 H 6.6410033 c -1.1794523,0 -2.135588,-0.940201 -2.135588,-2.099999 V 16.889999 C 3.0130717,16.571893 1.2855165,16.628141 1.3020332,15.524999 1.3235764,14.086145 3.5062038,14.454512 4.5054153,14.6955 v -2.005501 c -1.4923436,-0.318106 -3.2198988,-0.18209 -3.2033821,-1.365 0.020092,-1.4389892 2.20457,-1.070411 3.2033821,-0.829498 V 8.4899998 C 3.0130727,8.1718923 1.3254007,8.3876763 1.3020332,7.1249998 1.2754046,5.6861115 3.5066154,6.0545919 4.5054153,6.2954999 V 3.6 c 0,-1.159798 0.9561353,-2.1 2.135588,-2.1 H 17.318944 c 1.179453,0 2.135588,0.940202 2.135588,2.1 v 2.7836249 c 1.900673,0.3255 2.712197,1.0184999 2.893721,1.1865 0.855665,0.8414049 -0.189175,2.4633351 -1.516267,1.4909999 -1.082769,-0.6090425 -2.301101,-0.6725424 -3.513042,-0.7454999 -3.026906,0 -4.57347,1.320687 -8.5423528,0.8171068 v -2.1105 C 12.254463,7.5922068 13.444753,6.2156237 17.318944,6.2156237 V 3.6 H 6.6410033 V 20.400001 H 17.318944 V 18.3 c 1.60169,0 2.103554,0.3045 2.135588,0.325499 m -2.135588,-8.209874 c -3.874447,0 -5.064382,1.376649 -8.5423528,0.806603 v 2.1105 c 3.9591968,0.502351 5.5397758,-0.817103 8.5423528,-0.817103 2.402536,0 3.513042,0.745499 3.513042,0.745499 1.194663,0.772788 2.426555,-0.149653 1.516267,-1.490999 -0.224237,-0.2205 -1.558978,-1.3545 -5.029309,-1.3545 m 0,4.2 c -3.874284,0 -5.064244,1.376533 -8.5423528,0.806617 v 2.1105 c 3.9591878,0.50235 5.5397938,-0.817107 8.5423528,-0.817107 2.402536,0 3.513042,0.745499 3.513042,0.745499 1.605104,0.645305 2.022495,-0.967611 1.516267,-1.490999 -0.224237,-0.2205 -1.558978,-1.3545 -5.029309,-1.3545 z" fill="#4DA1C0" /></svg>