<svg width="32" height="32" version="1.1" viewBox="0 0 48 48" xmlns="http://www.w3.org/2000/svg" xmlns:xlink="http://www.w3.org/1999/xlink"><defs><linearGradient id="linearGradient3983"><stop stop-color="#555753" offset="0"/><stop stop-color="#888a85" offset="1"/></linearGradient><linearGradient id="linearGradient5940"><stop stop-color="#2e3436" offset="0"/><stop stop-color="#555753" offset="1"/></linearGradient><linearGradient id="linearGradient4598"><stop stop-color="#fff" offset="0"/><stop stop-color="#fff" stop-opacity="0" offset="1"/></linearGradient><linearGradient id="linearGradient7422"><stop stop-color="#edd400" offset="0"/><stop stop-color="#edd400" stop-opacity="0" offset="1"/></linearGradient><linearGradient id="linearGradient565184-2" x1="32.81" x2="32.81" y1="21" y2="26.2" gradientTransform="matrix(1.631 0 0 1.63 98.35 78.44)" gradientUnits="userSpaceOnUse" xlink:href="#linearGradient5940"/><linearGradient id="linearGradient565186-6" x1="28.88" x2="29" y1="29" y2="16" gradientTransform="matrix(1.5 0 0 1.5 102.2 81.36)" gradientUnits="userSpaceOnUse" xlink:href="#linearGradient4598"/><linearGradient id="linearGradient565196-0" x1="30.31" x2="30.31" y1="27.31" y2="24.69" gradientUnits="userSpaceOnUse" xlink:href="#linearGradient7422"/><linearGradient id="linearGradient576026-2" x1="-7.975" x2="-11.01" y1="25.36" y2="-6.568" gradientTransform="matrix(2 0 0 1.933 43.98 -63.51)" gradientUnits="userSpaceOnUse"><stop stop-color="#d3d7cf" offset="0"/><stop stop-color="#fff" offset="1"/></linearGradient><linearGradient id="linearGradient576028-6" x1="-7.852" x2="-5.51" y1="3.755" y2="18.94" gradientTransform="matrix(2.143 0 0 2.087 44.91 -64.67)" gradientUnits="userSpaceOnUse"><stop stop-color="#fff" offset="0"/><stop stop-color="#fff" stop-opacity="0" offset="1"/></linearGradient><filter id="filter5386-64-0" x="-.008195" y="-.02176" width="1.016" height="1.044" color-interpolation-filters="sRGB"><feGaussianBlur stdDeviation="0.26293105"/></filter><linearGradient id="linearGradient11596"><stop stop-color="#fff" offset="0"/><stop offset="1"/></linearGradient><linearGradient id="linearGradient8813" x1="88" x2="178" y1="44.5" y2="202.5" gradientTransform="matrix(.04808 0 0 .04032 303.9 219.1)" gradientUnits="userSpaceOnUse" xlink:href="#linearGradient4598"/><linearGradient id="linearGradient11544" x1="110.5" x2="110.5" y1="406.4" y2="381.4" gradientUnits="userSpaceOnUse"><stop stop-color="#4b4d49" offset="0"/><stop stop-color="#888a85" offset="1"/></linearGradient><linearGradient id="linearGradient11542" x1="169.5" x2="169.5" y1="406.3" y2="381.7" gradientUnits="userSpaceOnUse"><stop stop-color="#fff" offset="0"/><stop stop-color="#d3d7cf" offset="1"/></linearGradient><linearGradient id="linearGradient3830" x1="306.6" x2="306.6" y1="233.9" y2="232.7" gradientTransform="matrix(.7656 0 0 .7656 786.1 -36.93)" gradientUnits="userSpaceOnUse" xlink:href="#linearGradient3983"/><filter id="filter10920" x="-.2043" y="-.379" width="1.41" height="1.811" color-interpolation-filters="sRGB"><feGaussianBlur stdDeviation="0.5435346"/></filter><linearGradient id="linearGradient3880" x1="306.6" x2="306.6" y1="233.9" y2="232.7" gradientTransform="matrix(.7656 0 0 .7656 779.2 -36.93)" gradientUnits="userSpaceOnUse" xlink:href="#linearGradient3983"/><radialGradient id="radialGradient3908" cx="326" cy="58" r="12.5" gradientTransform="matrix(-.5241 2.303e-7 .02554 -.3735 476.1 243.7)" gradientUnits="userSpaceOnUse" xlink:href="#linearGradient4598"/><radialGradient id="radialGradient3906" cx="327.5" cy="58" r="12.5" gradientTransform="matrix(2.031 1.561e-8 0 .3864 -353.1 199.6)" gradientUnits="userSpaceOnUse" xlink:href="#linearGradient4598"/><linearGradient id="linearGradient3900" x1="317.3" x2="298.3" y1="86.37" y2="-18.47" gradientTransform="matrix(.1702 0 0 .2029 963.2 123.1)" gradientUnits="userSpaceOnUse" xlink:href="#linearGradient5538"/><radialGradient id="radialGradient3898" cx="314.2" cy="56.92" r="23" gradientTransform="matrix(.1613 .6239 -.216 .06897 986.9 -65.02)" gradientUnits="userSpaceOnUse" xlink:href="#linearGradient8702"/><radialGradient id="radialGradient3926" cx="314.2" cy="56.92" r="23" gradientTransform="matrix(.1613 .6239 -.216 .06897 978.5 -65.02)" gradientUnits="userSpaceOnUse" xlink:href="#linearGradient8702"/><linearGradient id="linearGradient3712" x1="316.2" x2="316.2" y1="83.21" y2="92.05" gradientTransform="matrix(.1899 0 0 .3063 961.2 118.6)" gradientUnits="userSpaceOnUse"><stop stop-color="#2e3436" offset="0"/><stop stop-color="#babdb6" offset="1"/></linearGradient><linearGradient id="linearGradient3698" x1="317.9" x2="298.3" y1="92.35" y2="-18.47" gradientTransform="matrix(.2223 0 0 .2298 950.8 124)" gradientUnits="userSpaceOnUse" xlink:href="#linearGradient5538"/><radialGradient id="radialGradient3696" cx="314.2" cy="56.92" r="23" gradientTransform="matrix(.2108 .7066 -.2822 .07812 970.7 -89.13)" gradientUnits="userSpaceOnUse" xlink:href="#linearGradient8702"/><linearGradient id="linearGradient3694" x1="307.7" x2="307.7" y1="229.2" y2="230.5" gradientTransform="matrix(.7656 0 0 .7656 783.9 -31.57)" gradientUnits="userSpaceOnUse"><stop stop-color="#babdb6" offset="0"/><stop stop-color="#555753" offset="1"/></linearGradient><linearGradient id="linearGradient3692" x1="310.9" x2="310.9" y1="229.7" y2="230.3" gradientTransform="matrix(.7656 0 0 .7656 783.9 -31.57)" gradientUnits="userSpaceOnUse"><stop stop-color="#babdb6" offset="0"/><stop stop-color="#eeeeec" offset="1"/></linearGradient><linearGradient id="linearGradient3690" x1="328.6" x2="327.5" y1="74.43" y2="67.36" gradientTransform="matrix(.4934 0 0 .7445 858.7 90.23)" gradientUnits="userSpaceOnUse" xlink:href="#linearGradient7758"/><linearGradient id="linearGradient8702"><stop stop-color="#fff" offset="0"/><stop stop-color="#babdb6" offset="1"/></linearGradient><linearGradient id="linearGradient7758"><stop stop-color="#babdb6" offset="0"/><stop stop-color="#babdb6" stop-opacity="0" offset="1"/></linearGradient><linearGradient id="linearGradient5538"><stop stop-color="#555753" offset="0"/><stop stop-color="#babdb6" offset="1"/></linearGradient><radialGradient id="radialGradient13137-1" cx="30.19" cy="218.6" r="19" gradientTransform="matrix(.4811 0 0 .2099 295.8 182.1)" gradientUnits="userSpaceOnUse" xlink:href="#linearGradient11596"/><linearGradient id="linearGradient27304" x1="317.3" x2="298.3" y1="86.37" y2="-18.47" gradientTransform="matrix(.1702 0 0 .2029 971.7 123.1)" gradientUnits="userSpaceOnUse" xlink:href="#linearGradient5538"/><linearGradient id="linearGradient27310" x1="310" x2="310" y1="229.5" y2="234.5" gradientUnits="userSpaceOnUse" xlink:href="#linearGradient7758"/></defs><clipPath id="b"><rect x="68.78" y="-.0933" width="58.26" height="58.26" rx="2.648"/></clipPath><filter id="c" x="-.021" y="-.021" width="1.042" height="1.042" color-interpolation-filters="sRGB"><feGaussianBlur stdDeviation=".28282197"/></filter><clipPath id="h"><path d="m-6.562 24.53c-0.3877 0-0.6917 0.219-0.9062 0.469l-0.031-0.03-0.031 0.06-0.3438 0.313-4.25 1.218c-0.03 0-0.06 0.02-0.09 0.03-0.549 0.274-0.902 0.554-1.094 0.937-0.192 0.384-0.116 0.867 0.125 1.156 0.329 0.394 0.858 0.553 1.407 0.657l-0.407 0.437c-0.06 0.05-0.1 0.116-0.125 0.188-0.03 0.121-0.07 0.316-0.125 0.5-0.02 0.04-0.03 0.08-0.03 0.125v6.656c0 0.299 0.113 0.582 0.313 0.813 0.199 0.23 0.511 0.406 0.875 0.406h7.843c0.3236 0 0.6569-0.116 0.9063-0.375l4.651-4.81c0.2259-0.235 0.3437-0.539 0.3437-0.875v-6.625c0-0.335-0.1178-0.64-0.3437-0.875-0.2227-0.229-0.5504-0.375-0.874-0.375z"/></clipPath><filter id="i" x="-.03844" y="-.04352" width="1.077" height="1.087" color-interpolation-filters="sRGB"><feGaussianBlur stdDeviation=".1491362"/></filter><filter id="p" x="-.02026" y="-.02354" width="1.04" height="1.047" color-interpolation-filters="sRGB"><feGaussianBlur stdDeviation=".071069152"/></filter><filter id="x" x="-.03625" y="-.04222" width="1.071" height="1.083" color-interpolation-filters="sRGB"><feGaussianBlur stdDeviation=".16679387"/></filter><clipPath id="A"><path d="m-95.3 143.8s-4.189 3.27-8.1 6.5c-1.95 1.62-3.69 3.22-4.72 4.78-0.51 0.78-0.98 1.62-0.65 2.78 0.16 0.58 0.61 1.12 1.09 1.41 0.48 0.28 0.96 0.4 1.5 0.47 2.13 0.24 4.73-0.4 7.849-1.28 3.113-0.89 6.669-2.09 10.25-3.25 3.581-1.17 7.196-2.31 10.34-3 3.147-0.7 5.835-0.89 7.375-0.5 0.729 0.18 0.745 0.3 0.75 0.31 0 0 0.06 0.33-0.219 0.94-0.567 1.2-2.245 3.11-4.187 4.93-3.885 3.64-8.844 7.13-8.844 7.13l1.75 2.44s5.041-3.52 9.156-7.38c2.058-1.93 3.879-3.89 4.813-5.87 0.466-1 0.776-2.12 0.343-3.25-0.433-1.14-1.541-1.87-2.812-2.19-2.46-0.62-5.444-0.21-8.781 0.53-3.337 0.73-7.019 1.85-10.62 3.03-3.607 1.18-7.129 2.4-10.12 3.25-2.913 0.83-5.293 1.22-6.473 1.13 0.62-0.95 2.3-2.56 4.16-4.1 3.721-3.08 7.969-6.37 7.969-6.37z"/></clipPath><mask id="B" maskUnits="userSpaceOnUse"><rect x="-115.6" y="147" width="51.28" height="17.34" rx=".6657" fill="url(#C)" fill-rule="evenodd" stroke-width="2"/></mask><linearGradient id="C" x1="-112.3" x2="-112.3" y1="148.9" y2="164.5" gradientUnits="userSpaceOnUse"><stop offset="0"/><stop stop-color="#fff" offset=".2177"/><stop stop-color="#fff" offset=".7659"/><stop offset="1"/></linearGradient><filter id="D" x="-.0125" y="-.04971" width="1.026" height="1.099" color-interpolation-filters="sRGB"><feGaussianBlur stdDeviation="0.001 0.244"/></filter><filter id="H" x="-.395" y="-.5737" width="1.79" height="2.147" color-interpolation-filters="sRGB"><feGaussianBlur stdDeviation="2.8946329"/></filter><g transform="matrix(1.5 0 0 1.5 -1499 -176.4)" opacity=".7"><g transform="matrix(.3949 0 0 .3949 994.2 144.7)" enable-background="new"><rect x="14.98" y="-62.54" width="77" height="29" rx="2.877" ry="2.781" fill="url(#linearGradient576026-2)" fill-rule="evenodd" stroke="#888a85" stroke-dashoffset=".7" stroke-linecap="round" stroke-linejoin="round" stroke-opacity=".9924"/><path d="m18.12-61.54c-1.228 0-2.147 0.8953-2.147 2.091v22.96c0 1.196 0.9193 2.091 2.147 2.091h70.85c1.228 0 2.147-0.8953 2.147-2.091v-22.96c0-1.196-0.9193-2.091-2.147-2.091z" fill="none" stroke="url(#linearGradient576028-6)" stroke-dashoffset=".7" stroke-linecap="round" stroke-linejoin="round" stroke-opacity=".9924"/><rect transform="matrix(1.016 0 0 1.016 -.01036 -64.31)" x="15.38" y="2.875" width="77" height="29" rx="3.723" ry="3.723" fill-rule="evenodd" filter="url(#filter5386-64-0)" opacity=".1205"/></g><g transform="matrix(.3493 0 0 .3493 974.4 104.2)"><g transform="translate(-60.1 -57.19)"><path d="m144.9 107c-0.9585 0-1.733 0.7739-1.733 1.731v0.4317c0 0.4398-0.344 0.8148-0.8156 0.8148h-2.345c-0.9585 0-1.733 1.055-1.733 2.013v9.667c0 0.9575 0.7747 1.731 1.733 1.731h12.85c0.9585 0 1.733-0.7739 1.733-1.731v-9.667c0-0.9575-0.7747-2.013-1.733-2.013h-2.345c-0.3927 0.0265-0.8156-0.2794-0.8156-0.7893v-0.4571c0-0.9575-0.7747-1.731-1.733-1.731z" fill="url(#linearGradient565184-2)" fill-rule="evenodd" stroke-width="1.5"/><path d="m145.1 106c-1.664 0-2.977 1.362-3.094 3h-1.406c-1.739 0-3.188 1.449-3.188 3.188v8.812c0 1.739 1.449 3.188 3.188 3.188h11.81c1.739 0 3.188-1.449 3.188-3.188v-8.812c0-1.739-1.449-3.188-3.188-3.188h-1.406c-0.1167-1.638-1.43-3-3.094-3z" fill="none" stroke="url(#linearGradient565186-6)" stroke-dashoffset=".7" stroke-linecap="round" stroke-width="1.5"/><g transform="matrix(1.5 0 0 1.5 102.2 79.86)" fill="none" stroke="url(#linearGradient565196-0)" stroke-linecap="round" stroke-width="1px"><path d="m26.5 26.5v-2"/><path d="m28.5 26.5v-2"/><path d="m30.5 26.5v-2"/><path d="m32.5 26.5v-2"/></g></g></g><text transform="matrix(.6667 0 0 .6667 999.3 117.6)" x="5.1381707" y="18.223295" fill="#000000" font-family="Sans" font-size="2.565px" letter-spacing="0px" stroke-width=".6412px" word-spacing="0px" style="line-height:1.25" xml:space="preserve"><tspan x="5.1381707" y="18.223295" font-family="Carlito" font-weight="bold">LAN1</tspan></text><g transform="matrix(.6667 0 0 .6667 999.3 117.6)" opacity=".7"><g transform="matrix(.5239 0 0 .5239 -26.52 -20.18)"><g transform="translate(-60.1 -57.19)"><path d="m144.9 107c-0.9585 0-1.733 0.7739-1.733 1.731v0.4317c0 0.4398-0.344 0.8148-0.8156 0.8148h-2.345c-0.9585 0-1.733 1.055-1.733 2.013v9.667c0 0.9575 0.7747 1.731 1.733 1.731h12.85c0.9585 0 1.733-0.7739 1.733-1.731v-9.667c0-0.9575-0.7747-2.013-1.733-2.013h-2.345c-0.3927 0.0265-0.8156-0.2794-0.8156-0.7893v-0.4571c0-0.9575-0.7747-1.731-1.733-1.731z" fill="url(#linearGradient565184-2)" fill-rule="evenodd" stroke-width="1.5"/><path d="m145.1 106c-1.664 0-2.977 1.362-3.094 3h-1.406c-1.739 0-3.188 1.449-3.188 3.188v8.812c0 1.739 1.449 3.188 3.188 3.188h11.81c1.739 0 3.188-1.449 3.188-3.188v-8.812c0-1.739-1.449-3.188-3.188-3.188h-1.406c-0.1167-1.638-1.43-3-3.094-3z" fill="none" stroke="url(#linearGradient565186-6)" stroke-dashoffset=".7" stroke-linecap="round" stroke-width="1.5"/><g transform="matrix(1.5 0 0 1.5 102.2 79.86)" fill="none" stroke="url(#linearGradient565196-0)" stroke-linecap="round" stroke-width="1px"><path d="m26.5 26.5v-2"/><path d="m28.5 26.5v-2"/><path d="m30.5 26.5v-2"/><path d="m32.5 26.5v-2"/></g></g></g><text x="15.9006" y="18.223295" fill="#000000" font-family="Sans" font-size="2.565px" letter-spacing="0px" stroke-width=".6412px" word-spacing="0px" style="line-height:1.25" xml:space="preserve"><tspan x="15.9006" y="18.223295" font-family="Carlito" font-weight="bold">LAN2</tspan></text><g transform="matrix(.5239 0 0 .5239 -15.8 -20.18)"><g transform="translate(-60.1 -57.19)"><path d="m144.9 107c-0.9585 0-1.733 0.7739-1.733 1.731v0.4317c0 0.4398-0.344 0.8148-0.8156 0.8148h-2.345c-0.9585 0-1.733 1.055-1.733 2.013v9.667c0 0.9575 0.7747 1.731 1.733 1.731h12.85c0.9585 0 1.733-0.7739 1.733-1.731v-9.667c0-0.9575-0.7747-2.013-1.733-2.013h-2.345c-0.3927 0.0265-0.8156-0.2794-0.8156-0.7893v-0.4571c0-0.9575-0.7747-1.731-1.733-1.731z" fill="url(#linearGradient565184-2)" fill-rule="evenodd" stroke-width="1.5"/><path d="m145.1 106c-1.664 0-2.977 1.362-3.094 3h-1.406c-1.739 0-3.188 1.449-3.188 3.188v8.812c0 1.739 1.449 3.188 3.188 3.188h11.81c1.739 0 3.188-1.449 3.188-3.188v-8.812c0-1.739-1.449-3.188-3.188-3.188h-1.406c-0.1167-1.638-1.43-3-3.094-3z" fill="none" stroke="url(#linearGradient565186-6)" stroke-dashoffset=".7" stroke-linecap="round" stroke-width="1.5"/><g transform="matrix(1.5 0 0 1.5 102.2 79.86)" fill="none" stroke="url(#linearGradient565196-0)" stroke-linecap="round" stroke-width="1px"><path d="m26.5 26.5v-2"/><path d="m28.5 26.5v-2"/><path d="m30.5 26.5v-2"/><path d="m32.5 26.5v-2"/></g></g></g><g transform="matrix(.5239 0 0 .5239 -4.972 -20.18)"><g transform="translate(-60.1 -57.19)"><path d="m144.9 107c-0.9585 0-1.733 0.7739-1.733 1.731v0.4317c0 0.4398-0.344 0.8148-0.8156 0.8148h-2.345c-0.9585 0-1.733 1.055-1.733 2.013v9.667c0 0.9575 0.7747 1.731 1.733 1.731h12.85c0.9585 0 1.733-0.7739 1.733-1.731v-9.667c0-0.9575-0.7747-2.013-1.733-2.013h-2.345c-0.3927 0.0265-0.8156-0.2794-0.8156-0.7893v-0.4571c0-0.9575-0.7747-1.731-1.733-1.731z" fill="url(#linearGradient565184-2)" fill-rule="evenodd" stroke-width="1.5"/><path d="m145.1 106c-1.664 0-2.977 1.362-3.094 3h-1.406c-1.739 0-3.188 1.449-3.188 3.188v8.812c0 1.739 1.449 3.188 3.188 3.188h11.81c1.739 0 3.188-1.449 3.188-3.188v-8.812c0-1.739-1.449-3.188-3.188-3.188h-1.406c-0.1167-1.638-1.43-3-3.094-3z" fill="none" stroke="url(#linearGradient565186-6)" stroke-dashoffset=".7" stroke-linecap="round" stroke-width="1.5"/><g transform="matrix(1.5 0 0 1.5 102.2 79.86)" fill="none" stroke="url(#linearGradient565196-0)" stroke-linecap="round" stroke-width="1px"><path d="m26.5 26.5v-2"/><path d="m28.5 26.5v-2"/><path d="m30.5 26.5v-2"/><path d="m32.5 26.5v-2"/></g></g></g><text x="26.663031" y="18.223295" fill="#000000" font-family="Sans" font-size="2.565px" letter-spacing="0px" stroke-width=".6412px" word-spacing="0px" style="line-height:1.25" xml:space="preserve"><tspan x="26.663031" y="18.223295" font-family="Carlito" font-weight="bold">LAN3</tspan></text><text x="37.425461" y="18.223295" fill="#000000" font-family="Sans" font-size="2.565px" letter-spacing="0px" stroke-width=".6412px" word-spacing="0px" style="line-height:1.25" xml:space="preserve"><tspan x="37.425461" y="18.223295" font-family="Carlito" font-weight="bold">LAN4</tspan></text></g><path d="m1015 141.8h14.55s0.7655 0.7656 0.7655 0.7656l0.016 0.7656h-16.09v-0.7656s0.7656-0.7656 0.7656-0.7656z" opacity=".1" stroke="#000" stroke-linecap="round" stroke-linejoin="round" stroke-width=".7656"/><path d="m1022 141.1h7.656s0.7655 0.7656 0.7655 0.7656l0.016 0.7656h-9.2v-0.7656l0.7657-0.7656z" fill="#d3d7cf" stroke="url(#linearGradient3830)" stroke-linecap="round" stroke-linejoin="round" stroke-width=".7656"/><g transform="matrix(.7656 0 0 .7656 776.9 -12.18)" enable-background="new" filter="url(#filter10920)" opacity=".5"><path d="m318 204.5c0.6017-2.482 6.559 0.194 6.559-1.837 0-2.432-8.451 0.0819-8.794-1.837" fill-rule="evenodd" opacity=".1" stroke="#000"/></g><g transform="matrix(.7656 0 0 .7656 781.4 -9.814)" enable-background="new" filter="url(#filter10920)" opacity=".5" stroke="#000"><path d="m318 204.5c0.6017-2.482 6.559 0.194 6.559-1.837 0-2.432-8.451 0.0819-8.794-1.837" fill-rule="evenodd" opacity=".1"/><path transform="matrix(.05727 0 0 .0792 305.7 172.7)" d="m49.28 375.8c0.2701 4e-3 -0.5135 0.0337-0.4336 0.01-1.408 0.1441-2.648 0.9721-3.322 2.217l-14.28 26.38a2.104 2.104 0 0 0-0.0098 0.0156c-0.3346 0.6314-0.505 1.341-0.4941 2.049v2e-3c1e-5 6.4e-4 -1e-5 1e-3 0 2e-3 -0.0012-0.0691-0.0036-0.0541 0 0.0605v3.248a2.104 2.104 0 0 0 1.773 1.773l-1.68-1.412c0.06339 0.363 0.1748 0.8989 0.5156 1.469 0.7597 1.27 2.13 2.078 3.639 2.086a2.104 2.104 0 0 0 0.01172 0h220.8c1.512 3e-3 2.914-0.7848 3.689-2.094 0.3301-0.5573 0.4498-1.081 0.5156-1.475 0.1135-0.6787 0.0899-1.174 0.0899-1.174a2.104 2.104 0 0 0 0-0.0488v-2.094c0-0.5966-0.0177-1.5-0.543-2.453a2.104 2.104 0 0 0-8e-3 -0.0156l-14.84-26.38a2.104 2.104 0 0 0-8e-3 -0.0117c-0.7694-1.347-2.203-2.17-3.754-2.154z" stroke-dashoffset=".3612" stroke-linecap="square" stroke-width="14.85"/></g><path d="m1015 141.1h7.656s0.7655 0.7656 0.7655 0.7656l0.016 0.7656h-9.2v-0.7656s0.7656-0.7656 0.7656-0.7656z" fill="#d3d7cf" stroke="url(#linearGradient3880)" stroke-linecap="round" stroke-linejoin="round" stroke-width=".7656"/><rect x="1022" y="134.2" width="7.658" height="6.084" rx=".6382" ry=".7605" fill="url(#radialGradient3898)" stroke="url(#linearGradient27304)" stroke-dashoffset=".5" stroke-linecap="round" stroke-linejoin="round" stroke-width=".7656"/><g transform="matrix(.4299 0 0 .5009 892.4 24.8)"><rect x="305.5" y="221.4" width="11.03" height="6.161" color="#000000" fill="url(#radialGradient13137-1)" fill-rule="evenodd" stroke="#303030" stroke-width="1.65px"/><rect x="306" y="222" width="10" height="5" fill="url(#linearGradient8813)" fill-rule="evenodd" opacity=".15"/><path d="m312.8 222h3.163v6.097h-6.958z" fill="url(#radialGradient3906)" opacity=".3699"/><path d="m308.8 222.1h1.723l-1.905 4.451-0.8468-0.05 1.028-4.401z" fill="url(#radialGradient3908)" opacity=".3894"/></g><rect x="1014" y="134.2" width="7.658" height="6.084" rx=".6382" ry=".7605" fill="url(#radialGradient3926)" stroke="url(#linearGradient3900)" stroke-dashoffset=".5" stroke-linecap="round" stroke-linejoin="round" stroke-width=".7656"/><g transform="matrix(.4299 0 0 .5009 884 24.8)"><rect x="305.5" y="221.4" width="11.03" height="6.161" color="#000000" fill="url(#radialGradient13137-1)" fill-rule="evenodd" stroke="#303030" stroke-width="1.65px"/><rect x="306" y="222" width="10" height="5" fill="url(#linearGradient8813)" fill-rule="evenodd" opacity=".15"/><path d="m312.8 222h3.163v6.097h-6.958z" fill="url(#radialGradient3906)" opacity=".3699"/><path d="m308.8 222.1h1.723l-1.905 4.451-0.8468-0.05 1.028-4.401z" fill="url(#radialGradient3908)" opacity=".3894"/></g><path d="m1023 147.2c0.4606-1.9 5.022 0.1485 5.022-1.406 0-1.862-6.471 0.0627-6.733-1.406" fill="none" stroke="url(#linearGradient3690)" stroke-width=".7656"/><path d="m1021 141.1v3.063h-0.7656c-0.4242 0-0.7656 0.3415-0.7656 0.7656 0 0 0.024 0.7656 0.024 0.7656h5.336v-0.7656c0-0.4242-0.3415-0.7656-0.7657-0.7656h-0.7656v-3.063h-2.297z" fill="url(#linearGradient3692)" stroke="url(#linearGradient3694)" stroke-width=".7656"/><ellipse cx="1024" cy="144.9" rx=".4843" ry=".4843" fill="#f9f9f9" stroke-width=".914"/><ellipse cx="1020" cy="144.9" rx=".4843" ry=".4843" fill="#f9f9f9" stroke-width=".914"/><rect x="1017" y="136.5" width="10.01" height="6.891" rx=".8338" ry=".8613" fill="url(#radialGradient3696)" stroke="url(#linearGradient3698)" stroke-dashoffset=".5" stroke-linecap="round" stroke-linejoin="round" stroke-width=".7656"/><g transform="matrix(.6296 0 0 .6237 826.1 -.088)"><rect x="305.5" y="221.4" width="11.03" height="6.161" color="#000000" fill="url(#radialGradient13137-1)" fill-rule="evenodd" stroke="#303030" stroke-width="1.222px"/><rect x="306" y="222" width="10" height="5" fill="url(#linearGradient8813)" fill-rule="evenodd" opacity=".15"/><path d="m312.8 222h3.163v6.097h-6.958z" fill="url(#radialGradient3906)" opacity=".3699"/><path d="m308.8 222.1h1.723l-1.905 4.451-0.8468-0.05 1.028-4.401z" fill="url(#radialGradient3908)" opacity=".3894"/></g><path transform="matrix(.04385 0 0 .06064 1016 122.9)" d="m49.28 375.8 0.1055 2e-3c-0.1443-7e-3 -0.2854-7e-3 -0.4297 0a2.104 2.104 0 0 0-0.1094 8e-3c-1.408 0.1441-2.648 0.9721-3.322 2.217l-14.28 26.38a2.104 2.104 0 0 0-0.0098 0.0156c-0.3346 0.6314-0.505 1.341-0.4941 2.049v2e-3c1e-5 6.4e-4 -1e-5 1e-3 0 2e-3 -0.0012-0.0691-0.0036-0.0541 0 0.0605v3.248a2.104 2.104 0 0 0 1.773 1.773l-1.68-1.412c0.06339 0.363 0.1748 0.8989 0.5156 1.469 0.7597 1.27 2.13 2.078 3.639 2.086a2.104 2.104 0 0 0 0.01172 0h220.8c1.512 3e-3 2.914-0.7848 3.689-2.094 0.3301-0.5573 0.4498-1.081 0.5156-1.475 0.1135-0.6787 0.0899-1.174 0.0899-1.174a2.104 2.104 0 0 0 0-0.0488v-2.094c0-0.5966-0.0177-1.5-0.543-2.453a2.104 2.104 0 0 0-8e-3 -0.0156l-14.84-26.38a2.104 2.104 0 0 0-8e-3 -0.0117c-0.7694-1.347-2.203-2.17-3.754-2.154z" fill="url(#linearGradient11542)" stroke="url(#linearGradient11544)" stroke-dashoffset=".3612" stroke-linecap="square" stroke-width="14.85"/><path d="m1018 145.3-0.4807 1.531 5.139-2e-3 -0.1358-1.529h-4.523zm4.758 0 0.075 0.7756h1.005l-0.1406-0.7756h-0.9385zm1.174 0.2447 0.2692 1.285h1.293l-0.4134-1.285zm-1.032 0.907 0.034 0.3776h1.056l-0.066-0.3776h-1.024z" fill="url(#linearGradient3712)" fill-rule="evenodd" stroke-width=".7656"/><g transform="matrix(.7656 0 0 .7656 784.6 -31.57)" fill="url(#linearGradient27310)"><rect x="305" y="232" width=".9939" height="1" rx=".3464" ry=".3464"/><rect x="306" y="231" width=".9939" height="1" rx=".3464" ry=".3464"/><rect x="308" y="231" width=".9939" height="1" rx=".3464" ry=".3464"/><rect x="310" y="231" width=".9939" height="1" rx=".3464" ry=".3464"/><rect x="309" y="232" width=".9939" height="1" rx=".3464" ry=".3464"/><rect x="313" y="232" width=".9939" height="1" rx=".3464" ry=".3464"/><rect x="314" y="231" width=".9939" height="1" rx=".3464" ry=".3464"/></g><path d="m1002 133.1-0.011 9.885 10.08-0.0102" fill="none" stroke="#6b6b6b" stroke-dasharray="2.20148, 2.20148" stroke-width="2.201"/></g></svg>
