<svg height="32.011" viewBox="0 0 24.892 32.011" width="24.892" xmlns="http://www.w3.org/2000/svg" xmlns:xlink="http://www.w3.org/1999/xlink"><radialGradient id="a" cx="10.28" cy="8.071" gradientTransform="matrix(1 0 0 .8274 0 1.122)" gradientUnits="userSpaceOnUse" r="4.525" xlink:href="#e"/><radialGradient id="b" cx="10.28" cy="9.842" gradientTransform="matrix(4.681 0 0 1.277 -37.84 -3.301)" gradientUnits="userSpaceOnUse" r="4.525" xlink:href="#g"/><radialGradient id="c" cx="10.74" cy="19.5" gradientTransform="matrix(1 0 0 .3026 0 13.6)" gradientUnits="userSpaceOnUse" r="8.263" xlink:href="#d"/><linearGradient id="d"><stop offset="0"/><stop offset="1" stop-opacity="0"/></linearGradient><linearGradient id="e"><stop offset="0" stop-color="#729fcf"/><stop offset="1" stop-color="#729fcf" stop-opacity="0"/></linearGradient><radialGradient id="f" cx="10.28" cy="10.02" gradientTransform="matrix(4.681 0 0 1.277 -37.84 -3.301)" gradientUnits="userSpaceOnUse" r="4.525" xlink:href="#g"/><linearGradient id="g"><stop offset="0" stop-color="#3465a4"/><stop offset="1" stop-color="#3465a4" stop-opacity="0"/></linearGradient><linearGradient id="h" gradientUnits="userSpaceOnUse" x1="11.22" x2="11.22" xlink:href="#d" y1="43.14" y2="23.04"/><linearGradient id="i" gradientUnits="userSpaceOnUse" x1="24.84" x2="21.04" y1="44.53" y2="21.04"><stop offset="0" stop-color="#babdb6"/><stop offset="1" stop-color="#fff"/></linearGradient><linearGradient id="j" gradientUnits="userSpaceOnUse" x1="39.07" x2="39.42" y1="28.5" y2="10.94"><stop offset="0" stop-color="#888a85"/><stop offset="1" stop-color="#555753"/></linearGradient><radialGradient id="k" cx="10.28" cy="7.825" gradientTransform="matrix(.6984 0 0 .5779 3.1 2.744)" gradientUnits="userSpaceOnUse" r="4.525" xlink:href="#e"/><radialGradient id="l" cx="8.906" cy="1.729" gradientTransform="matrix(.7375 0 0 .7202 2.434 .6617)" gradientUnits="userSpaceOnUse" r="1.995"><stop offset="0" stop-color="#fff"/><stop offset="1" stop-color="#d3d7cf"/></radialGradient><radialGradient id="m" cx="8.305" cy="1.126" gradientTransform="matrix(1.86 0 0 1.817 -7.14 -.8942)" gradientUnits="userSpaceOnUse" r="2.051"><stop offset="0" stop-color="#fff"/><stop offset="1" stop-color="#fff" stop-opacity="0"/></radialGradient><g enable-background="new" transform="matrix(.6237 0 0 .6237 -2.5201 3.0118)"><ellipse cx="10.74" cy="19.5" fill="url(#c)" opacity=".1" rx="8.263" ry="2.5" stroke-linecap="round" stroke-linejoin="round" transform="matrix(2.305 0 0 2.378 -1.198 -5.82)"/><ellipse cx="10.28" cy="6.5" rx="4.281" ry="3.5" style="opacity:.6;stroke-width:.1997;stroke-linecap:round;stroke-linejoin:round;fill:url(#a);stroke:url(#f)" transform="matrix(4.555 0 0 5.507 -22.83 -20.8)"/><path d="m24 12.55a.4507.4507 0 0 0 -.4.244l-16 31a.4507.4507 0 0 0 .4004.658h3.4996a.4507.4507 0 0 0 .406-.256l2.416-5.007 21.06 3.531.711 1.476a.4507.4507 0 0 0 .406.256h3.5a.4507.4507 0 0 0 .4-.658l-16-31a.4507.4507 0 0 0 -.4-.244zm0 6.465 3.172 6.619-5.627-1.463zm-3.756 7.826 5.738 1.478-8.398 4.088zm9.201 3.545 3.864 8.027-15.18-2.531z" fill="url(#h)" fill-rule="evenodd" opacity=".153" transform="matrix(1 0 0 .4005 0 26.14)"/><ellipse cx="10.28" cy="6.5" rx="4.281" ry="3.5" style="opacity:.8;stroke-width:.2685;stroke-linecap:round;stroke-linejoin:round;stroke:url(#b);fill:url(#a)" transform="matrix(3.387 0 0 4.094 -10.82 -11.61)"/><g transform="translate(0 -.5)"><path d="m24 13-16 31h3.5l2.563-5.312 21.62 3.625.812 1.687h3.5zm0 4.969 4 8.343-7.094-1.843zm-4 8.343 7.281 1.875-10.66 5.188zm9.656 3.469 4.438 9.219-17.44-2.906z" fill="url(#i)" fill-rule="evenodd" stroke="url(#j)"/><g fill="none" stroke="#fff" stroke-linecap="round"><path d="m38.41 43.03-14.41-27.91-14.41 27.91"/><path d="m15.78 34.91 13.03-6.344"/><path d="m15.09 36.84 19.66 3.281"/></g></g><g stroke-linecap="round" stroke-linejoin="round"><ellipse cx="10.28" cy="6.5" fill="url(#k)" rx="4.281" ry="3.5" stroke="url(#b)" stroke-width=".4075" transform="matrix(2.219 0 0 2.714 1.186 -2.643)"/><g transform="matrix(2.24 0 0 2.23 -19.68 9.389)"><ellipse cx="9.203" cy="2.25" fill="url(#l)" rx="1.797" ry="1.75" stroke="#555753" stroke-width=".3967" transform="matrix(1.113 0 0 1.143 9.256 -.07143)"/><circle cx="18.874" cy="1.7892" fill="#fff" r=".906" stroke-width="1.812"/></g><ellipse cx="9.203" cy="2.25" fill="none" rx="1.797" ry="1.75" stroke="url(#m)" stroke-width=".5078" transform="matrix(1.948 0 0 1.991 6.074 10.48)"/></g></g></svg>