<svg width="32" height="32" version="1.1" viewBox="0 0 48 48" xmlns="http://www.w3.org/2000/svg" xmlns:xlink="http://www.w3.org/1999/xlink"><defs><linearGradient id="linearGradient7887" x1="-7.975" x2="-11.01" y1="25.36" y2="-6.568" gradientTransform="matrix(2 0 0 1.933 43.5 .5333)" gradientUnits="userSpaceOnUse"><stop stop-color="#d3d7cf" offset="0"/><stop stop-color="#fff" offset="1"/></linearGradient><linearGradient id="linearGradient7889" x1="-7.852" x2="-5.51" y1="3.755" y2="18.94" gradientUnits="userSpaceOnUse"><stop stop-color="#fff" offset="0"/><stop stop-color="#fff" stop-opacity="0" offset="1"/></linearGradient><filter id="filter5386" x="-.01972" y="-.02176" width="1.039" height="1.044" color-interpolation-filters="sRGB"><feGaussianBlur stdDeviation="0.26293105"/></filter><linearGradient id="linearGradient7893" x1="1.626" x2=".8221" y1="55.22" y2="54.42" gradientUnits="userSpaceOnUse"><stop stop-color="#adb0a8" offset="0"/><stop stop-color="#fff" offset="1"/></linearGradient><linearGradient id="linearGradient7895" x1="-4.221" x2="-4.221" y1="59.88" y2="54.71" gradientTransform="matrix(.9643 0 0 .9722 -.25 1.694)" gradientUnits="userSpaceOnUse" xlink:href="#linearGradient7269-5"/><linearGradient id="linearGradient7269-5"><stop stop-color="#fff" offset="0"/><stop stop-color="#d3d7cf" offset="1"/></linearGradient><linearGradient id="linearGradient7897" x1="-1.989" x2="-3.359" y1="51.14" y2="54" gradientTransform="translate(-4,-24)" gradientUnits="userSpaceOnUse" xlink:href="#linearGradient7822-4"/><linearGradient id="linearGradient7822-4"><stop offset="0"/><stop stop-opacity="0" offset="1"/></linearGradient><linearGradient id="linearGradient7899" x1="-4.685" x2=".8839" y1="52.64" y2="50.56" gradientTransform="translate(-4,-24)" gradientUnits="userSpaceOnUse"><stop stop-color="#eeeeec" offset="0"/><stop stop-color="#babdb6" offset="1"/></linearGradient><linearGradient id="linearGradient7901" x1="-5.082" x2=".2652" y1="50.52" y2="49.46" gradientTransform="translate(-4,-24)" gradientUnits="userSpaceOnUse"><stop stop-color="#eeeeec" offset="0"/><stop stop-color="#fff" offset="1"/></linearGradient><linearGradient id="linearGradient7903" x1="-5.969" x2="-5.969" y1="52.88" y2="51.81" gradientTransform="translate(-4,-24)" gradientUnits="userSpaceOnUse"><stop stop-color="#888a85" offset="0"/><stop stop-color="#fff" offset="1"/></linearGradient><linearGradient id="linearGradient7905" x1="-3.536" x2="-3.536" y1="55.87" y2="59.44" gradientTransform="matrix(1,0,0,1.029,-4,-25.14)" gradientUnits="userSpaceOnUse"><stop stop-color="#555753" offset="0"/><stop stop-color="#d3d7cf" offset="1"/></linearGradient><linearGradient id="linearGradient7921" x1="17.94" x2="23.28" y1="42.91" y2="43.08" gradientUnits="userSpaceOnUse"><stop stop-color="#729fcf" offset="0"/><stop stop-color="#729fcf" stop-opacity="0" offset="1"/></linearGradient><linearGradient id="linearGradient7923" x1="17.83" x2="28.36" y1="40.38" y2="40.87" gradientUnits="userSpaceOnUse"><stop stop-color="#3465a4" offset="0"/><stop stop-color="#3465a4" stop-opacity="0" offset="1"/></linearGradient><linearGradient id="linearGradient7927" x1="-4.11" x2="-4.11" y1="58.81" y2="55" gradientTransform="matrix(1.125,0,0,1.167,15.88,-34.14)" gradientUnits="userSpaceOnUse" xlink:href="#linearGradient7269-5"/><linearGradient id="linearGradient7929" x1="-6.406" x2="-7.781" y1="32.44" y2="34.56" gradientUnits="userSpaceOnUse" xlink:href="#linearGradient7822-4"/><linearGradient id="linearGradient4598"><stop stop-color="#fff" offset="0"/><stop stop-color="#fff" stop-opacity="0" offset="1"/></linearGradient><linearGradient id="linearGradient7652-3"><stop stop-color="#729fcf" offset="0"/><stop stop-color="#729fcf" stop-opacity="0" offset="1"/></linearGradient><linearGradient id="linearGradient7889-3" x1="-7.852" x2="-5.51" y1="3.755" y2="18.94" gradientUnits="userSpaceOnUse"><stop stop-color="#fff" offset="0"/><stop stop-color="#fff" stop-opacity="0" offset="1"/></linearGradient><linearGradient id="linearGradient1643253" x1="-7.975" x2="-11.01" y1="25.36" y2="-6.568" gradientTransform="matrix(2 0 0 1.933 43.5 .5333)" gradientUnits="userSpaceOnUse" xlink:href="#linearGradient7887"/><filter id="filter5386-2" x="-.01972" y="-.02176" width="1.039" height="1.044" color-interpolation-filters="sRGB"><feGaussianBlur stdDeviation="0.26293105"/></filter><linearGradient id="linearGradient1840068" x1="1.626" x2=".8221" y1="55.22" y2="54.42" gradientUnits="userSpaceOnUse" xlink:href="#linearGradient7893"/><linearGradient id="linearGradient1840074" x1="-4.685" x2=".8839" y1="52.64" y2="50.56" gradientTransform="translate(-4,-24)" gradientUnits="userSpaceOnUse" xlink:href="#linearGradient7899"/><linearGradient id="linearGradient1840076" x1="-5.082" x2=".2652" y1="50.52" y2="49.46" gradientTransform="translate(-4,-24)" gradientUnits="userSpaceOnUse" xlink:href="#linearGradient7901"/><linearGradient id="linearGradient1840078" x1="-5.969" x2="-5.969" y1="52.88" y2="51.81" gradientTransform="translate(-4,-24)" gradientUnits="userSpaceOnUse" xlink:href="#linearGradient7903"/><linearGradient id="linearGradient1840080" x1="-3.536" x2="-3.536" y1="55.87" y2="59.44" gradientTransform="matrix(1,0,0,1.029,-4,-25.14)" gradientUnits="userSpaceOnUse" xlink:href="#linearGradient7905"/><linearGradient id="linearGradient1840082" x1="17.94" x2="23.28" y1="42.91" y2="43.08" gradientUnits="userSpaceOnUse" xlink:href="#linearGradient7921"/><linearGradient id="linearGradient1840084" x1="17.83" x2="28.36" y1="40.38" y2="40.87" gradientUnits="userSpaceOnUse" xlink:href="#linearGradient7923"/><linearGradient id="linearGradient7897-3" x1="-1.989" x2="-3.359" y1="51.14" y2="54" gradientTransform="matrix(.9854 0 0 .9854 36.45 -17.05)" gradientUnits="userSpaceOnUse" xlink:href="#linearGradient7822-4"/><linearGradient id="linearGradient7927-4" x1="-4.11" x2="-4.11" y1="58.81" y2="55" gradientTransform="matrix(1.109 0 0 1.15 36.33 -27.04)" gradientUnits="userSpaceOnUse" xlink:href="#linearGradient7269-5"/><linearGradient id="linearGradient7929-6" x1="-6.406" x2="-7.781" y1="32.44" y2="34.56" gradientTransform="matrix(.9854 0 0 .9854 40.39 6.598)" gradientUnits="userSpaceOnUse" xlink:href="#linearGradient7822-4"/><linearGradient id="linearGradient6175" x1="22.36" x2="28.25" y1="11.89" y2="11.89" gradientUnits="userSpaceOnUse" xlink:href="#linearGradient7652-3"/><linearGradient id="linearGradient6239" x1="22.69" x2="27.97" y1="11.85" y2="11.85" gradientUnits="userSpaceOnUse" xlink:href="#linearGradient4598"/><linearGradient id="linearGradient1840068-3" x1="1.626" x2=".8221" y1="55.22" y2="54.42" gradientTransform="matrix(1.15 0 0 1.182 36.61 -29.07)" gradientUnits="userSpaceOnUse" xlink:href="#linearGradient7893"/><linearGradient id="linearGradient1840074-3" x1="-4.685" x2=".8839" y1="52.64" y2="50.56" gradientTransform="matrix(.9854 0 0 .9854 36.45 -17.05)" gradientUnits="userSpaceOnUse" xlink:href="#linearGradient7899"/><linearGradient id="linearGradient1840076-3" x1="-5.082" x2=".2652" y1="50.52" y2="49.46" gradientTransform="matrix(.9854 0 0 .9854 36.45 -17.05)" gradientUnits="userSpaceOnUse" xlink:href="#linearGradient7901"/><linearGradient id="linearGradient1840078-3" x1="-5.969" x2="-5.969" y1="52.88" y2="51.81" gradientTransform="matrix(.9854 0 0 .9854 36.45 -17.05)" gradientUnits="userSpaceOnUse" xlink:href="#linearGradient7903"/><linearGradient id="linearGradient1840080-3" x1="-3.536" x2="-3.536" y1="55.87" y2="59.44" gradientTransform="matrix(.9854 0 0 1.014 36.45 -18.17)" gradientUnits="userSpaceOnUse" xlink:href="#linearGradient7905"/><linearGradient id="linearGradient1840082-2" x1="17.94" x2="23.28" y1="42.91" y2="43.08" gradientTransform="matrix(.9854 0 0 .9854 20.68 6.598)" gradientUnits="userSpaceOnUse" xlink:href="#linearGradient7921"/><linearGradient id="linearGradient1840084-9" x1="17.83" x2="28.36" y1="40.38" y2="40.87" gradientTransform="matrix(.9854 0 0 .9854 20.68 6.598)" gradientUnits="userSpaceOnUse" xlink:href="#linearGradient7923"/><linearGradient id="linearGradient9265" x1="-4.221" x2="-4.221" y1="59.88" y2="54.71" gradientTransform="matrix(1.109 0 0 1.15 36.33 -27.07)" gradientUnits="userSpaceOnUse" xlink:href="#linearGradient7269-5"/></defs><clipPath id="b"><rect x="68.78" y="-.0933" width="58.26" height="58.26" rx="2.648"/></clipPath><filter id="c" x="-.021" y="-.021" width="1.042" height="1.042" color-interpolation-filters="sRGB"><feGaussianBlur stdDeviation=".28282197"/></filter><clipPath id="h"><path d="m-6.562 24.53c-0.3877 0-0.6917 0.219-0.9062 0.469l-0.031-0.03-0.031 0.06-0.3438 0.313-4.25 1.218c-0.03 0-0.06 0.02-0.09 0.03-0.549 0.274-0.902 0.554-1.094 0.937-0.192 0.384-0.116 0.867 0.125 1.156 0.329 0.394 0.858 0.553 1.407 0.657l-0.407 0.437c-0.06 0.05-0.1 0.116-0.125 0.188-0.03 0.121-0.07 0.316-0.125 0.5-0.02 0.04-0.03 0.08-0.03 0.125v6.656c0 0.299 0.113 0.582 0.313 0.813 0.199 0.23 0.511 0.406 0.875 0.406h7.843c0.3236 0 0.6569-0.116 0.9063-0.375l4.651-4.81c0.2259-0.235 0.3437-0.539 0.3437-0.875v-6.625c0-0.335-0.1178-0.64-0.3437-0.875-0.2227-0.229-0.5504-0.375-0.874-0.375z"/></clipPath><filter id="i" x="-.03844" y="-.04352" width="1.077" height="1.087" color-interpolation-filters="sRGB"><feGaussianBlur stdDeviation=".1491362"/></filter><filter id="p" x="-.02026" y="-.02354" width="1.04" height="1.047" color-interpolation-filters="sRGB"><feGaussianBlur stdDeviation=".071069152"/></filter><filter id="x" x="-.03625" y="-.04222" width="1.071" height="1.083" color-interpolation-filters="sRGB"><feGaussianBlur stdDeviation=".16679387"/></filter><clipPath id="A"><path d="m-95.3 143.8s-4.189 3.27-8.1 6.5c-1.95 1.62-3.69 3.22-4.72 4.78-0.51 0.78-0.98 1.62-0.65 2.78 0.16 0.58 0.61 1.12 1.09 1.41 0.48 0.28 0.96 0.4 1.5 0.47 2.13 0.24 4.73-0.4 7.849-1.28 3.113-0.89 6.669-2.09 10.25-3.25 3.581-1.17 7.196-2.31 10.34-3 3.147-0.7 5.835-0.89 7.375-0.5 0.729 0.18 0.745 0.3 0.75 0.31 0 0 0.06 0.33-0.219 0.94-0.567 1.2-2.245 3.11-4.187 4.93-3.885 3.64-8.844 7.13-8.844 7.13l1.75 2.44s5.041-3.52 9.156-7.38c2.058-1.93 3.879-3.89 4.813-5.87 0.466-1 0.776-2.12 0.343-3.25-0.433-1.14-1.541-1.87-2.812-2.19-2.46-0.62-5.444-0.21-8.781 0.53-3.337 0.73-7.019 1.85-10.62 3.03-3.607 1.18-7.129 2.4-10.12 3.25-2.913 0.83-5.293 1.22-6.473 1.13 0.62-0.95 2.3-2.56 4.16-4.1 3.721-3.08 7.969-6.37 7.969-6.37z"/></clipPath><mask id="B" maskUnits="userSpaceOnUse"><rect x="-115.6" y="147" width="51.28" height="17.34" rx=".6657" fill="url(#C)" fill-rule="evenodd" stroke-width="2"/></mask><linearGradient id="C" x1="-112.3" x2="-112.3" y1="148.9" y2="164.5" gradientUnits="userSpaceOnUse"><stop offset="0"/><stop stop-color="#fff" offset=".2177"/><stop stop-color="#fff" offset=".7659"/><stop offset="1"/></linearGradient><filter id="D" x="-.0125" y="-.04971" width="1.026" height="1.099" color-interpolation-filters="sRGB"><feGaussianBlur stdDeviation="0.001 0.244"/></filter><filter id="H" x="-.395" y="-.5737" width="1.79" height="2.147" color-interpolation-filters="sRGB"><feGaussianBlur stdDeviation="2.8946329"/></filter><g transform="matrix(.7899 0 0 1 4.758 0)"><rect x="22.65" y="10.74" width="5.314" height="2.304" fill="url(#linearGradient6175)" opacity=".7" stroke="#3364a3" stroke-width=".5772"/><path d="m22.7 11.88 5.271-0.04727" fill="none" opacity=".19" stroke="url(#linearGradient6239)" stroke-width=".795"/></g><g transform="matrix(0 -1.012 .9987 0 24.53 50.35)"><rect x="22.65" y="10.74" width="5.314" height="2.304" fill="url(#linearGradient6175)" opacity=".7" stroke="#3364a3" stroke-width=".5772"/><path d="m22.7 11.88 5.271-0.04727" fill="none" opacity=".19" stroke="url(#linearGradient6239)" stroke-width=".795"/></g><g transform="matrix(.6351 0 0 .6351 16.55 26.45)" enable-background="new"><rect x="14.5" y="1.5" width="32" height="29" rx="2.877" ry="2.781" fill="url(#linearGradient1643253)" fill-rule="evenodd" stroke="#888a85" stroke-dashoffset=".7" stroke-linecap="round" stroke-linejoin="round" stroke-opacity=".9924"/><path transform="matrix(2.143 0 0 2.087 44.43 -.6302)" d="m-12.5 1.498c-0.573 0-1.002 0.429-1.002 1.002v11c0 0.573 0.429 1.002 1.002 1.002h12c0.573 0 1.002-0.429 1.002-1.002v-11c0-0.573-0.429-1.002-1.002-1.002z" fill="none" stroke="url(#linearGradient7889-3)" stroke-dashoffset=".7" stroke-linecap="round" stroke-linejoin="round" stroke-opacity=".9924" stroke-width=".4729"/><rect transform="matrix(1.016 0 0 1.016 -.49 -.2715)" x="15.38" y="2.875" width="32" height="29" rx="3.723" ry="3.723" fill-rule="evenodd" filter="url(#filter5386-2)" opacity=".1205"/></g><g transform="matrix(.6351 0 0 .6351 -6.855 1.584)" enable-background="new"><rect x="14.5" y="1.5" width="32" height="29" rx="2.877" ry="2.781" fill="url(#linearGradient1643253)" fill-rule="evenodd" stroke="#888a85" stroke-dashoffset=".7" stroke-linecap="round" stroke-linejoin="round" stroke-opacity=".9924"/><path transform="matrix(2.143 0 0 2.087 44.43 -.6302)" d="m-12.5 1.498c-0.573 0-1.002 0.429-1.002 1.002v11c0 0.573 0.429 1.002 1.002 1.002h12c0.573 0 1.002-0.429 1.002-1.002v-11c0-0.573-0.429-1.002-1.002-1.002z" fill="none" stroke="url(#linearGradient7889)" stroke-dashoffset=".7" stroke-linecap="round" stroke-linejoin="round" stroke-opacity=".9924" stroke-width=".4729"/><rect transform="matrix(1.016 0 0 1.016 -.49 -.2715)" x="15.38" y="2.875" width="32" height="29" rx="3.723" ry="3.723" fill-rule="evenodd" filter="url(#filter5386)" opacity=".1205"/></g><g transform="matrix(.7597 0 0 .7597 -5.673 -7.451)"><g transform="matrix(1.297 0 0 1.297 3.67 -14.65)"><g transform="translate(20)"><g fill-rule="evenodd"><g transform="matrix(1.167,0,0,1.2,-3.833,-36.2)"><path d="m-2.344 51c-0.2048 0-0.3812 0.101-0.5 0.25l-4.016 4c-0.035 0.132-0.099 0.271-0.1406 0.406v5.521c0 0.364 0.2965 0.656 0.6563 0.656h6.687c0.1799 0 0.3514-0.07 0.4688-0.187l4-4c0.1174-0.119 0.1875-0.287 0.1875-0.469v-5.521c0-0.182-0.0701-0.35-0.1875-0.468-0.1191-0.119-0.2889-0.188-0.4688-0.188z" fill="url(#linearGradient1840068)"/><path d="m-6.374 55.17h6.462c0.3469 0 0.6262 0.284 0.6262 0.638v5.39c0 0.354-0.2793 0.638-0.6262 0.638h-6.462c-0.3468 0-0.6261-0.284-0.6261-0.638v-5.39c0-0.354 0.2793-0.638 0.6261-0.638z" fill="url(#linearGradient7895)"/></g><path d="m-5 25-5 5h4l5-5h-4" fill="url(#linearGradient7897)" opacity=".1231"/><path d="m-1 25-9.5 4h3.5l5-3 1-1" fill="#babdb6"/></g><path d="m-6.562 25.5c-0.024 0-0.055 0-0.1562 0.125-0.03 0.02-0.061 0.04-0.094 0.06-0.02 0.02-0.041 0.04-0.062 0.06-0.02 0.02-0.041 0.04-0.062 0.06h-0.031c-0.02 0.02-0.041 0.04-0.062 0.06l-0.1875 0.187c-0.1069 0.101-0.2351 0.176-0.375 0.219l-4.252 1.229c-0.4 0.208-0.534 0.349-0.594 0.469 0 0 0.04 0.134 0 0.09 0.08 0.1 0.361 0.253 0.844 0.344 0.34 0.07 0.617 0.314 0.727 0.643s0.04 0.692-0.196 0.951l-0.343 0.375c-0.02 0.09-0.05 0.17-0.09 0.312v6.56c0 0.05 0 0.116 0.06 0.188 0.03 0.04 0.104 0.06 0.157 0.06h7.844c0.093 0 0.1684-0.01 0.2188-0.06-2e-4 -0.01-2e-4 -0.02 0-0.03l4.654-4.808c0.0522-0.054 0.0625-0.079 0.0625-0.188v-6.625c0-0.108-0.01-0.164-0.062-0.219-0.0373-0.037-0.1555-0.062-0.188-0.062z" fill="none" opacity=".5336" stroke="#fff" stroke-dashoffset=".7" stroke-linecap="round" stroke-linejoin="round"/><path d="m-6.562 24.53c-0.3877 0-0.6917 0.219-0.9062 0.469l-0.031-0.03-0.031 0.06-0.3438 0.313-4.25 1.218c-0.03 0-0.06 0.02-0.09 0.03-0.549 0.274-0.902 0.554-1.094 0.937-0.192 0.384-0.116 0.867 0.125 1.156 0.329 0.394 0.858 0.553 1.407 0.657l-0.407 0.437c-0.06 0.05-0.1 0.116-0.125 0.188-0.03 0.121-0.07 0.316-0.125 0.5-0.02 0.04-0.03 0.08-0.03 0.125v6.656c0 0.299 0.113 0.582 0.313 0.813 0.199 0.23 0.511 0.406 0.875 0.406h7.843c0.3236 0 0.6569-0.116 0.9063-0.375l4.651-4.81c0.2259-0.235 0.3437-0.539 0.3437-0.875v-6.625c0-0.335-0.1178-0.64-0.3437-0.875-0.2227-0.229-0.5504-0.375-0.874-0.375z" fill="none" stroke="#555753" stroke-dashoffset=".7" stroke-linecap="round" stroke-linejoin="round"/><g fill-rule="evenodd"><path d="m-1 25-11 2.5 2 1.5h3l5-3 1-1" fill="url(#linearGradient1840074)"/><path d="m-5 25-7 2h4l7-2h-4" fill="url(#linearGradient1840076)"/><path d="m-12 27h4c-2 1-0.5 2 1 2h-4c-1.5 0-3-1-1-2z" fill="url(#linearGradient1840078)"/><path d="m-9.594 32h4.188c0.2248 0 0.4058 0.195 0.4058 0.438v3.125c0 0.242-0.181 0.437-0.4058 0.437h-4.188c-0.2248 0-0.4058-0.195-0.4058-0.437v-3.125c0-0.243 0.181-0.438 0.4058-0.438z" fill="url(#linearGradient1840080)"/></g></g><path d="m14.69 30.56s-1.275 1.415-5.957 4.73c-4.362 2.84-23.02 3.977-24.04 5.537-0.511 0.78-0.987 1.623-0.656 2.781 0.165 0.579 0.608 1.686 1.093 1.406 1.832-1.057 1.547-1.056 2.929-2.438 0.6199-0.948 18.84-1.469 22.78-5.053 4.234-3.074 5.667-4.529 5.667-4.529z" fill="url(#linearGradient1840082)" fill-rule="evenodd" stroke="url(#linearGradient1840084)" stroke-linejoin="round"/><path d="m15.67 31.27s-18.44 12.69-11.94 13.44-14.09 7.825-6.088 9.825" fill="none" opacity=".1903" stroke-opacity="0"/><path d="m10.09 30.03 0.317 2h4.188c0.225 0 0.406 0.195 0.406 0.438v3.125l2-0.313v-4.469c0-0.424-0.314-0.781-0.719-0.781z" fill="url(#linearGradient7927)" fill-rule="evenodd"/><path transform="translate(20)" d="m-9.594 32h4.188c0.2248 0 0.4058 0.195 0.4058 0.438v3.125c0 0.242-0.181 0.437-0.4058 0.437h-4.188c-0.2248 0-0.4058-0.195-0.4058-0.437v-3.125c0-0.243 0.181-0.438 0.4058-0.438z" fill="url(#linearGradient7929)" fill-rule="evenodd" opacity=".3545"/></g></g><g fill-rule="evenodd"><path d="m33.92 31.23c-0.2355 0-0.4384 0.1194-0.575 0.2956l-4.618 4.73c-0.04025 0.1561-0.1138 0.3204-0.1617 0.4801v6.528c0 0.4304 0.341 0.7757 0.7547 0.7757h7.69c0.2069 0 0.4041-0.08277 0.5391-0.2211l4.6-4.73c0.135-0.1407 0.2156-0.3394 0.2156-0.5546v-6.528c0-0.2152-0.08061-0.4139-0.2156-0.5534-0.137-0.1407-0.3322-0.2223-0.5391-0.2223z" fill="url(#linearGradient1840068-3)" stroke-width="1.166"/><path d="m29.28 36.16h7.431c0.3989 0 0.7201 0.3358 0.7201 0.7544v6.373c0 0.4186-0.3212 0.7544-0.7201 0.7544h-7.431c-0.3988 0-0.72-0.3358-0.72-0.7544v-6.373c0-0.4186 0.3212-0.7544 0.72-0.7544z" fill="url(#linearGradient9265)" stroke-width="1.166"/><path d="m35.46 31.23-4.927 4.927h3.941l4.927-4.927h-3.941" fill="url(#linearGradient7897-3)" opacity=".1231" stroke-width=".9854"/><path d="m39.41 31.23-9.361 3.941h3.449l4.927-2.956 0.9854-0.9854" fill="#babdb6" stroke-width=".9854"/></g><path d="m33.92 31.72c-0.02365 0-0.0542 0-0.1539 0.1232-0.02956 0.01971-0.06011 0.03941-0.09262 0.05912-0.01971 0.01971-0.0404 0.03942-0.06109 0.05912-0.01971 0.01971-0.0404 0.03942-0.06109 0.05912h-0.03055c-0.01971 0.01971-0.0404 0.03941-0.06109 0.05912l-0.1848 0.1843c-0.1053 0.09952-0.2317 0.1734-0.3695 0.2158l-4.19 1.211c-0.3941 0.205-0.5262 0.3439-0.5853 0.4621 0 0 0.03941 0.132 0 0.08868 0.07883 0.09854 0.3557 0.2493 0.8317 0.339 0.335 0.06898 0.608 0.3094 0.7164 0.6336 0.1084 0.3242 0.03942 0.6819-0.1931 0.9371l-0.338 0.3695c-0.01971 0.08868-0.04927 0.1675-0.08868 0.3074v6.464c0 0.04927 0 0.1143 0.05912 0.1852 0.02956 0.03941 0.1025 0.05912 0.1547 0.05912h7.729c0.09164 0 0.1659-0.0099 0.2156-0.05912-1.97e-4 -0.0099-1.97e-4 -0.01971 0-0.02956l4.586-4.738c0.05144-0.05321 0.06159-0.07784 0.06159-0.1852v-6.528c0-0.1064-0.0099-0.1616-0.06109-0.2158-0.03675-0.03646-0.1532-0.06109-0.1852-0.06109z" fill="none" opacity=".5336" stroke="#fff" stroke-dashoffset=".7" stroke-linecap="round" stroke-linejoin="round" stroke-width=".9854"/><path d="m33.92 30.77c-0.382 0-0.6816 0.2158-0.8929 0.4621l-0.03055-0.02956-0.03055 0.05912-0.3388 0.3084-4.188 1.2c-0.02956 0-0.05912 0.01971-0.08868 0.02956-0.541 0.27-0.8888 0.5459-1.078 0.9233-0.1892 0.3784-0.1143 0.8543 0.1232 1.139 0.3242 0.3882 0.8454 0.5449 1.386 0.6474l-0.401 0.4306c-0.05912 0.04927-0.09854 0.1143-0.1232 0.1852-0.02956 0.1192-0.06898 0.3114-0.1232 0.4927-0.01971 0.03941-0.02956 0.07883-0.02956 0.1232v6.559c0 0.2946 0.1113 0.5735 0.3084 0.8011 0.1961 0.2266 0.5035 0.4001 0.8622 0.4001h7.728c0.3189 0 0.6473-0.1143 0.893-0.3695l4.583-4.74c0.2226-0.2316 0.3387-0.5311 0.3387-0.8622v-6.528c0-0.3301-0.1161-0.6306-0.3387-0.8622-0.2194-0.2256-0.5423-0.3695-0.8612-0.3695z" fill="none" stroke="#555753" stroke-dashoffset=".7" stroke-linecap="round" stroke-linejoin="round" stroke-width=".9854"/><g fill-rule="evenodd" stroke-width=".9854"><path d="m39.41 31.23-10.84 2.463 1.971 1.478h2.956l4.927-2.956 0.9854-0.9854" fill="url(#linearGradient1840074-3)"/><path d="m35.46 31.23-6.898 1.971h3.941l6.898-1.971h-3.941" fill="url(#linearGradient1840076-3)"/><path d="m28.57 33.2h3.941c-1.971 0.9854-0.4927 1.971 0.9854 1.971h-3.941c-1.478 0-2.956-0.9854-0.9854-1.971z" fill="url(#linearGradient1840078-3)"/><path d="m30.94 38.13h4.127c0.2215 0 0.3999 0.1921 0.3999 0.4316v3.079c0 0.2385-0.1784 0.4306-0.3999 0.4306h-4.127c-0.2215 0-0.3999-0.1921-0.3999-0.4306v-3.079c0-0.2394 0.1784-0.4316 0.3999-0.4316z" fill="url(#linearGradient1840080-3)"/><path d="m34.12 37.41c-6.442 4.811-4.233 12.24 0.07895 14.64l2.662-0.7483c-4.94-3.233-6.268-7.488-0.2379-13.27z" fill="url(#linearGradient1840082-2)" stroke="url(#linearGradient1840084-9)" stroke-linejoin="round"/></g><g stroke-width=".9854"><path d="m36.12 37.41s-18.17 12.5-11.77 13.24c6.405 0.739-13.88 7.711-5.999 9.681" fill="none" opacity=".1903" stroke-opacity="0"/><path d="m30.63 36.19 0.3124 1.971h4.127c0.2217 0 0.4001 0.1921 0.4001 0.4316v3.079l1.971-0.3084v-4.404c0-0.4178-0.3094-0.7696-0.7085-0.7696z" fill="url(#linearGradient7927-4)" fill-rule="evenodd"/><path d="m30.94 38.13h4.127c0.2215 0 0.3999 0.1921 0.3999 0.4316v3.079c0 0.2385-0.1784 0.4306-0.3999 0.4306h-4.127c-0.2215 0-0.3999-0.1921-0.3999-0.4306v-3.079c0-0.2394 0.1784-0.4316 0.3999-0.4316z" fill="url(#linearGradient7929-6)" fill-rule="evenodd" opacity=".3545"/></g><g transform="matrix(.2453 0 0 .2453 64.97 -17.46)" stroke-width=".265"><path d="m-76.3 120.5s1.836-38.52-40.48-38.52c-37.44 0-38.6 36.95-38.6 36.95s-5.51 42.43 39.46 42.43c43.13 0 39.62-40.86 39.62-40.86zm-52.32-13.46c7.94-4.86 18.08-1.89 21.89 5.42 0.72 1.38 0.81 3.51 0.35 4.97-1.57 5.01-5.29 7.82-10.4 9.02 1.51-1.29 2.7-2.75 3.08-4.77a6.986 6.986 0 0 0-1.2-5.55 7.08 7.08 0 0 0-8.15-2.48c-3.14 1.19-4.86 4.06-4.55 7.59 0.28 3.28 2.77 5.4 7.42 6.2-0.69 0.37-1.23 0.64-1.75 0.94a16.91 16.91 0 0 0-5.44 4.72c-0.47 0.64-0.8 0.69-1.51 0.25-9.35-5.72-9.96-20.06 0.26-26.31zm-7 35.33c-1.5 0.38-2.96 0.94-4.5 1.45 0.76-5.07 6.69-9.74 11.71-9.2a12.93 12.93 0 0 0-2.45 6.85c-1.67 0.3-3.24 0.51-4.76 0.9zm31.96-49.48c1.48 0.06 2.97 0.03 4.448 0.07a7.687 7.687 0 0 1 1.108 0.153 10.74 10.74 0 0 1-1.128 1.438c-0.529 0.495-1.128 0.978-1.888 0.226-0.19-0.181-0.62-0.139-0.94-0.143-1.48-0.02-2.96-0.07-4.43-0.01a27.53 27.53 0 0 0-3.82 0.389c-0.23 0.04-0.59 0.829-0.48 1.119 0.26 0.684 0.63 1.438 1.19 1.876 2.04 1.616 4.22 3.073 6.28 4.683 2 1.55 3.858 3.26 4.986 5.62 1.478 3.06 1.517 6.28 0.889 9.51-1.068 5.39-3.795 9.86-8.205 13.1-1.78 1.31-3.99 2.05-6.03 2.99-1.79 0.83-3.64 1.54-5.43 2.36-3.25 1.47-5.07 4.99-4.53 8.64 0.49 3.36 3.44 6.16 6.81 6.74 4.04 0.69 8.22-1.94 9.21-6.05 1.11-4.62-1.4-8.75-6.1-10-0.21-0.1-0.42-0.11-0.85-0.22 1.26-0.56 2.34-0.96 3.35-1.52q2.62-1.44 5.15-3.06c0.5-0.31 0.77-0.31 1.19 0 3.229 2.8 5.155 6.28 5.694 10.54 0.898 7.06-2.435 13.55-8.744 16.87-9.75 5.15-21.68-0.71-23.84-11.52-1.84-9.26 4.69-17.66 12.56-19.28 3.38-0.7 6.48-2.11 8.88-4.71 1.55-1.69 2.31-3.13 2.56-3.78a10.47 10.47 0 0 0 0.72-3.83 8.961 8.961 0 0 0-0.78-3.28c-0.82-1.87-3.97-4.85-4.75-5.48l-7.41-5.8c-0.26-0.21-0.55-0.2-1.19-0.16-0.76 0-2.69 0.16-3.53-0.1 0.68-0.508 2.52-1.252 3.31-1.85-2.4-1.622-5.14-1.036-7.66-1.521 0.59-1.083 3.46-2.749 5.1-2.934a24.22 24.22 0 0 0-0.44-2.72c-0.1-0.368-0.52-0.725-0.87-0.936-0.87-0.509-1.79-0.93-2.79-1.437a5.804 5.804 0 0 1 2.99-0.928 11.2 11.2 0 0 1 3.01 0.293c1.78 0.407 3.2 0.141 4.62-1.071-1.11-0.45-2.23-0.861-3.31-1.347a32.55 32.55 0 0 1-3.12-1.629c2.81 0.39 5.53 1.444 8.4 1.059q0-0.196 0.1-0.392c-2.14-0.5-4.29-1-6.67-1.554 3.98-0.364 7.68-0.424 11.19 1.285 0.99 0.48 2.02 0.878 2.97 1.428 0.46 0.267 0.77 0.795 1.15 1.206 0.3 0.326 0.54 0.763 0.91 0.959 1.4 0.746 2.95 0.775 4.518 0.738v-0.527c1.587 0.494 3.363 2.319 3.36 3.652-2.561 0-5.118 0-7.678 0.02-0.28 0-0.55 0.202-0.82 0.311 0.26 0.151 0.51 0.423 0.78 0.433z" fill="#88171a"/><path d="m-107 89.13a0.3917 0.3917 0 0 0 0 0.626 0.5907 0.5907 0 0 0 0.81 0.218c0.25-0.125 0.49-0.257 0.79-0.415-0.24-0.205-0.43-0.374-0.63-0.538-0.35-0.287-0.64-0.106-0.92 0.108z"/></g></svg>
