<svg width="32" height="32" version="1.1" viewBox="0 0 48 48" xmlns="http://www.w3.org/2000/svg" xmlns:xlink="http://www.w3.org/1999/xlink"><defs><linearGradient id="linearGradient7822-4"><stop offset="0"/><stop stop-opacity="0" offset="1"/></linearGradient><linearGradient id="linearGradient4598"><stop stop-color="#fff" offset="0"/><stop stop-color="#fff" stop-opacity="0" offset="1"/></linearGradient><linearGradient id="linearGradient7652-3"><stop stop-color="#729fcf" offset="0"/><stop stop-color="#729fcf" stop-opacity="0" offset="1"/></linearGradient><linearGradient id="linearGradient6175" x1="22.36" x2="28.25" y1="11.89" y2="11.89" gradientUnits="userSpaceOnUse" xlink:href="#linearGradient7652-3"/><linearGradient id="linearGradient6239" x1="22.69" x2="27.97" y1="11.85" y2="11.85" gradientUnits="userSpaceOnUse" xlink:href="#linearGradient4598"/><filter id="filter4684" x="-.09275" y="-.106" width="1.186" height="1.212"><feGaussianBlur stdDeviation="0.71917802"/></filter><linearGradient id="linearGradient3278" x1="-6.411" x2="-10.07" y1="25.76" y2="1.873" gradientTransform="matrix(1.5 0 0 1.4 336.2 52.8)" gradientUnits="userSpaceOnUse" xlink:href="#linearGradient6991"/><linearGradient id="linearGradient6991"><stop stop-color="#d3d7cf" offset="0"/><stop stop-color="#fff" offset="1"/></linearGradient><linearGradient id="linearGradient4307" x1="25.05" x2="27.76" y1="16.17" y2="24.54" gradientTransform="matrix(1.088 0 0 1.086 294.4 40.06)" gradientUnits="userSpaceOnUse" xlink:href="#linearGradient7340-2"/><linearGradient id="linearGradient7340-2"><stop stop-color="#555753" offset="0"/><stop stop-color="#888a85" offset="1"/></linearGradient><linearGradient id="linearGradient4182" x1="326.5" x2="326.5" y1="61.7" y2="60.69" gradientUnits="userSpaceOnUse" xlink:href="#linearGradient4175"/><linearGradient id="linearGradient4175"><stop stop-color="#babdb6" offset="0"/><stop stop-color="#fff" offset="1"/></linearGradient><radialGradient id="radialGradient4612" cx="306.5" cy="86.38" r="21.91" gradientTransform="matrix(2.238 -.5404 .1485 .615 -392 204.4)" gradientUnits="userSpaceOnUse" xlink:href="#linearGradient7822-4"/><filter id="filter4618" x="-.1134" y="-.08587" width="1.226" height="1.205"><feGaussianBlur stdDeviation="0.89652215"/></filter><linearGradient id="linearGradient4212" x1="322.3" x2="328.4" y1="62.62" y2="68.74" gradientTransform="matrix(.75 0 0 .8333 81.62 10.42)" gradientUnits="userSpaceOnUse" xlink:href="#linearGradient4206"/><linearGradient id="linearGradient4206"><stop stop-color="#fff" offset="0"/><stop stop-color="#babdb6" offset="1"/></linearGradient><linearGradient id="linearGradient4231" x1="325.4" x2="328.4" y1="63.27" y2="68.74" gradientTransform="matrix(.5 0 0 .5 -489.8 -97.75)" gradientUnits="userSpaceOnUse" xlink:href="#linearGradient4206"/><linearGradient id="linearGradient4380" x1="320" x2="330.2" y1="60.75" y2="87.75" gradientUnits="userSpaceOnUse" xlink:href="#linearGradient4598"/><linearGradient id="linearGradient3248-0" x1="-47.16" x2="-46.15" y1="39.38" y2="44.17" gradientTransform="translate(386,50)" gradientUnits="userSpaceOnUse" xlink:href="#linearGradient7652-3"/><linearGradient id="linearGradient3250-1" x1="-48" x2="-46.75" y1="40.38" y2="45.69" gradientTransform="translate(386,50)" gradientUnits="userSpaceOnUse"><stop stop-color="#3465a4" offset="0"/><stop stop-color="#3465a4" stop-opacity="0" offset="1"/></linearGradient><radialGradient id="radialGradient81" cx="306.5" cy="86.38" r="21.91" gradientTransform="matrix(1.058 -1.042 .4439 .4509 -55.95 372.2)" gradientUnits="userSpaceOnUse" xlink:href="#linearGradient7822-4"/><linearGradient id="linearGradient85" x1="-75.84" x2="-75.96" y1="48.62" y2="53.84" gradientTransform="translate(386,50)" gradientUnits="userSpaceOnUse" xlink:href="#linearGradient7652-3"/></defs><clipPath id="b"><rect x="68.78" y="-.0933" width="58.26" height="58.26" rx="2.648"/></clipPath><filter id="c" x="-.021" y="-.021" width="1.042" height="1.042" color-interpolation-filters="sRGB"><feGaussianBlur stdDeviation=".28282197"/></filter><clipPath id="h"><path d="m-6.562 24.53c-0.3877 0-0.6917 0.219-0.9062 0.469l-0.031-0.03-0.031 0.06-0.3438 0.313-4.25 1.218c-0.03 0-0.06 0.02-0.09 0.03-0.549 0.274-0.902 0.554-1.094 0.937-0.192 0.384-0.116 0.867 0.125 1.156 0.329 0.394 0.858 0.553 1.407 0.657l-0.407 0.437c-0.06 0.05-0.1 0.116-0.125 0.188-0.03 0.121-0.07 0.316-0.125 0.5-0.02 0.04-0.03 0.08-0.03 0.125v6.656c0 0.299 0.113 0.582 0.313 0.813 0.199 0.23 0.511 0.406 0.875 0.406h7.843c0.3236 0 0.6569-0.116 0.9063-0.375l4.651-4.81c0.2259-0.235 0.3437-0.539 0.3437-0.875v-6.625c0-0.335-0.1178-0.64-0.3437-0.875-0.2227-0.229-0.5504-0.375-0.874-0.375z"/></clipPath><filter id="i" x="-.03844" y="-.04352" width="1.077" height="1.087" color-interpolation-filters="sRGB"><feGaussianBlur stdDeviation=".1491362"/></filter><filter id="p" x="-.02026" y="-.02354" width="1.04" height="1.047" color-interpolation-filters="sRGB"><feGaussianBlur stdDeviation=".071069152"/></filter><filter id="x" x="-.03625" y="-.04222" width="1.071" height="1.083" color-interpolation-filters="sRGB"><feGaussianBlur stdDeviation=".16679387"/></filter><clipPath id="A"><path d="m-95.3 143.8s-4.189 3.27-8.1 6.5c-1.95 1.62-3.69 3.22-4.72 4.78-0.51 0.78-0.98 1.62-0.65 2.78 0.16 0.58 0.61 1.12 1.09 1.41 0.48 0.28 0.96 0.4 1.5 0.47 2.13 0.24 4.73-0.4 7.849-1.28 3.113-0.89 6.669-2.09 10.25-3.25 3.581-1.17 7.196-2.31 10.34-3 3.147-0.7 5.835-0.89 7.375-0.5 0.729 0.18 0.745 0.3 0.75 0.31 0 0 0.06 0.33-0.219 0.94-0.567 1.2-2.245 3.11-4.187 4.93-3.885 3.64-8.844 7.13-8.844 7.13l1.75 2.44s5.041-3.52 9.156-7.38c2.058-1.93 3.879-3.89 4.813-5.87 0.466-1 0.776-2.12 0.343-3.25-0.433-1.14-1.541-1.87-2.812-2.19-2.46-0.62-5.444-0.21-8.781 0.53-3.337 0.73-7.019 1.85-10.62 3.03-3.607 1.18-7.129 2.4-10.12 3.25-2.913 0.83-5.293 1.22-6.473 1.13 0.62-0.95 2.3-2.56 4.16-4.1 3.721-3.08 7.969-6.37 7.969-6.37z"/></clipPath><mask id="B" maskUnits="userSpaceOnUse"><rect x="-115.6" y="147" width="51.28" height="17.34" rx=".6657" fill="url(#C)" fill-rule="evenodd" stroke-width="2"/></mask><linearGradient id="C" x1="-112.3" x2="-112.3" y1="148.9" y2="164.5" gradientUnits="userSpaceOnUse"><stop offset="0"/><stop stop-color="#fff" offset=".2177"/><stop stop-color="#fff" offset=".7659"/><stop offset="1"/></linearGradient><filter id="D" x="-.0125" y="-.04971" width="1.026" height="1.099" color-interpolation-filters="sRGB"><feGaussianBlur stdDeviation="0.001 0.244"/></filter><filter id="H" x="-.395" y="-.5737" width="1.79" height="2.147" color-interpolation-filters="sRGB"><feGaussianBlur stdDeviation="2.8946329"/></filter><g transform="matrix(.7899 0 0 1 4.758 0)"><rect x="22.65" y="10.74" width="5.314" height="2.304" fill="url(#linearGradient6175)" opacity=".7" stroke="#3364a3" stroke-width=".5772"/><path d="m22.7 11.88 5.271-0.04727" fill="none" opacity=".19" stroke="url(#linearGradient6239)" stroke-width=".795"/></g><g transform="matrix(0 -1.012 .9987 0 24.53 50.35)"><rect x="22.65" y="10.74" width="5.314" height="2.304" fill="url(#linearGradient6175)" opacity=".7" stroke="#3364a3" stroke-width=".5772"/><path d="m22.7 11.88 5.271-0.04727" fill="none" opacity=".19" stroke="url(#linearGradient6239)" stroke-width=".795"/></g><g transform="matrix(.2453 0 0 .2453 64.97 -17.46)" stroke-width=".265"><path d="m-76.3 120.5s1.836-38.52-40.48-38.52c-37.44 0-38.6 36.95-38.6 36.95s-5.51 42.43 39.46 42.43c43.13 0 39.62-40.86 39.62-40.86zm-52.32-13.46c7.94-4.86 18.08-1.89 21.89 5.42 0.72 1.38 0.81 3.51 0.35 4.97-1.57 5.01-5.29 7.82-10.4 9.02 1.51-1.29 2.7-2.75 3.08-4.77a6.986 6.986 0 0 0-1.2-5.55 7.08 7.08 0 0 0-8.15-2.48c-3.14 1.19-4.86 4.06-4.55 7.59 0.28 3.28 2.77 5.4 7.42 6.2-0.69 0.37-1.23 0.64-1.75 0.94a16.91 16.91 0 0 0-5.44 4.72c-0.47 0.64-0.8 0.69-1.51 0.25-9.35-5.72-9.96-20.06 0.26-26.31zm-7 35.33c-1.5 0.38-2.96 0.94-4.5 1.45 0.76-5.07 6.69-9.74 11.71-9.2a12.93 12.93 0 0 0-2.45 6.85c-1.67 0.3-3.24 0.51-4.76 0.9zm31.96-49.48c1.48 0.06 2.97 0.03 4.448 0.07a7.687 7.687 0 0 1 1.108 0.153 10.74 10.74 0 0 1-1.128 1.438c-0.529 0.495-1.128 0.978-1.888 0.226-0.19-0.181-0.62-0.139-0.94-0.143-1.48-0.02-2.96-0.07-4.43-0.01a27.53 27.53 0 0 0-3.82 0.389c-0.23 0.04-0.59 0.829-0.48 1.119 0.26 0.684 0.63 1.438 1.19 1.876 2.04 1.616 4.22 3.073 6.28 4.683 2 1.55 3.858 3.26 4.986 5.62 1.478 3.06 1.517 6.28 0.889 9.51-1.068 5.39-3.795 9.86-8.205 13.1-1.78 1.31-3.99 2.05-6.03 2.99-1.79 0.83-3.64 1.54-5.43 2.36-3.25 1.47-5.07 4.99-4.53 8.64 0.49 3.36 3.44 6.16 6.81 6.74 4.04 0.69 8.22-1.94 9.21-6.05 1.11-4.62-1.4-8.75-6.1-10-0.21-0.1-0.42-0.11-0.85-0.22 1.26-0.56 2.34-0.96 3.35-1.52q2.62-1.44 5.15-3.06c0.5-0.31 0.77-0.31 1.19 0 3.229 2.8 5.155 6.28 5.694 10.54 0.898 7.06-2.435 13.55-8.744 16.87-9.75 5.15-21.68-0.71-23.84-11.52-1.84-9.26 4.69-17.66 12.56-19.28 3.38-0.7 6.48-2.11 8.88-4.71 1.55-1.69 2.31-3.13 2.56-3.78a10.47 10.47 0 0 0 0.72-3.83 8.961 8.961 0 0 0-0.78-3.28c-0.82-1.87-3.97-4.85-4.75-5.48l-7.41-5.8c-0.26-0.21-0.55-0.2-1.19-0.16-0.76 0-2.69 0.16-3.53-0.1 0.68-0.508 2.52-1.252 3.31-1.85-2.4-1.622-5.14-1.036-7.66-1.521 0.59-1.083 3.46-2.749 5.1-2.934a24.22 24.22 0 0 0-0.44-2.72c-0.1-0.368-0.52-0.725-0.87-0.936-0.87-0.509-1.79-0.93-2.79-1.437a5.804 5.804 0 0 1 2.99-0.928 11.2 11.2 0 0 1 3.01 0.293c1.78 0.407 3.2 0.141 4.62-1.071-1.11-0.45-2.23-0.861-3.31-1.347a32.55 32.55 0 0 1-3.12-1.629c2.81 0.39 5.53 1.444 8.4 1.059q0-0.196 0.1-0.392c-2.14-0.5-4.29-1-6.67-1.554 3.98-0.364 7.68-0.424 11.19 1.285 0.99 0.48 2.02 0.878 2.97 1.428 0.46 0.267 0.77 0.795 1.15 1.206 0.3 0.326 0.54 0.763 0.91 0.959 1.4 0.746 2.95 0.775 4.518 0.738v-0.527c1.587 0.494 3.363 2.319 3.36 3.652-2.561 0-5.118 0-7.678 0.02-0.28 0-0.55 0.202-0.82 0.311 0.26 0.151 0.51 0.423 0.78 0.433z" fill="#88171a"/><path d="m-107 89.13a0.3917 0.3917 0 0 0 0 0.626 0.5907 0.5907 0 0 0 0.81 0.218c0.25-0.125 0.49-0.257 0.79-0.415-0.24-0.205-0.43-0.374-0.63-0.538-0.35-0.287-0.64-0.106-0.92 0.108z"/></g><g transform="matrix(.8646 0 0 .8646 -246.3 -18.71)" enable-background="new"><g fill-rule="evenodd"><rect x="315.5" y="54.5" width="24" height="21" rx="1.567" ry="1.567" filter="url(#filter4684)" opacity=".1907" stroke="#000" stroke-dashoffset=".7" stroke-linecap="round" stroke-linejoin="round" stroke-opacity=".9924"/><rect x="314.5" y="53.5" width="24" height="21" rx="1.567" ry="1.567" fill="url(#linearGradient3278)" stroke="#888a85" stroke-dashoffset=".7" stroke-linecap="round" stroke-linejoin="round" stroke-opacity=".9924"/><path d="m325 59.07c-0.64 0-1.16 0.516-1.16 1.154v0.288c0 0.293-0.23 0.543-0.54 0.543h-0.12c-0.64 0-1.16 0.704-1.16 1.342v5.445c0 0.638 0.52 1.154 1.16 1.154h6.56c0.64 0 1.16-0.516 1.16-1.154v-5.445c0-0.638-0.52-1.342-1.16-1.342h-0.14c-0.26 0.02-0.55-0.186-0.55-0.526v-0.305c0-0.638-0.51-1.154-1.15-1.154z" fill="url(#linearGradient4307)" stroke="#fff" stroke-width="2"/><path d="m325 59.07c-0.64 0-1.16 0.516-1.16 1.154v0.288c0 0.293-0.23 0.543-0.54 0.543h-0.12c-0.64 0-1.16 0.704-1.16 1.342v5.445c0 0.638 0.52 1.154 1.16 1.154h6.56c0.64 0 1.16-0.516 1.16-1.154v-5.445c0-0.638-0.52-1.342-1.16-1.342h-0.14c-0.26 0.02-0.55-0.186-0.55-0.526v-0.305c0-0.638-0.51-1.154-1.15-1.154z" fill="url(#linearGradient4307)"/></g><rect x="325" y="60" width="3" height="2" rx=".3978" ry=".3978" color="#000000" fill="url(#linearGradient4182)"/><path d="m327.7 103.7s20-14 12-16-28.06 7.627-38 7c-10.11-0.638 22.5-9.83 24.77-27.71" fill="none" filter="url(#filter4618)" opacity=".4944" stroke="url(#radialGradient4612)" stroke-width="2"/><rect x="323.5" y="62.5" width="6" height="5" rx=".1768" ry=".1768" color="#000000" fill="#d3d7cf" stroke="url(#linearGradient4212)"/><rect transform="scale(-1)" x="-328.5" y="-66.5" width="4" height="3" rx=".1768" ry=".1768" color="#000000" fill="#888a85" stroke="url(#linearGradient4231)"/><rect x="315.5" y="54.5" width="22" height="19" rx=".5674" ry=".5674" fill="none" stroke="url(#linearGradient4380)" stroke-dashoffset=".7" stroke-linecap="round" stroke-linejoin="round" stroke-opacity=".9924"/><path d="m325 63.81c-1.03 8.083-9.29 14.95-16.38 19.75-3.54 2.401-6.67 4.247-8.53 5.718-0.46 0.368-0.85 0.712-1.18 1.125-0.34 0.414-0.74 1.02-0.57 1.907 0.17 0.886 0.92 1.362 1.47 1.562 0.56 0.2 1.11 0.299 1.81 0.344 5.52 0.347 13.01-2.019 20.25-4.094 7.25-2.075 14.34-3.76 17.5-2.969 0.73 0.182 0.75 0.332 0.75 0.344 0 0.01 0 0.304-0.25 0.906-0.56 1.204-2.21 3.148-4.15 4.969-3.89 3.642-8.85 7.095-8.85 7.095l1.72 2.47s5.04-3.519 9.16-7.377c2.06-1.93 3.91-3.892 4.84-5.875 0.47-0.992 0.75-2.114 0.32-3.25-0.44-1.137-1.55-1.87-2.82-2.188-4.83-1.209-11.76 0.918-19.03 3-6.88 1.972-13.91 3.965-18.4 3.938 1.62-1.195 4.33-2.874 7.65-5.125 7.26-4.922 16.44-12.08 17.69-21.88z" color="#000000" fill="url(#linearGradient3248-0)" fill-rule="evenodd" stroke="url(#linearGradient3250-1)" stroke-linejoin="round"/><path transform="scale(-1)" d="m-324.5-64c0 0.1-0.1 0.501-0.17 0.501h-3.64c-0.1 0-0.18-0.08-0.18-0.177v-2.646c0-0.1 0.42-0.177 0.5-0.177" color="#000000" fill="none" stroke="url(#linearGradient4231)"/></g><g transform="matrix(.8646 0 0 .8646 -270 -43.44)" enable-background="new"><g fill-rule="evenodd"><rect x="315.5" y="54.5" width="24" height="21" rx="1.567" ry="1.567" filter="url(#filter4684)" opacity=".1907" stroke="#000" stroke-dashoffset=".7" stroke-linecap="round" stroke-linejoin="round" stroke-opacity=".9924"/><rect x="314.5" y="53.5" width="24" height="21" rx="1.567" ry="1.567" fill="url(#linearGradient3278)" stroke="#888a85" stroke-dashoffset=".7" stroke-linecap="round" stroke-linejoin="round" stroke-opacity=".9924"/><path d="m325 59.07c-0.64 0-1.16 0.516-1.16 1.154v0.288c0 0.293-0.23 0.543-0.54 0.543h-0.12c-0.64 0-1.16 0.704-1.16 1.342v5.445c0 0.638 0.52 1.154 1.16 1.154h6.56c0.64 0 1.16-0.516 1.16-1.154v-5.445c0-0.638-0.52-1.342-1.16-1.342h-0.14c-0.26 0.02-0.55-0.186-0.55-0.526v-0.305c0-0.638-0.51-1.154-1.15-1.154z" fill="url(#linearGradient4307)" stroke="#fff" stroke-width="2"/><path d="m325 59.07c-0.64 0-1.16 0.516-1.16 1.154v0.288c0 0.293-0.23 0.543-0.54 0.543h-0.12c-0.64 0-1.16 0.704-1.16 1.342v5.445c0 0.638 0.52 1.154 1.16 1.154h6.56c0.64 0 1.16-0.516 1.16-1.154v-5.445c0-0.638-0.52-1.342-1.16-1.342h-0.14c-0.26 0.02-0.55-0.186-0.55-0.526v-0.305c0-0.638-0.51-1.154-1.15-1.154z" fill="url(#linearGradient4307)"/></g><rect x="325" y="60" width="3" height="2" rx=".3978" ry=".3978" color="#000000" fill="url(#linearGradient4182)"/><path d="m300.6 93.52c-10.11-0.638 23.68-8.647 25.95-26.52" fill="none" filter="url(#filter4618)" opacity=".4944" stroke="url(#radialGradient81)" stroke-width="2"/><rect x="323.5" y="62.5" width="6" height="5" rx=".1768" ry=".1768" color="#000000" fill="#d3d7cf" stroke="url(#linearGradient4212)"/><rect transform="scale(-1)" x="-328.5" y="-66.5" width="4" height="3" rx=".1768" ry=".1768" color="#000000" fill="#888a85" stroke="url(#linearGradient4231)"/><rect x="315.5" y="54.5" width="22" height="19" rx=".5674" ry=".5674" fill="none" stroke="url(#linearGradient4380)" stroke-dashoffset=".7" stroke-linecap="round" stroke-linejoin="round" stroke-opacity=".9924"/><path d="m325 63.81c-1.03 8.083-9.29 14.95-16.38 19.75-3.54 2.401-6.67 4.247-8.53 5.718-0.46 0.368-0.85 0.712-1.18 1.125-0.34 0.414 0.82 1.821 1.56 1.287 3.35-2.449 5.69-2.784 12.14-7.804 5.82-4.537 14.14-9.908 15.39-19.7z" color="#000000" fill="url(#linearGradient85)" fill-rule="evenodd" stroke="#3465a4" stroke-linejoin="round"/><path transform="scale(-1)" d="m-324.5-63.99c0 0.1-0.13 0.492-0.21 0.492h-3.64c-0.1 0-0.18-0.08-0.18-0.177v-2.646c0-0.1 0.42-0.177 0.5-0.177" color="#000000" fill="none" stroke="url(#linearGradient4231)"/></g></svg>
