<svg width="32" height="32" version="1.1" viewBox="0 0 48 48" xmlns="http://www.w3.org/2000/svg" xmlns:xlink="http://www.w3.org/1999/xlink"><defs><linearGradient id="linearGradient36138"><stop stop-color="#fff" offset="0"/><stop stop-color="#fff" stop-opacity="0" offset="1"/></linearGradient><linearGradient id="linearGradient7887" x1="-7.975" x2="-11.01" y1="25.36" y2="-6.568" gradientTransform="matrix(2 0 0 1.933 43.5 .5333)" gradientUnits="userSpaceOnUse"><stop stop-color="#d3d7cf" offset="0"/><stop stop-color="#fff" offset="1"/></linearGradient><linearGradient id="linearGradient7889" x1="-7.852" x2="-5.51" y1="3.755" y2="18.94" gradientUnits="userSpaceOnUse"><stop stop-color="#fff" offset="0"/><stop stop-color="#fff" stop-opacity="0" offset="1"/></linearGradient><linearGradient id="linearGradient5940"><stop stop-color="#2e3436" offset="0"/><stop stop-color="#555753" offset="1"/></linearGradient><linearGradient id="linearGradient3387"><stop stop-color="#8f9388" offset="0"/><stop stop-color="#c6cac2" offset=".5"/><stop stop-color="#d3d7cf" stop-opacity="0" offset="1"/></linearGradient><linearGradient id="linearGradient32908" x1="22.36" x2="28.25" y1="11.89" y2="11.89" gradientUnits="userSpaceOnUse" xlink:href="#linearGradient3387"/><linearGradient id="linearGradient36140" x1="22.36" x2="28.25" y1="11.89" y2="11.89" gradientUnits="userSpaceOnUse" xlink:href="#linearGradient36138"/><linearGradient id="linearGradient36952" x1="22.36" x2="28.25" y1="11.89" y2="11.89" gradientUnits="userSpaceOnUse" xlink:href="#linearGradient36138"/><filter id="filter5386-65" x="-.01972" y="-.02176" width="1.039" height="1.044" color-interpolation-filters="sRGB"><feGaussianBlur stdDeviation="0.26293105"/></filter><filter id="filter5386-2-2" x="-.01972" y="-.02176" width="1.039" height="1.044" color-interpolation-filters="sRGB"><feGaussianBlur stdDeviation="0.26293105"/></filter><linearGradient id="linearGradient7422"><stop stop-color="#edd400" offset="0"/><stop stop-color="#edd400" stop-opacity="0" offset="1"/></linearGradient><linearGradient id="linearGradient2128329" x1="32.81" x2="32.81" y1="21" y2="26.2" gradientTransform="matrix(.903 0 0 .9021 36.25 -116.5)" gradientUnits="userSpaceOnUse" xlink:href="#linearGradient5940"/><linearGradient id="linearGradient2128331" x1="28.88" x2="29" y1="29" y2="16" gradientTransform="matrix(.8304 0 0 .8304 38.39 -114.9)" gradientUnits="userSpaceOnUse" xlink:href="#linearGradient36138"/><linearGradient id="linearGradient2128333" x1="30.31" x2="30.31" y1="27.31" y2="24.69" gradientTransform="matrix(.8304 0 0 .8304 38.39 -115.7)" gradientUnits="userSpaceOnUse" xlink:href="#linearGradient7422"/><linearGradient id="linearGradient50053" x1="-7.975" x2="-11.01" y1="25.36" y2="-6.568" gradientTransform="matrix(2 0 0 1.933 43.5 .5333)" gradientUnits="userSpaceOnUse" xlink:href="#linearGradient7887"/><linearGradient id="linearGradient50055" x1="-7.852" x2="-5.51" y1="3.755" y2="18.94" gradientUnits="userSpaceOnUse" xlink:href="#linearGradient7889"/></defs><clipPath id="b"><rect x="68.78" y="-.0933" width="58.26" height="58.26" rx="2.648"/></clipPath><filter id="c" x="-.021" y="-.021" width="1.042" height="1.042" color-interpolation-filters="sRGB"><feGaussianBlur stdDeviation=".28282197"/></filter><clipPath id="h"><path d="m-6.562 24.53c-0.3877 0-0.6917 0.219-0.9062 0.469l-0.031-0.03-0.031 0.06-0.3438 0.313-4.25 1.218c-0.03 0-0.06 0.02-0.09 0.03-0.549 0.274-0.902 0.554-1.094 0.937-0.192 0.384-0.116 0.867 0.125 1.156 0.329 0.394 0.858 0.553 1.407 0.657l-0.407 0.437c-0.06 0.05-0.1 0.116-0.125 0.188-0.03 0.121-0.07 0.316-0.125 0.5-0.02 0.04-0.03 0.08-0.03 0.125v6.656c0 0.299 0.113 0.582 0.313 0.813 0.199 0.23 0.511 0.406 0.875 0.406h7.843c0.3236 0 0.6569-0.116 0.9063-0.375l4.651-4.81c0.2259-0.235 0.3437-0.539 0.3437-0.875v-6.625c0-0.335-0.1178-0.64-0.3437-0.875-0.2227-0.229-0.5504-0.375-0.874-0.375z"/></clipPath><filter id="i" x="-.03844" y="-.04352" width="1.077" height="1.087" color-interpolation-filters="sRGB"><feGaussianBlur stdDeviation=".1491362"/></filter><filter id="p" x="-.02026" y="-.02354" width="1.04" height="1.047" color-interpolation-filters="sRGB"><feGaussianBlur stdDeviation=".071069152"/></filter><filter id="x" x="-.03625" y="-.04222" width="1.071" height="1.083" color-interpolation-filters="sRGB"><feGaussianBlur stdDeviation=".16679387"/></filter><clipPath id="A"><path d="m-95.3 143.8s-4.189 3.27-8.1 6.5c-1.95 1.62-3.69 3.22-4.72 4.78-0.51 0.78-0.98 1.62-0.65 2.78 0.16 0.58 0.61 1.12 1.09 1.41 0.48 0.28 0.96 0.4 1.5 0.47 2.13 0.24 4.73-0.4 7.849-1.28 3.113-0.89 6.669-2.09 10.25-3.25 3.581-1.17 7.196-2.31 10.34-3 3.147-0.7 5.835-0.89 7.375-0.5 0.729 0.18 0.745 0.3 0.75 0.31 0 0 0.06 0.33-0.219 0.94-0.567 1.2-2.245 3.11-4.187 4.93-3.885 3.64-8.844 7.13-8.844 7.13l1.75 2.44s5.041-3.52 9.156-7.38c2.058-1.93 3.879-3.89 4.813-5.87 0.466-1 0.776-2.12 0.343-3.25-0.433-1.14-1.541-1.87-2.812-2.19-2.46-0.62-5.444-0.21-8.781 0.53-3.337 0.73-7.019 1.85-10.62 3.03-3.607 1.18-7.129 2.4-10.12 3.25-2.913 0.83-5.293 1.22-6.473 1.13 0.62-0.95 2.3-2.56 4.16-4.1 3.721-3.08 7.969-6.37 7.969-6.37z"/></clipPath><mask id="B" maskUnits="userSpaceOnUse"><rect x="-115.6" y="147" width="51.28" height="17.34" rx=".6657" fill="url(#C)" fill-rule="evenodd" stroke-width="2"/></mask><linearGradient id="C" x1="-112.3" x2="-112.3" y1="148.9" y2="164.5" gradientUnits="userSpaceOnUse"><stop offset="0"/><stop stop-color="#fff" offset=".2177"/><stop stop-color="#fff" offset=".7659"/><stop offset="1"/></linearGradient><filter id="D" x="-.0125" y="-.04971" width="1.026" height="1.099" color-interpolation-filters="sRGB"><feGaussianBlur stdDeviation="0.001 0.244"/></filter><filter id="H" x="-.395" y="-.5737" width="1.79" height="2.147" color-interpolation-filters="sRGB"><feGaussianBlur stdDeviation="2.8946329"/></filter><g transform="translate(0 -.1594)" stroke-width=".06499"><path d="m46.3 12.37s0.45-9.448-9.929-9.448c-9.182 0-9.466 9.063-9.466 9.063s-1.352 10.41 9.677 10.41c10.58 0 9.718-10.02 9.718-10.02zm-12.83-3.301c1.947-1.192 4.434-0.4635 5.368 1.329 0.177 0.339 0.199 0.861 0.09 1.219-0.385 1.229-1.297 1.918-2.551 2.212 0.371-0.316 0.663-0.674 0.756-1.17a1.713 1.713 0 0 0-0.295-1.361 1.736 1.736 0 0 0-1.998-0.608c-0.77 0.292-1.192 0.996-1.116 1.861 0.07 0.805 0.679 1.325 1.82 1.521-0.17 0.09-0.302 0.157-0.43 0.231a4.148 4.148 0 0 0-1.334 1.157c-0.115 0.157-0.196 0.169-0.37 0.06-2.293-1.402-2.443-4.919 0.06-6.452zm-1.717 8.665c-0.368 0.09-0.726 0.23-1.104 0.355 0.187-1.243 1.641-2.388 2.872-2.256a3.172 3.172 0 0 0-0.601 1.68c-0.409 0.07-0.794 0.125-1.167 0.221zm7.838-12.14c0.363 0.015 0.729 0.01 1.091 0.017a1.885 1.885 0 0 1 0.272 0.037 2.635 2.635 0 0 1-0.277 0.3527c-0.13 0.1214-0.277 0.2398-0.463 0.055-0.05-0.044-0.152-0.034-0.23-0.035-0.363 0-0.726-0.017-1.087 0a6.751 6.751 0 0 0-0.937 0.095c-0.06 0.01-0.145 0.2033-0.118 0.2744 0.06 0.1678 0.155 0.3527 0.292 0.4601 0.501 0.3964 1.035 0.7537 1.541 1.149 0.49 0.3801 0.946 0.7995 1.222 1.378 0.363 0.7508 0.372 1.541 0.218 2.333-0.262 1.322-0.93 2.418-2.012 3.213-0.436 0.321-0.979 0.502-1.479 0.733-0.439 0.203-0.893 0.378-1.332 0.579-0.797 0.36-1.243 1.223-1.111 2.119 0.121 0.824 0.844 1.51 1.671 1.653 0.99 0.169 2.016-0.476 2.258-1.484 0.273-1.133-0.343-2.146-1.496-2.453-0.05-0.02-0.103-0.03-0.208-0.05 0.309-0.137 0.574-0.235 0.822-0.372q0.642-0.354 1.263-0.751c0.122-0.08 0.188-0.08 0.291 0 0.792 0.687 1.265 1.54 1.397 2.585 0.22 1.732-0.597 3.323-2.145 4.138-2.391 1.263-5.317-0.175-5.846-2.826-0.452-2.271 1.15-4.331 3.08-4.728 0.829-0.172 1.589-0.518 2.178-1.155 0.38-0.415 0.566-0.768 0.628-0.928a2.567 2.567 0 0 0 0.176-0.939 2.198 2.198 0 0 0-0.191-0.804c-0.201-0.464-0.974-1.195-1.165-1.349l-1.817-1.422c-0.06-0.051-0.135-0.049-0.292-0.039-0.187 0-0.66 0.039-0.866-0.025 0.167-0.1244 0.618-0.3068 0.812-0.4535-0.589-0.3978-1.261-0.2541-1.879-0.373 0.145-0.2656 0.849-0.6742 1.251-0.7196a5.94 5.94 0 0 0-0.108-0.6671c-0.024-0.0902-0.127-0.1778-0.213-0.2295-0.214-0.1249-0.439-0.2281-0.685-0.3525a1.423 1.423 0 0 1 0.734-0.2276 2.746 2.746 0 0 1 0.738 0.072c0.436 0.1 0.785 0.035 1.133-0.2627-0.272-0.1105-0.547-0.2113-0.812-0.3304a7.984 7.984 0 0 1-0.765-0.3996c0.689 0.096 1.356 0.3542 2.06 0.2598q0-0.048 0.03-0.096c-0.53-0.1228-1.057-0.2454-1.641-0.3813 0.976-0.089 1.883-0.104 2.744 0.3151 0.243 0.1178 0.496 0.2154 0.729 0.3503 0.112 0.065 0.189 0.1949 0.282 0.2957 0.07 0.08 0.132 0.1872 0.223 0.2352 0.343 0.183 0.723 0.1901 1.108 0.181v-0.1292c0.389 0.1212 0.825 0.5687 0.824 0.8957h-1.883c-0.07 0-0.135 0.049-0.201 0.076 0.06 0.037 0.125 0.1037 0.191 0.1061z" fill="#aaa"/><path d="m38.77 4.664a0.09608 0.09608 0 0 0 0 0.1535 0.1449 0.1449 0 0 0 0.199 0.054c0.06-0.031 0.12-0.063 0.194-0.1018-0.06-0.05-0.106-0.092-0.155-0.132-0.09-0.07-0.157-0.026-0.225 0.027z"/></g><g transform="translate(23.4 24.87)" opacity=".7"><g transform="matrix(.6351 0 0 .6351 -6.855 1.584)" enable-background="new"><rect x="14.5" y="1.5" width="32" height="29" rx="2.877" ry="2.781" fill="url(#linearGradient50053)" fill-rule="evenodd" stroke="#888a85" stroke-dashoffset=".7" stroke-linecap="round" stroke-linejoin="round" stroke-opacity=".9924"/><path transform="matrix(2.143 0 0 2.087 44.43 -.6302)" d="m-12.5 1.498c-0.573 0-1.002 0.429-1.002 1.002v11c0 0.573 0.429 1.002 1.002 1.002h12c0.573 0 1.002-0.429 1.002-1.002v-11c0-0.573-0.429-1.002-1.002-1.002z" fill="none" stroke="url(#linearGradient50055)" stroke-dashoffset=".7" stroke-linecap="round" stroke-linejoin="round" stroke-opacity=".9924" stroke-width=".4729"/><rect transform="matrix(1.016 0 0 1.016 -.49 -.2715)" x="15.38" y="2.875" width="32" height="29" rx="3.723" ry="3.723" fill-rule="evenodd" filter="url(#filter5386-65)" opacity=".1205"/></g><g transform="translate(-50.61 107.7)"><path d="m62.04-100.7c-0.5306 0-0.9595 0.4284-0.9595 0.9585v0.239c0 0.2435-0.1904 0.4511-0.4515 0.4511h-1.298c-0.5306 0-0.9595 0.5841-0.9595 1.114v5.352c0 0.5301 0.4289 0.9585 0.9595 0.9585h7.111c0.5306 0 0.9595-0.4284 0.9595-0.9585v-5.352c0-0.5301-0.4288-1.114-0.9595-1.114h-1.298c-0.2174 0.01467-0.4515-0.1547-0.4515-0.437v-0.2531c0-0.5301-0.4289-0.9585-0.9595-0.9585z" fill="url(#linearGradient2128329)" fill-rule="evenodd" stroke-width=".8304"/><g fill="none" stroke-linecap="round"><path d="m62.11-101.3c-0.9212 0-1.648 0.754-1.713 1.661h-0.7785c-0.9625 0-1.765 0.8021-1.765 1.765v4.879c0 0.9625 0.8021 1.765 1.765 1.765h6.539c0.9625 0 1.765-0.8021 1.765-1.765v-4.879c0-0.9625-0.8021-1.765-1.765-1.765h-0.7785c-0.06462-0.9068-0.7915-1.661-1.713-1.661z" stroke="url(#linearGradient2128331)" stroke-dashoffset=".7" stroke-width=".8304"/><g stroke="url(#linearGradient2128333)" stroke-width=".8304px"><path d="m60.4-93.73v-1.661"/><path d="m62.06-93.73v-1.661"/><path d="m63.72-93.73v-1.661"/><path d="m65.38-93.73v-1.661"/></g></g></g></g><g transform="translate(-23.42 -24.88)" opacity=".7"><g transform="matrix(.6351 0 0 .6351 16.55 26.45)" enable-background="new"><rect x="14.5" y="1.5" width="32" height="29" rx="2.877" ry="2.781" fill="url(#linearGradient50053)" fill-rule="evenodd" stroke="#888a85" stroke-dashoffset=".7" stroke-linecap="round" stroke-linejoin="round" stroke-opacity=".9924"/><path transform="matrix(2.143 0 0 2.087 44.43 -.6302)" d="m-12.5 1.498c-0.573 0-1.002 0.429-1.002 1.002v11c0 0.573 0.429 1.002 1.002 1.002h12c0.573 0 1.002-0.429 1.002-1.002v-11c0-0.573-0.429-1.002-1.002-1.002z" fill="none" stroke="url(#linearGradient50055)" stroke-dashoffset=".7" stroke-linecap="round" stroke-linejoin="round" stroke-opacity=".9924" stroke-width=".4729"/><rect transform="matrix(1.016 0 0 1.016 -.49 -.2715)" x="15.38" y="2.875" width="32" height="29" rx="3.723" ry="3.723" fill-rule="evenodd" filter="url(#filter5386-2-2)" opacity=".1205"/></g><g transform="translate(-27 132.9)"><path d="m62.04-100.7c-0.5306 0-0.9595 0.4284-0.9595 0.9585v0.239c0 0.2435-0.1904 0.4511-0.4515 0.4511h-1.298c-0.5306 0-0.9595 0.5841-0.9595 1.114v5.352c0 0.5301 0.4289 0.9585 0.9595 0.9585h7.111c0.5306 0 0.9595-0.4284 0.9595-0.9585v-5.352c0-0.5301-0.4288-1.114-0.9595-1.114h-1.298c-0.2174 0.01467-0.4515-0.1547-0.4515-0.437v-0.2531c0-0.5301-0.4289-0.9585-0.9595-0.9585z" fill="url(#linearGradient2128329)" fill-rule="evenodd" stroke-width=".8304"/><g fill="none" stroke-linecap="round"><path d="m62.11-101.3c-0.9212 0-1.648 0.754-1.713 1.661h-0.7785c-0.9625 0-1.765 0.8021-1.765 1.765v4.879c0 0.9625 0.8021 1.765 1.765 1.765h6.539c0.9625 0 1.765-0.8021 1.765-1.765v-4.879c0-0.9625-0.8021-1.765-1.765-1.765h-0.7785c-0.06462-0.9068-0.7915-1.661-1.713-1.661z" stroke="url(#linearGradient2128331)" stroke-dashoffset=".7" stroke-width=".8304"/><g stroke="url(#linearGradient2128333)" stroke-width=".8304px"><path d="m60.4-93.73v-1.661"/><path d="m62.06-93.73v-1.661"/><path d="m63.72-93.73v-1.661"/><path d="m65.38-93.73v-1.661"/></g></g></g></g><g transform="matrix(0 -.9224 1.009 0 24.4 48.33)" fill="url(#linearGradient36952)" stroke="url(#linearGradient32908)"><rect x="22.65" y="10.74" width="5.314" height="2.304" opacity=".7" stroke-width=".5772"/><path d="m22.7 11.88 5.271-0.04727" fill-rule="evenodd" opacity=".19" stroke-width=".795"/></g><g transform="matrix(.7991 0 0 1.024 4.522 -.2818)" fill="url(#linearGradient36140)" stroke="url(#linearGradient32908)"><rect x="22.65" y="10.74" width="5.314" height="2.304" opacity=".7" stroke-width=".5772"/><path d="m22.7 11.88 5.271-0.04727" fill-rule="evenodd" opacity=".19" stroke-width=".795"/></g></svg>
