<svg xmlns="http://www.w3.org/2000/svg" width="532" height="501.3"><path d="M87.2 404.1c-6.4-2.9-13.4-11-15.2-17.4-.7-2.6-1.3-20.8-1.3-40.4 0-40 .3-41.7 9-50.7 7.6-7.7 13.6-9 44.5-9h26.4l-.7-3.6-19.2-106.9C117 100.8 112.5 72.2 113.4 70.4c1.5-2.7 7-3.2 9-.7.7.9 9.8 49 20.2 107 10.4 57.9 19.2 106.3 19.6 107.6.6 2.2 9.1 2.3 139.5 2.7l139 .3 5.3 2.9c6.2 3.3 10 7.2 13.5 13.8 2.3 4.2 2.5 8.1 2.5 43.3V386l-3.6 6.1c-2 3.4-6.2 7.9-9.3 10l-5.8 3.9-175.3.3c-168.3.3-175.5.2-180.8-2.2zM441.8 393a25 25 0 0 0 6.3-6.6c2.4-4 2.6-7 2.6-39 0-38.9-.6-41.4-9.4-46.2-4.4-2.3-12.5-2.4-175-2.4-188.2 0-175.5-.6-181 8.4-2.4 4-2.6 6.9-2.6 40.3 0 31.7.2 36.4 2.2 39.3 3 4.4 5.6 6.4 10.4 7.9 2.5.7 71 1.1 173.4 1 160.8-.3 169.6-.4 173-2.7zm-314.1-41c-2.7-1.6-3.1-6.6-.8-9 1-1 5.8-1.6 12.4-1.6 6.7 0 11.5.7 12.4 1.6 2.5 2.5 2 7.5-1 9-3.2 1.8-20 1.8-23 0zm46.4-.7c-2.5-2.5-2.7-6-.5-8.3 2.5-2.5 23-2 25.6.5 2.8 2.8 2.7 4-.5 7.3-2.2 2.2-4.5 2.6-12.6 2.6-7.2 0-10.5-.5-12-2zm46.8-.3c-1.2-1.3-2.2-3.3-2.2-4.4 0-4 3.1-5.2 15-5.2 11.3 0 11.7.1 13.3 3.5 1.4 3.1 1.2 3.8-1.5 6-4.4 3.6-21.4 3.6-24.6 0zm160.3 0c-2.7-2.3-3-3-1.5-6 1.5-3.5 2-3.6 13.3-3.6 12.1 0 15 1.1 15 5.6 0 4.1-5.3 6.4-14.8 6.4-6.7 0-9.7-.6-12-2.5zm-15.8-69.5c-2.3-2.3-2.3-3.2 1.3-23.6a17088 17088 0 0 1 34.1-187.7c1.3-3.4 6-4 8.8-1.1 2.5 2.5 2.4 3-4.1 39.1l-18.2 100.6c-6.4 35.2-12 66.2-12.7 68.8-1.5 5.8-5.6 7.5-9.2 3.9zm-110-60a28 28 0 0 1 .9-51.3c20.5-8.6 43.1 11.5 37 33a28 28 0 0 1-38 18.4zm19-11.2a17 17 0 0 0 6.2-22.2c-4.7-9.2-19.2-10.7-26.2-2.8-3 3.3-3.7 5.5-3.7 10.2 0 3.4.6 7.3 1.4 8.8 3.5 6.6 15.5 9.8 22.3 6zm-63.8-50.3c-2.2-4 .9-7.8 12.7-15.7a77.5 77.5 0 0 1 91.4 3.4c6.6 5 9 9.2 7.5 13-1.3 3.5-7.5 2.3-13-2.4a66.7 66.7 0 0 0-85-.3c-6.5 5.4-11.4 6.1-13.6 2zm-27-26.8c-4.5-2.5-2.8-8.3 4-14a127 127 0 0 1 49-26c8.3-2.2 14.8-2.8 28.7-3 19.7-.1 30.3 1.8 47 8.7 17.7 7.3 39.7 23.9 39.7 30 0 2.5-3.2 5.9-5.7 5.9-.3 0-5-3.6-10.4-8a106.3 106.3 0 0 0-62.9-25 106 106 0 0 0-78.3 27c-5.7 5.1-8.1 6.1-11.1 4.4z"/></svg>