<svg xmlns="http://www.w3.org/2000/svg" width="3221.3" height="3149.3"><path d="M1531 3117a1612 1612 0 0 1-1172-579A1529 1529 0 0 1 24 1307c37-222 125-435 257-622 135-193 316-356 523-472A1635 1635 0 0 1 1745 7c492 40 939 298 1210 701a1520 1520 0 0 1 98 1538 1599 1599 0 0 1-1333 869c-33 3-155 4-189 2zm156-36a1582 1582 0 0 0 1138-556 1492 1492 0 0 0-335-2226 1612 1612 0 0 0-1893 97A1518 1518 0 0 0 41 1467a1484 1484 0 0 0 180 806c169 307 441 550 769 687a1611 1611 0 0 0 697 121zm-815-230-6-3c-51-13-92-50-107-97-9-27-8-13-8-255l-1-224-1-3H540c-228 0-209 0-232-8-48-16-86-56-98-104-3-13-5-37-5-76 1-36 1-40 5-40l16-8a14709 14709 0 0 1 195-126l7-4v-621l1-635a169 169 0 0 1 26-75 184 184 0 0 1 118-82l7-3c1-3 2050-3 2051 0l9 4a185 185 0 0 1 129 111l2 3 9 34c2 12 2 51 2 642l1 629 5 3a9793 9793 0 0 1 213 127l3 1c3 0 3 2 3 48 0 37-1 47-2 47l-3 11a153 153 0 0 1-115 118c-10 4-11 4-237 4l-227 1v118c-1 129-1 128-10 155a216 216 0 0 1-158 151c-25 8-15 7-369 7-323 0-329 0-330 3l-1 10c0 7-4 26-7 37a148 148 0 0 1-109 97l-6 3-280 1-281-1zm567-46c4-1 7-3 7-4l4-1 6-2 6-4a101 101 0 0 0 37-38l2-4 2-5 3-6 2-5 2-7c2-3 2-66 2-511a14429 14429 0 0 0-4-519l-3-8-2-6-1-2-4-5c-4-9-25-32-33-36l-8-5-10-4-4-2-6-2-7-2a17532 17532 0 0 0-561 2l-6 2-5 3a126 126 0 0 0-53 48c-2 4-8 17-8 20l-2 7a58349 58349 0 0 0 2 1023l3 9 3 7 2 3 2 4 1 3 6 8 8 11a125 125 0 0 0 43 27l7 2c4 2 41 2 282 2 258-1 278-1 285-3zm-356-41-2-22c0-20 0-20 3-21h138c2 1 3 41 1 43-1 1-30 2-70 2-64 0-69 0-70-2zm-240-88a73557 73557 0 0 1-1-963l1-4 620 1 1 481-1 483v3h-309l-311-1zm577-43 1-441v-439H886l-1 439 1 441c1 3 5 3 267 3 261 0 266 0 267-3zm810 24 10-2 9-2 6-2 7-2 7-3 6-3 4-2 4-2 4-2 4-2 3-2c2 0 23-16 32-24a241 241 0 0 0 35-48c4-6 6-10 6-13l2-5 2-6 2-6 3-10 2-9 2-783c0-675 0-781-2-786l-3-13-2-9-2-6-2-6-2-6-2-4-2-5c0-2-1-4-3-5l-3-4c0-3-9-17-13-21l-4-5a128 128 0 0 0-30-29l-9-7-4-2a116 116 0 0 0-26-14l-6-2-5-2-6-2-7-2-7-2-16-2c-9-1-67-2-471-2a31506 31506 0 0 0-477 4l-13 2c-2 2-5 2-7 2l-7 2-4 2-8 3-7 3-2 1-4 3-7 4-6 3a191 191 0 0 0-63 71l-2 4-2 5-2 5-2 6-3 8c-2 3-2 6-2 9l-2 9c-2 4-2 43-2 323v319h110V951h514c410 0 514 1 514 2l-1 740v738h-711l-1 114v114h335c294 0 335-1 339-2zm-595-78c-1 0-2-9-2-34 0-19 1-34 2-35h240l1 35-1 34-119 1-121-1zm128-1675-6-3c-3 0-8-6-10-10-5-10-6-15-4-20 4-13 7-18 18-22 9-5 14-4 23 0s11 5 15 12c2 4 3 6 3 15 0 14-4 20-17 26-9 5-15 6-22 2zm462 1483c2-1 2-63 2-696 0-539-1-696-2-697-1-2-107-2-471-2h-469v3l-1 294 1 292h68a711 711 0 0 1 95 7l8 3 4 2 4 2c3 0 17 7 27 14a246 246 0 0 1 40 42c3 3 12 19 12 21l2 4 2 5 2 6 2 11 3 14c2 5 2 57 2 340l1 335h668zM749 2225c2-2 2-137 0-139-1-2-58-2-250-2-222 0-248 0-250 2-2 3 0 50 2 61a109 109 0 0 0 87 79 20258 20258 0 0 0 411-1zm2134-2a110 110 0 0 0 79-113c1-21 1-22-1-24-4-3-534-3-537 0l-1 69 1 70c0 2 20 2 225 1h225zM749 1903c1-2 2-14 2-30s-1-28-2-29c-1-3-3-3-88-3l-89-1-1-596 1-596 1033-1h1033v1191l-1 3h-105c-81 0-107 1-108 2-2 2-2 59 0 61l156 1c152 0 153 0 156-2 3-3 3-5 3-628 0-619 0-625-3-637a120 120 0 0 0-13-35 138 138 0 0 0-93-71l-12-3H1605c-979 0-1013 0-1023 2-51 12-89 45-105 94-7 19-6-10-6 654 0 502 1 621 2 623l2 3h136c134 0 137 0 138-2zm842-1280c-7-3-16-11-19-18-6-13-2-31 9-39 9-7 13-9 23-9s14 2 23 9c15 12 16 36 1 50-10 9-25 12-37 7zM749 1800c1-1 2-12 2-41 0-42 1-55 7-72 7-25 18-41 35-59 24-24 46-36 79-43 12-2 18-2 113-2 76 0 100-1 101-2 2-1 2-73 2-315 0-279 0-316 2-328 2-14 4-22 10-38 6-17 6-19 16-37a222 222 0 0 1 164-110c20-2 928-2 949 0a221 221 0 0 1 192 197c1 5 2 198 2 429l1 421c3 2 171 2 173 0 1-2 2-148 1-557V687h-991l-993 1c-3 1-3 1109-1 1112 3 2 134 2 136 0z"/></svg>