<svg xmlns="http://www.w3.org/2000/svg" width="3221.3" height="3149.3"><path d="m872 2851-6-3c-27-7-50-19-69-37-16-15-31-38-38-59-9-27-8-13-8-256l-1-224-1-3H540c-228 0-209 0-232-8-50-17-87-58-99-108-2-11-3-19-3-60-1-49-1-52 4-52l11-5a11936 11936 0 0 1 200-129l7-4v-621l1-635a169 169 0 0 1 26-75c8-13 24-31 36-42 22-19 57-36 82-40l7-3c1-3 2050-3 2051 0l7 3a184 184 0 0 1 142 149c2 12 2 51 2 642l1 629 5 3a4267 4267 0 0 1 86 51 7652 7652 0 0 0 130 77c2 0 3 4 3 47 0 39-1 48-2 48-1 1-3 5-4 11a149 149 0 0 1-114 119c-10 2-11 2-237 3l-227 1v118c-1 130-1 128-10 157a215 215 0 0 1-158 150c-26 6-16 6-369 6-324 0-329 0-330 3l-1 10c0 15-7 37-16 55-19 40-55 68-100 79l-6 3-280 1-281-1zm567-46c4-1 7-3 7-4l4-1 6-2 6-4a101 101 0 0 0 37-38l2-4 2-5 3-6 2-6 2-6c2-3 2-66 2-511a14429 14429 0 0 0-4-519l-3-8-2-6-1-2-4-5c-2-6-8-13-17-22a80 80 0 0 0-26-19l-11-6-8-2-6-2c-2-1-38-2-276-2a4388 4388 0 0 0-285 4l-6 2-5 3a124 124 0 0 0-53 48c-3 4-8 17-8 21l-2 6a58963 58963 0 0 0 2 1024l3 8 3 6 2 4 2 3 4 8 5 7c0 2 12 14 16 16l4 4 3 2c1 0 2 0 3 2s2 2 3 2l5 2c1 2 4 3 5 3l5 2 5 2 7 2c4 2 41 2 282 2 258-1 278-1 285-3zm-288-39-69-2-1-22c0-18 1-21 3-21h138c2 0 2 4 2 22 0 14 0 21-2 22l-2 1h-69zm-308-90a73625 73625 0 0 1-1-963l1-4h310c281 0 309 1 310 2v964c-1 2-29 2-310 2l-310-1zm577-43 1-441v-439H886l-1 439 1 441c1 3 5 3 267 3 261 0 266 0 267-3zm810 24 10-2 9-2 6-2 7-2 7-3 6-3 4-2 4-2 3-2 6-2 4-3a174 174 0 0 0 81-120c2-1 2-160 3-782 0-669 0-782-2-787l-3-13-2-9-2-6-2-6-2-6-2-4-2-5c0-2-2-4-3-5l-3-4c0-3-8-15-13-21l-4-5c0-2-12-15-20-21l-13-10-7-5-3-2-7-4-9-5-15-7-5-2-7-2-7-2-7-2-16-2a49523 49523 0 0 0-953 2l-8 2-7 2-7 2-4 2-17 7-5 3-7 4-6 4-13 9a135 135 0 0 0-33 35c-2 1-8 11-11 18l-4 5-1 3-2 4-2 5-2 5-2 6-3 8c-2 3-2 6-2 8l-2 10c-2 4-2 43-2 323v319h110V951h514c410 0 514 1 514 2l-1 740v738h-711l-1 114v114h334c295 0 336-1 340-2zm-595-78c-2-1-2-68 0-69h240l1 35-1 34-119 1-121-1zm128-1675-6-3c-3 0-8-6-11-10-6-13-5-17 1-31 3-6 7-9 14-12 9-3 15-3 23 1 9 4 11 5 15 12 2 4 3 6 3 15 0 10-1 12-4 16-5 7-19 15-26 15l-9-3zm462 1482c2-2 2-1387 0-1391-1-3-8-3-470-3h-470v3l-1 294 1 292h68a697 697 0 0 1 95 7l7 3 5 2 4 2c6 0 30 14 40 25a200 200 0 0 1 27 31c3 3 12 19 12 21l2 4 2 5 2 6 2 11 3 14c2 5 2 57 2 340l1 335a31662 31662 0 0 0 668-1zM749 2225c2-2 2-137 0-139-1-2-58-2-250-2-222 0-248 0-250 2-2 3-1 50 2 61a109 109 0 0 0 87 79 20258 20258 0 0 0 411-1zm2134-2c30-9 56-31 68-56 8-18 10-29 11-57 1-21 1-23-1-24-4-3-534-3-537 0l-1 70 1 70h450zM749 1903c1-2 2-14 2-30s-1-28-2-29c-1-3-3-3-88-3l-89-1-1-596 1-596 1033-1h1033v1191l-1 3h-105c-81 0-107 1-108 2-2 2-2 59 0 61 3 2 311 1 313 0a89238 89238 0 0 0 0-1263c-6-29-18-51-39-72-18-19-40-31-70-38-10-2-55-2-1023-2H591l-12 3a138 138 0 0 0-107 117c-2 20-1 1249 1 1253l2 3h136c134 0 137 0 138-2zm842-1280-11-7c-15-14-14-38 1-50 9-7 13-9 23-9s14 2 23 9c11 8 15 26 9 39-8 17-28 25-45 18zM749 1800c1-1 2-12 2-41 0-33 0-42 2-54a146 146 0 0 1 119-120c12-2 18-2 112-2 65 0 100-1 101-2 3-1 3-6 3-315 0-349-1-327 9-358a215 215 0 0 1 182-155c16-2 935-2 952 0a220 220 0 0 1 190 196c1 5 2 192 2 429l1 422 87 1 86-1c1-1 2-113 1-557V687H615l-3 1v555c0 430 0 556 2 557 2 2 133 2 135 0z"/></svg>