<svg xmlns="http://www.w3.org/2000/svg" width="155" height="154"><path d="M63.7 152.4a76.7 76.7 0 0 1 .8-150.9 77.8 77.8 0 0 1 83.4 45c8 18 8 43 0 61a78.2 78.2 0 0 1-84.2 45zm1-12.6c-3-4-7.2-10.1-9.2-13.5L52 120H37.5a51 51 0 0 0-14.5 1 64 64 0 0 0 14.6 14c6 4.2 16.2 8.7 23.2 10.5 9.8 2.3 9.8 2.2 3.8-5.7zm39 2.5A63.6 63.6 0 0 0 132 121c0-.6-5.2-1-12.4-1h-12.4l-3 5.3c-1.6 2.8-5.5 8.7-8.6 13l-5.7 8 3.7-.8c2.1-.3 6.6-1.8 10.1-3.2zm-27-10-.2-11.8-8.3-.3c-4.8-.2-8.2.1-8.2.7 0 2 14.7 23 16.3 23 .4 0 .6-5.2.5-11.6zm16.8-2c3-4.4 5.5-8.6 5.5-9.2 0-.8-2.3-1-7.8-.9l-7.7.3-.3 12-.2 12 2.5-3c1.4-1.6 5-6.6 8-11.1zm-45-18c-2.5-6-5.5-17-6.6-24L40.7 80H6.8l.7 5.3c1 7.5 3.2 15.3 6.6 22.5l3 6.2h16c15 0 16-.1 15.4-1.7zM77 97V80H47l.7 5.3c.6 5.7 4.2 19 6.7 25L56 114h21zm28.1 12.3c2.5-5.7 5.4-16.7 6.4-24l.7-5.3H83v34h20zm35.7-1.5c3.4-7.1 5.8-14.9 6.7-22.5l.7-5.3h-29.8l-1.2 8.5a115 115 0 0 1-4.1 17l-3 8.5h27.6zm-99-43a111.5 111.5 0 0 1 6.2-25c0-.2-6.8-.2-15.2-.1l-15.2.2-2.2 3.7c-3 5-7 17.6-7.9 24.7L7 74h33.7zM77 57V40H55l-1.5 3.7c-2.3 5.6-5.2 17-6 24l-.7 6.3H77zm34.5 10.3c-.7-6.7-4.6-21.8-6.6-25.4-.9-1.7-2.2-1.9-11.4-1.9H83v34h29.2zm36 1c-.9-7-4.8-19.3-8-24.5l-2.2-4-13.2-.1c-11.3-.2-13 0-12.5 1.3 2.4 6.2 5.6 19.7 6 25.7l.7 7.3H148zM54 28.3c1.4-2.7 5.3-8.5 8.7-13S68.5 7 68 7a93 93 0 0 0-22.9 7.5 76.8 76.8 0 0 0-20.6 16L23 33h28.5zm23-7.5V8.5l-4.5 4.8a113.9 113.9 0 0 0-13.5 19c0 .4 4 .7 9 .7h9zm23 11.4c0-2-15-22.2-16.4-22.2-.3 0-.6 5.2-.6 11.5V33h8.5c4.7 0 8.5-.4 8.5-.8zm30.5-1.6c-5.3-8-24-19.4-36.4-22l-3.4-.8 3.5 4.3c3.1 4 7 9.7 12.2 18.2L108 33h24z"/></svg>