<svg xmlns="http://www.w3.org/2000/svg" width="196" height="198"><path d="M85 191c-14.4-2-31-8.8-42.5-17.2A92.1 92.1 0 0 1 64 13a96 96 0 0 1 75.3 3.5 96.6 96.6 0 0 1 43.8 45c6 13.3 8.3 20.4 8.3 38 0 17.3-2 22.8-7.5 35.7a96.4 96.4 0 0 1-48.8 48.7c-14.5 6.2-35.2 9-50.1 7zm34.7-7c9.8-2.5 24-9.3 32-15.4 41-31 46.2-91.2 11-128.3A86.7 86.7 0 0 0 97.2 12c-40.2 0-75 27-85.4 66.5-3 11.3-3 30.7 0 42A89.7 89.7 0 0 0 61.2 179a92.4 92.4 0 0 0 58.5 5zm-36-8.6a76.7 76.7 0 0 1 .8-150.9 77.8 77.8 0 0 1 83.4 45c8 18 8 43 0 61a78.2 78.2 0 0 1-84.2 45zm1-12.6c-3-4-7.2-10.1-9.2-13.5L72 143H57.5a51 51 0 0 0-14.5 1 64 64 0 0 0 14.6 14c6 4.2 16.2 8.7 23.2 10.5 9.8 2.3 9.8 2.2 3.8-5.7zm39 2.5A63.6 63.6 0 0 0 152 144c0-.6-5.2-1-12.4-1h-12.4l-3 5.3c-1.6 2.8-5.5 8.7-8.6 13l-5.7 8 3.7-.8c2.1-.3 6.6-1.8 10.1-3.2zm-27-10-.2-11.8-8.3-.3c-4.8-.2-8.2.1-8.2.7 0 2 14.7 23 16.3 23 .4 0 .6-5.2.5-11.6zm16.8-2c3-4.4 5.5-8.5 5.5-9.2 0-.8-2.3-1-7.8-.9l-7.7.3-.5 24 2.5-3c1.4-1.6 5-6.6 8-11.1zm-45-18c-2.5-6-5.5-17-6.6-24l-1.2-8.3H26.8l.7 5.3c1 7.5 3.2 15.3 6.6 22.5l3 6.2h16c15 0 16-.1 15.4-1.7zM97 120v-17H67l.7 5.3c.6 5.7 4.2 19 6.7 25L76 137h21zm28.1 12.3c2.5-5.7 5.4-16.7 6.4-24l.7-5.3H103v34h20zm35.7-1.5c3.4-7.1 5.8-14.9 6.7-22.5l.7-5.3h-29.8l-1.2 8.5a115 115 0 0 1-4.1 17l-3 8.5h27.6zm-99-43a111.5 111.5 0 0 1 6.2-25c0-.2-6.8-.2-15.2-.1l-15.2.2-2.2 3.7c-3 5-7 17.6-7.9 24.7L27 97h33.7zM97 80V63H75l-1.5 3.7c-2.3 5.6-5.2 17-6 24l-.7 6.3H97zm34.5 10.3c-.7-6.7-4.6-21.8-6.6-25.4-.9-1.7-2.2-1.9-11.4-1.9H103v34h29.2zm36 1c-.9-7-4.8-19.3-8-24.5l-2.2-4-13.2-.1c-11.3-.2-13 0-12.5 1.3 2.4 6.2 5.6 19.7 6 25.7l.7 7.3H168zM74 51.3c1.4-2.7 5.3-8.5 8.7-13S88.5 30 88 30a93 93 0 0 0-22.9 7.5 76.8 76.8 0 0 0-20.6 16L43 56h28.5zm23-7.5V31.5l-4.5 4.8a113.9 113.9 0 0 0-13.5 19c0 .4 4 .7 9 .7h9zm23 11.4c0-2-15-22.2-16.4-22.2-.3 0-.6 5.2-.6 11.5V56h8.5c4.7 0 8.5-.4 8.5-.8zm30.5-1.6c-5.3-8-24-19.4-36.4-22l-3.4-.8 3.5 4.3c3.1 4 7 9.7 12.2 18.2L128 56h24z"/></svg>