<svg xmlns="http://www.w3.org/2000/svg" width="432" height="440"><path fill="#e9e8e8" d="M123 91C0 0 0 0 123 91zM47 79.6C0 0 0 0 47 79.6z"/><path fill="#f7d1d1" d="M168.3 303.2C193 278.4 214.2 258 215 258c31.6 29.2 61.6 60 92 90.5 34.2-33.8 33-32.6 0 1l-45.3-45.3C237 279.4 215.8 259 215 259s-21.8 20.2-46.5 45zM132 264.5c24-24 43.7-43.5 44-43.5s-19 19.6-43 43.5c-58.1 58.1-56.5 55.5-1 0zm44-46.5C0 0 0 0 176 218z"/><path fill="#f8aeae" d="M88 127.5c0-3.9.6-4.6 17.3-21l17.2-17-16.8 17c-16 16.3-16.7 17.2-16.7 21zm80.5 7.2-45-45.2 45.2 45c56 55.6 48.8 49.5-.2.2z"/><path fill="#fa6f6f" d="m169.8 305 45.2-45.5 45.3 45.5c49.8 50 50.4 50.7 0 .5l-45.3-45-45.3 45c-50.4 50.2-49.8 49.6 0-.5zm-39-41 43.7-43.5-43.5 44c-53 54.7-54 53-.3-.5zm.2-87.8-43.5-43.7 43.7 43.5 43.8 43.7c0 .7-3.6-2.8-44-43.4zm37.5-42.2C137.8 103.3 123 89.2 122 89.5c-1.2.5-1.3.4-.2-.7 1-1 9.8 7.3 47 44.5 25.1 25.1 45.5 45.7 45.2 45.7s-20.8-20.3-45.5-45zm47 45.5C0 0 0 0 215.5 179.5zm-127.1-56C0 0 0 0 88.4 123.4z"/><path fill="#fd3939" d="M122.6 417A216.9 216.9 0 0 1 21.2 311.6a291.5 291.5 0 0 1-18-103.7c.5-20.7 7.5-54.7 19-81 17-36.3 44.5-68.1 77.8-90a168.3 168.3 0 0 1 52.6-25C213.4-2.4 222.2 0 268.1 8.5 315 17.3 357 48.8 386 87.5a222.6 222.6 0 0 1 38.6 83.5c3.3 15.2 4.5 28.6 4.5 49.5 0 30-2.6 48-10.2 71-16.8 51-53.7 95-102 121.8a229.9 229.9 0 0 1-70 23.3c-43.2 8.4-84.2-2.2-124.2-19.6zm47.1-110.2 45.3-45.3 45.3 45.3C285 331.6 306.2 352 307 352c.9 0 9.5-8 19.3-17.8 17.6-17.7 17.7-17.8 17.7-22.3v-4.4L256.5 220l87.5-87.5v-10l-17.2-17.2A308 308 0 0 0 308 87.5c-1-.4-16.3 14.3-47.2 45.2L215 178.5l-45.9-45.9c-40-40-46-45.7-47.7-44.8-1 .6-9.4 8.7-18.7 18L86 122.5v9.9l87.5 87.5L86 307.5v4.4c0 4.5.1 4.6 17.7 22.3A172 172 0 0 0 123 352c.8 0 21.9-20.4 46.7-45.2z"/></svg>