<svg xmlns="http://www.w3.org/2000/svg" width="433" height="445"><path fill="#6be578" d="M196 434.4c-30.43-3.677-52.731-11.511-78-22.962-21.642-9.808-46.819-32.294-61.118-47.519-16.486-17.553-27.375-34.464-35.935-53.844-6.035-13.663-10.38-28.731-17.038-45.34-2.255-5.624-3.801-52.818-1.376-71.323 10.284-78.448 63.62-147.85 134.47-174.96 18.196-8.434 37.826-12.12 57.72-13.895 2.321-.908 40.24-.908 42.561 0 20.14.94 39.22 6.673 57.72 13.869 65.192 24.942 117.6 86.68 131.1 154.46 3.28 16.461 6.801 42.089 4.805 70.577-.467 6.67-6.268 70.831-59.339 125.4-33.094 34.03-74.406 55.678-121.57 63.703-9.134 1.554-45.964 2.805-54 1.834zm70.258-190.15C341.44 169.048 351 159.143 351 156.444c-5.758-12.702-35.304-40.43-36.992-40.43-.832 0-31.212 29.812-67.511 66.25l-66.392 67.518c.628-.876-46.905-48.251-49.205-49.041-1.114-.383-6.879 4.808-19 17.112l-17.4 17.661-.5 4.94c0 2.688 5.094 8.146 42.746 45.805 23.51 23.515 43.201 42.754 43.758 42.754s39.146-38.144 85.754-84.764z"/></svg>