<svg xmlns="http://www.w3.org/2000/svg" viewBox="0 0 88.5 88.5">
  <rect x="9" y="52" width="70" rx="5" height="21" fill="#fff"/>
  <path d="M80 53l-1-1-7-7c-1-1-4-4-7-4H22c-3 0-6 3-7 4l-6 7c-2 1-3 4-3 7v7c0 5 4 10 9 10h58c5 0 9-5 9-10v-7l-2-6zm-3 13c0 3-2 5-4 5H15c-2 0-5-2-5-5v-7c0-3 3-5 5-5h58c2 0 4 2 4 5v7z"/>
  <circle cx="18.3" cy="62.6" r="3.2"/>
  <circle cx="27.9" cy="62.6" r="3.2"/>
  <circle cx="37.4" cy="62.6" r="3.2"/>
  <path d="M28 38l2-2-2-22-2-2c-2 0-3 1-3 3l2 21 3 2zm31 0c2 0 3-1 3-2l2-21a2 2 0 00-5-1l-2 22 2 2zm11 22H60a2 2 0 100 5h10a2 2 0 100-5z"/>
</svg>
