<?xml version="1.0" encoding="iso-8859-1"?>
<!-- Generator: Adobe Illustrator 19.0.0, SVG Export Plug-In . SVG Version: 6.00 Build 0)  -->
<svg version="1.1" id="Capa_1" xmlns="http://www.w3.org/2000/svg" xmlns:xlink="http://www.w3.org/1999/xlink" x="0px" y="0px"
	 viewBox="0 0 512 512" style="enable-background:new 0 0 512 512;" xml:space="preserve">
<g>
	<g>
		<path d="M196.275,290.129H25.591C11.477,290.129,0,301.615,0,315.721v119.484c0,14.106,11.477,25.591,25.591,25.591h170.684
			c14.114,0,25.591-11.486,25.591-25.591V315.721C221.867,301.615,210.389,290.129,196.275,290.129z M204.8,435.204
			c0,4.702-3.823,8.525-8.525,8.525H25.591c-4.702,0-8.525-3.823-8.525-8.525V315.721c0-4.702,3.823-8.525,8.525-8.525h170.684
			c4.702,0,8.525,3.823,8.525,8.525V435.204z"/>
	</g>
</g>
<g>
	<g>
		<path d="M213.333,409.596H8.533c-4.71,0-8.533,3.814-8.533,8.533v17.075c0,14.106,11.477,25.591,25.591,25.591h170.684
			c14.114,0,25.591-11.486,25.591-25.591v-17.075C221.867,413.41,218.044,409.596,213.333,409.596z M204.8,435.204
			c0,4.702-3.823,8.525-8.525,8.525H25.591c-4.702,0-8.525-3.823-8.525-8.525v-8.542H204.8V435.204z"/>
	</g>
</g>
<g>
	<g>
		<path d="M136.533,443.729h-51.2c-4.71,0-8.533,3.814-8.533,8.533v51.2c0,4.719,3.823,8.533,8.533,8.533h51.2
			c4.71,0,8.533-3.814,8.533-8.533v-51.2C145.067,447.543,141.244,443.729,136.533,443.729z M128,494.929H93.867v-34.133H128
			V494.929z"/>
	</g>
</g>
<g>
	<g>
		<path d="M162.133,494.929h-102.4c-4.71,0-8.533,3.814-8.533,8.533c0,4.719,3.823,8.533,8.533,8.533h102.4
			c4.71,0,8.533-3.814,8.533-8.533C170.667,498.743,166.844,494.929,162.133,494.929z"/>
	</g>
</g>
<g>
	<g>
		<path d="M486.409,290.129H315.725c-14.114,0-25.591,11.486-25.591,25.591v119.484c0,14.106,11.477,25.591,25.591,25.591h170.684
			c14.114,0,25.591-11.486,25.591-25.591V315.721C512,301.615,500.523,290.129,486.409,290.129z M494.933,435.204
			c0,4.702-3.823,8.525-8.525,8.525H315.725c-4.702,0-8.525-3.823-8.525-8.525V315.721c0-4.702,3.823-8.525,8.525-8.525h170.684
			c4.702,0,8.525,3.823,8.525,8.525V435.204z"/>
	</g>
</g>
<g>
	<g>
		<path d="M503.467,409.596h-204.8c-4.71,0-8.533,3.814-8.533,8.533v17.075c0,14.106,11.477,25.591,25.591,25.591h170.684
			c14.114,0,25.591-11.486,25.591-25.591v-17.075C512,413.41,508.177,409.596,503.467,409.596z M494.933,435.204
			c0,4.702-3.823,8.525-8.525,8.525H315.725c-4.702,0-8.525-3.823-8.525-8.525v-8.542h187.733V435.204z"/>
	</g>
</g>
<g>
	<g>
		<path d="M426.667,443.729h-51.2c-4.71,0-8.533,3.814-8.533,8.533v51.2c0,4.719,3.823,8.533,8.533,8.533h51.2
			c4.71,0,8.533-3.814,8.533-8.533v-51.2C435.2,447.543,431.377,443.729,426.667,443.729z M418.133,494.929H384v-34.133h34.133
			V494.929z"/>
	</g>
</g>
<g>
	<g>
		<path d="M452.267,494.929h-102.4c-4.71,0-8.533,3.814-8.533,8.533c0,4.719,3.823,8.533,8.533,8.533h102.4
			c4.71,0,8.533-3.814,8.533-8.533C460.8,498.743,456.977,494.929,452.267,494.929z"/>
	</g>
</g>
<g>
	<g>
		<path d="M341.342,0.004H170.658c-14.114,0-25.591,11.486-25.591,25.591v119.475c0,14.106,11.477,25.591,25.591,25.591h170.684
			c14.114,0,25.591-11.486,25.591-25.591V25.596C366.933,11.49,355.456,0.004,341.342,0.004z M349.867,145.071
			c0,4.702-3.823,8.525-8.525,8.525H170.658c-4.702,0-8.525-3.823-8.525-8.525V25.596c0-4.702,3.823-8.525,8.525-8.525h170.684
			c4.702,0,8.525,3.823,8.525,8.525V145.071z"/>
	</g>
</g>
<g>
	<g>
		<path d="M358.4,119.462H153.6c-4.71,0-8.533,3.814-8.533,8.533v17.075c0,14.106,11.477,25.591,25.591,25.591h170.684
			c14.114,0,25.591-11.486,25.591-25.591v-17.075C366.933,123.277,363.11,119.462,358.4,119.462z M349.867,145.071
			c0,4.702-3.823,8.525-8.525,8.525H170.658c-4.702,0-8.525-3.823-8.525-8.525v-8.542h187.733V145.071z"/>
	</g>
</g>
<g>
	<g>
		<path d="M281.6,153.596h-51.2c-4.71,0-8.533,3.814-8.533,8.533v51.2c0,4.719,3.823,8.533,8.533,8.533h51.2
			c4.71,0,8.533-3.814,8.533-8.533v-51.2C290.133,157.41,286.31,153.596,281.6,153.596z M273.067,204.796h-34.133v-34.133h34.133
			V204.796z"/>
	</g>
</g>
<g>
	<g>
		<path d="M307.2,204.796H204.8c-4.71,0-8.533,3.814-8.533,8.533c0,4.719,3.823,8.533,8.533,8.533h102.4
			c4.71,0,8.533-3.814,8.533-8.533C315.733,208.61,311.91,204.796,307.2,204.796z"/>
	</g>
</g>
<g>
	<g>
		<path d="M401.067,255.996H110.933c-4.71,0-8.533,3.814-8.533,8.533v34.133c0,4.719,3.823,8.533,8.533,8.533
			s8.533-3.814,8.533-8.533v-25.6h273.067v25.6c0,4.719,3.823,8.533,8.533,8.533s8.533-3.814,8.533-8.533v-34.133
			C409.6,259.81,405.777,255.996,401.067,255.996z"/>
	</g>
</g>
<g>
	<g>
		<path d="M256,230.396c-4.71,0-8.533,3.814-8.533,8.533v25.6c0,4.719,3.823,8.533,8.533,8.533s8.533-3.814,8.533-8.533v-25.6
			C264.533,234.21,260.71,230.396,256,230.396z"/>
	</g>
</g>
<g>
</g>
<g>
</g>
<g>
</g>
<g>
</g>
<g>
</g>
<g>
</g>
<g>
</g>
<g>
</g>
<g>
</g>
<g>
</g>
<g>
</g>
<g>
</g>
<g>
</g>
<g>
</g>
<g>
</g>
</svg>
