<?xml version="1.0" encoding="utf-8"?>
<!-- Generator: Adobe Illustrator 24.0.1, SVG Export Plug-In . SVG Version: 6.00 Build 0)  -->
<svg version="1.1" id="Capa_1" xmlns="http://www.w3.org/2000/svg" xmlns:xlink="http://www.w3.org/1999/xlink" x="0px" y="0px"
	 viewBox="0 0 479.4 479.4" style="enable-background:new 0 0 479.4 479.4;" xml:space="preserve">
<style type="text/css">
	.st0{fill:#5CB85C;}
</style>
<g>
	<g>
		<path class="st0" d="M239.4,0c-8.6,0-17.2,0.5-25.7,1.4c-7.8,0.8-15.6,2.1-23.2,3.7c-1.5,0.3-3,0.6-4.4,1
			c-45,10.2-86,33.2-118.3,66.2c-3,3.1-5.9,6.2-8.8,9.5C-28,181.7-17.6,333.3,82.4,420.4c95.7,83.3,239.7,77.8,328.7-12.7
			c3-3.1,5.9-6.2,8.8-9.5c38.4-43.8,59.6-100,59.6-158.2C479.4,107.5,372,0,239.4,0z M78.5,84.3c1.3-1.3,2.6-2.6,3.9-3.8
			c1.5-1.5,3-2.9,4.5-4.4c1.3-1.2,2.7-2.4,4.1-3.7c1.5-1.4,3.1-2.7,4.7-4.1c1.4-1.2,2.8-2.3,4.2-3.4c1.6-1.3,3.2-2.6,4.8-3.8
			c1.5-1.1,2.9-2.2,4.4-3.2c1.7-1.2,3.3-2.4,5-3.5c1.5-1,3-2,4.6-3c1.7-1.1,3.4-2.2,5.2-3.2c1.6-0.9,3.1-1.9,4.7-2.8
			c1.8-1,3.5-2,5.3-3c1.6-0.9,3.2-1.7,4.8-2.5c1.8-0.9,3.7-1.8,5.5-2.7c1.6-0.8,3.3-1.5,4.9-2.2c1.9-0.8,3.8-1.6,5.7-2.4
			c1.7-0.7,3.3-1.3,5-2c1.9-0.7,3.9-1.4,5.9-2.1c1.7-0.6,3.3-1.2,5-1.7c2-0.6,4-1.2,6-1.8c1.7-0.5,3.4-1,5.1-1.4
			c0.6-0.2,1.3-0.3,1.9-0.5c-23.7,23-41.3,51.5-51.1,83c-19-5-37.4-12.1-54.8-21.1C78,84.8,78.3,84.5,78.5,84.3z M67,97.2
			c19.2,10.4,39.6,18.5,60.7,24.2c-10.4,36-15.8,73.2-16.2,110.7H15.6C17.4,182.6,35.4,135.2,67,97.2z M67,382.9
			c-31.6-38-49.6-85.5-51.4-134.8h95.9c0.4,37.5,5.8,74.7,16.2,110.7C106.6,364.3,86.2,372.5,67,382.9z M181.7,456.4
			c-1.6-0.4-3.3-0.9-5-1.4c-2-0.6-4.1-1.2-6.1-1.8c-1.7-0.5-3.4-1.1-5-1.7c-2-0.7-3.9-1.4-5.9-2.1c-1.7-0.6-3.3-1.3-5-2
			c-1.9-0.8-3.8-1.6-5.7-2.4c-1.6-0.7-3.3-1.5-4.9-2.2c-1.9-0.9-3.7-1.8-5.6-2.7c-1.6-0.8-3.2-1.6-4.8-2.5c-1.8-1-3.6-2-5.4-3
			c-1.6-0.9-3.1-1.8-4.7-2.7c-1.8-1.1-3.5-2.1-5.2-3.3c-1.5-1-3-2-4.5-3c-1.7-1.2-3.4-2.4-5.1-3.6c-1.5-1-2.9-2.1-4.4-3.2
			c-1.7-1.2-3.3-2.5-4.9-3.8c-1.4-1.1-2.8-2.2-4.2-3.4c-1.6-1.3-3.1-2.7-4.7-4.1c-1.4-1.2-2.7-2.4-4.1-3.6c-1.5-1.4-3-2.9-4.5-4.4
			c-1.3-1.3-2.6-2.5-3.9-3.8c-0.2-0.2-0.5-0.5-0.7-0.7c17.4-9,35.8-16.1,54.8-21.1c9.9,31.5,27.4,60,51.1,83
			C183,456.7,182.4,456.6,181.7,456.4z M231.4,463.4c-34.2-4.9-64.2-40.6-83.1-93.4c27.3-6.1,55.2-9.4,83.1-9.8L231.4,463.4
			L231.4,463.4z M231.4,344.3c-29.7,0.4-59.2,3.9-88.1,10.5c-10-34.7-15.3-70.6-15.8-106.7h103.9L231.4,344.3L231.4,344.3z
			 M231.4,232H127.6c0.4-36.1,5.7-72,15.8-106.7c28.9,6.6,58.5,10.1,88.1,10.5V232z M231.4,119.8c-28-0.4-55.8-3.7-83.1-9.8
			c18.9-52.8,48.9-88.5,83.1-93.4L231.4,119.8L231.4,119.8z M411.9,97.2c31.6,38,49.6,85.5,51.4,134.8h-95.9
			c-0.4-37.5-5.8-74.7-16.2-110.7C372.3,115.7,392.7,107.6,411.9,97.2z M297.1,23.6c1.7,0.4,3.4,0.9,5,1.4c2,0.6,4.1,1.2,6.1,1.8
			c1.7,0.5,3.4,1.1,5,1.7c2,0.7,3.9,1.4,5.9,2.1c1.7,0.6,3.3,1.3,5,2c1.9,0.8,3.8,1.6,5.7,2.4c1.6,0.7,3.3,1.5,4.9,2.2
			c1.9,0.9,3.7,1.8,5.6,2.7c1.6,0.8,3.2,1.6,4.8,2.5c1.8,1,3.6,2,5.4,3c1.6,0.9,3.1,1.8,4.7,2.7c1.8,1.1,3.5,2.1,5.2,3.3
			c1.5,1,3,2,4.5,3c1.7,1.2,3.4,2.3,5.1,3.5c1.5,1,2.9,2.1,4.4,3.2c1.6,1.2,3.3,2.5,4.9,3.8c1.4,1.1,2.8,2.2,4.2,3.4
			c1.6,1.3,3.1,2.7,4.7,4.1c1.4,1.2,2.7,2.4,4.1,3.6c1.5,1.4,3,2.9,4.5,4.4c1.3,1.3,2.6,2.5,3.9,3.8c0.2,0.2,0.5,0.5,0.7,0.7
			c-17.4,9-35.8,16.1-54.8,21.1c-9.9-31.5-27.5-60-51.2-83C295.8,23.3,296.5,23.4,297.1,23.6z M247.4,16.7
			c34.2,4.9,64.2,40.6,83.1,93.4c-27.3,6.1-55.2,9.4-83.1,9.8L247.4,16.7L247.4,16.7z M247.4,135.8c29.7-0.4,59.2-3.9,88.1-10.5
			c10,34.7,15.3,70.6,15.8,106.7H247.4V135.8z M247.4,248h103.9c-0.4,36.1-5.7,72-15.8,106.7l0,0c-28.9-6.6-58.5-10.1-88.1-10.5V248
			z M247.4,463.4V360.3c28,0.4,55.8,3.7,83.1,9.8C311.7,422.8,281.7,458.5,247.4,463.4z M400.4,395.7c-1.3,1.3-2.6,2.6-3.9,3.8
			c-1.5,1.5-3,2.9-4.5,4.4c-1.3,1.2-2.7,2.4-4.1,3.6c-1.6,1.4-3.1,2.8-4.7,4.1c-1.4,1.2-2.8,2.3-4.2,3.4c-1.6,1.3-3.2,2.6-4.8,3.8
			c-1.5,1.1-2.9,2.2-4.4,3.2c-1.7,1.2-3.3,2.4-5,3.5c-1.5,1-3,2-4.6,3c-1.7,1.1-3.4,2.2-5.2,3.2c-1.6,0.9-3.1,1.8-4.7,2.8
			c-1.8,1-3.6,2-5.3,3c-1.6,0.9-3.2,1.7-4.8,2.5c-1.8,0.9-3.7,1.8-5.5,2.7c-1.6,0.8-3.3,1.5-4.9,2.2c-1.9,0.8-3.8,1.6-5.7,2.4
			c-1.7,0.7-3.3,1.3-5,2c-2,0.7-3.9,1.4-5.9,2.1c-1.7,0.6-3.3,1.2-5,1.7c-2,0.6-4,1.2-6,1.8c-1.7,0.5-3.4,1-5,1.4
			c-0.6,0.2-1.3,0.3-1.9,0.5c23.7-23,41.3-51.5,51.1-83c19,5,37.4,12.1,54.8,21.1C400.9,395.2,400.6,395.5,400.4,395.7z
			 M411.9,382.9c-19.2-10.4-39.6-18.5-60.7-24.2c10.4-36,15.8-73.2,16.2-110.7h95.9C461.5,297.4,443.5,344.8,411.9,382.9z"/>
	</g>
</g>
</svg>
