<svg id="Capa_1" enable-background="new 0 0 512 512" height="512" viewBox="0 0 512 512" width="512" xmlns="http://www.w3.org/2000/svg"><g><path d="m484.446 333.955h-31.01l-8.34-252.834c-.381-11.538-9.721-20.575-21.264-20.575-11.544 0-20.885 9.038-21.265 20.575l-8.34 252.834h-54.384c-4.151 0-7.515 3.365-7.515 7.515s3.364 7.515 7.515 7.515h144.602c6.906 0 12.524 5.618 12.524 12.524v62.391c0 6.906-5.618 12.525-12.524 12.525h-315.47c-4.151 0-7.515 3.364-7.515 7.515s3.364 7.515 7.515 7.515h315.472c15.193 0 27.554-12.361 27.554-27.554v-62.391c-.001-15.194-12.362-27.555-27.555-27.555zm-66.857-252.339c.112-3.387 2.854-6.041 6.244-6.041 3.389 0 6.131 2.654 6.243 6.041l8.323 252.339h-29.133z"/><path d="m138.916 436.425h-111.362c-6.906 0-12.524-5.618-12.524-12.525v-62.391c0-6.906 5.618-12.524 12.524-12.524h282.232c4.151 0 7.515-3.364 7.515-7.515 0-4.15-3.364-7.515-7.515-7.515h-192.008l-8.34-252.834c-.381-11.538-9.721-20.575-21.264-20.575-11.544 0-20.885 9.038-21.265 20.575l-3.795 115.049c-.137 4.148 3.115 7.621 7.263 7.758 4.126.106 7.621-3.115 7.758-7.263l3.795-115.049c.112-3.387 2.854-6.041 6.244-6.041 3.389 0 6.131 2.654 6.243 6.041l8.323 252.339h-29.133l3.537-107.254c.137-4.148-3.115-7.621-7.263-7.758-4.143-.131-7.622 3.115-7.758 7.263l-3.554 107.749h-31.015c-15.193 0-27.554 12.361-27.554 27.554v62.391c0 15.193 12.361 27.554 27.554 27.554h111.362c4.151 0 7.515-3.365 7.515-7.515s-3.365-7.514-7.515-7.514z"/><path d="m58.241 401.189c-4.151 0-7.515 3.365-7.515 7.515s3.364 7.515 7.515 7.515h24.006c4.151 0 7.515-3.365 7.515-7.515s-3.364-7.515-7.515-7.515z"/><path d="m138.916 401.189h-24.007c-4.151 0-7.515 3.365-7.515 7.515s3.364 7.515 7.515 7.515h24.007c4.151 0 7.515-3.365 7.515-7.515-.001-4.151-3.365-7.515-7.515-7.515z"/><path d="m171.578 401.189c-4.151 0-7.515 3.365-7.515 7.515s3.364 7.515 7.515 7.515h24.006c4.151 0 7.515-3.365 7.515-7.515s-3.364-7.515-7.515-7.515z"/><path d="m228.248 401.189c-4.151 0-7.515 3.365-7.515 7.515s3.364 7.515 7.515 7.515h24.006c4.151 0 7.515-3.365 7.515-7.515s-3.364-7.515-7.515-7.515z"/><path d="m398.135 416.218c4.151 0 7.515-3.365 7.515-7.515s-3.364-7.515-7.515-7.515h-24.006c-4.151 0-7.515 3.365-7.515 7.515s3.364 7.515 7.515 7.515z"/><path d="m454.032 416.218c4.151 0 7.515-3.365 7.515-7.515s-3.364-7.515-7.515-7.515h-24.006c-4.151 0-7.515 3.365-7.515 7.515s3.364 7.515 7.515 7.515z"/><path d="m164.005 184.136c50.728-50.73 133.271-50.728 183.999 0 1.468 1.467 3.391 2.201 5.314 2.201s3.846-.734 5.314-2.201c2.934-2.934 2.934-7.693 0-10.627-56.589-56.589-148.666-56.59-205.255 0-2.934 2.934-2.934 7.693 0 10.627 2.935 2.935 7.693 2.935 10.628 0z"/><path d="m330.129 212.639c2.934-2.935 2.934-7.693 0-10.627-40.831-40.83-107.242-40.871-148.125-.125-2.328 2.218-3.047 5.775-1.534 8.801 1.316 2.633 3.971 4.156 6.727 4.156 1.129 0 2.276-.255 3.355-.795.75-.375 1.419-.865 1.989-1.444 35.017-34.98 91.959-34.966 126.96.034 2.935 2.934 7.693 2.934 10.628 0z"/><path d="m296.847 242.807c1.923 0 3.846-.734 5.314-2.201 2.934-2.934 2.934-7.693 0-10.627-12.329-12.329-28.721-19.119-46.158-19.119-17.435 0-33.828 6.79-46.158 19.119-2.935 2.934-2.935 7.693 0 10.627 2.934 2.935 7.692 2.935 10.628 0 9.49-9.49 22.109-14.717 35.529-14.717 13.422 0 26.039 5.227 35.529 14.717 1.47 1.468 3.393 2.201 5.316 2.201z"/><path d="m234.347 254.425c-1.422 1.407-2.23 3.33-2.23 5.343-.093 6.659 8.347 10.031 12.872 5.27 2.948-2.927 6.858-4.539 11.015-4.539 4.177 0 8.104 1.627 11.057 4.58 7.28 6.791 17.417-3.354 10.628-10.627-11.949-11.949-31.383-11.957-43.342-.027z"/></g></svg>