<?xml version="1.0" encoding="iso-8859-1"?>
<!-- Generator: Adobe Illustrator 19.0.0, SVG Export Plug-In . SVG Version: 6.00 Build 0)  -->
<svg version="1.1" id="Capa_1" xmlns="http://www.w3.org/2000/svg" xmlns:xlink="http://www.w3.org/1999/xlink" x="0px" y="0px"
	 viewBox="0 0 490.584 490.584" style="enable-background:new 0 0 490.584 490.584;" xml:space="preserve">
<g>
	<g>
		<path d="M0,127.994l10.448,12.12c135.299-115.396,334.389-115.396,469.688,0l10.448-12.12C349.265,7.465,141.319,7.465,0,127.994z
			"/>
	</g>
</g>
<g>
	<g>
		<path d="M58.608,226.322l11.312,11.312c96.911-96.697,253.808-96.697,350.72,0l11.312-11.312
			C328.793,123.379,161.768,123.379,58.608,226.322z"/>
	</g>
</g>
<g>
	<g>
		<path d="M137.8,305.514l11.312,11.312c53.148-53.025,139.188-53.025,192.336,0l11.312-11.312
			C293.36,246.252,197.2,246.252,137.8,305.514z"/>
	</g>
</g>
<g>
	<g>
		<path d="M273.568,384.706c-15.636-15.591-40.94-15.591-56.576,0c-15.619,15.623-15.616,40.95,0.007,56.569
			c15.623,15.619,40.95,15.616,56.569-0.007C289.184,425.647,289.184,400.326,273.568,384.706z M262.256,429.97
			c-9.376,9.37-24.572,9.365-33.941-0.011c-9.37-9.376-9.365-24.572,0.011-33.941c9.371-9.365,24.559-9.365,33.93,0
			C271.609,405.403,271.609,420.585,262.256,429.97z"/>
	</g>
</g>
<g>
</g>
<g>
</g>
<g>
</g>
<g>
</g>
<g>
</g>
<g>
</g>
<g>
</g>
<g>
</g>
<g>
</g>
<g>
</g>
<g>
</g>
<g>
</g>
<g>
</g>
<g>
</g>
<g>
</g>
</svg>
