<!-- Generated by IcoMoon.io -->
<svg version="1.1" xmlns="http://www.w3.org/2000/svg" width="768" height="768" viewBox="0 0 768 768">
<title></title>
<g id="icomoon-ignore">
</g>
<path d="M154.573 302.973c22.405-63.323 68.309-111.537 124.518-138.38s122.572-32.193 185.864-9.789c36.054 12.768 67.062 33.075 90.683 57.151l86.032 80.863h-105.67c-16.78 0-30.4 13.619-30.4 30.4s13.619 30.4 30.4 30.4h182.308c0.152 0 0.274 0 0.425 0 4.165-0.031 8.147-0.943 11.734-2.493 3.617-1.55 6.962-3.83 9.85-6.84 0.364-0.395 0.73-0.79 1.094-1.186 2.28-2.645 4.043-5.564 5.259-8.664s1.946-6.415 2.098-9.91c0.031-0.456 0.031-0.881 0.031-1.307v-182.399c0-16.781-13.619-30.4-30.4-30.4s-30.4 13.619-30.4 30.4v112.145l-88.95-83.569c-30.156-30.704-69.038-56.027-113.786-71.865-79.13-27.998-162.183-21.25-232.345 12.221s-127.649 93.814-155.647 172.945c-5.624 15.808 2.675 33.166 18.483 38.79s33.196-2.675 38.79-18.514zM80.001 515.102l89.831 84.42c58.641 58.702 136.495 88.403 214.258 88.433s155.617-29.64 214.987-88.98c33.561-33.561 57.79-73.172 71.774-113.848 5.472-15.868-2.979-33.166-18.878-38.638s-33.166 2.979-38.638 18.878c-10.975 31.92-30.187 63.566-57.242 90.622-47.515 47.484-109.713 71.196-171.971 71.196s-124.457-23.773-172.64-71.926l-85.12-80.042h105.64c16.781 0 30.4-13.619 30.4-30.4s-13.619-30.4-30.4-30.4h-182.308c-0.151 0-0.274 0-0.425 0-4.165 0.031-8.147 0.943-11.734 2.493-3.617 1.55-6.961 3.83-9.85 6.84-0.364 0.395-0.73 0.791-1.094 1.186-2.28 2.644-4.043 5.563-5.259 8.664s-1.945 6.415-2.098 9.91c-0.031 0.456-0.031 0.881-0.031 1.307v182.399c0 16.78 13.619 30.4 30.4 30.4s30.4-13.619 30.4-30.4z"></path>
</svg>
